<svg xmlns="http://www.w3.org/2000/svg" width="369" height="170" viewBox="0 0 369 170">
  <g fill="none">
    <rect width="126.82" height="51.13" x="187.08" y="58.84" fill="#24397D"/>
    <rect width="162.43" height="51.13" x="187.08" y="1.29" fill="#24397D"/>
    <rect width="181.1" height="51.13" x="187.08" y="117.3" fill="#24397D"/>
    <path fill="#FFF" d="M211.51,25.7 C215.81,26.34 217.86,29.12 217.86,32.54 C217.86,37.22 214.69,40.35 207.66,40.35 L195.11,40.35 L195.11,11.59 L207.75,11.59 C213.56,11.59 216.64,14.33 216.64,18.82 C216.808327,22.0082639 214.632766,24.8453991 211.51,25.51 L211.51,25.7 Z M206.09,23.41 C208.09,23.41 209.36,22.68 209.36,20.67 C209.36,18.66 208.14,17.79 205.95,17.79 L202.43,17.79 L202.43,23.41 L206.09,23.41 Z M202.43,34.15 L207,34.15 C209.15,34.15 210.42,33.56 210.42,31.36 C210.42,29.56 209.15,28.68 207,28.68 L202.41,28.68 L202.43,34.15 Z"/>
    <polygon fill="#FFF" points="243.53 40.35 223.71 40.35 223.71 11.59 243.53 11.59 243.53 17.94 231 17.94 231 22.72 242 22.72 242 28.83 231 28.83 231 34 243.5 34"/>
    <path fill="#FFF" d="M265.54,40.35 C264.659283,39.5434937 264.089513,38.453499 263.93,37.27 L262.93,33.27 C262.39,31.12 261.51,30.78 259.51,30.78 L257,30.78 L257,40.4 L249.68,40.4 L249.68,11.59 L261.44,11.59 C267.84,11.59 272.13,13.79 272.13,20.59 C272.13,25.03 269.69,27.37 265.93,27.81 L265.93,28 C268.57,28.44 269.93,29.51 270.62,32 L272,37.22 C272.268384,38.3911852 272.840982,39.4708442 273.66,40.35 L265.54,40.35 Z M257,24.63 L260.9,24.63 C263.25,24.63 264.66,23.8 264.66,21.26 C264.66,19.01 263.34,17.79 260.95,17.79 L257,17.79 L257,24.63 Z"/>
    <polygon fill="#FFF" points="285.89 11.59 285.89 34 296.63 34 296.63 40.35 278.57 40.35 278.57 11.59"/>
    <polygon fill="#FFF" points="309.07 11.59 309.07 40.35 301.75 40.35 301.75 11.59"/>
    <path fill="#FFF" d="M332.94 24.63C333.758041 25.685344 334.477713 26.8133882 335.09 28L335.29 28C335.29 28 335.14 25.75 335.14 22.09L335.14 11.59 342.46 11.59 342.46 40.35 335.92 40.35 326.16 27.61C325.186396 26.4115 324.33547 25.1183599 323.62 23.75L323.42 23.75C323.651679 25.8717753 323.751871 28.0058515 323.72 30.14L323.72 40.35 316.39 40.35 316.39 11.59 323.18 11.59 332.94 24.63zM193.4 84.56C193.4 74.9 198.58 69.56 207.27 69.56 215.96 69.56 221.13 74.88 221.13 84.56 221.13 94.24 216 99.5 207.27 99.5 198.54 99.5 193.4 94.18 193.4 84.56zM201.02 84.66C201.02 89.93 203.02 93.15 207.27 93.15 211.52 93.15 213.51 89.93 213.51 84.66 213.51 79.39 211.51 76.12 207.27 76.12 203.03 76.12 201 79.39 201 84.66L201.02 84.66zM226.74 98.91L226.74 70.16 237.53 70.16C244.99 70.16 248.07 73.58 248.07 80.16 248.07 86.41 244.36 90.07 238.21 90.07L234.06 90.07 234.06 98.9 226.74 98.91zM234.06 84.08L237.23 84.08C239.72 84.08 240.84 82.9 240.84 80.41 240.84 77.58 239.77 76.31 237.28 76.31L234.06 76.31 234.06 84.08z"/>
    <polygon fill="#FFF" points="273 98.91 253.19 98.91 253.19 70.16 273 70.16 273 76.51 260.5 76.51 260.5 81.29 271.5 81.29 271.5 87.39 260.5 87.39 260.5 92.57 273 92.57"/>
    <path fill="#FFF" d="M295.66 83.2C296.476063 84.2511596 297.192488 85.3760137 297.8 86.56L298 86.56C298 86.56 297.85 84.32 297.85 80.66L297.85 70.16 305.17 70.16 305.17 98.91 298.63 98.91 288.87 86.17C287.89559 84.9756628 287.044585 83.6857539 286.33 82.32L286.14 82.32C286.364004 84.4423113 286.460844 86.5761228 286.43 88.71L286.43 98.91 279.11 98.91 279.11 70.16 285.89 70.16 295.66 83.2zM199.07 148C199.486729 150.540488 201.665783 152.416076 204.24 152.45 206.14 152.45 207.61 151.71 207.61 150.05 207.61 148.39 206.61 147.66 203.21 146.64 195.89 144.39 193.55 141.64 193.55 136.92 193.55 130.24 198.77 128.09 203.99 128.09 210.1 128.09 214.64 130.09 215.27 135.51L208 137.47C207.845728 135.517528 206.143285 134.056375 204.19 134.2 202.68 134.2 201.36 134.79 201.36 136.4 201.36 138.01 202.68 138.84 205.85 139.71 212.39 141.71 215.27 143.82 215.27 149.38 215.27 155.82 210.05 158.07 203.7 158.07 198.09 158.07 194.14 156.31 192.48 151.19L199.07 148zM219.17 143.13C219.17 133.47 224.35 128.13 233.04 128.13 241.73 128.13 246.9 133.45 246.9 143.13 246.9 152.81 241.72 158.07 233.04 158.07 224.36 158.07 219.17 152.75 219.17 143.13zM226.79 143.23C226.79 148.5 228.79 151.72 233.04 151.72 237.29 151.72 239.28 148.5 239.28 143.23 239.28 137.96 237.28 134.69 233.04 134.69 228.8 134.69 226.79 138 226.79 143.23zM276 128.73L276 147.82C276 155.63 270.53 158.07 263.89 158.07 257.25 158.07 251.74 155.63 251.74 147.82L251.74 128.73 259.06 128.73 259.06 145.73C259.06 149.44 259.69 151.98 263.89 151.98 268.09 151.98 268.67 149.44 268.67 145.63L268.67 128.73 276 128.73zM298.54 157.48C297.658321 156.677045 297.085236 155.591013 296.92 154.41L295.92 150.41C295.38 148.26 294.5 147.92 292.5 147.92L289.96 147.92 289.96 157.53 282.64 157.53 282.64 128.73 294.41 128.73C300.8 128.73 305.1 130.93 305.1 137.73 305.1 142.18 302.65 144.52 298.9 144.96L298.9 145.1C301.53 145.54 302.9 146.62 303.58 149.1L305.05 154.37C305.312264 155.540514 305.885791 156.618469 306.71 157.49L298.54 157.48zM289.94 141.77L293.85 141.77C296.19 141.77 297.61 140.94 297.61 138.4 297.61 136.15 296.29 134.93 293.9 134.93L289.9 134.93 289.94 141.77zM335.38 151.28C332.75 155.82 329.38 158.07 322.74 158.07 314.83 158.07 309.37 152.6 309.37 143.07 309.37 133.54 314.59 128.19 323.62 128.19 329.77 128.19 333.53 130.97 335.62 135.61L328.5 139C327.72 136.32 326.5 134.61 323.43 134.61 319.37 134.61 316.88 137.83 316.88 143.2 316.88 148.57 319.13 151.55 323.62 151.55 326.088113 151.522523 328.257048 149.906929 328.99 147.55L335.38 151.28z"/>
    <polygon fill="#FFF" points="359.83 157.48 340 157.48 340 128.73 359.81 128.73 359.81 135.08 347.34 135.08 347.34 139.86 358.34 139.86 358.34 146 347.34 146 347.34 151.18 359.83 151.18"/>
    <circle cx="84.41" cy="85.11" r="84.28" fill="#24397D"/>
    <path fill="#C7CDE2" d="M53.21 117.06032C51.3009163 117.077981 49.4628494 116.336999 48.1 115L23.37 90.22C20.5563379 87.3982064 20.5563379 82.8317936 23.37 80.01L48.1 55.28C49.9169884 53.4224534 52.5919861 52.6845517 55.1043503 53.3478406 57.6167146 54.0111296 59.5788704 55.9732854 60.2421594 58.4856497 60.9054483 60.9980139 60.1675466 63.6730116 58.31 65.49L38.68 85.12 58.31 104.74C60.3704333 106.804716 60.9860741 109.906419 59.870397 112.601544 58.75472 115.29667 56.1269195 117.055714 53.21 117.06032L53.21 117.06032zM114.89 117.06C111.96026 117.043898 109.330715 115.258931 108.234308 112.542035 107.137901 109.825138 107.792035 106.715038 109.89 104.67L130 85.12 109.87 65.56C107.153931 62.756809 107.157441 58.3025466 109.877924 55.5036396 112.598408 52.7047325 117.050772 52.5746708 119.93 55.21L145.39 79.94C146.789723 81.2978818 147.579694 83.1648545 147.579694 85.115 147.579694 87.0651455 146.789723 88.9321182 145.39 90.29L119.92 115C118.577477 116.318391 116.771626 117.057964 114.89 117.06z"/>
    <path fill="#FFF" d="M72.92,129.820005 C72.2441974,129.820005 71.5714087,129.729935 70.92,129.55 C67.0808739,128.467725 64.8435168,124.480754 65.92,120.64 L87.08,45.64 C87.7838132,43.1534315 89.7607319,41.2312273 92.26607,40.5974632 C94.7714081,39.9636991 97.4245452,40.7146588 99.22607,42.5674632 C101.027595,44.4202676 101.703813,47.0934315 101,49.58 L79.84,124.58 C78.957972,127.67304 76.136328,129.809661 72.92,129.820005 L72.92,129.820005 Z"/>
  </g>
</svg>
