<svg id="Ebene_1" data-name="Ebene 1" xmlns="http://www.w3.org/2000/svg" width="550mm" height="100mm" viewBox="0 0 1559.06 283.46"><defs><style>.cls-1{fill:#e40422;}</style></defs><path d="M0,0V283.46H1559.06V0ZM708.66,277.8H5.67V5.67h703Zm566.93,0H714.33V5.67h561.26Zm277.8,0H1281.26V5.67h272.13Z" transform="translate(0)"/><path class="cls-1" d="M1194.21,96v62.44c0,.81-.54,1.08-.94.27l-35.63-63.25a2.41,2.41,0,0,0-2-1.08h-15.25a1.56,1.56,0,0,0-1.62,1.62v91.16a1.56,1.56,0,0,0,1.62,1.62h13.22a1.57,1.57,0,0,0,1.63-1.62v-62.3c0-.81.54-1.08.94-.27l35.63,63.11a2.41,2.41,0,0,0,2,1.08h15.25a1.57,1.57,0,0,0,1.62-1.62V96a1.57,1.57,0,0,0-1.62-1.62h-13.23a1.57,1.57,0,0,0-1.62,1.62m-95.36,92.78h13.37a1.56,1.56,0,0,0,1.61-1.62V96a1.56,1.56,0,0,0-1.61-1.62h-13.37a1.57,1.57,0,0,0-1.62,1.62v91.16a1.57,1.57,0,0,0,1.62,1.62m-53.28-16.45V96a1.57,1.57,0,0,0-1.62-1.62h-13.36A1.56,1.56,0,0,0,1029,96v91.16a1.56,1.56,0,0,0,1.62,1.62h46a1.56,1.56,0,0,0,1.62-1.62V174.76a1.56,1.56,0,0,0-1.62-1.62h-30.23a.77.77,0,0,1-.81-.8M958.27,110h12.29c10.93,0,19.7,5.8,19.7,17.8s-8.77,17.8-19.84,17.8H958.27a.78.78,0,0,1-.8-.81v-34a.71.71,0,0,1,.8-.8m31.32,78.75h17c1.35,0,1.76-.95.95-2l-20.25-27.37a.78.78,0,0,1,.27-1.21c12-4.86,20-15.51,20-30.34,0-21-15.93-33.45-36.17-33.45H942.49A1.56,1.56,0,0,0,940.87,96v91.16a1.56,1.56,0,0,0,1.62,1.62h13.36a1.57,1.57,0,0,0,1.62-1.62V162.09a.77.77,0,0,1,.8-.81h10.26a1.66,1.66,0,0,1,1.08.54l18.09,25.89a2.16,2.16,0,0,0,1.89,1.08m-73.26-80.37V96a1.56,1.56,0,0,0-1.62-1.62H865.58A1.57,1.57,0,0,0,864,96v91.16a1.57,1.57,0,0,0,1.62,1.62h49.13a1.56,1.56,0,0,0,1.62-1.62V174.76a1.56,1.56,0,0,0-1.62-1.62H881.24a.77.77,0,0,1-.81-.8V149.68a.78.78,0,0,1,.81-.81h33.47a1.55,1.55,0,0,0,1.62-1.62V135a1.56,1.56,0,0,0-1.62-1.62H881.24a.71.71,0,0,1-.81-.8V110.84a.77.77,0,0,1,.81-.8h33.47a1.56,1.56,0,0,0,1.62-1.62M811.11,173.14H796.8a.77.77,0,0,1-.81-.8V149.68a.72.72,0,0,1,.81-.81h14.31c8.77,0,13.63,5,13.63,12.14s-4.86,12.13-13.63,12.13M809.76,110c8.5,0,13.22,4.58,13.22,11.59s-4.72,11.73-13.22,11.73h-13a.71.71,0,0,1-.81-.8V110.84a.71.71,0,0,1,.81-.8Zm19.7,29.66a22.57,22.57,0,0,0,10.8-19.82c0-14.43-10-25.49-28.34-25.49H781.15A1.56,1.56,0,0,0,779.53,96v91.16a1.56,1.56,0,0,0,1.62,1.62h32c18.9,0,28.88-11.47,28.88-26.57,0-9.84-4.72-17.26-12.55-21.44-.54-.4-.54-.81,0-1.08" transform="translate(0)"/><path d="M1459,222.16s-5-32.87-7.29-46.73l1-.21a3.05,3.05,0,0,0,2-4.53c-5.61-9.66-7.62-21.69-7.62-33.65a64.34,64.34,0,0,1,3.51-21c.13-.38.27-.75.4-1.13l.28-.81a61.68,61.68,0,0,0,5-18.43,52.39,52.39,0,0,0-4.1-25.28l-.45-.8a6.59,6.59,0,0,0,.86-8c-1.84-3.16-5.6-4.42-8.41-2.8-.29.17-1,.66-1.29.89-.52-.38-.82-.57-.82-.57s-.79-.52-1.47-.87l-.26-.14a22.85,22.85,0,0,0-9.37-1.95,23.76,23.76,0,0,0-4.8.49,23.27,23.27,0,0,0-9.1,4.08,13.57,13.57,0,0,1-2.88.55l-3.8.18c-1.79.07-3.83,0-3.83,0A1.62,1.62,0,0,0,1405,63c0,.08.59,5.3.59,5.32a4.3,4.3,0,0,0,1.79,3.25l.13.09a1.36,1.36,0,0,1,.6.62,5.87,5.87,0,0,0,1.84,2.62c.26.16.67.08.74-.21.73-2.85,2.43.22,5.66-1.53.83-.45,1.27,1.57.93,2.45l-.3.76a5.13,5.13,0,0,1-4,3.18c-1.44.21-2.26.35-2.24.55.17,1.61,0,3,1.62,4a3.79,3.79,0,0,0,.72.31c2.51.66,9.83,3.47.52,14.46a23.43,23.43,0,0,0-1.57,2,7.08,7.08,0,0,0-.51.89l-.2.39-28-10.47a6.41,6.41,0,0,1-2.45-2l-2.76-4.74a7.26,7.26,0,0,0-6.18-3.51,24.81,24.81,0,0,0-3.89,0c-.84,0-1.32.24-1.49.73a5,5,0,0,0,.6,3.51l2.4,4.41c.22.31,3.25,7.09,3.25,7.09a5,5,0,0,0,1.5,2.14L1403,121l-30.29,15.11a3.72,3.72,0,0,1-2.85.29l-2.71-.82c-5-2.21-8.69-.67-10.87,1.16l-.86.81a1.44,1.44,0,0,0,.42,2.4s4.78,2.81,5.83,3.53l7.44,4.41a5.45,5.45,0,0,0,3.83.62l29.41-5.93a101.36,101.36,0,0,0,3.55,20.62,52.9,52.9,0,0,0-15,28.19c-1.43,7.94-1,15.13,1.2,23.59-4.11.23-8.07.83-11.36,3.12-3.13,2.18-3.78,6.06-3.8,8l23,.05h1.94a3.29,3.29,0,0,0,3-2.44,15.48,15.48,0,0,0,.43-2.38,51.59,51.59,0,0,1,5.39-17.6,58.56,58.56,0,0,1,9.15-12.65,91.17,91.17,0,0,0,26,24.1,25.58,25.58,0,0,0-9.57,2.57,9.83,9.83,0,0,0-4.76,8.46h23.79a3.68,3.68,0,0,0,3.49-2.49c0-.15.09-.31.13-.46s0-.23,0-.34A3.14,3.14,0,0,0,1459,222.16Z" transform="translate(0)"/><path d="M72.66,91.08a11.23,11.23,0,0,1-4.28-5.81l0-.19a.51.51,0,0,1,.35-.46l2.55-1a.49.49,0,0,1,.25,0,.37.37,0,0,1,.25.09.56.56,0,0,1,.15.26,7.65,7.65,0,0,0,2.88,4.2,8.16,8.16,0,0,0,4.92,1.5,7.73,7.73,0,0,0,5.48-1.8,6.71,6.71,0,0,0,.19-9.2,8.91,8.91,0,0,0-4.72-2.3l-2.55-.5a11.24,11.24,0,0,1-6.33-3.23,9,9,0,0,1-2.32-6.37,9.22,9.22,0,0,1,1.35-4.88,9.75,9.75,0,0,1,3.73-3.53,12,12,0,0,1,11.92.63,11,11,0,0,1,4,5.27.36.36,0,0,1,0,.21.49.49,0,0,1-.35.45l-2.6,1.1a.62.62,0,0,1-.25,0,.34.34,0,0,1-.25-.11.49.49,0,0,1-.15-.24,7.86,7.86,0,0,0-2.78-3.7,7,7,0,0,0-4.17-1.35,6.64,6.64,0,0,0-4.82,1.7,5.73,5.73,0,0,0-1.78,4.35,5.62,5.62,0,0,0,1.4,3.9,7.11,7.11,0,0,0,4.15,2l2.55.5A13.68,13.68,0,0,1,88.28,76a9,9,0,0,1,2.7,6.9,10.19,10.19,0,0,1-1.38,5.25,9.66,9.66,0,0,1-3.94,3.7,13,13,0,0,1-6,1.35A11.91,11.91,0,0,1,72.66,91.08Z" transform="translate(0)"/><path d="M101.36,91.37a10.48,10.48,0,0,1-4.18-4.27,14.32,14.32,0,0,1,0-12.72,10.45,10.45,0,0,1,4-4.25,11.77,11.77,0,0,1,11.5,0,10.55,10.55,0,0,1,4,4.12,12,12,0,0,1,1.45,5.93,10.81,10.81,0,0,1-.05,1.15.48.48,0,0,1-.5.4H100c-.4,0-.55.21-.45.65a8.21,8.21,0,0,0,2.53,5.25,7.69,7.69,0,0,0,5.42,2,8.84,8.84,0,0,0,6.55-2.9c.37-.37.65-.44.85-.21l1.65,1.81c.23.2.23.41,0,.65a12.71,12.71,0,0,1-4.12,2.92,12.86,12.86,0,0,1-11-.48Zm12.92-13.14a7.6,7.6,0,0,0-2.47-4.58A7.09,7.09,0,0,0,107,71.93a7.17,7.17,0,0,0-4.88,1.77,7.47,7.47,0,0,0-2.47,4.58l0,.24c0,.2.17.31.5.31h13.75Q114.43,78.83,114.28,78.23Z" transform="translate(0)"/><path d="M127.08,92.33h-2.65a.44.44,0,0,1-.5-.5V69.63a.44.44,0,0,1,.5-.5h2.4a.44.44,0,0,1,.5.5v1.64c0,.14,0,.22.13.26s.17,0,.27-.15a8.35,8.35,0,0,1,2.65-2,7.7,7.7,0,0,1,3.4-.7,7.57,7.57,0,0,1,5.75,2.14,7.66,7.66,0,0,1,2.05,5.51V91.83a.44.44,0,0,1-.5.5h-2.65a.44.44,0,0,1-.5-.5v-15a5.12,5.12,0,0,0-1.25-3.73,4.8,4.8,0,0,0-3.6-1.27,5.49,5.49,0,0,0-3,.85,6.74,6.74,0,0,0-2.25,2.44,2.33,2.33,0,0,0-.25,1.06v15.6A.44.44,0,0,1,127.08,92.33Z" transform="translate(0)"/><path d="M152.88,91.3a10.94,10.94,0,0,1-4.1-4.27,14,14,0,0,1,0-12.6,11,11,0,0,1,4.1-4.28,11.34,11.34,0,0,1,5.8-1.52,9.38,9.38,0,0,1,7.55,3.1c.07.06.13.08.2,0s.1-.09.1-.19v-2a.44.44,0,0,1,.5-.5h2.45a.44.44,0,0,1,.5.5v22.2a.44.44,0,0,1-.5.5H167a.44.44,0,0,1-.5-.5v-2a.21.21,0,0,0-.1-.2.18.18,0,0,0-.2.06,10.3,10.3,0,0,1-7.55,3.1A11.25,11.25,0,0,1,152.88,91.3Zm10.55-2.78a6.13,6.13,0,0,0,2.7-2.7,1.85,1.85,0,0,0,.2-.89V76.52a1.85,1.85,0,0,0-.2-.89,6.8,6.8,0,0,0-2.77-2.7,8.44,8.44,0,0,0-4.13-1,7.77,7.77,0,0,0-6,2.42A8.93,8.93,0,0,0,151,80.72a8.92,8.92,0,0,0,2.28,6.38,7.77,7.77,0,0,0,6,2.42A8.63,8.63,0,0,0,163.43,88.52Z" transform="translate(0)"/><path d="M179.13,60.08l2.7-1.46a.87.87,0,0,1,.25,0c.23,0,.35.13.35.4v9.9a.22.22,0,0,0,.25.25h2.75a.44.44,0,0,1,.5.5v2.14a.44.44,0,0,1-.5.5h-2.75c-.17,0-.25.09-.25.26v19.3a.44.44,0,0,1-.5.5h-2.65a.44.44,0,0,1-.5-.5V72.53c0-.17-.08-.26-.25-.26h-2.75a.44.44,0,0,1-.5-.5V69.63a.44.44,0,0,1,.5-.5h2.75a.22.22,0,0,0,.25-.25v-8.2A.59.59,0,0,1,179.13,60.08Z" transform="translate(0)"/><path d="M192.21,91.37a7.73,7.73,0,0,1-2.83-4l0-.21c0-.2.12-.33.35-.39l2.4-.85.2-.05c.2,0,.35.13.45.4a4.48,4.48,0,0,0,1.73,2.5,4.61,4.61,0,0,0,2.72.89,4.54,4.54,0,0,0,3.2-1,3.43,3.43,0,0,0,1.1-2.62,3.06,3.06,0,0,0-1.08-2.5,6.26,6.26,0,0,0-3-1.26l-2-.39a6.79,6.79,0,0,1-4.05-2.28,6.71,6.71,0,0,1-.55-7.67,6.58,6.58,0,0,1,2.68-2.43,8.44,8.44,0,0,1,3.87-.87,7.67,7.67,0,0,1,4.68,1.42,7.4,7.4,0,0,1,2.67,4.07l.05.2c0,.21-.13.35-.4.46l-2.35.6-.2.05c-.2,0-.33-.13-.4-.4A4.44,4.44,0,0,0,200,72.68a4,4,0,0,0-2.63-.85,4.09,4.09,0,0,0-2.82.94,3.08,3.08,0,0,0-1.08,2.4,3,3,0,0,0,.85,2.31,5.31,5.31,0,0,0,2.55,1.15l2,.39a8.36,8.36,0,0,1,4.52,2.33A7,7,0,0,1,203,91a8.27,8.27,0,0,1-5.78,1.92A8.1,8.1,0,0,1,192.21,91.37Z" transform="translate(0)"/><path d="M224.93,69.13h2.8c.37,0,.5.18.4.55l-7.35,22.25a.62.62,0,0,1-.65.4h-3.85a.62.62,0,0,1-.65-.4l-7.35-22.25-.05-.2c0-.24.15-.35.45-.35h2.8a.58.58,0,0,1,.6.4L218,88a.18.18,0,0,0,.17.15c.09,0,.14,0,.18-.15l6-18.45A.58.58,0,0,1,224.93,69.13Z" transform="translate(0)"/><path d="M237,91.37a10.52,10.52,0,0,1-4.17-4.27,14.36,14.36,0,0,1,0-12.72,10.58,10.58,0,0,1,4-4.25,11.3,11.3,0,0,1,5.78-1.5,11.13,11.13,0,0,1,5.72,1.5,10.57,10.57,0,0,1,4,4.12,12,12,0,0,1,1.45,5.93,10.81,10.81,0,0,1-.05,1.15.49.49,0,0,1-.5.4H235.63c-.4,0-.55.21-.45.65a8.25,8.25,0,0,0,2.52,5.25,7.73,7.73,0,0,0,5.43,2,8.84,8.84,0,0,0,6.55-2.9c.37-.37.65-.44.85-.21l1.65,1.81c.23.2.23.41,0,.65a12.82,12.82,0,0,1-4.12,2.92,12.19,12.19,0,0,1-4.93,1A12.34,12.34,0,0,1,237,91.37Zm12.93-13.14a7.61,7.61,0,0,0-2.48-4.58,7,7,0,0,0-4.82-1.72,7.17,7.17,0,0,0-4.88,1.77,7.47,7.47,0,0,0-2.47,4.58l-.05.24c0,.2.16.31.5.31h13.75Q250.08,78.83,249.93,78.23Z" transform="translate(0)"/><path d="M270.38,68.68c.3,0,.45.16.45.5v2.65c0,.29-.12.44-.35.44a3.75,3.75,0,0,1-.73-.07,3.47,3.47,0,0,0-.67-.08,6.29,6.29,0,0,0-5.5,3,2,2,0,0,0-.35,1.24V91.83a.44.44,0,0,1-.5.5h-2.65a.44.44,0,0,1-.5-.5V69.63a.44.44,0,0,1,.5-.5h2.4a.44.44,0,0,1,.5.5v1.79c0,.14,0,.22.1.26s.15,0,.25-.1a7.8,7.8,0,0,1,6.3-3A3.64,3.64,0,0,1,270.38,68.68Z" transform="translate(0)"/><path d="M299.23,69.13h2.7a.43.43,0,0,1,.45.55l-5.6,22.19a.48.48,0,0,1-.55.46h-3.5a.65.65,0,0,1-.65-.55l-4.1-16c0-.09-.09-.15-.18-.15a.19.19,0,0,0-.17.15l-4.1,16a.65.65,0,0,1-.65.55h-3.5a.51.51,0,0,1-.55-.46l-5.6-22.19-.05-.15c0-.27.17-.4.5-.4h2.7c.37,0,.57.15.6.44l4.15,17.56c0,.13.08.19.15.19s.12-.06.15-.19l4.5-17.56a.56.56,0,0,1,.55-.44h2.65a.56.56,0,0,1,.55.44l4.5,17.56c0,.13.08.19.15.19s.11-.06.15-.19l4.15-17.56A.55.55,0,0,1,299.23,69.13Z" transform="translate(0)"/><path d="M311.73,91.3a10.94,10.94,0,0,1-4.1-4.27,14,14,0,0,1,0-12.6,11,11,0,0,1,4.1-4.28,11.31,11.31,0,0,1,5.8-1.52,9.38,9.38,0,0,1,7.55,3.1c.07.06.13.08.2,0s.1-.09.1-.19v-2a.44.44,0,0,1,.5-.5h2.45a.44.44,0,0,1,.5.5v22.2a.44.44,0,0,1-.5.5h-2.45a.44.44,0,0,1-.5-.5v-2a.21.21,0,0,0-.1-.2.18.18,0,0,0-.2.06,10.3,10.3,0,0,1-7.55,3.1A11.22,11.22,0,0,1,311.73,91.3Zm10.55-2.78a6.18,6.18,0,0,0,2.7-2.7,2,2,0,0,0,.2-.89V76.52a2,2,0,0,0-.2-.89,6.77,6.77,0,0,0-2.78-2.7,8.38,8.38,0,0,0-4.12-1,7.77,7.77,0,0,0-6,2.42,8.93,8.93,0,0,0-2.28,6.37,8.92,8.92,0,0,0,2.28,6.38,7.77,7.77,0,0,0,6,2.42A8.63,8.63,0,0,0,322.28,88.52Z" transform="translate(0)"/><path d="M342.68,89.78V92a.44.44,0,0,1-.5.5h-.9a5.4,5.4,0,0,1-3.65-1.13,4.33,4.33,0,0,1-1.3-3.47V56.63a.44.44,0,0,1,.5-.5h2.65a.44.44,0,0,1,.5.5V87.47c0,1.2.5,1.81,1.5,1.81h.7A.44.44,0,0,1,342.68,89.78Z" transform="translate(0)"/><path d="M349.78,60.08l2.7-1.46a.82.82,0,0,1,.25,0c.23,0,.35.13.35.4v9.9a.22.22,0,0,0,.25.25h2.75a.44.44,0,0,1,.5.5v2.14a.44.44,0,0,1-.5.5h-2.75c-.17,0-.25.09-.25.26v19.3a.44.44,0,0,1-.5.5h-2.65a.44.44,0,0,1-.5-.5V72.53a.23.23,0,0,0-.25-.26h-2.75a.44.44,0,0,1-.5-.5V69.63a.44.44,0,0,1,.5-.5h2.75a.22.22,0,0,0,.25-.25v-8.2A.59.59,0,0,1,349.78,60.08Z" transform="translate(0)"/><path d="M376.08,69.13h2.65a.44.44,0,0,1,.5.5v22.2a.44.44,0,0,1-.5.5h-2.4a.44.44,0,0,1-.5-.5V90.17c0-.13,0-.21-.13-.24s-.19,0-.32.15a7.6,7.6,0,0,1-6.05,2.75,7.48,7.48,0,0,1-5.72-2.15,7.72,7.72,0,0,1-2-5.5V69.63a.44.44,0,0,1,.5-.5h2.65a.44.44,0,0,1,.5.5v15a5.07,5.07,0,0,0,1.25,3.72,4.81,4.81,0,0,0,3.6,1.28,5.57,5.57,0,0,0,3-.85,6.77,6.77,0,0,0,2.25-2.45,2.26,2.26,0,0,0,.25-1V69.63A.44.44,0,0,1,376.08,69.13Z" transform="translate(0)"/><path d="M390,92.33h-2.65a.44.44,0,0,1-.5-.5V69.63a.44.44,0,0,1,.5-.5h2.4a.44.44,0,0,1,.5.5v1.64c0,.14,0,.22.12.26s.18,0,.28-.15a8.35,8.35,0,0,1,2.65-2,7.67,7.67,0,0,1,3.4-.7,7.59,7.59,0,0,1,5.75,2.14,7.7,7.7,0,0,1,2.05,5.51V91.83a.44.44,0,0,1-.5.5h-2.65a.44.44,0,0,1-.5-.5v-15a5.12,5.12,0,0,0-1.25-3.73,4.84,4.84,0,0,0-3.6-1.27,5.49,5.49,0,0,0-3,.85,6.74,6.74,0,0,0-2.25,2.44,2.33,2.33,0,0,0-.25,1.06v15.6A.44.44,0,0,1,390,92.33Z" transform="translate(0)"/><path d="M416.33,101.6a11.41,11.41,0,0,1-3.9-2.78.48.48,0,0,1,0-.7l1.7-1.85a.53.53,0,0,1,.35-.19.56.56,0,0,1,.35.19,8.29,8.29,0,0,0,6.75,3,8.39,8.39,0,0,0,5.5-1.63A6.05,6.05,0,0,0,429,92.72V89.28a.25.25,0,0,0-.15-.26.4.4,0,0,0-.35.15,10,10,0,0,1-7.2,2.66,11.09,11.09,0,0,1-5.65-1.46,10.23,10.23,0,0,1-4-4.09,12.48,12.48,0,0,1-1.45-6.1,11.94,11.94,0,0,1,1.5-6,10.71,10.71,0,0,1,4.07-4.08,11.56,11.56,0,0,1,5.73-1.44,9.54,9.54,0,0,1,7.25,2.79c.13.14.24.19.32.16s.13-.14.13-.31V69.63a.47.47,0,0,1,.15-.35.49.49,0,0,1,.35-.15h2.45a.44.44,0,0,1,.5.5V93a8.64,8.64,0,0,1-3.08,7.07,12.25,12.25,0,0,1-8,2.53A12.81,12.81,0,0,1,416.33,101.6Zm9.75-14.07A7.38,7.38,0,0,0,428.83,85a1.68,1.68,0,0,0,.25-.89V76.32a1.53,1.53,0,0,0-.25-.89,7.27,7.27,0,0,0-2.75-2.55,8.41,8.41,0,0,0-4.05-.95,7.72,7.72,0,0,0-5.83,2.3,8.19,8.19,0,0,0-2.22,6,8.3,8.3,0,0,0,2.22,6,7.76,7.76,0,0,0,5.83,2.3A8.41,8.41,0,0,0,426.08,87.53Z" transform="translate(0)"/><path d="M70.78,156.53v-19.3a.22.22,0,0,0-.25-.25h-2a.55.55,0,0,1-.35-.12.43.43,0,0,1-.15-.33v-2.2a.44.44,0,0,1,.5-.5h2a.22.22,0,0,0,.25-.25v-7.4a6.33,6.33,0,0,1,1.4-4.33,5.1,5.1,0,0,1,4-1.57,7.05,7.05,0,0,1,2.75.65c.3.17.42.37.35.6l-.7,2.35c-.1.3-.32.37-.65.2a3.25,3.25,0,0,0-1.45-.4,1.83,1.83,0,0,0-1.5.7,3.15,3.15,0,0,0-.55,2v7.2a.22.22,0,0,0,.25.25h3.1a.44.44,0,0,1,.5.5v2.2a.43.43,0,0,1-.15.33.55.55,0,0,1-.35.12h-3.1a.22.22,0,0,0-.25.25v19.3a.49.49,0,0,1-.13.35A.39.39,0,0,1,74,157h-2.7A.44.44,0,0,1,70.78,156.53Z" transform="translate(0)"/><path d="M97.53,133.83h2.65a.44.44,0,0,1,.5.5v22.2a.44.44,0,0,1-.5.5h-2.4a.44.44,0,0,1-.5-.5v-1.65a.24.24,0,0,0-.13-.25c-.08,0-.19,0-.32.15a7.6,7.6,0,0,1-6,2.75,7.44,7.44,0,0,1-5.72-2.15,7.69,7.69,0,0,1-2-5.5V134.33a.44.44,0,0,1,.5-.5h2.65a.44.44,0,0,1,.5.5v14.95A5.08,5.08,0,0,0,87.93,153a4.8,4.8,0,0,0,3.6,1.27,5.49,5.49,0,0,0,3-.85A6.69,6.69,0,0,0,96.78,151a2.26,2.26,0,0,0,.25-1v-15.6A.44.44,0,0,1,97.53,133.83ZM85.08,127.6a2.65,2.65,0,0,1-.8-1.92,2.7,2.7,0,0,1,5.4,0,2.65,2.65,0,0,1-.8,1.92,2.59,2.59,0,0,1-3.8,0Zm9.85,0a2.65,2.65,0,0,1-.8-1.92,2.7,2.7,0,0,1,5.4,0,2.65,2.65,0,0,1-.8,1.92,2.59,2.59,0,0,1-3.8,0Z" transform="translate(0)"/><path d="M119.08,133.38c.3,0,.45.17.45.5v2.65c0,.3-.12.45-.35.45a3.08,3.08,0,0,1-.73-.08,4.36,4.36,0,0,0-.67-.07,6.3,6.3,0,0,0-5.5,2.95,2.09,2.09,0,0,0-.35,1.25v15.5a.44.44,0,0,1-.5.5h-2.65a.44.44,0,0,1-.5-.5v-22.2a.44.44,0,0,1,.5-.5h2.4a.44.44,0,0,1,.5.5v1.8c0,.14,0,.22.1.25s.15,0,.25-.1a7.8,7.8,0,0,1,6.3-2.95A4.53,4.53,0,0,1,119.08,133.38Z" transform="translate(0)"/><path d="M140.68,156.58l-7.9-34-.05-.2c0-.23.16-.35.5-.35h2.85a.52.52,0,0,1,.55.45l6.45,28.4c0,.13.08.2.15.2s.11-.07.15-.2l6.55-28.4a.51.51,0,0,1,.22-.32.6.6,0,0,1,.38-.13h2.65a.6.6,0,0,1,.37.13.57.57,0,0,1,.23.32l6.55,28.4c0,.13.08.2.15.2s.11-.07.15-.2l6.45-28.4a.51.51,0,0,1,.55-.45h2.85c.4,0,.55.19.45.55l-7.9,34q-.06.45-.6.45h-3.6a.66.66,0,0,1-.38-.12.51.51,0,0,1-.22-.33L152,129.83c0-.13-.09-.2-.18-.2s-.14.07-.17.2l-6.2,26.75a.56.56,0,0,1-.23.33.65.65,0,0,1-.37.12h-3.6A.54.54,0,0,1,140.68,156.58Z" transform="translate(0)"/><path d="M176.35,127.6a2.6,2.6,0,0,1-.82-1.92,2.55,2.55,0,0,1,.82-1.9,2.69,2.69,0,0,1,1.93-.8,2.72,2.72,0,0,1,2.64,2.7,2.64,2.64,0,0,1-.79,1.92,2.5,2.5,0,0,1-1.85.83A2.61,2.61,0,0,1,176.35,127.6Zm0,28.93v-22.2a.44.44,0,0,1,.5-.5h2.65a.44.44,0,0,1,.5.5v22.2a.44.44,0,0,1-.5.5h-2.65A.44.44,0,0,1,176.38,156.53Z" transform="translate(0)"/><path d="M198.43,133.38c.3,0,.45.17.45.5v2.65c0,.3-.12.45-.35.45a3.08,3.08,0,0,1-.73-.08,4.36,4.36,0,0,0-.67-.07,6.3,6.3,0,0,0-5.5,2.95,2.09,2.09,0,0,0-.35,1.25v15.5a.44.44,0,0,1-.5.5h-2.65a.44.44,0,0,1-.5-.5v-22.2a.44.44,0,0,1,.5-.5h2.4a.44.44,0,0,1,.5.5v1.8c0,.14,0,.22.1.25s.15,0,.25-.1a7.8,7.8,0,0,1,6.3-2.95A4.53,4.53,0,0,1,198.43,133.38Z" transform="translate(0)"/><path d="M205,124.78l2.7-1.45a.58.58,0,0,1,.25,0c.23,0,.35.14.35.4v9.9a.22.22,0,0,0,.25.25h2.75a.44.44,0,0,1,.5.5v2.15a.44.44,0,0,1-.5.5h-2.75a.22.22,0,0,0-.25.25v19.3a.44.44,0,0,1-.5.5h-2.65a.44.44,0,0,1-.5-.5v-19.3a.23.23,0,0,0-.25-.25h-2.75a.44.44,0,0,1-.5-.5v-2.15a.44.44,0,0,1,.5-.5h2.75a.22.22,0,0,0,.25-.25v-8.2A.58.58,0,0,1,205,124.78Z" transform="translate(0)"/><path d="M218.1,156.08a7.76,7.76,0,0,1-2.82-4l-.05-.2c0-.2.11-.33.35-.4l2.4-.85.2,0c.2,0,.35.13.45.4a4.4,4.4,0,0,0,1.72,2.5,4.65,4.65,0,0,0,2.73.9,4.55,4.55,0,0,0,3.2-1,3.46,3.46,0,0,0,1.1-2.63,3.07,3.07,0,0,0-1.08-2.5,6.41,6.41,0,0,0-3-1.25l-2-.4a6.83,6.83,0,0,1-4.05-2.27,6.4,6.4,0,0,1-1.5-4.28,6.32,6.32,0,0,1,.95-3.4,6.47,6.47,0,0,1,2.67-2.42,8.36,8.36,0,0,1,3.88-.88,7.63,7.63,0,0,1,4.67,1.43,7.32,7.32,0,0,1,2.68,4.07l.05.2c0,.2-.14.35-.4.45l-2.35.6-.2,0c-.2,0-.34-.13-.4-.4a4.43,4.43,0,0,0-1.43-2.35,4,4,0,0,0-2.62-.85,4.14,4.14,0,0,0-2.83.95,3.07,3.07,0,0,0-1.07,2.4,3,3,0,0,0,.85,2.3,5,5,0,0,0,2.55,1.15l1.95.4a8.36,8.36,0,0,1,4.52,2.33,6.41,6.41,0,0,1,1.73,4.67,6.33,6.33,0,0,1-2.13,4.92,8.23,8.23,0,0,1-5.77,1.93A8.13,8.13,0,0,1,218.1,156.08Z" transform="translate(0)"/><path d="M236.85,139.13a10.65,10.65,0,0,1,4.12-4.27,12.45,12.45,0,0,1,11.48-.25,9.39,9.39,0,0,1,3.87,3.62.49.49,0,0,1,.06.25.5.5,0,0,1-.25.45l-2.16,1.2-.25.1c-.13,0-.28-.1-.44-.3a6.57,6.57,0,0,0-2.61-2.4,8,8,0,0,0-3.69-.85,7.33,7.33,0,0,0-5.76,2.43,10.4,10.4,0,0,0,0,12.64,7.33,7.33,0,0,0,5.76,2.43,7.64,7.64,0,0,0,3.62-.85,7.17,7.17,0,0,0,2.68-2.4.46.46,0,0,1,.69-.2l2.16,1.2a.5.5,0,0,1,.19.7,7.94,7.94,0,0,1-3.72,3.65,12.54,12.54,0,0,1-5.62,1.25,11.9,11.9,0,0,1-6-1.52,10.68,10.68,0,0,1-4.12-4.28,14.24,14.24,0,0,1,0-12.6Z" transform="translate(0)"/><path d="M265.18,157h-2.65a.44.44,0,0,1-.5-.5v-35.2a.44.44,0,0,1,.5-.5h2.65a.44.44,0,0,1,.5.5v14.4c0,.17,0,.26.1.28s.15,0,.25-.18a7.6,7.6,0,0,1,2.54-1.82,8,8,0,0,1,3.3-.68,7.56,7.56,0,0,1,5.75,2.15,7.66,7.66,0,0,1,2.06,5.5v15.55a.44.44,0,0,1-.5.5h-2.66a.44.44,0,0,1-.5-.5V141.58a5.11,5.11,0,0,0-1.24-3.72,4.84,4.84,0,0,0-3.6-1.28,5.64,5.64,0,0,0-3,.85,6.22,6.22,0,0,0-2.22,2.45,2.26,2.26,0,0,0-.25,1.05v15.6A.44.44,0,0,1,265.18,157Z" transform="translate(0)"/><path d="M291,156a11,11,0,0,1-4.09-4.28,14,14,0,0,1,0-12.6,10.92,10.92,0,0,1,4.09-4.27,11.26,11.26,0,0,1,5.81-1.53,9.42,9.42,0,0,1,7.55,3.1.16.16,0,0,0,.2,0,.21.21,0,0,0,.1-.2v-1.95a.44.44,0,0,1,.5-.5h2.45a.44.44,0,0,1,.5.5v22.2a.44.44,0,0,1-.5.5h-2.45a.44.44,0,0,1-.5-.5v-1.95a.21.21,0,0,0-.1-.2.17.17,0,0,0-.2.05,10.28,10.28,0,0,1-7.55,3.1A11.35,11.35,0,0,1,291,156Zm10.55-2.78a6.12,6.12,0,0,0,2.7-2.7,1.87,1.87,0,0,0,.21-.9v-8.4a1.93,1.93,0,0,0-.21-.9,6.87,6.87,0,0,0-2.77-2.7,8.51,8.51,0,0,0-4.12-1,7.81,7.81,0,0,0-6,2.43,10.09,10.09,0,0,0,0,12.75,7.81,7.81,0,0,0,6,2.42A8.62,8.62,0,0,0,301.52,153.23Z" transform="translate(0)"/><path d="M316.58,156.53v-19.3a.23.23,0,0,0-.25-.25h-2a.53.53,0,0,1-.35-.12.43.43,0,0,1-.15-.33v-2.2a.44.44,0,0,1,.5-.5h2a.22.22,0,0,0,.25-.25v-7.4a6.33,6.33,0,0,1,1.39-4.33,5.12,5.12,0,0,1,4-1.57,7,7,0,0,1,2.74.65c.31.17.42.37.35.6l-.69,2.35c-.1.3-.32.37-.66.2a3.22,3.22,0,0,0-1.45-.4,1.83,1.83,0,0,0-1.5.7,3.22,3.22,0,0,0-.54,2v7.2a.22.22,0,0,0,.25.25h3.09a.44.44,0,0,1,.5.5v2.2a.42.42,0,0,1-.14.33.58.58,0,0,1-.36.12h-3.09a.22.22,0,0,0-.25.25v19.3a.54.54,0,0,1-.13.35.4.4,0,0,1-.33.15h-2.69A.44.44,0,0,1,316.58,156.53Z" transform="translate(0)"/><path d="M330.62,124.78l2.7-1.45a.66.66,0,0,1,.25,0c.24,0,.35.14.35.4v9.9a.22.22,0,0,0,.25.25h2.76a.44.44,0,0,1,.49.5v2.15a.44.44,0,0,1-.49.5h-2.76a.23.23,0,0,0-.25.25v19.3a.44.44,0,0,1-.5.5h-2.65a.44.44,0,0,1-.5-.5v-19.3A.22.22,0,0,0,330,137h-2.75a.44.44,0,0,1-.5-.5v-2.15a.44.44,0,0,1,.5-.5H330a.22.22,0,0,0,.25-.25v-8.2A.59.59,0,0,1,330.62,124.78Z" transform="translate(0)"/><path d="M346.75,152.13a3.5,3.5,0,0,1,.92,2.55,7.05,7.05,0,0,1-.42,2.48,16.6,16.6,0,0,1-1.33,2.62l-3.75,6.45a.43.43,0,0,1-.7.2l-1.7-1.1a.42.42,0,0,1-.14-.65l3.84-6.6a.58.58,0,0,0,.1-.35q0-.15-.3-.3a2.84,2.84,0,0,1-1.52-1.12,3.33,3.33,0,0,1-.58-1.93,3.11,3.11,0,0,1,.95-2.25,3.3,3.3,0,0,1,4.63,0Z" transform="translate(0)"/><path d="M367.37,122h17.05a.44.44,0,0,1,.5.5v2.55a.44.44,0,0,1-.5.5h-13.6a.22.22,0,0,0-.25.25v11.35a.22.22,0,0,0,.25.25h13.6a.44.44,0,0,1,.5.5v2.55a.44.44,0,0,1-.5.5h-13.6a.22.22,0,0,0-.25.25v12a.22.22,0,0,0,.25.25h13.6a.44.44,0,0,1,.5.5v2.55a.44.44,0,0,1-.5.5H367.37a.44.44,0,0,1-.5-.5v-34A.44.44,0,0,1,367.37,122Z" transform="translate(0)"/><path d="M394.87,157h-2.65a.44.44,0,0,1-.5-.5v-22.2a.44.44,0,0,1,.5-.5h2.4a.44.44,0,0,1,.5.5V136c0,.14,0,.22.13.25s.17,0,.27-.15a8.5,8.5,0,0,1,2.65-2.05,7.85,7.85,0,0,1,3.4-.7,7.23,7.23,0,0,1,7.8,7.65v15.55a.44.44,0,0,1-.5.5h-2.65a.44.44,0,0,1-.5-.5V141.58a5.12,5.12,0,0,0-1.25-3.72,4.81,4.81,0,0,0-3.6-1.28,5.49,5.49,0,0,0-3,.85,6.77,6.77,0,0,0-2.25,2.45,2.39,2.39,0,0,0-.25,1.05v15.6A.44.44,0,0,1,394.87,157Z" transform="translate(0)"/><path d="M420.75,156.08a10.48,10.48,0,0,1-4.18-4.27,14.34,14.34,0,0,1,0-12.73,10.57,10.57,0,0,1,4.05-4.25,11.77,11.77,0,0,1,11.5,0,10.64,10.64,0,0,1,4,4.13,12,12,0,0,1,1.45,5.92,10.81,10.81,0,0,1-.05,1.15.48.48,0,0,1-.5.41H419.37c-.4,0-.55.21-.45.64a8.19,8.19,0,0,0,2.53,5.25,7.69,7.69,0,0,0,5.42,1.95,8.81,8.81,0,0,0,6.55-2.9c.37-.37.65-.43.85-.2l1.65,1.8c.24.2.24.42,0,.65a12.74,12.74,0,0,1-4.12,2.93,12.86,12.86,0,0,1-11.05-.48Zm12.92-13.15a7.6,7.6,0,0,0-2.47-4.57,7.58,7.58,0,0,0-9.7,0A7.46,7.46,0,0,0,419,143l0,.25c0,.2.17.3.5.3h13.75Q433.82,143.53,433.67,142.93Z" transform="translate(0)"/><path d="M454.12,133.38c.3,0,.45.17.45.5v2.65c0,.3-.12.45-.35.45a3.05,3.05,0,0,1-.72-.08,4.48,4.48,0,0,0-.68-.07,6.33,6.33,0,0,0-5.5,2.95A2.17,2.17,0,0,0,447,141v15.5a.44.44,0,0,1-.5.5h-2.65a.44.44,0,0,1-.5-.5v-22.2a.44.44,0,0,1,.5-.5h2.4a.44.44,0,0,1,.5.5v1.8c0,.14,0,.22.1.25s.15,0,.25-.1a7.8,7.8,0,0,1,6.3-2.95A4.53,4.53,0,0,1,454.12,133.38Z" transform="translate(0)"/><path d="M463,166.31a11.74,11.74,0,0,1-3.9-2.78.48.48,0,0,1,0-.7l1.7-1.85a.58.58,0,0,1,.35-.2.56.56,0,0,1,.35.2,9.52,9.52,0,0,0,12.25,1.38,6.06,6.06,0,0,0,1.95-4.93V154a.24.24,0,0,0-.15-.25c-.1,0-.21,0-.35.15a9.92,9.92,0,0,1-7.2,2.65,11.21,11.21,0,0,1-5.65-1.45,10.25,10.25,0,0,1-4-4.1,12.56,12.56,0,0,1-1.45-6.1,11.87,11.87,0,0,1,1.5-6,10.66,10.66,0,0,1,4.08-4.08,11.42,11.42,0,0,1,5.72-1.45,9.51,9.51,0,0,1,7.25,2.8c.14.14.24.18.33.15s.12-.13.12-.3v-1.65a.51.51,0,0,1,.5-.5h2.45a.44.44,0,0,1,.5.5v23.4a8.65,8.65,0,0,1-3.07,7.08,12.27,12.27,0,0,1-8,2.52A12.84,12.84,0,0,1,463,166.31Zm9.75-14.08a7.2,7.2,0,0,0,2.75-2.55,1.6,1.6,0,0,0,.25-.9V141a1.5,1.5,0,0,0-.25-.9,7.2,7.2,0,0,0-2.75-2.55,8.36,8.36,0,0,0-4.05-1,7.73,7.73,0,0,0-5.82,2.3,9.12,9.12,0,0,0,0,11.95,7.7,7.7,0,0,0,5.82,2.3A8.36,8.36,0,0,0,472.72,152.23Z" transform="translate(0)"/><path d="M486.85,127.6a2.61,2.61,0,0,1-.83-1.92,2.56,2.56,0,0,1,.83-1.9,2.69,2.69,0,0,1,1.92-.8,2.73,2.73,0,0,1,2.65,2.7,2.61,2.61,0,0,1-.8,1.92,2.47,2.47,0,0,1-1.85.83A2.6,2.6,0,0,1,486.85,127.6Zm0,28.93v-22.2a.44.44,0,0,1,.5-.5H490a.44.44,0,0,1,.5.5v22.2a.44.44,0,0,1-.5.5h-2.65A.44.44,0,0,1,486.87,156.53Z" transform="translate(0)"/><path d="M502.15,156.08a10.48,10.48,0,0,1-4.18-4.27,14.43,14.43,0,0,1,0-12.73,10.57,10.57,0,0,1,4.05-4.25,11.77,11.77,0,0,1,11.5,0,10.57,10.57,0,0,1,4,4.13,12,12,0,0,1,1.45,5.92,8.66,8.66,0,0,1-.05,1.15.47.47,0,0,1-.5.41H500.78c-.41,0-.56.21-.46.64a8.19,8.19,0,0,0,2.53,5.25,7.69,7.69,0,0,0,5.42,1.95,8.79,8.79,0,0,0,6.55-2.9c.37-.37.66-.43.85-.2l1.65,1.8c.24.2.24.42,0,.65a12.74,12.74,0,0,1-4.12,2.93,12.13,12.13,0,0,1-4.93,1A12.28,12.28,0,0,1,502.15,156.08Zm12.92-13.15a7.55,7.55,0,0,0-2.47-4.57,7.58,7.58,0,0,0-9.7,0,7.46,7.46,0,0,0-2.48,4.57l-.05.25c0,.2.17.3.5.3h13.76C515,143.53,515.17,143.33,515.07,142.93Z" transform="translate(0)"/><path d="M84.13,198.54h2.65a.44.44,0,0,1,.5.5v22.2a.44.44,0,0,1-.5.5h-2.4a.44.44,0,0,1-.5-.5v-1.65c0-.14,0-.22-.13-.25s-.19,0-.32.15a7.6,7.6,0,0,1-6.05,2.75,7.48,7.48,0,0,1-5.72-2.15,7.72,7.72,0,0,1-2-5.5V199a.44.44,0,0,1,.5-.5h2.65a.44.44,0,0,1,.5.5v15a5.12,5.12,0,0,0,1.25,3.72,4.81,4.81,0,0,0,3.6,1.28,5.49,5.49,0,0,0,3-.85,6.77,6.77,0,0,0,2.25-2.45,2.26,2.26,0,0,0,.25-1.05V199A.44.44,0,0,1,84.13,198.54Z" transform="translate(0)"/><path d="M98,221.74H95.38a.44.44,0,0,1-.5-.5V199a.44.44,0,0,1,.5-.5h2.4a.44.44,0,0,1,.5.5v1.65a.25.25,0,0,0,.12.25c.09,0,.18,0,.28-.15a8.35,8.35,0,0,1,2.65-2,7.67,7.67,0,0,1,3.4-.7,7.23,7.23,0,0,1,7.8,7.65v15.55a.44.44,0,0,1-.5.5h-2.65a.44.44,0,0,1-.5-.5v-15a5.14,5.14,0,0,0-1.25-3.73,4.82,4.82,0,0,0-3.6-1.27,5.49,5.49,0,0,0-3,.85,6.69,6.69,0,0,0-2.25,2.45,2.26,2.26,0,0,0-.25,1v15.6A.44.44,0,0,1,98,221.74Z" transform="translate(0)"/><path d="M137.78,185.54h2.65a.44.44,0,0,1,.5.5v35.2a.44.44,0,0,1-.5.5H138a.44.44,0,0,1-.5-.5v-1.75c0-.17,0-.26-.13-.28s-.19,0-.32.18q-2.55,2.85-7.4,2.85a11.22,11.22,0,0,1-5.8-1.53,10.94,10.94,0,0,1-4.1-4.27,14,14,0,0,1,0-12.6,10.88,10.88,0,0,1,4.1-4.27,11.22,11.22,0,0,1,5.8-1.53,10,10,0,0,1,7.2,2.65c.13.13.24.18.32.15s.13-.14.13-.3V186A.44.44,0,0,1,137.78,185.54Zm-3.5,32.4a7.34,7.34,0,0,0,2.8-2.7,1.85,1.85,0,0,0,.2-.8v-8.6a1.79,1.79,0,0,0-.2-.8,7.27,7.27,0,0,0-2.8-2.7,8.27,8.27,0,0,0-4.1-1,7.81,7.81,0,0,0-6,2.43,10.07,10.07,0,0,0,0,12.74,7.81,7.81,0,0,0,6,2.43A8.38,8.38,0,0,0,134.28,217.94Z" transform="translate(0)"/><path d="M178.35,187.94a8.21,8.21,0,0,1,3.45,3.3A9.48,9.48,0,0,1,183,196a8.57,8.57,0,0,1-1.15,4.37,8.18,8.18,0,0,1-3.1,3.08c-.34.2-.34.38,0,.55a8.94,8.94,0,0,1,5,8.15,9.19,9.19,0,0,1-2.8,6.9q-2.81,2.7-7.9,2.7h-10.1a.44.44,0,0,1-.5-.5v-34a.44.44,0,0,1,.5-.5h10A11.47,11.47,0,0,1,178.35,187.94Zm-12.22,2.6v11.35a.22.22,0,0,0,.25.25h6.1a7.15,7.15,0,0,0,5-1.55,5.61,5.61,0,0,0,1.7-4.35,5.69,5.69,0,0,0-1.7-4.38,7.05,7.05,0,0,0-5-1.57h-6.1A.22.22,0,0,0,166.13,190.54Zm0,15.4v12a.22.22,0,0,0,.25.25h6.3a7.76,7.76,0,0,0,5.37-1.65,6.7,6.7,0,0,0,0-9.2,7.76,7.76,0,0,0-5.37-1.65h-6.3A.22.22,0,0,0,166.13,205.94Z" transform="translate(0)"/><path d="M194.6,220.79a10.55,10.55,0,0,1-4.17-4.28,14.36,14.36,0,0,1,0-12.72,10.71,10.71,0,0,1,4-4.25,11.3,11.3,0,0,1,5.78-1.5,11.13,11.13,0,0,1,5.72,1.5,10.71,10.71,0,0,1,4,4.12,12,12,0,0,1,1.45,5.93,10.81,10.81,0,0,1-.05,1.15.49.49,0,0,1-.5.4H193.23c-.4,0-.55.21-.45.65A8.23,8.23,0,0,0,195.3,217a7.73,7.73,0,0,0,5.43,2,8.84,8.84,0,0,0,6.55-2.9c.37-.37.65-.43.85-.2l1.65,1.8c.23.2.23.41,0,.65a12.82,12.82,0,0,1-4.12,2.92,12,12,0,0,1-4.93,1A12.34,12.34,0,0,1,194.6,220.79Zm12.93-13.15a7.64,7.64,0,0,0-2.48-4.58,7.6,7.6,0,0,0-9.7.06,7.42,7.42,0,0,0-2.47,4.57l0,.25c0,.2.16.3.5.3h13.75Q207.68,208.24,207.53,207.64Z" transform="translate(0)"/><path d="M218.48,189.49l2.7-1.45a.58.58,0,0,1,.25,0c.23,0,.35.13.35.4v9.9a.22.22,0,0,0,.25.25h2.75a.44.44,0,0,1,.5.5v2.15a.44.44,0,0,1-.5.5H222a.22.22,0,0,0-.25.25v19.3a.44.44,0,0,1-.5.5h-2.65a.44.44,0,0,1-.5-.5v-19.3a.22.22,0,0,0-.25-.25h-2.75a.44.44,0,0,1-.5-.5V199a.44.44,0,0,1,.5-.5h2.75a.22.22,0,0,0,.25-.25v-8.2A.58.58,0,0,1,218.48,189.49Z" transform="translate(0)"/><path d="M241.38,198.09c.3,0,.45.17.45.5v2.65c0,.3-.12.45-.35.45a3.71,3.71,0,0,1-.73-.08,3.39,3.39,0,0,0-.67-.07,6.28,6.28,0,0,0-5.5,3,2.07,2.07,0,0,0-.35,1.25v15.5a.44.44,0,0,1-.5.5h-2.65a.44.44,0,0,1-.5-.5V199a.44.44,0,0,1,.5-.5h2.4a.44.44,0,0,1,.5.5v1.8c0,.13,0,.21.1.25s.15,0,.25-.1a7.8,7.8,0,0,1,6.3-3A3.64,3.64,0,0,1,241.38,198.09Z" transform="translate(0)"/><path d="M246.45,192.31a2.63,2.63,0,0,1-.82-1.92,2.55,2.55,0,0,1,.82-1.9,2.69,2.69,0,0,1,1.93-.8,2.55,2.55,0,0,1,1.85.8,2.61,2.61,0,0,1,.8,1.9,2.69,2.69,0,0,1-.8,1.92,2.5,2.5,0,0,1-1.85.83A2.64,2.64,0,0,1,246.45,192.31Zm0,28.93V199a.44.44,0,0,1,.5-.5h2.65a.44.44,0,0,1,.5.5v22.2a.44.44,0,0,1-.5.5H247A.44.44,0,0,1,246.48,221.24Z" transform="translate(0)"/><path d="M261.75,220.79a10.55,10.55,0,0,1-4.17-4.28,14.36,14.36,0,0,1,0-12.72,10.71,10.71,0,0,1,4.05-4.25,11.3,11.3,0,0,1,5.78-1.5,11.13,11.13,0,0,1,5.72,1.5,10.71,10.71,0,0,1,4,4.12,12,12,0,0,1,1.45,5.93,10.81,10.81,0,0,1-.05,1.15.49.49,0,0,1-.5.4H260.38c-.4,0-.55.21-.45.65a8.23,8.23,0,0,0,2.52,5.25,7.73,7.73,0,0,0,5.43,2,8.84,8.84,0,0,0,6.55-2.9c.37-.37.65-.43.85-.2l1.65,1.8c.23.2.23.41,0,.65a12.82,12.82,0,0,1-4.12,2.92,12,12,0,0,1-4.93,1A12.34,12.34,0,0,1,261.75,220.79Zm12.93-13.15a7.64,7.64,0,0,0-2.48-4.58,7.6,7.6,0,0,0-9.7.06,7.42,7.42,0,0,0-2.47,4.57l0,.25c0,.2.16.3.5.3h13.75Q274.83,208.24,274.68,207.64Z" transform="translate(0)"/><path d="M288.1,200.84q.13,0,.33-.15a9.92,9.92,0,0,1,7.2-2.65,11.22,11.22,0,0,1,5.8,1.53,10.88,10.88,0,0,1,4.1,4.27,14,14,0,0,1,0,12.6,10.94,10.94,0,0,1-4.1,4.27,11.22,11.22,0,0,1-5.8,1.53c-3.24,0-5.7-1-7.4-2.85-.14-.13-.24-.2-.33-.18s-.12.11-.12.28v1.75a.44.44,0,0,1-.5.5h-2.45a.44.44,0,0,1-.5-.5V186a.44.44,0,0,1,.5-.5h2.65a.44.44,0,0,1,.5.5v14.5C288,200.7,288,200.81,288.1,200.84Zm12.95,15.67a10,10,0,0,0,0-12.74,7.79,7.79,0,0,0-6-2.43,8.27,8.27,0,0,0-4.1,1,7.2,7.2,0,0,0-2.8,2.7,1.79,1.79,0,0,0-.2.8v8.6a1.85,1.85,0,0,0,.2.8,7.28,7.28,0,0,0,2.8,2.7,8.38,8.38,0,0,0,4.1,1A7.79,7.79,0,0,0,301.05,216.51Z" transform="translate(0)"/><path d="M317,220.79a10.55,10.55,0,0,1-4.17-4.28,14.36,14.36,0,0,1,0-12.72,10.71,10.71,0,0,1,4.05-4.25,11.3,11.3,0,0,1,5.78-1.5,11.13,11.13,0,0,1,5.72,1.5,10.71,10.71,0,0,1,4,4.12,12,12,0,0,1,1.45,5.93,10.81,10.81,0,0,1-.05,1.15.49.49,0,0,1-.5.4H315.63c-.4,0-.55.21-.45.65A8.23,8.23,0,0,0,317.7,217a7.73,7.73,0,0,0,5.43,2,8.84,8.84,0,0,0,6.55-2.9c.37-.37.65-.43.85-.2l1.65,1.8c.23.2.23.41,0,.65a12.82,12.82,0,0,1-4.12,2.92,12,12,0,0,1-4.93,1A12.34,12.34,0,0,1,317,220.79Zm12.93-13.15a7.63,7.63,0,0,0-2.47-4.58,7.61,7.61,0,0,0-9.71.06,7.42,7.42,0,0,0-2.47,4.57l0,.25c0,.2.16.3.5.3h13.75Q330.08,208.24,329.93,207.64Z" transform="translate(0)"/></svg>