<svg xmlns="http://www.w3.org/2000/svg" xmlns:xlink="http://www.w3.org/1999/xlink" width="195" height="30" viewBox="0 0 195 30">
  <defs>
    <polygon id="senweb-logo-a" points=".171 .846 99.95 .846 99.95 24.94 .171 24.94"/>
  </defs>
  <g fill="none" fill-rule="evenodd">
    <g transform="translate(95 5)">
      <mask id="senweb-logo-b" fill="#fff">
        <use xlink:href="#senweb-logo-a"/>
      </mask>
      <path fill="#D82333" d="M19.873,15.212 C23.484,15.212 25.371,13.567 25.371,10.927 C25.371,8.555 23.754,7.206 21.22,7.206 C16.449,7.206 13.997,11.358 13.997,15.238 C13.997,18.446 15.99,20.575 18.875,20.575 C19.927,20.575 22.029,20.198 23.215,19.794 L23.215,17.206 C21.544,17.529 20.816,17.638 19.873,17.638 C18.309,17.638 17.742,16.425 17.742,15.212 L19.873,15.212 Z M18.148,13.109 C18.443,11.411 19.656,10.253 20.546,10.253 C21.059,10.253 21.49,10.495 21.49,11.196 C21.49,12.112 20.574,13.109 19.279,13.109 L18.148,13.109 Z M5.561,12.112 C6.208,11.411 7.395,10.791 8.068,10.791 C8.93,10.791 9.227,11.601 9.227,12.274 C9.227,13.944 7.96,17.638 5.723,17.638 C5.373,17.638 4.429,17.503 4.429,17.503 L5.561,12.112 Z M7.044,4.107 L7.044,0.9 L1.033,0.9 L1.033,4.107 L3.244,4.107 L0.171,20.306 L2.111,20.306 C3.163,20.306 4.32,20.575 5.643,20.575 C10.277,20.575 12.973,15.616 12.973,11.628 C12.973,8.581 11.706,7.206 10.143,7.206 C8.499,7.206 6.908,8.339 6.046,9.12 L7.044,4.107 L7.044,4.107 Z" mask="url(#senweb-logo-b)"/>
      <polyline fill="#D82333" points="46.93 .846 46.93 10.144 53.988 10.144 53.988 12.496 42.109 12.496 42.109 25 44.391 25 44.391 14.716 46.93 14.716 46.93 25 49.206 25 49.206 14.716 51.71 14.716 51.71 25 53.988 25 53.988 20.352 99.95 20.352 99.95 .846 46.93 .846" mask="url(#senweb-logo-b)"/>
      <polygon fill="#D82333" points="27.738 24.94 30.014 24.94 30.014 14.67 27.738 14.67" mask="url(#senweb-logo-b)"/>
      <polygon fill="#D82333" points="32.536 24.94 34.813 24.94 34.813 14.67 32.536 14.67" mask="url(#senweb-logo-b)"/>
      <polygon fill="#D82333" points="37.335 24.94 39.611 24.94 39.611 14.67 37.335 14.67" mask="url(#senweb-logo-b)"/>
    </g>
    <polygon fill="#D82333" points="122.738 17.497 137.115 17.497 137.115 15.143 122.738 15.143"/>
    <path fill="#D82333" d="M134.222,12.127 C134.222,11.205 134.97,10.457 135.891,10.457 C136.814,10.457 137.561,11.205 137.561,12.127 C137.561,13.049 136.814,13.797 135.891,13.797 C134.97,13.797 134.222,13.049 134.222,12.127"/>
    <path fill="#FFFFFE" d="M183.156,20.846 L184.541,20.846 L184.541,17.496 C184.541,17.496 184.482,16.864 184.712,16.196 C184.934,15.551 185.441,14.817 186.466,14.755 C187.667,14.682 187.595,16.007 187.595,16.007 L187.595,20.846 L188.988,20.846 L188.988,15.856 C188.988,15.856 189.104,13.863 187.244,13.786 C184.982,13.694 184.541,15.12 184.541,15.12 L184.541,13.863 C184.541,13.863 184.055,13.845 183.273,13.889 C182.529,13.932 181.99,13.982 181.99,13.982 L181.99,14.722 L183.156,14.859 L183.156,20.846 Z M178.539,14.868 L177.344,14.707 L177.344,13.968 C177.809,13.926 178.041,13.906 178.539,13.887 C179.141,13.863 179.596,13.845 179.895,13.863 L179.895,19.887 L181.146,20.077 L181.146,20.846 L177.344,20.846 L177.344,20.077 L178.539,19.887 L178.539,14.868 Z M178.234,11.886 C178.234,11.368 178.652,10.95 179.169,10.95 C179.686,10.95 180.104,11.368 180.104,11.886 C180.104,12.401 179.686,12.819 179.169,12.819 C178.652,12.819 178.234,12.401 178.234,11.886 L178.234,11.886 Z M173.749,11.538 C173.749,11.538 173.414,11.485 173.199,11.458 C172.959,11.428 172.583,11.396 172.583,11.396 L172.583,10.676 C172.583,10.676 173.434,10.619 173.977,10.608 C174.438,10.601 175.152,10.608 175.152,10.608 L175.152,19.887 L176.329,20.077 L176.329,20.846 L172.583,20.846 L172.583,20.077 L173.749,19.887 L173.749,11.538 Z M162.406,17.335 L166.912,17.335 C166.912,17.335 167.357,13.637 164.171,13.711 C161.345,13.777 161.051,16.311 161.031,17.373 C161.018,18.24 161.214,19.733 162.343,20.49 C162.807,20.803 163.748,21.021 164.674,20.979 C165.508,20.941 166.607,20.532 166.607,20.532 L166.607,19.46 C166.607,19.46 165.712,19.867 164.512,19.887 C162.161,19.926 162.406,17.335 162.406,17.335 L162.406,17.335 Z M164.143,14.646 C165.695,14.695 165.537,16.297 165.537,16.297 L162.502,16.297 C162.502,16.297 162.654,14.599 164.143,14.646 L164.143,14.646 Z M170.165,15.229 L170.165,13.863 C170.165,13.863 169.354,13.863 168.837,13.883 C168.382,13.899 167.67,13.948 167.67,13.948 L167.67,14.697 L168.837,14.85 L168.837,20.846 L170.203,20.846 L170.203,17.677 C170.203,17.677 170.146,16.173 170.848,15.424 C171.34,14.898 172.374,15.107 172.374,15.107 L172.374,13.786 C172.374,13.786 171.544,13.679 170.923,14.058 C170.336,14.416 170.165,15.229 170.165,15.229 L170.165,15.229 Z M153.047,11.951 C152.715,11.904 152.506,11.843 152.506,11.843 L152.506,11.051 C152.506,11.051 153.143,11.065 153.872,11.073 C154.602,11.083 155.238,11.026 156.129,11.026 C157.781,11.026 159.588,11.253 159.676,13.342 C159.752,15.144 157.949,15.665 157.949,15.665 C157.949,15.665 159.961,15.941 159.895,18.066 C159.801,21.045 156.109,20.846 156.109,20.846 L152.506,20.846 L152.506,20.077 L153.691,19.85 L153.691,12.031 C153.691,12.031 153.475,12.013 153.047,11.951 L153.047,11.951 Z M155.133,16.302 L155.133,19.726 C155.133,19.726 155.857,19.75 156.318,19.731 C157.675,19.674 158.482,19.023 158.424,17.946 C158.367,16.895 157.623,16.414 156.49,16.316 C155.966,16.27 155.133,16.302 155.133,16.302 L155.133,16.302 Z M155.133,12.137 L155.133,15.267 C155.133,15.267 155.669,15.267 156.059,15.258 C157.184,15.23 158.204,14.859 158.244,13.578 C158.273,12.667 157.566,12.212 156.863,12.165 C156.191,12.119 155.133,12.137 155.133,12.137 L155.133,12.137 Z"/>
    <line x1="84.191" x2="84.191" y1="1.653" y2="29.999" stroke="#D82333" stroke-width=".6"/>
    <path fill="#D82333" d="M32.111 21.348L32.111 24.3C32.111 24.428 32.125 24.557 32.151 24.688 32.178 24.818 32.231 24.938 32.307 25.048 32.384 25.157 32.494 25.247 32.635 25.316 32.776 25.385 32.962 25.42 33.191 25.42 33.356 25.42 33.522 25.396 33.687 25.348 33.852 25.3 34.002 25.247 34.135 25.188 34.29 25.119 34.44 25.039 34.583 24.948L34.663 25.348 35.104 25.348 35.104 21.348 34.527 21.348 34.527 24.531C34.399 24.61 34.266 24.681 34.127 24.74 34.01 24.793 33.879 24.84 33.735 24.88 33.591 24.92 33.45 24.94 33.311 24.94 33.178 24.94 33.071 24.921 32.991 24.884 32.911 24.847 32.848 24.793 32.803 24.723 32.758 24.654 32.727 24.567 32.711 24.467 32.695 24.365 32.687 24.25 32.687 24.122L32.687 21.348 32.111 21.348zM39.431 25.348L39.431 22.396C39.431 22.268 39.419 22.139 39.391 22.008 39.364 21.877 39.313 21.757 39.235 21.648 39.158 21.539 39.048 21.449 38.907 21.38 38.766 21.311 38.58 21.275 38.351 21.275 38.186 21.275 38.021 21.301 37.856 21.352 37.69 21.403 37.54 21.457 37.407 21.516 37.252 21.585 37.104 21.663 36.96 21.748L36.879 21.348 36.44 21.348 36.44 25.348 37.015 25.348 37.015 22.165C37.143 22.09 37.276 22.023 37.415 21.964 37.532 21.911 37.663 21.863 37.807 21.82 37.951 21.776 38.092 21.756 38.231 21.756 38.364 21.756 38.471 21.775 38.551 21.812 38.631 21.85 38.694 21.903 38.739 21.972 38.784 22.042 38.815 22.128 38.831 22.229 38.847 22.331 38.856 22.446 38.856 22.574L38.856 25.348 39.431 25.348zM43.527 25.348L43.527 19.268 42.951 19.268 42.951 21.268 42.991 21.74C42.9 21.655 42.796 21.577 42.679 21.508 42.578 21.449 42.456 21.396 42.315 21.348 42.174 21.3 42.012 21.275 41.831 21.275 41.676 21.275 41.519 21.315 41.359 21.392 41.199 21.469 41.054 21.593 40.923 21.764 40.793 21.935 40.684 22.156 40.599 22.428 40.514 22.7 40.471 23.033 40.471 23.428 40.471 24.121 40.586 24.627 40.815 24.943 41.044 25.261 41.367 25.42 41.783 25.42 41.917 25.42 42.054 25.396 42.195 25.348 42.336 25.3 42.468 25.247 42.591 25.188 42.731 25.119 42.868 25.039 43.007 24.948L43.087 25.348 43.527 25.348zM42.951 24.524C42.823 24.599 42.695 24.665 42.567 24.724 42.46 24.776 42.346 24.824 42.223 24.864 42.1 24.904 41.991 24.924 41.896 24.924 41.74 24.924 41.61 24.887 41.503 24.812 41.397 24.737 41.311 24.631 41.247 24.492 41.183 24.353 41.136 24.188 41.107 23.996 41.078 23.804 41.064 23.588 41.064 23.348 41.064 22.863 41.144 22.479 41.307 22.196 41.47 21.913 41.679 21.771 41.935 21.771 42.106 21.771 42.255 21.795 42.383 21.84 42.511 21.885 42.618 21.937 42.703 21.996 42.799 22.06 42.882 22.135 42.951 22.22L42.951 24.524zM48.831 22.385C49.092 22.294 49.304 22.142 49.467 21.929 49.629 21.716 49.711 21.437 49.711 21.09 49.711 20.818 49.661 20.596 49.564 20.423 49.464 20.25 49.334 20.113 49.171 20.012 49.008 19.911 48.824 19.841 48.619 19.804 48.413 19.767 48.204 19.748 47.991 19.748L46.783 19.748 46.783 25.348 48.071 25.348C48.327 25.348 48.569 25.316 48.799 25.256 49.028 25.193 49.229 25.1 49.399 24.972 49.569 24.843 49.705 24.681 49.807 24.483 49.908 24.286 49.96 24.051 49.96 23.778 49.96 23.538 49.927 23.337 49.863 23.174 49.799 23.011 49.715 22.877 49.611 22.773 49.507 22.669 49.387 22.588 49.252 22.529 49.115 22.47 48.975 22.425 48.831 22.393L48.831 22.385zM47.935 20.244C48.089 20.244 48.237 20.26 48.379 20.292 48.521 20.324 48.646 20.379 48.755 20.456 48.864 20.533 48.951 20.635 49.015 20.76 49.079 20.885 49.111 21.044 49.111 21.236 49.111 21.396 49.079 21.537 49.015 21.66 48.951 21.783 48.864 21.884 48.755 21.964 48.646 22.044 48.521 22.104 48.379 22.144 48.237 22.184 48.089 22.204 47.935 22.204L47.391 22.204 47.391 20.244 47.935 20.244zM48.007 22.684C48.193 22.684 48.368 22.7 48.531 22.732 48.693 22.764 48.835 22.821 48.955 22.9 49.075 22.981 49.169 23.091 49.239 23.23 49.308 23.369 49.343 23.546 49.343 23.76 49.343 23.941 49.308 24.101 49.239 24.238 49.169 24.374 49.075 24.488 48.955 24.579 48.835 24.67 48.693 24.738 48.531 24.784 48.368 24.829 48.193 24.852 48.007 24.852L47.391 24.852 47.391 22.684 48.007 22.684zM53.703 24.651C53.569 24.705 53.433 24.751 53.295 24.788 53.172 24.82 53.04 24.849 52.899 24.876 52.757 24.903 52.617 24.916 52.48 24.916 52.287 24.916 52.127 24.884 52 24.821 51.871 24.757 51.767 24.67 51.688 24.558 51.607 24.447 51.548 24.313 51.511 24.157 51.473 24 51.447 23.829 51.431 23.644L52.215 23.644C52.401 23.644 52.588 23.628 52.775 23.596 52.961 23.564 53.128 23.501 53.275 23.407 53.421 23.314 53.542 23.185 53.635 23.022 53.729 22.858 53.775 22.646 53.775 22.384 53.775 22.015 53.663 21.736 53.44 21.549 53.215 21.362 52.911 21.268 52.527 21.268 52.281 21.268 52.056 21.312 51.851 21.4 51.646 21.488 51.468 21.623 51.319 21.804 51.169 21.984 51.053 22.211 50.971 22.48 50.888 22.749 50.847 23.063 50.847 23.42 50.847 24.044 50.971 24.532 51.219 24.884 51.467 25.235 51.852 25.412 52.376 25.412 52.556 25.412 52.727 25.4 52.887 25.376 53.047 25.352 53.189 25.324 53.311 25.292 53.449 25.255 53.58 25.212 53.703 25.164L53.703 24.651zM51.423 23.164C51.428 22.971 51.456 22.789 51.507 22.617 51.557 22.445 51.628 22.295 51.719 22.166 51.809 22.038 51.923 21.936 52.059 21.861 52.195 21.786 52.351 21.748 52.527 21.748 52.745 21.748 52.912 21.807 53.027 21.925 53.141 22.043 53.199 22.209 53.199 22.424 53.199 22.649 53.119 22.829 52.96 22.963 52.799 23.097 52.551 23.164 52.215 23.164L51.423 23.164zM56.839 24.876C56.796 24.887 56.752 24.895 56.703 24.899 56.623 24.916 56.532 24.924 56.431 24.924 56.276 24.924 56.152 24.905 56.059 24.868 55.965 24.83 55.896 24.774 55.847 24.7 55.799 24.625 55.767 24.528 55.752 24.411 55.735 24.293 55.727 24.154 55.727 23.994L55.727 21.828 56.719 21.828 56.719 21.348 55.727 21.348 55.727 19.748 55.151 19.748 55.151 21.348 54.487 21.348 54.487 21.828 55.151 21.828 55.151 24.081C55.151 24.535 55.239 24.872 55.415 25.091 55.591 25.31 55.898 25.42 56.335 25.42 56.393 25.42 56.452 25.419 56.511 25.416 56.569 25.413 56.623 25.407 56.671 25.396 56.73 25.391 56.785 25.383 56.839 25.372L56.839 24.876zM59.623 21.275C59.436 21.265 59.257 21.285 59.087 21.336 58.917 21.387 58.761 21.441 58.623 21.5 58.463 21.568 58.311 21.651 58.168 21.748L58.087 21.348 57.648 21.348 57.648 25.348 58.223 25.348 58.223 22.172C58.367 22.092 58.516 22.023 58.671 21.964 58.804 21.911 58.953 21.867 59.119 21.832 59.284 21.797 59.452 21.788 59.623 21.804L59.623 21.275zM60.511 25.348L61.087 25.348 61.087 21.348 60.511 21.348 60.511 25.348zM60.48 20.412C60.569 20.503 60.681 20.548 60.815 20.548 60.948 20.548 61.06 20.503 61.151 20.412 61.241 20.321 61.287 20.209 61.287 20.076 61.287 19.942 61.241 19.831 61.151 19.74 61.06 19.649 60.948 19.604 60.815 19.604 60.681 19.604 60.569 19.649 60.48 19.74 60.388 19.831 60.343 19.942 60.343 20.076 60.343 20.209 60.388 20.321 60.48 20.412L60.48 20.412zM64.998 24.651C64.865 24.705 64.73 24.751 64.59 24.788 64.468 24.82 64.336 24.849 64.194 24.876 64.053 24.903 63.913 24.916 63.774 24.916 63.582 24.916 63.422 24.884 63.294 24.821 63.167 24.757 63.063 24.67 62.982 24.558 62.902 24.447 62.844 24.313 62.806 24.157 62.769 24 62.742 23.829 62.726 23.644L63.51 23.644C63.697 23.644 63.884 23.628 64.07 23.596 64.257 23.564 64.424 23.501 64.57 23.407 64.717 23.314 64.837 23.185 64.93 23.022 65.024 22.858 65.07 22.646 65.07 22.384 65.07 22.015 64.959 21.736 64.734 21.549 64.51 21.362 64.206 21.268 63.822 21.268 63.577 21.268 63.352 21.312 63.147 21.4 62.941 21.488 62.764 21.623 62.614 21.804 62.465 21.984 62.349 22.211 62.266 22.48 62.184 22.749 62.142 23.063 62.142 23.42 62.142 24.044 62.266 24.532 62.514 24.884 62.762 25.235 63.148 25.412 63.67 25.412 63.852 25.412 64.023 25.4 64.182 25.376 64.342 25.352 64.484 25.324 64.606 25.292 64.745 25.255 64.877 25.212 64.998 25.164L64.998 24.651zM62.718 23.164C62.724 22.971 62.752 22.789 62.802 22.617 62.854 22.445 62.924 22.295 63.014 22.166 63.106 22.038 63.218 21.936 63.355 21.861 63.49 21.786 63.646 21.748 63.822 21.748 64.042 21.748 64.209 21.807 64.322 21.925 64.437 22.043 64.494 22.209 64.494 22.424 64.494 22.649 64.414 22.829 64.254 22.963 64.094 23.097 63.846 23.164 63.51 23.164L62.718 23.164zM66.206 19.268L66.206 25.348 66.646 25.348 66.726 24.948C66.817 25.039 66.921 25.119 67.038 25.188 67.14 25.247 67.262 25.3 67.406 25.348 67.55 25.396 67.716 25.42 67.902 25.42 68.052 25.42 68.209 25.381 68.37 25.304 68.533 25.227 68.68 25.103 68.81 24.932 68.941 24.761 69.049 24.54 69.134 24.268 69.22 23.996 69.262 23.663 69.262 23.268 69.262 22.575 69.148 22.068 68.919 21.752 68.689 21.435 68.366 21.275 67.95 21.275 67.817 21.275 67.68 21.301 67.538 21.352 67.398 21.403 67.268 21.457 67.15 21.516 67.012 21.585 66.877 21.663 66.742 21.748L66.782 21.275 66.782 19.268 66.206 19.268zM66.782 22.172C66.91 22.097 67.038 22.031 67.166 21.972 67.273 21.924 67.388 21.879 67.51 21.836 67.633 21.793 67.742 21.771 67.838 21.771 67.993 21.771 68.124 21.809 68.23 21.884 68.337 21.959 68.422 22.065 68.486 22.204 68.55 22.343 68.597 22.508 68.627 22.7 68.656 22.892 68.67 23.108 68.67 23.348 68.67 23.833 68.589 24.217 68.426 24.5 68.264 24.783 68.054 24.924 67.798 24.924 67.628 24.924 67.479 24.9 67.35 24.856 67.222 24.811 67.116 24.759 67.03 24.7 66.934 24.636 66.852 24.561 66.782 24.476L66.782 22.172zM72.894 24.651C72.761 24.705 72.626 24.751 72.486 24.788 72.364 24.82 72.232 24.849 72.09 24.876 71.949 24.903 71.809 24.916 71.67 24.916 71.479 24.916 71.318 24.884 71.19 24.821 71.063 24.757 70.959 24.67 70.878 24.558 70.798 24.447 70.74 24.313 70.702 24.157 70.665 24 70.638 23.829 70.622 23.644L71.406 23.644C71.593 23.644 71.78 23.628 71.966 23.596 72.153 23.564 72.32 23.501 72.466 23.407 72.613 23.314 72.733 23.185 72.826 23.022 72.92 22.858 72.966 22.646 72.966 22.384 72.966 22.015 72.854 21.736 72.63 21.549 72.406 21.362 72.102 21.268 71.718 21.268 71.473 21.268 71.248 21.312 71.043 21.4 70.837 21.488 70.66 21.623 70.51 21.804 70.361 21.984 70.245 22.211 70.162 22.48 70.08 22.749 70.038 23.063 70.038 23.42 70.038 24.044 70.162 24.532 70.41 24.884 70.658 25.235 71.044 25.412 71.566 25.412 71.748 25.412 71.919 25.4 72.078 25.376 72.238 25.352 72.38 25.324 72.502 25.292 72.641 25.255 72.772 25.212 72.894 25.164L72.894 24.651zM70.614 23.164C70.62 22.971 70.648 22.789 70.698 22.617 70.749 22.445 70.82 22.295 70.91 22.166 71.002 22.038 71.114 21.936 71.251 21.861 71.386 21.786 71.543 21.748 71.718 21.748 71.937 21.748 72.104 21.807 72.218 21.925 72.334 22.043 72.39 22.209 72.39 22.424 72.39 22.649 72.31 22.829 72.15 22.963 71.99 23.097 71.742 23.164 71.406 23.164L70.614 23.164 70.614 23.164zM2.352 10.044C2.299 10.039 2.243 10.031 2.184 10.02 2.136 10.015 2.083 10.009 2.024 10.004 1.965 9.999 1.907 9.996 1.848 9.996 1.411 9.996 1.104 10.105.928 10.324.752 10.543.664 10.879.664 11.332L.664 12.147 0 12.147 0 12.628.664 12.628.664 16.148 1.24 16.148 1.24 12.628 2.232 12.628 2.232 12.147 1.24 12.147 1.24 11.42C1.24 11.26 1.248 11.121 1.264 11.004 1.28 10.887 1.312 10.791 1.36 10.716 1.408 10.641 1.479 10.585 1.572 10.548 1.665 10.511 1.789 10.492 1.944 10.492 1.987 10.492 2.032 10.495 2.08 10.5 2.128 10.505 2.173 10.511 2.216 10.516 2.264 10.527 2.309 10.535 2.352 10.54L2.352 10.044zM3.304 11.088C3.224 11.165 3.184 11.265 3.184 11.388 3.184 11.511 3.224 11.608 3.304 11.684 3.384 11.759 3.48 11.796 3.592 11.796 3.715 11.796 3.816 11.759 3.896 11.684 3.976 11.608 4.016 11.511 4.016 11.388 4.016 11.265 3.975 11.165 3.892 11.088 3.809 11.011 3.709 10.972 3.592 10.972 3.48 10.972 3.384 11.011 3.304 11.088L3.304 11.088zM5.08 11.088C5 11.165 4.96 11.265 4.96 11.388 4.96 11.511 5 11.608 5.08 11.684 5.16 11.759 5.256 11.796 5.368 11.796 5.491 11.796 5.592 11.759 5.672 11.684 5.752 11.608 5.792 11.511 5.792 11.388 5.792 11.265 5.751 11.165 5.668 11.088 5.585 11.011 5.485 10.972 5.368 10.972 5.256 10.972 5.16 11.011 5.08 11.088L5.08 11.088zM2.976 12.147L2.976 15.1C2.976 15.228 2.989 15.357 3.016 15.488 3.043 15.619 3.095 15.739 3.172 15.848 3.249 15.957 3.359 16.047 3.5 16.116 3.641 16.185 3.827 16.22 4.056 16.22 4.221 16.22 4.387 16.196 4.552 16.148 4.717 16.1 4.867 16.047 5 15.988 5.155 15.919 5.304 15.839 5.448 15.748L5.528 16.148 5.968 16.148 5.968 12.147 5.392 12.147 5.392 15.331C5.264 15.411 5.131 15.481 4.992 15.54 4.875 15.593 4.744 15.64 4.6 15.68 4.456 15.72 4.315 15.74 4.176 15.74 4.043 15.74 3.936 15.721 3.856 15.684 3.776 15.647 3.713 15.593 3.668 15.524 3.623 15.454 3.592 15.368 3.576 15.267 3.56 15.166 3.552 15.051 3.552 14.922L3.552 12.147 2.976 12.147zM9.28 12.076C9.093 12.065 8.915 12.085 8.744 12.136 8.573 12.187 8.419 12.241 8.28 12.3 8.12 12.369 7.968 12.452 7.824 12.548L7.744 12.147 7.304 12.147 7.304 16.148 7.88 16.148 7.88 12.972C8.024 12.892 8.173 12.823 8.328 12.764 8.461 12.711 8.611 12.667 8.776 12.632 8.941 12.597 9.109 12.588 9.28 12.604L9.28 12.076zM16.384 16.148C16.464 15.812 16.536 15.492 16.6 15.188 16.626 15.06 16.653 14.928 16.68 14.792 16.706 14.656 16.732 14.524 16.756 14.396 16.78 14.268 16.8 14.148 16.816 14.036 16.832 13.924 16.842 13.828 16.848 13.748L17.064 10.548 16.432 10.548 16.288 13.748C16.277 13.865 16.258 14.031 16.232 14.244 16.205 14.457 16.176 14.668 16.144 14.876 16.106 15.121 16.064 15.38 16.016 15.651L14.776 10.548 14.056 10.548 12.816 15.651C12.768 15.375 12.725 15.113 12.688 14.868 12.656 14.66 12.625 14.451 12.596 14.24 12.566 14.029 12.549 13.865 12.544 13.748L12.4 10.548 11.744 10.548 11.96 13.748C11.965 13.828 11.976 13.924 11.992 14.036 12.008 14.148 12.028 14.268 12.052 14.396 12.076 14.524 12.102 14.656 12.132 14.792 12.161 14.928 12.189 15.06 12.216 15.188 12.28 15.492 12.352 15.812 12.432 16.148L13.224 16.148 14.4 11.26 15.576 16.148 16.384 16.148zM18.256 16.148L18.832 16.148 18.832 12.148 18.256 12.148 18.256 16.148zM18.224 11.212C18.314 11.303 18.426 11.348 18.56 11.348 18.693 11.348 18.805 11.303 18.896 11.212 18.986 11.121 19.032 11.009 19.032 10.876 19.032 10.743 18.986 10.631 18.896 10.54 18.805 10.449 18.693 10.404 18.56 10.404 18.426 10.404 18.314 10.449 18.224 10.54 18.133 10.631 18.088 10.743 18.088 10.876 18.088 11.009 18.133 11.121 18.224 11.212L18.224 11.212zM22.144 12.076C21.957 12.065 21.778 12.085 21.608 12.136 21.437 12.187 21.282 12.241 21.144 12.3 20.984 12.369 20.832 12.452 20.688 12.548L20.608 12.147 20.168 12.147 20.168 16.148 20.744 16.148 20.744 12.972C20.888 12.892 21.037 12.823 21.192 12.764 21.325 12.711 21.474 12.667 21.64 12.632 21.805 12.597 21.973 12.588 22.144 12.604L22.144 12.076zM24.96 15.676C24.917 15.687 24.872 15.695 24.824 15.7 24.744 15.716 24.653 15.724 24.552 15.724 24.397 15.724 24.273 15.705 24.18 15.668 24.086 15.631 24.016 15.574 23.968 15.5 23.92 15.425 23.888 15.328 23.872 15.211 23.856 15.093 23.848 14.954 23.848 14.794L23.848 12.628 24.84 12.628 24.84 12.147 23.848 12.147 23.848 10.548 23.272 10.548 23.272 12.147 22.608 12.147 22.608 12.628 23.272 12.628 23.272 14.881C23.272 15.335 23.36 15.672 23.536 15.891 23.712 16.109 24.018 16.22 24.456 16.22 24.514 16.22 24.573 16.219 24.632 16.216 24.69 16.213 24.744 16.207 24.792 16.196 24.85 16.191 24.906 16.183 24.96 16.172L24.96 15.676zM27.839 12.181C27.738 12.165 27.634 12.147 27.527 12.132 27.437 12.121 27.33 12.108 27.207 12.096 27.085 12.083 26.959 12.076 26.831 12.076 26.597 12.076 26.395 12.104 26.227 12.16 26.059 12.216 25.922 12.294 25.815 12.393 25.709 12.492 25.63 12.607 25.579 12.738 25.529 12.868 25.503 13.009 25.503 13.158 25.503 13.399 25.551 13.59 25.647 13.732 25.743 13.873 25.863 13.987 26.007 14.072 26.151 14.158 26.309 14.226 26.479 14.276 26.65 14.328 26.807 14.385 26.951 14.449 27.095 14.513 27.215 14.593 27.311 14.689 27.407 14.786 27.455 14.922 27.455 15.099 27.455 15.163 27.446 15.231 27.427 15.303 27.409 15.375 27.371 15.441 27.315 15.504 27.259 15.565 27.183 15.617 27.087 15.66 26.991 15.703 26.863 15.724 26.703 15.724 26.57 15.724 26.435 15.715 26.299 15.696 26.163 15.677 26.039 15.655 25.927 15.628 25.794 15.601 25.666 15.569 25.543 15.532L25.543 16.07C25.655 16.102 25.775 16.128 25.903 16.149 26.01 16.17 26.133 16.187 26.271 16.2 26.41 16.213 26.554 16.22 26.703 16.22 26.959 16.22 27.173 16.187 27.343 16.12 27.514 16.054 27.65 15.966 27.751 15.857 27.853 15.748 27.925 15.624 27.967 15.486 28.01 15.347 28.031 15.209 28.031 15.071 28.031 14.81 27.983 14.602 27.887 14.448 27.791 14.294 27.67 14.173 27.523 14.085 27.377 13.997 27.218 13.926 27.047 13.873 26.877 13.82 26.718 13.764 26.571 13.705 26.425 13.646 26.303 13.571 26.207 13.478 26.111 13.385 26.063 13.253 26.063 13.083 26.063 12.95 26.117 12.829 26.223 12.72 26.33 12.611 26.533 12.556 26.831 12.556 26.949 12.556 27.066 12.564 27.183 12.58L27.511 12.612C27.623 12.633 27.733 12.652 27.839 12.668L27.839 12.181zM31.463 15.556C31.367 15.593 31.269 15.623 31.167 15.644 31.077 15.665 30.974 15.684 30.859 15.7 30.745 15.716 30.629 15.724 30.511 15.724 30.373 15.724 30.237 15.701 30.103 15.656 29.97 15.611 29.853 15.529 29.751 15.412 29.65 15.295 29.569 15.133 29.507 14.928 29.446 14.723 29.415 14.463 29.415 14.148 29.415 13.881 29.446 13.649 29.507 13.452 29.569 13.255 29.65 13.091 29.751 12.96 29.853 12.829 29.97 12.732 30.103 12.668 30.237 12.604 30.375 12.572 30.519 12.572 30.637 12.572 30.749 12.58 30.855 12.596 30.962 12.612 31.058 12.628 31.143 12.644 31.239 12.665 31.333 12.687 31.423 12.708L31.423 12.204C31.322 12.183 31.218 12.161 31.111 12.14 31.021 12.124 30.921 12.108 30.811 12.096 30.702 12.083 30.602 12.076 30.511 12.076 30.245 12.076 30.007 12.127 29.799 12.228 29.591 12.329 29.415 12.473 29.271 12.66 29.127 12.847 29.017 13.072 28.939 13.336 28.862 13.6 28.823 13.897 28.823 14.228 28.823 14.889 28.962 15.387 29.239 15.72 29.517 16.053 29.941 16.22 30.511 16.22 30.639 16.22 30.761 16.212 30.875 16.196 30.99 16.18 31.093 16.161 31.183 16.14 31.285 16.119 31.378 16.092 31.463 16.06L31.463 15.556zM35.423 16.148L35.423 13.196C35.423 13.067 35.41 12.939 35.383 12.808 35.357 12.677 35.305 12.557 35.227 12.448 35.15 12.339 35.041 12.249 34.899 12.18 34.758 12.111 34.573 12.076 34.343 12.076 34.178 12.076 34.014 12.1 33.851 12.147 33.689 12.196 33.541 12.249 33.407 12.308 33.253 12.377 33.106 12.455 32.967 12.54L33.007 12.06 33.007 10.067 32.431 10.067 32.431 16.148 33.007 16.148 33.007 12.965C33.135 12.89 33.269 12.823 33.407 12.765 33.525 12.711 33.655 12.663 33.799 12.62 33.943 12.577 34.085 12.556 34.223 12.556 34.357 12.556 34.463 12.575 34.543 12.612 34.623 12.649 34.686 12.703 34.731 12.772 34.777 12.842 34.807 12.928 34.823 13.029 34.839 13.131 34.847 13.246 34.847 13.374L34.847 16.148 35.423 16.148zM36.807 12.82C36.967 12.772 37.127 12.729 37.287 12.691 37.426 12.66 37.575 12.629 37.735 12.6 37.895 12.571 38.045 12.556 38.183 12.556 38.477 12.556 38.675 12.608 38.779 12.713 38.883 12.817 38.935 13.007 38.935 13.281L38.935 13.748 37.991 13.748C37.789 13.748 37.601 13.777 37.427 13.836 37.254 13.895 37.106 13.979 36.983 14.088 36.861 14.197 36.765 14.332 36.695 14.492 36.626 14.651 36.591 14.833 36.591 15.036 36.591 15.196 36.614 15.348 36.659 15.492 36.705 15.636 36.774 15.761 36.867 15.868 36.961 15.975 37.079 16.06 37.223 16.124 37.367 16.188 37.541 16.22 37.743 16.22 37.882 16.22 38.023 16.196 38.167 16.148 38.311 16.1 38.445 16.047 38.567 15.988 38.706 15.919 38.847 15.839 38.991 15.748L39.071 16.148 39.511 16.148 39.511 13.14C39.511 12.932 39.487 12.76 39.439 12.624 39.391 12.488 39.318 12.38 39.219 12.3 39.121 12.22 38.995 12.163 38.843 12.128 38.691 12.093 38.511 12.076 38.303 12.076 38.106 12.076 37.918 12.089 37.739 12.116 37.561 12.142 37.402 12.168 37.263 12.195 37.098 12.232 36.946 12.271 36.807 12.313L36.807 12.82zM37.419 14.399C37.587 14.269 37.799 14.204 38.055 14.204L38.935 14.204 38.935 15.316C38.807 15.396 38.679 15.465 38.551 15.524 38.445 15.577 38.327 15.624 38.199 15.664 38.071 15.704 37.954 15.724 37.847 15.724 37.629 15.724 37.461 15.657 37.343 15.524 37.226 15.391 37.167 15.212 37.167 14.988 37.167 14.727 37.251 14.531 37.419 14.399L37.419 14.399zM42.775 10.044C42.722 10.039 42.666 10.031 42.607 10.02 42.559 10.015 42.506 10.009 42.447 10.004 42.388 9.999 42.33 9.996 42.271 9.996 41.834 9.996 41.527 10.105 41.351 10.324 41.175 10.543 41.087 10.879 41.087 11.332L41.087 12.147 40.423 12.147 40.423 12.628 41.087 12.628 41.087 16.148 41.663 16.148 41.663 12.628 42.655 12.628 42.655 12.147 41.663 12.147 41.663 11.42C41.663 11.26 41.671 11.121 41.687 11.004 41.703 10.887 41.735 10.791 41.783 10.716 41.831 10.641 41.902 10.585 41.995 10.548 42.088 10.511 42.212 10.492 42.367 10.492 42.41 10.492 42.455 10.495 42.503 10.5 42.551 10.505 42.596 10.511 42.639 10.516 42.687 10.527 42.732 10.535 42.775 10.54L42.775 10.044zM45.271 15.676C45.228 15.687 45.183 15.695 45.135 15.7 45.055 15.716 44.964 15.724 44.863 15.724 44.708 15.724 44.584 15.705 44.491 15.668 44.398 15.631 44.327 15.574 44.279 15.5 44.231 15.425 44.199 15.328 44.183 15.211 44.167 15.093 44.159 14.954 44.159 14.794L44.159 12.628 45.151 12.628 45.151 12.147 44.159 12.147 44.159 10.548 43.583 10.548 43.583 12.147 42.919 12.147 42.919 12.628 43.583 12.628 43.583 14.881C43.583 15.335 43.671 15.672 43.847 15.891 44.023 16.109 44.33 16.22 44.767 16.22 44.826 16.22 44.884 16.219 44.943 16.216 45.002 16.213 45.055 16.207 45.103 16.196 45.162 16.191 45.218 16.183 45.271 16.172L45.271 15.676zM46.411 15.424C46.318 15.517 46.271 15.633 46.271 15.772 46.271 15.873 46.296 15.961 46.347 16.036 46.398 16.111 46.466 16.167 46.551 16.204L46.047 17.308 46.463 17.308 47.239 16.18 47.239 15.764C47.239 15.625 47.192 15.511 47.099 15.42 47.006 15.329 46.89 15.284 46.751 15.284 46.618 15.284 46.504 15.331 46.411 15.424L46.411 15.424zM49.487 16.148L52.223 16.148 52.223 15.62 50.095 15.62 50.095 13.516 51.983 13.516 51.983 13.004 50.095 13.004 50.095 11.076 52.143 11.076 52.143 10.548 49.487 10.548 49.487 16.148zM56.359 16.148L56.359 13.196C56.359 13.067 56.346 12.939 56.319 12.808 56.292 12.677 56.24 12.557 56.163 12.448 56.086 12.339 55.976 12.249 55.835 12.18 55.694 12.111 55.508 12.076 55.279 12.076 55.114 12.076 54.948 12.101 54.783 12.152 54.618 12.203 54.468 12.257 54.335 12.316 54.18 12.385 54.031 12.463 53.887 12.548L53.807 12.147 53.367 12.147 53.367 16.148 53.943 16.148 53.943 12.965C54.071 12.89 54.204 12.823 54.343 12.765 54.46 12.711 54.591 12.663 54.735 12.62 54.879 12.577 55.02 12.556 55.159 12.556 55.292 12.556 55.399 12.575 55.479 12.612 55.559 12.649 55.622 12.703 55.667 12.772 55.712 12.842 55.743 12.928 55.759 13.029 55.775 13.131 55.783 13.246 55.783 13.374L55.783 16.148 56.359 16.148zM60.255 15.452C60.121 15.505 59.985 15.551 59.847 15.588 59.724 15.62 59.592 15.649 59.451 15.676 59.309 15.703 59.169 15.716 59.031 15.716 58.839 15.716 58.679 15.684 58.551 15.621 58.423 15.557 58.319 15.47 58.239 15.358 58.159 15.247 58.1 15.113 58.063 14.957 58.025 14.801 57.999 14.63 57.983 14.444L58.767 14.444C58.953 14.444 59.14 14.428 59.327 14.396 59.513 14.364 59.68 14.301 59.827 14.207 59.973 14.114 60.093 13.984 60.187 13.822 60.28 13.659 60.327 13.446 60.327 13.184 60.327 12.815 60.215 12.536 59.991 12.349 59.767 12.162 59.463 12.067 59.079 12.067 58.833 12.067 58.608 12.112 58.403 12.2 58.197 12.288 58.02 12.423 57.871 12.604 57.721 12.785 57.605 13.011 57.523 13.28 57.44 13.549 57.399 13.863 57.399 14.22 57.399 14.844 57.523 15.332 57.771 15.684 58.019 16.036 58.404 16.212 58.927 16.212 59.108 16.212 59.279 16.2 59.439 16.176 59.599 16.151 59.74 16.124 59.863 16.092 60.001 16.055 60.132 16.012 60.255 15.964L60.255 15.452zM57.975 13.964C57.98 13.771 58.008 13.589 58.059 13.417 58.109 13.245 58.18 13.095 58.271 12.966 58.361 12.838 58.475 12.736 58.611 12.661 58.747 12.586 58.903 12.548 59.079 12.548 59.297 12.548 59.464 12.607 59.579 12.725 59.693 12.843 59.751 13.009 59.751 13.224 59.751 13.449 59.671 13.629 59.511 13.763 59.351 13.897 59.103 13.964 58.767 13.964L57.975 13.964zM63.439 12.076C63.252 12.065 63.073 12.085 62.903 12.136 62.732 12.187 62.577 12.241 62.439 12.3 62.279 12.369 62.127 12.452 61.983 12.548L61.903 12.147 61.463 12.147 61.463 16.148 62.039 16.148 62.039 12.972C62.183 12.892 62.332 12.823 62.487 12.764 62.62 12.711 62.769 12.667 62.935 12.632 63.1 12.597 63.268 12.588 63.439 12.604L63.439 12.076zM64.767 13.112C64.82 12.98 64.889 12.873 64.975 12.788 65.06 12.703 65.157 12.64 65.267 12.6 65.376 12.56 65.484 12.54 65.591 12.54 65.772 12.54 65.929 12.565 66.063 12.616 66.196 12.667 66.308 12.721 66.399 12.78 66.5 12.849 66.588 12.929 66.663 13.02L66.663 13.58C66.663 13.937 66.567 14.203 66.375 14.376 66.183 14.549 65.948 14.636 65.671 14.636 65.393 14.636 65.16 14.549 64.971 14.376 64.781 14.203 64.687 13.937 64.687 13.58 64.687 13.399 64.713 13.243 64.767 13.112L64.767 13.112zM64.911 16.22C64.943 16.225 64.979 16.229 65.019 16.232 65.059 16.234 65.103 16.236 65.151 16.236L66.159 16.236C66.271 16.236 66.377 16.243 66.479 16.256 66.58 16.269 66.668 16.294 66.743 16.331 66.817 16.368 66.877 16.421 66.923 16.49 66.968 16.559 66.991 16.649 66.991 16.76 66.991 16.872 66.957 16.968 66.891 17.051 66.824 17.133 66.732 17.2 66.615 17.253 66.497 17.306 66.36 17.346 66.203 17.372 66.045 17.399 65.876 17.412 65.695 17.412 65.513 17.412 65.347 17.4 65.195 17.38 65.043 17.358 64.912 17.325 64.803 17.276 64.693 17.229 64.608 17.167 64.547 17.09 64.485 17.013 64.455 16.917 64.455 16.8 64.455 16.71 64.473 16.627 64.511 16.55 64.548 16.473 64.588 16.408 64.631 16.355 64.684 16.297 64.743 16.244 64.807 16.196 64.839 16.207 64.873 16.215 64.911 16.22L64.911 16.22zM64.315 17.581C64.584 17.74 65.025 17.82 65.639 17.82 66.257 17.82 66.728 17.717 67.051 17.512 67.373 17.307 67.535 17.036 67.535 16.7 67.535 16.369 67.431 16.129 67.223 15.98 67.015 15.831 66.708 15.756 66.303 15.756L65.303 15.756C65.095 15.756 64.948 15.724 64.863 15.66 64.777 15.596 64.735 15.511 64.735 15.404 64.735 15.185 64.929 15.076 65.319 15.076L65.671 15.076C65.879 15.076 66.076 15.045 66.263 14.983 66.449 14.923 66.613 14.829 66.755 14.704 66.896 14.579 67.009 14.419 67.095 14.224 67.18 14.029 67.223 13.799 67.223 13.532L67.223 12.147 66.791 12.147 66.711 12.548C66.62 12.463 66.513 12.385 66.391 12.316 66.284 12.257 66.156 12.203 66.007 12.152 65.857 12.101 65.687 12.076 65.495 12.076 65.335 12.076 65.173 12.107 65.011 12.168 64.848 12.229 64.701 12.324 64.571 12.452 64.44 12.58 64.332 12.741 64.247 12.936 64.161 13.131 64.119 13.358 64.119 13.62 64.119 13.855 64.152 14.048 64.219 14.2 64.285 14.352 64.361 14.473 64.447 14.563 64.543 14.671 64.655 14.753 64.783 14.812 64.671 14.834 64.572 14.874 64.487 14.932 64.412 14.981 64.344 15.05 64.283 15.141 64.221 15.232 64.191 15.35 64.191 15.495 64.191 15.586 64.204 15.665 64.231 15.731 64.257 15.798 64.287 15.853 64.319 15.896 64.356 15.95 64.401 15.99 64.455 16.016 64.353 16.07 64.263 16.139 64.183 16.224 64.113 16.298 64.051 16.389 63.995 16.495 63.939 16.602 63.911 16.724 63.911 16.862 63.911 17.182 64.045 17.421 64.315 17.581L64.315 17.581zM68.407 16.148L68.983 16.148 68.983 12.148 68.407 12.148 68.407 16.148zM68.375 11.212C68.465 11.303 68.577 11.348 68.711 11.348 68.844 11.348 68.956 11.303 69.047 11.212 69.137 11.121 69.183 11.009 69.183 10.876 69.183 10.743 69.137 10.631 69.047 10.54 68.956 10.449 68.844 10.404 68.711 10.404 68.577 10.404 68.465 10.449 68.375 10.54 68.284 10.631 68.239 10.743 68.239 10.876 68.239 11.009 68.284 11.121 68.375 11.212L68.375 11.212zM72.895 15.452C72.761 15.505 72.625 15.551 72.487 15.588 72.364 15.62 72.232 15.649 72.091 15.676 71.949 15.703 71.809 15.716 71.671 15.716 71.479 15.716 71.319 15.684 71.191 15.621 71.063 15.557 70.959 15.47 70.879 15.358 70.799 15.247 70.74 15.113 70.703 14.957 70.665 14.801 70.639 14.63 70.623 14.444L71.407 14.444C71.593 14.444 71.78 14.428 71.967 14.396 72.153 14.364 72.32 14.301 72.467 14.207 72.613 14.114 72.733 13.984 72.827 13.822 72.92 13.659 72.967 13.446 72.967 13.184 72.967 12.815 72.855 12.536 72.631 12.349 72.407 12.162 72.103 12.067 71.719 12.067 71.473 12.067 71.248 12.112 71.043 12.2 70.837 12.288 70.66 12.423 70.511 12.604 70.361 12.785 70.245 13.011 70.163 13.28 70.08 13.549 70.039 13.863 70.039 14.22 70.039 14.844 70.163 15.332 70.411 15.684 70.659 16.036 71.044 16.212 71.567 16.212 71.748 16.212 71.919 16.2 72.079 16.176 72.239 16.151 72.38 16.124 72.503 16.092 72.641 16.055 72.772 16.012 72.895 15.964L72.895 15.452zM70.615 13.964C70.62 13.771 70.648 13.589 70.699 13.417 70.749 13.245 70.82 13.095 70.911 12.966 71.001 12.838 71.115 12.736 71.251 12.661 71.387 12.586 71.543 12.548 71.719 12.548 71.937 12.548 72.104 12.607 72.219 12.725 72.333 12.843 72.391 13.009 72.391 13.224 72.391 13.449 72.311 13.629 72.151 13.763 71.991 13.897 71.743 13.964 71.407 13.964L70.615 13.964 70.615 13.964zM17.248 1.388C17.115 1.372 16.98 1.353 16.848 1.332 16.735 1.315 16.613 1.301 16.48 1.288 16.347 1.274 16.224 1.268 16.111 1.268 15.845 1.268 15.61 1.305 15.408 1.38 15.205 1.455 15.035 1.557 14.896 1.688 14.756 1.819 14.651 1.971 14.58 2.144 14.507 2.316 14.472 2.503 14.472 2.7 14.472 3.009 14.531 3.261 14.648 3.456 14.765 3.65 14.911 3.814 15.084 3.948 15.256 4.081 15.444 4.195 15.647 4.288 15.851 4.381 16.039 4.48 16.211 4.584 16.385 4.688 16.531 4.809 16.647 4.948 16.765 5.087 16.824 5.268 16.824 5.492 16.824 5.796 16.729 6.037 16.54 6.216 16.351 6.395 16.072 6.483 15.704 6.483 15.555 6.483 15.405 6.473 15.255 6.452 15.106 6.431 14.971 6.407 14.848 6.38 14.709 6.348 14.573 6.311 14.44 6.268L14.44 6.828C14.567 6.871 14.701 6.905 14.839 6.932 14.962 6.959 15.096 6.98 15.24 7 15.384 7.019 15.533 7.028 15.688 7.028 15.992 7.028 16.254 6.989 16.476 6.912 16.697 6.835 16.879 6.727 17.023 6.588 17.168 6.449 17.273 6.284 17.339 6.092 17.407 5.899 17.44 5.689 17.44 5.46 17.44 5.156 17.38 4.909 17.264 4.72 17.147 4.531 17 4.373 16.824 4.248 16.647 4.123 16.456 4.015 16.252 3.924 16.046 3.833 15.855 3.734 15.68 3.628 15.503 3.521 15.356 3.395 15.24 3.248 15.123 3.101 15.064 2.911 15.064 2.676 15.064 2.42 15.157 2.209 15.344 2.044 15.531 1.879 15.781 1.796 16.096 1.796 16.208 1.796 16.331 1.804 16.463 1.82 16.597 1.836 16.723 1.852 16.839 1.868 16.979 1.889 17.115 1.911 17.248 1.932L17.248 1.388zM21.16 6.252C21.026 6.305 20.891 6.351 20.752 6.388 20.628 6.42 20.497 6.449 20.355 6.476 20.214 6.503 20.075 6.516 19.936 6.516 19.744 6.516 19.584 6.483 19.456 6.421 19.328 6.356 19.224 6.27 19.144 6.158 19.063 6.047 19.004 5.913 18.968 5.757 18.931 5.601 18.903 5.43 18.888 5.244L19.671 5.244C19.858 5.244 20.044 5.228 20.231 5.196 20.419 5.164 20.585 5.101 20.731 5.007 20.878 4.914 20.999 4.785 21.092 4.622 21.185 4.459 21.231 4.246 21.231 3.983 21.231 3.615 21.12 3.336 20.896 3.148 20.671 2.962 20.368 2.868 19.983 2.868 19.739 2.868 19.513 2.912 19.308 3 19.103 3.088 18.925 3.223 18.775 3.404 18.627 3.585 18.511 3.811 18.428 4.08 18.345 4.349 18.304 4.663 18.304 5.02 18.304 5.644 18.428 6.132 18.676 6.483 18.923 6.836 19.309 7.012 19.831 7.012 20.013 7.012 20.184 7 20.344 6.976 20.503 6.952 20.645 6.924 20.768 6.892 20.907 6.855 21.037 6.812 21.16 6.764L21.16 6.252zM18.879 4.764C18.885 4.571 18.913 4.389 18.963 4.217 19.015 4.045 19.085 3.895 19.176 3.766 19.267 3.638 19.379 3.536 19.516 3.461 19.651 3.386 19.808 3.348 19.983 3.348 20.203 3.348 20.369 3.407 20.483 3.524 20.599 3.643 20.656 3.809 20.656 4.023 20.656 4.249 20.576 4.429 20.416 4.563 20.255 4.697 20.007 4.764 19.671 4.764L18.879 4.764zM25.359 6.948L25.359 3.996C25.359 3.868 25.347 3.739 25.319 3.607 25.293 3.477 25.241 3.356 25.164 3.248 25.086 3.139 24.977 3.049 24.835 2.98 24.694 2.911 24.509 2.876 24.28 2.876 24.115 2.876 23.949 2.9 23.784 2.952 23.619 3.003 23.469 3.057 23.335 3.116 23.181 3.185 23.032 3.263 22.888 3.348L22.808 2.948 22.368 2.948 22.368 6.948 22.943 6.948 22.943 3.765C23.072 3.689 23.205 3.623 23.344 3.564 23.46 3.511 23.592 3.463 23.735 3.42 23.879 3.377 24.021 3.355 24.16 3.355 24.293 3.355 24.399 3.375 24.48 3.412 24.56 3.45 24.623 3.503 24.668 3.573 24.712 3.642 24.744 3.728 24.76 3.829 24.775 3.931 24.784 4.046 24.784 4.174L24.784 6.948 25.359 6.948zM26.744 3.62C26.904 3.572 27.064 3.529 27.224 3.492 27.361 3.46 27.512 3.429 27.671 3.399 27.832 3.371 27.981 3.355 28.12 3.355 28.413 3.355 28.611 3.408 28.715 3.513 28.819 3.618 28.872 3.807 28.872 4.081L28.872 4.548 27.928 4.548C27.725 4.548 27.537 4.577 27.364 4.636 27.19 4.695 27.042 4.779 26.919 4.888 26.796 4.997 26.701 5.132 26.631 5.292 26.562 5.452 26.527 5.633 26.527 5.836 26.527 5.996 26.55 6.148 26.596 6.292 26.641 6.436 26.71 6.561 26.804 6.668 26.896 6.774 27.016 6.859 27.16 6.924 27.304 6.988 27.477 7.02 27.68 7.02 27.817 7.02 27.96 6.996 28.104 6.948 28.248 6.899 28.38 6.847 28.503 6.788 28.642 6.719 28.784 6.639 28.928 6.548L29.007 6.948 29.448 6.948 29.448 3.939C29.448 3.731 29.423 3.56 29.376 3.424 29.328 3.288 29.253 3.18 29.156 3.1 29.057 3.02 28.932 2.963 28.78 2.928 28.627 2.893 28.448 2.876 28.24 2.876 28.042 2.876 27.854 2.889 27.676 2.916 27.497 2.941 27.337 2.968 27.2 2.995 27.034 3.032 26.881 3.071 26.744 3.114L26.744 3.62zM27.355 5.2C27.523 5.069 27.735 5.004 27.992 5.004L28.872 5.004 28.872 6.116C28.744 6.196 28.616 6.265 28.488 6.324 28.38 6.377 28.264 6.424 28.136 6.464 28.007 6.504 27.89 6.523 27.784 6.523 27.565 6.523 27.396 6.457 27.28 6.324 27.162 6.19 27.104 6.012 27.104 5.788 27.104 5.526 27.188 5.331 27.355 5.2L27.355 5.2zM32.696 6.476C32.652 6.487 32.607 6.495 32.56 6.5 32.479 6.516 32.389 6.523 32.288 6.523 32.132 6.523 32.009 6.505 31.916 6.468 31.822 6.431 31.752 6.374 31.704 6.299 31.656 6.225 31.624 6.128 31.607 6.011 31.592 5.893 31.584 5.754 31.584 5.594L31.584 3.428 32.576 3.428 32.576 2.948 31.584 2.948 31.584 1.348 31.007 1.348 31.007 2.948 30.344 2.948 30.344 3.428 31.007 3.428 31.007 5.681C31.007 6.135 31.096 6.472 31.272 6.69 31.448 6.911 31.753 7.02 32.191 7.02 32.25 7.02 32.309 7.019 32.368 7.016 32.426 7.013 32.479 7.007 32.527 6.996 32.585 6.991 32.642 6.982 32.696 6.972L32.696 6.476zM35.576 2.98C35.474 2.965 35.37 2.948 35.264 2.932 35.172 2.921 35.065 2.909 34.943 2.896 34.821 2.883 34.696 2.876 34.567 2.876 34.333 2.876 34.131 2.904 33.963 2.96 33.795 3.016 33.658 3.094 33.552 3.192 33.444 3.292 33.366 3.407 33.315 3.538 33.265 3.669 33.24 3.809 33.24 3.958 33.24 4.199 33.288 4.39 33.384 4.532 33.48 4.673 33.6 4.787 33.744 4.872 33.888 4.958 34.044 5.025 34.215 5.077 34.386 5.128 34.544 5.185 34.688 5.249 34.832 5.313 34.952 5.394 35.047 5.49 35.144 5.586 35.191 5.722 35.191 5.898 35.191 5.963 35.182 6.031 35.164 6.103 35.145 6.175 35.107 6.242 35.052 6.304 34.996 6.365 34.919 6.417 34.824 6.46 34.728 6.503 34.6 6.523 34.44 6.523 34.306 6.523 34.171 6.515 34.036 6.496 33.899 6.477 33.775 6.455 33.664 6.428 33.53 6.4 33.401 6.369 33.28 6.332L33.28 6.87C33.392 6.901 33.512 6.928 33.64 6.949 33.746 6.97 33.869 6.987 34.007 7 34.146 7.013 34.29 7.02 34.44 7.02 34.696 7.02 34.909 6.987 35.08 6.92 35.25 6.854 35.386 6.766 35.488 6.657 35.588 6.548 35.661 6.424 35.704 6.286 35.746 6.147 35.768 6.009 35.768 5.871 35.768 5.609 35.72 5.401 35.624 5.248 35.527 5.094 35.406 4.973 35.26 4.885 35.113 4.797 34.954 4.726 34.784 4.673 34.613 4.62 34.454 4.564 34.308 4.506 34.161 4.447 34.04 4.371 33.943 4.278 33.848 4.185 33.8 4.053 33.8 3.883 33.8 3.75 33.853 3.629 33.96 3.52 34.065 3.411 34.269 3.355 34.567 3.355 34.685 3.355 34.802 3.364 34.919 3.38L35.248 3.412C35.359 3.433 35.469 3.452 35.576 3.468L35.576 2.98zM37.775 5.78C37.717 5.599 37.657 5.415 37.596 5.228 37.534 5.041 37.493 4.895 37.472 4.788L37.104 2.948 36.463 2.948 36.879 4.788C36.912 4.937 36.97 5.133 37.056 5.376 37.141 5.619 37.229 5.856 37.319 6.092 37.426 6.364 37.544 6.648 37.671 6.948L38.304 6.948C38.432 6.655 38.548 6.372 38.656 6.1 38.746 5.865 38.835 5.627 38.923 5.384 39.012 5.141 39.074 4.942 39.111 4.788L39.536 2.948 38.919 2.948 38.552 4.788C38.524 4.905 38.483 5.056 38.428 5.24 38.372 5.424 38.312 5.606 38.248 5.788 38.172 6.001 38.093 6.223 38.007 6.452 37.921 6.217 37.845 5.993 37.775 5.78L37.775 5.78zM43.072 6.252C42.938 6.305 42.802 6.351 42.664 6.388 42.541 6.42 42.409 6.449 42.268 6.476 42.126 6.503 41.985 6.516 41.848 6.516 41.656 6.516 41.496 6.483 41.368 6.421 41.24 6.356 41.136 6.27 41.056 6.158 40.976 6.047 40.917 5.913 40.879 5.757 40.842 5.601 40.815 5.43 40.8 5.244L41.584 5.244C41.77 5.244 41.957 5.228 42.144 5.196 42.33 5.164 42.497 5.101 42.644 5.007 42.79 4.914 42.91 4.785 43.003 4.622 43.097 4.459 43.144 4.246 43.144 3.983 43.144 3.615 43.032 3.336 42.808 3.148 42.584 2.962 42.28 2.868 41.896 2.868 41.649 2.868 41.425 2.912 41.22 3 41.014 3.088 40.836 3.223 40.688 3.404 40.538 3.585 40.421 3.811 40.339 4.08 40.256 4.349 40.215 4.663 40.215 5.02 40.215 5.644 40.339 6.132 40.587 6.483 40.835 6.836 41.221 7.012 41.744 7.012 41.925 7.012 42.096 7 42.255 6.976 42.416 6.952 42.557 6.924 42.68 6.892 42.817 6.855 42.949 6.812 43.072 6.764L43.072 6.252zM40.792 4.764C40.796 4.571 40.825 4.389 40.876 4.217 40.926 4.045 40.997 3.895 41.087 3.766 41.178 3.638 41.292 3.536 41.428 3.461 41.564 3.386 41.72 3.348 41.896 3.348 42.114 3.348 42.281 3.407 42.396 3.524 42.51 3.643 42.567 3.809 42.567 4.023 42.567 4.249 42.488 4.429 42.328 4.563 42.168 4.697 41.919 4.764 41.584 4.764L40.792 4.764zM46.255 2.876C46.068 2.865 45.89 2.885 45.72 2.936 45.548 2.987 45.394 3.041 45.255 3.1 45.096 3.169 44.943 3.252 44.8 3.348L44.72 2.948 44.28 2.948 44.28 6.948 44.856 6.948 44.856 3.772C45 3.691 45.148 3.623 45.304 3.564 45.437 3.511 45.585 3.467 45.752 3.432 45.917 3.397 46.085 3.388 46.255 3.404L46.255 2.876zM50.823 6.948C50.919 6.648 51.006 6.364 51.086 6.092 51.157 5.856 51.221 5.62 51.278 5.38 51.337 5.14 51.377 4.942 51.398 4.788L51.623 2.948 51.015 2.948 50.831 4.788C50.821 4.899 50.796 5.049 50.759 5.236 50.722 5.423 50.682 5.606 50.639 5.788 50.59 6.001 50.538 6.223 50.479 6.452L49.543 2.948 48.967 2.948 48.031 6.452C47.973 6.217 47.919 5.993 47.871 5.78 47.829 5.599 47.789 5.415 47.751 5.228 47.713 5.041 47.69 4.895 47.679 4.788L47.495 2.948 46.855 2.948 47.086 4.788C47.103 4.937 47.142 5.133 47.203 5.376 47.265 5.619 47.33 5.856 47.398 6.092 47.479 6.364 47.565 6.648 47.655 6.948L48.367 6.948 49.239 3.66 50.127 6.948 50.823 6.948zM52.734 3.62C52.895 3.572 53.055 3.529 53.214 3.492 53.354 3.46 53.502 3.429 53.663 3.399 53.823 3.371 53.973 3.355 54.11 3.355 54.405 3.355 54.603 3.408 54.707 3.513 54.811 3.618 54.863 3.807 54.863 4.081L54.863 4.548 53.919 4.548C53.717 4.548 53.528 4.577 53.355 4.636 53.182 4.695 53.034 4.779 52.911 4.888 52.789 4.997 52.692 5.132 52.623 5.292 52.554 5.452 52.519 5.633 52.519 5.836 52.519 5.996 52.542 6.148 52.586 6.292 52.632 6.436 52.702 6.561 52.794 6.668 52.889 6.774 53.006 6.859 53.15 6.924 53.294 6.988 53.469 7.02 53.67 7.02 53.81 7.02 53.951 6.996 54.095 6.948 54.239 6.899 54.373 6.847 54.495 6.788 54.634 6.719 54.774 6.639 54.919 6.548L54.999 6.948 55.439 6.948 55.439 3.939C55.439 3.731 55.415 3.56 55.367 3.424 55.318 3.288 55.246 3.18 55.147 3.1 55.048 3.02 54.922 2.963 54.771 2.928 54.619 2.893 54.439 2.876 54.231 2.876 54.034 2.876 53.846 2.889 53.667 2.916 53.489 2.941 53.33 2.968 53.19 2.995 53.025 3.032 52.874 3.071 52.734 3.114L52.734 3.62zM53.347 5.2C53.515 5.069 53.727 5.004 53.982 5.004L54.863 5.004 54.863 6.116C54.734 6.196 54.606 6.265 54.479 6.324 54.373 6.377 54.254 6.424 54.127 6.464 53.999 6.504 53.881 6.523 53.774 6.523 53.557 6.523 53.389 6.457 53.271 6.324 53.153 6.19 53.095 6.012 53.095 5.788 53.095 5.526 53.179 5.331 53.347 5.2L53.347 5.2zM56.759 6.948L57.335 6.948 57.335.868 56.759.868 56.759 6.948zM60.599 6.476C60.557 6.487 60.511 6.495 60.462 6.5 60.382 6.516 60.293 6.523 60.19 6.523 60.037 6.523 59.913 6.505 59.818 6.468 59.726 6.431 59.655 6.374 59.606 6.299 59.559 6.225 59.526 6.128 59.511 6.011 59.495 5.893 59.486 5.754 59.486 5.594L59.486 3.428 60.479 3.428 60.479 2.948 59.486 2.948 59.486 1.348 58.911 1.348 58.911 2.948 58.247 2.948 58.247 3.428 58.911 3.428 58.911 5.681C58.911 6.135 58.999 6.472 59.175 6.69 59.351 6.911 59.658 7.02 60.095 7.02 60.153 7.02 60.212 7.019 60.271 7.016 60.33 7.013 60.382 7.007 60.431 6.996 60.49 6.991 60.545 6.982 60.599 6.972L60.599 6.476zM61.382 2.948L61.382 5.899C61.382 6.028 61.396 6.157 61.422 6.288 61.45 6.419 61.501 6.539 61.579 6.647 61.656 6.757 61.766 6.847 61.907 6.916 62.047 6.984 62.233 7.02 62.462 7.02 62.627 7.02 62.793 6.996 62.959 6.948 63.124 6.899 63.273 6.847 63.407 6.788 63.562 6.719 63.71 6.639 63.854 6.548L63.935 6.948 64.374 6.948 64.374 2.948 63.798 2.948 63.798 6.131C63.67 6.211 63.538 6.281 63.398 6.34 63.282 6.393 63.15 6.439 63.006 6.48 62.863 6.52 62.722 6.54 62.583 6.54 62.45 6.54 62.343 6.521 62.263 6.483 62.183 6.447 62.12 6.393 62.075 6.324 62.03 6.254 61.999 6.169 61.982 6.066 61.967 5.966 61.959 5.851 61.959 5.722L61.959 2.948 61.382 2.948zM68.703 6.948L68.703 3.996C68.703 3.868 68.689 3.739 68.663 3.607 68.636 3.477 68.584 3.356 68.506 3.248 68.43 3.139 68.319 3.049 68.179 2.98 68.038 2.911 67.852 2.876 67.623 2.876 67.458 2.876 67.292 2.9 67.127 2.952 66.961 3.003 66.812 3.057 66.679 3.116 66.523 3.185 66.374 3.263 66.23 3.348L66.15 2.948 65.71 2.948 65.71 6.948 66.287 6.948 66.287 3.765C66.415 3.689 66.547 3.623 66.687 3.564 66.804 3.511 66.935 3.463 67.079 3.42 67.223 3.377 67.364 3.355 67.502 3.355 67.636 3.355 67.743 3.375 67.823 3.412 67.902 3.45 67.965 3.503 68.011 3.573 68.056 3.642 68.086 3.728 68.103 3.829 68.119 3.931 68.127 4.046 68.127 4.174L68.127 6.948 68.703 6.948zM70.462 3.912C70.516 3.781 70.585 3.673 70.67 3.588 70.755 3.503 70.854 3.439 70.962 3.399 71.072 3.359 71.18 3.34 71.287 3.34 71.468 3.34 71.626 3.365 71.759 3.416 71.892 3.467 72.003 3.521 72.095 3.58 72.196 3.648 72.284 3.729 72.358 3.82L72.358 4.38C72.358 4.737 72.263 5.003 72.071 5.176 71.878 5.349 71.644 5.436 71.367 5.436 71.089 5.436 70.855 5.349 70.667 5.176 70.478 5.003 70.382 4.737 70.382 4.38 70.382 4.199 70.41 4.043 70.462 3.912L70.462 3.912zM70.606 7.02C70.639 7.024 70.675 7.029 70.714 7.032 70.754 7.035 70.798 7.036 70.847 7.036L71.855 7.036C71.967 7.036 72.074 7.043 72.175 7.056 72.275 7.069 72.364 7.094 72.438 7.131 72.514 7.168 72.574 7.221 72.619 7.29 72.664 7.358 72.687 7.449 72.687 7.56 72.687 7.672 72.653 7.768 72.586 7.851 72.52 7.933 72.428 8 72.311 8.053 72.193 8.105 72.056 8.146 71.898 8.172 71.742 8.199 71.572 8.212 71.391 8.212 71.21 8.212 71.043 8.201 70.891 8.18 70.739 8.159 70.607 8.125 70.498 8.077 70.39 8.029 70.304 7.967 70.243 7.89 70.182 7.813 70.15 7.717 70.15 7.6 70.15 7.51 70.169 7.427 70.207 7.35 70.244 7.273 70.284 7.208 70.327 7.155 70.379 7.097 70.439 7.044 70.502 6.996 70.535 7.007 70.569 7.015 70.606 7.02L70.606 7.02zM70.011 8.381C70.28 8.54 70.722 8.62 71.335 8.62 71.954 8.62 72.423 8.517 72.747 8.312 73.069 8.106 73.231 7.836 73.231 7.5 73.231 7.169 73.127 6.929 72.919 6.78 72.71 6.631 72.403 6.556 71.998 6.556L70.999 6.556C70.79 6.556 70.644 6.523 70.559 6.46 70.474 6.396 70.431 6.311 70.431 6.204 70.431 5.984 70.626 5.876 71.015 5.876L71.367 5.876C71.575 5.876 71.772 5.845 71.959 5.784 72.146 5.723 72.31 5.629 72.451 5.504 72.592 5.379 72.706 5.219 72.791 5.023 72.876 4.829 72.919 4.599 72.919 4.332L72.919 2.948 72.486 2.948 72.407 3.348C72.315 3.263 72.21 3.185 72.086 3.116 71.98 3.057 71.852 3.003 71.703 2.952 71.554 2.9 71.382 2.876 71.19 2.876 71.031 2.876 70.87 2.907 70.706 2.968 70.544 3.029 70.398 3.124 70.267 3.252 70.136 3.38 70.027 3.541 69.942 3.736 69.857 3.931 69.814 4.159 69.814 4.42 69.814 4.655 69.848 4.848 69.915 5 69.981 5.151 70.058 5.273 70.143 5.364 70.239 5.471 70.351 5.553 70.479 5.612 70.367 5.634 70.268 5.674 70.183 5.731 70.107 5.781 70.04 5.85 69.979 5.94 69.918 6.032 69.887 6.149 69.887 6.295 69.887 6.386 69.899 6.465 69.927 6.531 69.954 6.598 69.982 6.653 70.015 6.696 70.052 6.75 70.098 6.79 70.15 6.815 70.05 6.87 69.959 6.939 69.878 7.023 69.81 7.098 69.747 7.189 69.69 7.295 69.635 7.401 69.606 7.523 69.606 7.662 69.606 7.981 69.742 8.221 70.011 8.381L70.011 8.381z"/>
  </g>
</svg>
