<?xml version="1.0" encoding="UTF-8"?>
<svg width="188px" height="58px" viewBox="0 0 188 58" version="1.1" xmlns="http://www.w3.org/2000/svg" xmlns:xlink="http://www.w3.org/1999/xlink">
    <!-- Generator: Sketch 51 (57462) - http://www.bohemiancoding.com/sketch -->
    <title>logo</title>
    <desc>Created with Sketch.</desc>
    <defs>
        <rect id="path-1" x="0" y="0" width="206" height="89"></rect>
    </defs>
    <g id="Page-1" stroke="none" stroke-width="1" fill="none" fill-rule="evenodd">
        <g id="logo" transform="translate(-9.000000, -16.000000)">
            <mask id="mask-2" fill="white">
                <use xlink:href="#path-1"></use>
            </mask>
            <g id="Mask" fill-rule="nonzero"></g>
            <g mask="url(#mask-2)" fill-rule="nonzero" id="Shape">
                <g transform="translate(7.000000, -51.000000)">
                    <polygon fill-opacity="0" fill="#FFFFFF" points="0 0 192.756 0 192.756 192.756 0 192.756"></polygon>
                    <path d="M36.993,74.94 C39.4415953,74.9455012 41.4250506,76.9294035 41.43,79.378 C41.4245009,81.826206 39.441206,83.8095009 36.993,83.815 C34.5444035,83.8100506 32.5605012,81.8265953 32.555,79.378 C32.5599514,76.9290141 34.5440141,74.9449514 36.993,74.94 Z M52.347,67.912 L189.922,67.912 L189.922,112.386 L71.125,112.386 L71.125,98.18 L71.046,98.18 L71.046,124.844 L64.919,124.844 L64.919,98.18 L58.473,98.18 L58.473,124.844 L52.346,124.844 L52.346,98.18 L46.253,98.18 L46.253,124.844 L40.126,124.844 L40.126,92.778 L2.834,92.778 L2.834,86.719 L40.126,86.719 L40.126,92.778 L71.125,92.778 L71.125,87.552 L52.347,87.552 L52.347,67.912 Z M27.726,98.18 L33.853,98.18 L33.853,124.844 L27.726,124.844 L27.726,98.18 Z M15.286,98.18 L21.413,98.18 L21.413,124.844 L15.286,124.844 L15.286,98.18 Z M2.834,98.18 L8.961,98.18 L8.961,124.844 L2.834,124.844 L2.834,98.18 Z" fill="#CC2229"></path>
                    <path d="M83.312,98.92 L83.312,79.572 C82.702,78.976 82.254,78.989 81.239,78.718 C80.879,78.622 80.605,78.56 80.45,78.4 C80.292,78.236 80.212,78.019 80.212,77.754 C80.212,77.488 80.294,77.273 80.45,77.114 C80.606,76.948 80.869,76.869 81.239,76.869 L90.928,76.869 C92.845,76.869 95.497,77.219 96.7,78.483 C97.908,79.754 98.582,80.089 98.582,83.249 C98.582,85.919 96.921,87.157 94.615,88.414 C96.212,89.075 97.295,89.828 98.135,90.833 C99.168,92.071 99.237,93.4 99.184,94.744 C99.139,95.902 98.795,97 98.305,97.971 C97.813,98.948 97.067,99.782 96.057,100.463 C95.049,101.152 93.947,101.498 92.763,101.498 L81.239,101.498 C80.869,101.498 80.606,101.412 80.45,101.246 C80.2916691,101.073793 80.206346,100.846863 80.212,100.613 C80.212,100.347 80.295,100.134 80.45,99.974 C80.608,99.81 80.835,99.644 81.199,99.568 C81.972,99.408 82.883,99.412 83.312,98.92 Z M87.807,87.539 L90.302,87.534 C91.02,87.532 91.677,87.439 92.765,86.942 C93.347,86.676 93.793,86.275 94.344,85.673 C94.905,85.06 95.03,84.238 95.052,83.465 C95.083,82.356 95.279,81.543 94.342,80.648 C93.367,79.716 91.83,79.384 90.966,79.399 L87.573,79.458 C87.365,79.513 87.223,79.576 87.04,79.824 L87.033,86.887 C87.295,87.336 87.408,87.407 87.807,87.539 Z M87.439,98.779 L91.182,98.789 C91.836,98.791 92.878,98.678 93.567,98.18 C94.289,97.657 95.108,97.006 95.277,96.297 C95.651,94.733 95.856,93.315 95.052,92.172 C93.898,90.529 93.178,90.52 92.81,90.38 C92.265,90.172 90.593,89.943 90.44,89.945 L87.473,89.993 C87.225,90.061 87.135,90.207 87.034,90.557 L87.037,98.385 C87.06,98.631 87.349,98.777 87.439,98.779 Z M117.686,93.08 L105.807,93.08 C106.289,97.332 107.342,99.366 111.219,99.129 C114.235,99.141 116.615,98.231 116.615,98.344 L116.642,100.563 C115.234,101.491 112.535,101.516 110.845,101.514 C103.865,101.506 102.283,97.76 102.275,92.348 C102.267,86.458 106.084,83.765 110.068,83.753 C114.621,83.742 117.562,85.214 117.686,93.08 Z M114.148,90.442 C113.695,86.921 113.134,85.867 110.068,85.976 C107.343,86.073 106.504,87.498 106.072,90.359 L114.148,90.442 Z M123.178,101.498 C122.854,101.498 122.553,101.08 122.553,100.756 L122.553,86.747 C122.504,86.5 122.188,86.181 121.949,86.18 L120.301,86.175 C119.602,86.173 119.492,84.464 119.91,84.235 C120.797,83.815 121.498,83.793 122.553,83.815 L126.03,83.815 L126.03,86.719 C126.594,85.491 127.966,84.19 128.999,83.986 C130.147,83.759 131.923,83.691 131.722,83.815 L131.724,86.719 C126.031,86.097 126.031,92.002 126.031,94.289 L126.031,100.76 C126.031,101.041 125.832,101.35 125.568,101.498 L123.178,101.498 Z M138.994,76.556 L138.994,98.338 C139.078,99.692 142.217,98.858 142.129,100.514 C142.117,100.754 141.951,101.049 141.777,101.211 C141.605,101.371 141.306,101.447 140.898,101.449 L133.695,101.511 C133.293,101.515 133.004,101.503 132.836,101.345 C132.664,101.183 132.604,100.98 132.576,100.741 C132.338,98.657 134.135,99.929 135.572,98.864 L135.584,78.256 C135.434,77.886 135.115,77.687 134.752,77.616 L133.627,77.616 C133.227,77.616 132.939,77.54 132.754,77.376 C132.577976,77.2171725 132.4807,76.9889754 132.488,76.752 C132.488,76.512 132.57,76.014 132.748,75.85 C132.918,75.693 133.211,75.61 133.627,75.61 L138.359,75.61 C138.846,75.648 139.057,76.009 138.994,76.556 Z M149.406,76.378 C150.679695,76.3807479 151.7117,77.4123059 151.715,78.686 C151.712246,79.9597592 150.679761,80.9913502 149.406,80.993 C148.13302,80.99025 147.10175,79.9589801 147.099,78.686 C147.102295,77.4130841 148.133086,76.3818464 149.406,76.378 Z M151.363,84.808 L151.363,98.236 C151.447,99.841 154.498,98.925 154.498,100.398 C154.498,100.636 154.32,100.931 154.148,101.089 C153.974,101.249 153.677,101.388 153.267,101.392 L146.064,101.464 C145.662,101.466 145.375,101.384 145.205,101.224 C145.034583,101.071937 144.940136,100.852294 144.947,100.624 C144.968,98.728 146.592,99.901 147.941,98.671 L147.953,86.672 C147.803,86.304 147.484,85.933 147.123,85.862 L145.998,85.862 C145.596,85.862 145.309,85.787 145.125,85.624 C144.948184,85.4670095 144.850649,85.239305 144.859,85.003 C144.859,84.764 144.941,84.27 145.117,84.107 C145.287,83.95 145.582,83.868 145.998,83.868 L150.728,83.868 C151.215,83.906 151.428,84.265 151.363,84.808 Z M163.436,84.803 C163.579,85.296 163.631,86.574 163.864,86.156 C164.024,85.869 165.147,84.463 167.073,84.064 C169.219,83.62 174.214,83.206 174.944,87.606 L174.946,100.753 C174.872,101.103 174.624,101.384 174.29,101.521 L171.958,101.492 C171.669,101.474 171.466,101.111 171.481,100.789 L171.489,88.774 C171.839,85.06 164.038,84.189 163.393,92.309 L163.393,98.603 C163.37,99.749 163.598,101.494 162.664,101.486 C160.478,101.47 159.914,101.783 159.971,98.781 L159.983,86.721 C159.833,86.351 159.514,86.041 159.153,85.971 L158.028,85.971 C157.626,85.971 157.339,85.831 157.155,85.668 C156.977942,85.5099121 156.88045,85.2812089 156.889,85.044 C156.889,84.804 156.971,84.307 157.147,84.144 C157.317,83.987 157.612,83.904 158.028,83.904 L162.758,83.904 C163.246,83.941 163.5,84.258 163.436,84.803 Z" fill="#FFFFFF"></path>
                </g>
            </g>
        </g>
    </g>
</svg>