<svg class="logo-ibb" width="90px" height="35px" viewBox="0 0 239 66" version="1.1" xmlns="http://www.w3.org/2000/svg" xmlns:xlink="http://www.w3.org/1999/xlink">
    <g id="Page-1" stroke="none" stroke-width="1" fill="none" fill-rule="evenodd">
        <g id="logo" fill="#39ACCD" fill-rule="nonzero">
            <path d="M0.135940142,9.53488408 C0.135940142,4.71741521 4.04073667,0.813099035 8.85772518,0.813099035 C13.6747137,0.813099035 17.5795102,4.71741521 17.5795102,9.53488408 C17.5795102,14.3518726 13.6747137,18.2566691 8.85772518,18.2566691 C4.04073667,18.2566691 0.135940142,14.3518726 0.135940142,9.53488408 Z" id="Shape"></path>
            <path d="M0.135940142,33.3753265 C0.135940142,28.558338 4.04073667,24.6535415 8.85772518,24.6535415 C13.6747137,24.6535415 17.5795102,28.558338 17.5795102,33.3753265 C17.5795102,38.1918347 13.6747137,42.0966312 8.85772518,42.0966312 C4.04073667,42.0966312 0.135940142,38.1918347 0.135940142,33.3753265 Z" id="Shape"></path>
            <path d="M0.135940142,57.2152886 C0.135940142,52.3987804 4.04073667,48.4939839 8.85772518,48.4939839 C13.6747137,48.4939839 17.5795102,52.3983001 17.5795102,57.2152886 C17.5795102,62.0327575 13.6747137,65.937554 8.85772518,65.937554 C4.04073667,65.937554 0.135940142,62.0327575 0.135940142,57.2152886 Z" id="Shape"></path>
            <path d="M47.816825,57.2152886 C47.816825,52.3987804 51.7211412,48.4939839 56.5381297,48.4939839 C61.3551182,48.4939839 65.2599148,52.3983001 65.2599148,57.2152886 C65.2599148,62.0327575 61.3551182,65.937554 56.5381297,65.937554 C51.7211412,65.937554 47.816825,62.0327575 47.816825,57.2152886 Z" id="Shape" opacity="0.25"></path>
            <path d="M23.9763826,57.2152886 C23.9763826,52.3987804 27.8811791,48.4939839 32.6981676,48.4939839 C37.5151561,48.4939839 41.4199527,52.3983001 41.4199527,57.2152886 C41.4199527,62.0327575 37.5151561,65.937554 32.6981676,65.937554 C27.8811791,65.937554 23.9763826,62.0327575 23.9763826,57.2152886 Z" id="Shape" opacity="0.5"></path>
            <path d="M47.816825,33.3753265 C47.816825,28.558338 51.7211412,24.6535415 56.5381297,24.6535415 C61.3551182,24.6535415 65.2599148,28.558338 65.2599148,33.3753265 C65.2599148,38.1918347 61.3551182,42.0966312 56.5381297,42.0966312 C51.7211412,42.0966312 47.816825,38.1918347 47.816825,33.3753265 Z" id="Shape" opacity="0.25"></path>
            <path d="M23.9763826,33.3753265 C23.9763826,28.558338 27.8811791,24.6535415 32.6981676,24.6535415 C37.5151561,24.6535415 41.4199527,28.558338 41.4199527,33.3753265 C41.4199527,38.1918347 37.5151561,42.0966312 32.6981676,42.0966312 C27.8811791,42.0966312 23.9763826,38.1918347 23.9763826,33.3753265 Z" id="Shape" opacity="0.5"></path>
        </g>
        <g id="typo" transform="translate(75.000000, 24.000000)" fill="#000000" fill-rule="nonzero">
            <path d="M10.6278791,35.1246952 C10.6278791,33.5092652 9.6820624,31.9630061 7.652087,31.5710373 L7.652087,31.5249234 C9.2434993,30.970595 10.3050813,29.5631582 10.3050813,27.9712655 C10.3050813,25.5714176 8.5517898,24.1875182 5.1595308,24.1875182 C3.2674169,24.1875182 1.4910684,24.2345928 0.2685678,24.2576498 L0.2685678,39.832163 C1.9988024,39.8547397 3.5671577,39.9008536 4.5134548,39.9008536 C9.2896133,39.8998929 10.6278791,37.1546706 10.6278791,35.1246952 Z M7.675144,28.3627539 C7.675144,29.9325503 6.4516827,30.8778867 4.1214861,30.8778867 C3.5911754,30.8778867 3.1992067,30.8778867 2.784181,30.8543494 L2.784181,26.2405506 C3.3836626,26.2170132 4.0532759,26.1944366 4.7449854,26.1944366 C6.9594167,26.1949169 7.675144,27.0946197 7.675144,28.3627539 Z M7.9753651,35.1703288 C7.9753651,36.7382038 6.8907261,37.8458998 4.6066435,37.8458998 C3.7986883,37.8458998 3.1756693,37.7997858 2.7837006,37.7296542 L2.7837006,32.7695202 C3.1295554,32.7469436 3.9370302,32.7469436 4.1911374,32.7469436 C6.3825117,32.7469436 7.9753651,33.3934999 7.9753651,35.1703288 Z" id="letter"></path>
            <path d="M22.1587736,33.092318 C22.1587736,30.370633 20.7508564,28.1321841 17.4743627,28.1321841 C14.1291784,28.1321841 12.2370646,30.7169682 12.2370646,34.1779177 C12.2370646,38.2148116 14.1983494,40.0612918 17.7741035,40.0612918 C19.1820207,40.0612918 20.5894575,39.8071846 21.7427871,39.3229879 L21.5126976,37.3621835 C20.5664005,37.8238035 19.3434196,38.1004874 18.167033,38.1004874 C15.8829504,38.1004874 14.7060834,36.9005634 14.7752544,34.2466083 L22.0896026,34.2466083 C22.1352362,33.809006 22.1587736,33.4160765 22.1587736,33.092318 Z M19.6897547,32.5163737 L14.8213683,32.5163737 C15.0293616,30.9701147 15.9982353,29.955127 17.3826151,29.955127 C18.8361659,29.955127 19.7358687,30.947538 19.6897547,32.5163737 Z" id="letter"></path>
            <path d="M27.623279,28.3627539 C26.215362,28.2940633 24.5538179,28.3862912 23.2621464,28.5251135 L23.2621464,30.0478352 C23.9317597,30.0939492 24.7152168,30.1856968 25.269545,30.2779247 L25.269545,39.8316827 L27.715507,39.8316827 L27.715507,35.1708092 C27.715507,31.7324362 28.84626,30.1400632 31.129862,30.5560496 L31.245147,28.1326644 C29.099406,27.9251515 27.946077,29.3561257 27.438343,30.9014241 L27.391749,30.9014241 C27.531051,30.0242979 27.623279,29.0093102 27.623279,28.3627539 Z" id="letter"></path>
            <path d="M35.709556,22.9871139 C34.209891,22.9174625 32.525771,23.0101708 31.233619,23.1489931 L31.233619,24.6712345 C31.902752,24.7178288 32.686689,24.8100568 33.241017,24.9018043 L33.241017,39.8312023 L35.710036,39.8312023 L35.710036,22.9871139 L35.709556,22.9871139 Z" id="letter"></path>
            <path d="M42.068961,28.3862912 C40.569296,28.3166399 38.908232,28.4098286 37.6156,28.5476901 L37.6156,30.0684905 C38.285213,30.1146044 39.069151,30.206352 39.622999,30.29858 L39.622999,39.8316827 L42.068961,39.8316827 L42.068961,28.3862912 Z" id="letter"></path>
            <path d="M48.333736,28.3627539 C46.926299,28.2940633 45.265235,28.3862912 43.973083,28.5251135 L43.973083,30.0478352 C44.642216,30.0939492 45.426154,30.1856968 45.980002,30.2779247 L45.980002,39.8316827 L48.425964,39.8316827 L48.425964,34.293683 C48.425964,32.0091201 49.718116,30.1861772 51.425774,30.1861772 C52.76452,30.1861772 53.156008,31.0171893 53.156008,32.4481635 L53.156008,39.8316827 L55.60197,39.8316827 L55.60197,31.8006465 C55.60197,29.7701907 54.772399,28.1321841 52.164077,28.1321841 C50.248907,28.1321841 48.864527,29.1481325 48.195394,30.6242599 L48.14928,30.6016832 C48.264565,29.955127 48.333736,28.9631962 48.333736,28.3627539 Z" id="letter"></path>
            <polygon id="letter" points="2.7837006 17.6580681 2.7837006 2.0835549 0.2690481 2.0835549 0.2690481 17.6580681"></polygon>
            <path d="M9.0715326,6.1905804 C7.6636155,6.1214095 6.0025518,6.2136374 4.7103999,6.3519793 L4.7103999,7.8747011 C5.3800132,7.9212954 6.1639507,8.0135233 6.7182791,8.1057513 L6.7182791,17.6580681 L9.1637606,17.6580681 L9.1637606,12.1200685 C9.1637606,9.8359859 10.4554321,8.013043 12.1630901,8.013043 C13.5013559,8.013043 13.893805,8.8435748 13.893805,10.2740686 L13.893805,17.6575878 L16.3397669,17.6575878 L16.3397669,9.628473 C16.3397669,7.5975369 15.5092351,5.9595302 12.9018743,5.9595302 C10.9871838,5.9595302 9.602804,6.9749983 8.9331907,8.451606 L8.8870767,8.4285491 C9.0018813,7.7824731 9.0715326,6.7905424 9.0715326,6.1905804 Z" id="letter"></path>
            <path d="M29.06338,6.1905804 L26.409905,6.1905804 L24.2185309,12.3511187 C23.9649041,13.0894226 23.7333735,13.8973778 23.5484373,14.6121443 L23.5258606,14.6121443 C23.3183478,13.8507834 23.0647209,13.0433086 22.7875568,12.2593711 L20.6413357,6.1905804 L17.9191704,6.1905804 L22.2111321,17.6580681 L24.7257846,17.6580681 L29.06338,6.1905804 Z" id="letter"></path>
            <path d="M39.640772,10.9196642 C39.640772,8.1974989 38.233335,5.9595302 34.956841,5.9595302 C31.611177,5.9595302 29.719543,8.543834 29.719543,12.0047835 C29.719543,16.0421577 31.680348,17.8876773 35.257063,17.8876773 C36.664499,17.8876773 38.071456,17.6345308 39.225266,17.1498537 L38.995176,15.1890493 C38.04936,15.650189 36.825898,15.9273532 35.649512,15.9273532 C33.364949,15.9273532 32.188562,14.7274292 32.257733,12.0739545 L39.571601,12.0739545 C39.617715,11.6358718 39.640772,11.2434227 39.640772,10.9196642 Z M37.171753,10.3432395 L32.303367,10.3432395 C32.51088,8.7974608 33.480234,7.7824731 34.864133,7.7824731 C36.318645,7.7824731 37.218347,8.7748842 37.171753,10.3432395 Z" id="letter"></path>
            <path d="M48.958196,14.1740616 C48.958196,10.3662965 43.882777,11.4975299 43.882777,9.2821379 C43.882777,8.4054921 44.551429,7.8511637 45.912752,7.8511637 C46.651056,7.8511637 47.459011,7.966929 48.151201,8.1744419 L48.220372,6.1670431 C47.528663,6.0517582 46.743764,5.9590499 46.074632,5.9590499 C42.960017,5.9590499 41.344587,7.5283659 41.344587,9.5127077 C41.344587,13.480911 46.374372,12.0965311 46.374372,14.4031904 C46.374372,15.3494875 45.451132,15.9268728 44.113827,15.9268728 C43.236701,15.9268728 42.336998,15.7645132 41.621751,15.5570003 L41.5521,17.6571074 C42.267347,17.794969 43.121416,17.8871969 43.975005,17.8871969 C47.043505,17.8876773 48.958196,16.3198023 48.958196,14.1740616 Z" id="letter"></path>
            <path d="M57.39369,17.6114738 L57.39369,15.581018 C56.955607,15.6958226 56.40224,15.7649936 55.893545,15.7649936 C54.739735,15.7649936 54.39436,15.3038539 54.39436,13.5966762 L54.39436,8.1057513 L57.39369,8.1057513 L57.39369,6.1905804 L54.370823,6.1905804 L54.370823,1.876042 L51.924861,2.545175 L51.924861,6.1910608 L49.733487,6.1910608 L49.733487,8.1062316 L51.924861,8.1062316 L51.924861,14.3585175 C51.924861,16.9197642 52.664126,17.8665417 55.109127,17.8665417 C55.870968,17.865581 56.724557,17.7502961 57.39369,17.6114738 Z" id="letter"></path>
            <path d="M62.804876,6.2136374 C61.305692,6.1444665 59.645108,6.2371747 58.351996,6.3750363 L58.351996,7.8948759 C59.021129,7.9409899 59.805066,8.0332178 60.358914,8.1249654 L60.358914,17.6575878 L62.804876,17.6575878 L62.804876,6.2136374 Z" id="letter"></path>
            <path d="M71.999329,17.6114738 L71.999329,15.581018 C71.562207,15.6958226 71.007879,15.7649936 70.501106,15.7649936 C69.347296,15.7649936 69.000961,15.3038539 69.000961,13.5966762 L69.000961,8.1057513 L71.999329,8.1057513 L71.999329,6.1905804 L68.978384,6.1905804 L68.978384,1.876042 L66.532422,2.545175 L66.532422,6.1910608 L64.340087,6.1910608 L64.340087,8.1062316 L66.532422,8.1062316 L66.532422,14.3585175 C66.532422,16.9197642 67.269765,17.8665417 69.715727,17.8665417 C70.477568,17.865581 71.331157,17.7502961 71.999329,17.6114738 Z" id="letter"></path>
            <path d="M77.412437,6.2136374 C75.912292,6.1444665 74.250748,6.2371747 72.959076,6.3750363 L72.959076,7.8948759 C73.627249,7.9409899 74.412147,8.0332178 74.965995,8.1249654 L74.965995,17.6575878 L77.412917,17.6575878 L77.412917,6.2136374 L77.412437,6.2136374 Z" id="letter"></path>
            <path d="M90.644745,11.7045624 C90.644745,7.6671882 88.474506,5.9595302 85.406966,5.9595302 C81.922479,5.9595302 79.684991,8.6130049 79.684991,12.0739545 C79.684991,16.1118091 81.761081,17.8881576 84.945346,17.8881576 C88.337125,17.8876773 90.644745,15.2351633 90.644745,11.7045624 Z M88.107035,11.8659613 C88.107035,14.519436 86.768289,15.7649936 85.175916,15.7649936 C83.261226,15.7649936 82.244797,14.4036707 82.244797,11.8198473 C82.244797,9.1894296 83.698828,8.0361 85.198973,8.0361 C87.160258,8.0361 88.107035,9.4204798 88.107035,11.8659613 Z" id="letter"></path>
            <path d="M95.990603,6.1905804 C94.583166,6.1214095 92.922583,6.2136374 91.630911,6.3519793 L91.630911,7.8747011 C92.299084,7.9212954 93.083982,8.0135233 93.63783,8.1057513 L93.63783,17.6580681 L96.083792,17.6580681 L96.083792,12.1200685 C96.083792,9.8359859 97.375463,8.013043 99.084082,8.013043 C100.420907,8.013043 100.813356,8.8435748 100.813356,10.2740686 L100.813356,17.6575878 L103.260278,17.6575878 L103.260278,9.628473 C103.260278,7.5975369 102.429266,5.9595302 99.821905,5.9595302 C97.907215,5.9595302 96.522355,6.9749983 95.853222,8.451606 L95.807108,8.4285491 C95.922393,7.7824731 95.990603,6.7905424 95.990603,6.1905804 Z" id="letter"></path>
            <path d="M113.376531,14.1740616 C113.376531,10.3662965 108.301112,11.4975299 108.301112,9.2821379 C108.301112,8.4054921 108.970245,7.8511637 110.331567,7.8511637 C111.069871,7.8511637 111.876866,7.966929 112.569056,8.1744419 L112.637746,6.1670431 C111.945556,6.0517582 111.162099,5.9590499 110.492966,5.9590499 C107.378352,5.9590499 105.762442,7.5283659 105.762442,9.5127077 C105.762442,13.480911 110.793187,12.0965311 110.793187,14.4031904 C110.793187,15.3494875 109.869947,15.9268728 108.531201,15.9268728 C107.655036,15.9268728 106.754372,15.7645132 106.039125,15.5570003 L105.969474,17.6571074 C106.685201,17.794969 107.53927,17.8871969 108.392859,17.8871969 C111.460399,17.8876773 113.376531,16.3198023 113.376531,14.1740616 Z" id="letter"></path>
            <path d="M118.46588,0.81446 C116.965735,0.7448087 115.281614,0.837517 113.989942,0.9758589 L113.989942,2.4985807 C114.659075,2.5446946 115.443013,2.6369226 115.996861,2.7291505 L115.996861,17.357847 C117.266436,17.6816055 118.46636,17.8420437 120.080829,17.8420437 C123.910691,17.8420437 126.172677,15.3278716 126.172677,11.3596683 C126.172677,7.897758 124.672532,5.9600106 121.949886,5.9600106 C120.265766,5.9600106 118.904443,6.8597134 118.304,8.2906875 L118.281424,8.2906875 C118.396709,7.6907255 118.46636,6.7679658 118.46636,6.0983525 L118.46636,0.81446 L118.46588,0.81446 Z M123.588373,11.5892775 C123.588373,14.6817956 122.22609,15.8817196 120.288823,15.8817196 C119.550519,15.8817196 118.973614,15.8120682 118.46588,15.6506693 L118.46588,12.0979722 C118.46588,10.1597444 119.45733,8.0140037 121.30285,8.0140037 C122.849109,8.0135233 123.588373,9.2821379 123.588373,11.5892775 Z" id="letter"></path>
            <path d="M138.971225,17.4961889 L138.971225,15.9734671 C138.303053,15.9273532 137.519116,15.8351252 136.964307,15.7433776 L136.964307,9.8364662 C136.964307,7.4827323 135.994953,5.9600106 132.48837,5.9600106 C131.011762,5.9600106 129.580788,6.2832887 128.450515,6.7218518 L128.681085,8.8214785 C129.650439,8.2215165 131.034819,7.897758 132.09592,7.897758 C133.895326,7.897758 134.495768,8.6360619 134.495768,10.0675164 L134.495768,10.80534 C130.364725,10.80534 127.735268,12.328542 127.735268,14.9584794 C127.735268,16.7814223 128.981306,17.8881576 130.943071,17.8881576 C132.766014,17.8881576 134.195547,16.8736503 134.749395,15.5123274 L134.772933,15.5358648 C134.681185,16.1584034 134.657648,16.9197642 134.657648,17.6585485 C135.995433,17.7272391 137.680034,17.6345308 138.971225,17.4961889 Z M134.495768,12.6969735 C134.495768,14.3349801 133.364535,15.9504102 131.681375,15.9504102 C130.712021,15.9504102 130.111579,15.3970425 130.111579,14.542493 C130.111579,13.5510426 130.895997,12.4659233 134.495768,12.4659233 L134.495768,12.6969735 Z" id="letter"></path>
            <path d="M143.790616,6.1905804 C142.383179,6.1214095 140.721635,6.2136374 139.429003,6.3519793 L139.429003,7.8747011 C140.099096,7.9212954 140.883034,8.0135233 141.435921,8.1057513 L141.435921,17.6580681 L143.882844,17.6580681 L143.882844,12.1200685 C143.882844,9.8359859 145.174515,8.013043 146.882173,8.013043 C148.220919,8.013043 148.612408,8.8435748 148.612408,10.2740686 L148.612408,17.6575878 L151.058369,17.6575878 L151.058369,9.628473 C151.058369,7.5975369 150.228798,5.9595302 147.620957,5.9595302 C145.706267,5.9595302 144.321407,6.9749983 143.652274,8.451606 L143.60616,8.4285491 C143.720484,7.7824731 143.790616,6.7905424 143.790616,6.1905804 Z" id="letter"></path>
            <path d="M163.966438,17.6580681 L159.397312,11.4283589 L163.643641,6.1905804 L160.621734,6.1905804 L156.906678,11.1046004 L156.906678,0.81446 C155.407493,0.7448087 153.722412,0.837517 152.42978,0.9758589 L152.42978,2.4985807 C153.099873,2.5446946 153.883811,2.6369226 154.437659,2.7291505 L154.437659,17.6575878 L156.907158,17.6575878 L156.907158,11.843865 L160.828767,17.6580681 L163.966438,17.6580681 Z" id="letter"></path>
        </g>
    </g>
</svg>