<svg xmlns="http://www.w3.org/2000/svg" xmlns:xlink="http://www.w3.org/1999/xlink" width="100" height="165" viewBox="0 0 100 165">
  <defs>
    <circle id="icon_attractivity-a" cx="13.636" cy="13.636" r="13.636"/>
    <circle id="icon_attractivity-c" cx="13.636" cy="13.636" r="13.636"/>
    <circle id="icon_attractivity-e" cx="13.636" cy="13.636" r="13.636"/>
    <circle id="icon_attractivity-g" cx="13.636" cy="13.636" r="13.636"/>
    <circle id="icon_attractivity-i" cx="13.636" cy="13.636" r="13.636"/>
    <circle id="icon_attractivity-k" cx="13.636" cy="13.636" r="13.636"/>
  </defs>
  <g fill="none" fill-rule="evenodd" transform="translate(1 1)">
    <path stroke="#3B3B3B" stroke-linecap="round" stroke-linejoin="round" stroke-width="3" d="M46 114.976125L27.8181818 114.976125C21.5422188 114.976125 16.4545455 109.888452 16.4545455 103.612489L16.4545455 62.7033976C16.4545455 56.4274345 21.5422188 51.3397612 27.8181818 51.3397612L46 51.3397612M80.8484848 80.8852158L62.6666667 80.8852158C56.3907036 80.8852158 51.3030303 75.7975425 51.3030303 69.5215794L51.3030303 28.6124885C51.3030303 22.3365255 56.3907036 17.2488522 62.6666667 17.2488522L80.8484848 17.2488522M80.8484848 146.794307L62.6666667 146.794307C56.3907036 146.794307 51.3030303 141.706633 51.3030303 135.43067L51.3030303 94.5215794C51.3030303 88.2456164 56.3907036 83.1579431 62.6666667 83.1579431L80.8484848 83.1579431"/>
    <g transform="translate(30.364 35.818)">
      <circle cx="15.636" cy="15.636" r="15.136" stroke="#3B3B3B" stroke-width="3"/>
      <g transform="translate(2 2)">
        <mask id="icon_attractivity-b" fill="#fff">
          <use xlink:href="#icon_attractivity-a"/>
        </mask>
        <g fill-rule="nonzero" mask="url(#icon_attractivity-b)">
          <g transform="translate(3.832 5.695)">
            <path fill="#C6CCE1" stroke="#3B3B3B" stroke-width="3" d="M9.80392157,0 C12.429161,0 14.5573381,2.12817707 14.5573381,4.75341652 C14.5573381,7.37865597 12.429161,9.50683304 9.80392157,9.50683304 C7.17868212,9.50683304 5.05050505,7.37865597 5.05050505,4.75341652 C5.05050505,2.12817707 7.17868212,0 9.80392157,0 Z"/>
            <path fill="#5265AC" stroke="#3B3B3B" stroke-width="3" d="M9.30415726,10.6951872 L10.3036859,10.6951872 C12.3541723,10.6951872 13.9806636,11.0823742 15.3401407,11.8094305 C16.6996178,12.5364869 17.7665435,13.6034125 18.4935998,14.9628896 C19.2206561,16.3223667 19.6078431,17.948858 19.6078431,19.9993444 L19.6078431,20.404696 C19.6078431,22.4551824 19.2206561,24.0816737 18.4935998,25.4411508 C17.7665435,26.8006279 16.6996178,27.8675536 15.3401407,28.5946099 C13.9806636,29.3216662 12.3541723,29.7088532 10.3036859,29.7088532 L9.30415726,29.7088532 C7.25367085,29.7088532 5.62717954,29.3216662 4.26770241,28.5946099 C2.90822529,27.8675536 1.84129969,26.8006279 1.11424336,25.4411508 C0.387187041,24.0816737 -5.34085053e-14,22.4551824 -5.34085053e-14,20.404696 L-5.34085053e-14,19.9993444 C-5.34085053e-14,17.948858 0.387187041,16.3223667 1.11424336,14.9628896 C1.84129969,13.6034125 2.90822529,12.5364869 4.26770241,11.8094305 C5.62717954,11.0823742 7.25367085,10.6951872 9.30415726,10.6951872 Z"/>
            <path fill="#C6CCE1" d="M7.98671732,18.3168339 C7.98671732,21.1061508 10.2479055,23.3673389 13.0372224,23.3673389 C14.5819391,23.3673389 15.964683,22.6738514 16.8911028,21.581228 C16.2946247,24.0387536 14.0797268,25.863174 11.4387127,25.863174 C8.33947162,25.863174 5.82704036,23.3507428 5.82704036,20.2515018 C5.82704036,17.9843771 7.17145824,16.0312581 9.1065375,15.1459012 C8.40599178,16.0125632 7.98671732,17.1157351 7.98671732,18.3168339 Z" transform="rotate(-103 11.36 20.505)"/>
          </g>
        </g>
      </g>
    </g>
    <g transform="translate(30.364 98.818)">
      <circle cx="15.636" cy="15.636" r="15.136" stroke="#3B3B3B" stroke-width="3"/>
      <g transform="translate(2 2)">
        <mask id="icon_attractivity-d" fill="#fff">
          <use xlink:href="#icon_attractivity-c"/>
        </mask>
        <g mask="url(#icon_attractivity-d)">
          <g transform="translate(3.832 5.695)">
            <path fill="#C6CCE1" fill-rule="nonzero" stroke="#3B3B3B" stroke-width="3" d="M9.80392157,0 C12.429161,0 14.5573381,2.12817707 14.5573381,4.75341652 C14.5573381,7.37865597 12.429161,9.50683304 9.80392157,9.50683304 C7.17868212,9.50683304 5.05050505,7.37865597 5.05050505,4.75341652 C5.05050505,2.12817707 7.17868212,0 9.80392157,0 Z"/>
            <path fill="#5265AC" fill-rule="nonzero" stroke="#3B3B3B" stroke-width="3" d="M9.30415726,10.6951872 L10.3036859,10.6951872 C12.3541723,10.6951872 13.9806636,11.0823742 15.3401407,11.8094305 C16.6996178,12.5364869 17.7665435,13.6034125 18.4935998,14.9628896 C19.2206561,16.3223667 19.6078431,17.948858 19.6078431,19.9993444 L19.6078431,20.404696 C19.6078431,22.4551824 19.2206561,24.0816737 18.4935998,25.4411508 C17.7665435,26.8006279 16.6996178,27.8675536 15.3401407,28.5946099 C13.9806636,29.3216662 12.3541723,29.7088532 10.3036859,29.7088532 L9.30415726,29.7088532 C7.25367085,29.7088532 5.62717954,29.3216662 4.26770241,28.5946099 C2.90822529,27.8675536 1.84129969,26.8006279 1.11424336,25.4411508 C0.387187041,24.0816737 -5.34085053e-14,22.4551824 -5.34085053e-14,20.404696 L-5.34085053e-14,19.9993444 C-5.34085053e-14,17.948858 0.387187041,16.3223667 1.11424336,14.9628896 C1.84129969,13.6034125 2.90822529,12.5364869 4.26770241,11.8094305 C5.62717954,11.0823742 7.25367085,10.6951872 9.30415726,10.6951872 Z"/>
            <path fill="#C6CCE1" fill-rule="nonzero" d="M7.98671732,18.3168339 C7.98671732,21.1061508 10.2479055,23.3673389 13.0372224,23.3673389 C14.5819391,23.3673389 15.964683,22.6738514 16.8911028,21.581228 C16.2946247,24.0387536 14.0797268,25.863174 11.4387127,25.863174 C8.33947162,25.863174 5.82704036,23.3507428 5.82704036,20.2515018 C5.82704036,17.9843771 7.17145824,16.0312581 9.1065375,15.1459012 C8.40599178,16.0125632 7.98671732,17.1157351 7.98671732,18.3168339 Z" transform="rotate(-103 11.36 20.505)"/>
          </g>
        </g>
      </g>
    </g>
    <g transform="translate(.364 66.818)">
      <circle cx="15.636" cy="15.636" r="15.136" stroke="#3B3B3B" stroke-width="3"/>
      <g transform="translate(2 2)">
        <mask id="icon_attractivity-f" fill="#fff">
          <use xlink:href="#icon_attractivity-e"/>
        </mask>
        <g mask="url(#icon_attractivity-f)">
          <g transform="translate(3.832 5.695)">
            <path fill="#C6CCE1" fill-rule="nonzero" stroke="#3B3B3B" stroke-width="3" d="M9.80392157,0 C12.429161,0 14.5573381,2.12817707 14.5573381,4.75341652 C14.5573381,7.37865597 12.429161,9.50683304 9.80392157,9.50683304 C7.17868212,9.50683304 5.05050505,7.37865597 5.05050505,4.75341652 C5.05050505,2.12817707 7.17868212,0 9.80392157,0 Z"/>
            <path fill="#5265AC" fill-rule="nonzero" stroke="#3B3B3B" stroke-width="3" d="M9.30415726,10.6951872 L10.3036859,10.6951872 C12.3541723,10.6951872 13.9806636,11.0823742 15.3401407,11.8094305 C16.6996178,12.5364869 17.7665435,13.6034125 18.4935998,14.9628896 C19.2206561,16.3223667 19.6078431,17.948858 19.6078431,19.9993444 L19.6078431,20.404696 C19.6078431,22.4551824 19.2206561,24.0816737 18.4935998,25.4411508 C17.7665435,26.8006279 16.6996178,27.8675536 15.3401407,28.5946099 C13.9806636,29.3216662 12.3541723,29.7088532 10.3036859,29.7088532 L9.30415726,29.7088532 C7.25367085,29.7088532 5.62717954,29.3216662 4.26770241,28.5946099 C2.90822529,27.8675536 1.84129969,26.8006279 1.11424336,25.4411508 C0.387187041,24.0816737 -5.34085053e-14,22.4551824 -5.34085053e-14,20.404696 L-5.34085053e-14,19.9993444 C-5.34085053e-14,17.948858 0.387187041,16.3223667 1.11424336,14.9628896 C1.84129969,13.6034125 2.90822529,12.5364869 4.26770241,11.8094305 C5.62717954,11.0823742 7.25367085,10.6951872 9.30415726,10.6951872 Z"/>
            <path fill="#C6CCE1" fill-rule="nonzero" d="M7.98671732,18.3168339 C7.98671732,21.1061508 10.2479055,23.3673389 13.0372224,23.3673389 C14.5819391,23.3673389 15.964683,22.6738514 16.8911028,21.581228 C16.2946247,24.0387536 14.0797268,25.863174 11.4387127,25.863174 C8.33947162,25.863174 5.82704036,23.3507428 5.82704036,20.2515018 C5.82704036,17.9843771 7.17145824,16.0312581 9.1065375,15.1459012 C8.40599178,16.0125632 7.98671732,17.1157351 7.98671732,18.3168339 Z" transform="rotate(-103 11.36 20.505)"/>
          </g>
        </g>
      </g>
    </g>
    <g transform="translate(66.364 .818)">
      <circle cx="15.636" cy="15.636" r="15.136" stroke="#3B3B3B" stroke-width="3"/>
      <g transform="translate(2 2)">
        <mask id="icon_attractivity-h" fill="#fff">
          <use xlink:href="#icon_attractivity-g"/>
        </mask>
        <g mask="url(#icon_attractivity-h)">
          <g transform="translate(3.832 5.695)">
            <path fill="#C6CCE1" fill-rule="nonzero" stroke="#3B3B3B" stroke-width="3" d="M9.80392157,0 C12.429161,0 14.5573381,2.12817707 14.5573381,4.75341652 C14.5573381,7.37865597 12.429161,9.50683304 9.80392157,9.50683304 C7.17868212,9.50683304 5.05050505,7.37865597 5.05050505,4.75341652 C5.05050505,2.12817707 7.17868212,0 9.80392157,0 Z"/>
            <path fill="#5265AC" fill-rule="nonzero" stroke="#3B3B3B" stroke-width="3" d="M9.30415726,10.6951872 L10.3036859,10.6951872 C12.3541723,10.6951872 13.9806636,11.0823742 15.3401407,11.8094305 C16.6996178,12.5364869 17.7665435,13.6034125 18.4935998,14.9628896 C19.2206561,16.3223667 19.6078431,17.948858 19.6078431,19.9993444 L19.6078431,20.404696 C19.6078431,22.4551824 19.2206561,24.0816737 18.4935998,25.4411508 C17.7665435,26.8006279 16.6996178,27.8675536 15.3401407,28.5946099 C13.9806636,29.3216662 12.3541723,29.7088532 10.3036859,29.7088532 L9.30415726,29.7088532 C7.25367085,29.7088532 5.62717954,29.3216662 4.26770241,28.5946099 C2.90822529,27.8675536 1.84129969,26.8006279 1.11424336,25.4411508 C0.387187041,24.0816737 -5.34085053e-14,22.4551824 -5.34085053e-14,20.404696 L-5.34085053e-14,19.9993444 C-5.34085053e-14,17.948858 0.387187041,16.3223667 1.11424336,14.9628896 C1.84129969,13.6034125 2.90822529,12.5364869 4.26770241,11.8094305 C5.62717954,11.0823742 7.25367085,10.6951872 9.30415726,10.6951872 Z"/>
            <path fill="#C6CCE1" fill-rule="nonzero" d="M7.98671732,18.3168339 C7.98671732,21.1061508 10.2479055,23.3673389 13.0372224,23.3673389 C14.5819391,23.3673389 15.964683,22.6738514 16.8911028,21.581228 C16.2946247,24.0387536 14.0797268,25.863174 11.4387127,25.863174 C8.33947162,25.863174 5.82704036,23.3507428 5.82704036,20.2515018 C5.82704036,17.9843771 7.17145824,16.0312581 9.1065375,15.1459012 C8.40599178,16.0125632 7.98671732,17.1157351 7.98671732,18.3168339 Z" transform="rotate(-103 11.36 20.505)"/>
          </g>
        </g>
      </g>
    </g>
    <g transform="translate(66.364 66.5)">
      <circle cx="15.636" cy="15.636" r="15.136" stroke="#3B3B3B" stroke-width="3"/>
      <g transform="translate(2 2)">
        <mask id="icon_attractivity-j" fill="#fff">
          <use xlink:href="#icon_attractivity-i"/>
        </mask>
        <g mask="url(#icon_attractivity-j)">
          <g transform="translate(3.832 5.695)">
            <path fill="#C6CCE1" fill-rule="nonzero" stroke="#3B3B3B" stroke-width="3" d="M9.80392157,0 C12.429161,0 14.5573381,2.12817707 14.5573381,4.75341652 C14.5573381,7.37865597 12.429161,9.50683304 9.80392157,9.50683304 C7.17868212,9.50683304 5.05050505,7.37865597 5.05050505,4.75341652 C5.05050505,2.12817707 7.17868212,0 9.80392157,0 Z"/>
            <path fill="#5265AC" fill-rule="nonzero" stroke="#3B3B3B" stroke-width="3" d="M9.30415726,10.6951872 L10.3036859,10.6951872 C12.3541723,10.6951872 13.9806636,11.0823742 15.3401407,11.8094305 C16.6996178,12.5364869 17.7665435,13.6034125 18.4935998,14.9628896 C19.2206561,16.3223667 19.6078431,17.948858 19.6078431,19.9993444 L19.6078431,20.404696 C19.6078431,22.4551824 19.2206561,24.0816737 18.4935998,25.4411508 C17.7665435,26.8006279 16.6996178,27.8675536 15.3401407,28.5946099 C13.9806636,29.3216662 12.3541723,29.7088532 10.3036859,29.7088532 L9.30415726,29.7088532 C7.25367085,29.7088532 5.62717954,29.3216662 4.26770241,28.5946099 C2.90822529,27.8675536 1.84129969,26.8006279 1.11424336,25.4411508 C0.387187041,24.0816737 -5.34085053e-14,22.4551824 -5.34085053e-14,20.404696 L-5.34085053e-14,19.9993444 C-5.34085053e-14,17.948858 0.387187041,16.3223667 1.11424336,14.9628896 C1.84129969,13.6034125 2.90822529,12.5364869 4.26770241,11.8094305 C5.62717954,11.0823742 7.25367085,10.6951872 9.30415726,10.6951872 Z"/>
            <path fill="#C6CCE1" fill-rule="nonzero" d="M7.98671732,18.3168339 C7.98671732,21.1061508 10.2479055,23.3673389 13.0372224,23.3673389 C14.5819391,23.3673389 15.964683,22.6738514 16.8911028,21.581228 C16.2946247,24.0387536 14.0797268,25.863174 11.4387127,25.863174 C8.33947162,25.863174 5.82704036,23.3507428 5.82704036,20.2515018 C5.82704036,17.9843771 7.17145824,16.0312581 9.1065375,15.1459012 C8.40599178,16.0125632 7.98671732,17.1157351 7.98671732,18.3168339 Z" transform="rotate(-103 11.36 20.505)"/>
          </g>
        </g>
      </g>
    </g>
    <g transform="translate(66.364 131.5)">
      <circle cx="15.636" cy="15.636" r="15.136" stroke="#3B3B3B" stroke-width="3"/>
      <g transform="translate(2 2)">
        <mask id="icon_attractivity-l" fill="#fff">
          <use xlink:href="#icon_attractivity-k"/>
        </mask>
        <g mask="url(#icon_attractivity-l)">
          <g transform="translate(3.832 5.695)">
            <path fill="#C6CCE1" fill-rule="nonzero" stroke="#3B3B3B" stroke-width="3" d="M9.80392157,0 C12.429161,0 14.5573381,2.12817707 14.5573381,4.75341652 C14.5573381,7.37865597 12.429161,9.50683304 9.80392157,9.50683304 C7.17868212,9.50683304 5.05050505,7.37865597 5.05050505,4.75341652 C5.05050505,2.12817707 7.17868212,0 9.80392157,0 Z"/>
            <path fill="#5265AC" fill-rule="nonzero" stroke="#3B3B3B" stroke-width="3" d="M9.30415726,10.6951872 L10.3036859,10.6951872 C12.3541723,10.6951872 13.9806636,11.0823742 15.3401407,11.8094305 C16.6996178,12.5364869 17.7665435,13.6034125 18.4935998,14.9628896 C19.2206561,16.3223667 19.6078431,17.948858 19.6078431,19.9993444 L19.6078431,20.404696 C19.6078431,22.4551824 19.2206561,24.0816737 18.4935998,25.4411508 C17.7665435,26.8006279 16.6996178,27.8675536 15.3401407,28.5946099 C13.9806636,29.3216662 12.3541723,29.7088532 10.3036859,29.7088532 L9.30415726,29.7088532 C7.25367085,29.7088532 5.62717954,29.3216662 4.26770241,28.5946099 C2.90822529,27.8675536 1.84129969,26.8006279 1.11424336,25.4411508 C0.387187041,24.0816737 -5.34085053e-14,22.4551824 -5.34085053e-14,20.404696 L-5.34085053e-14,19.9993444 C-5.34085053e-14,17.948858 0.387187041,16.3223667 1.11424336,14.9628896 C1.84129969,13.6034125 2.90822529,12.5364869 4.26770241,11.8094305 C5.62717954,11.0823742 7.25367085,10.6951872 9.30415726,10.6951872 Z"/>
            <path fill="#C6CCE1" fill-rule="nonzero" d="M7.98671732,18.3168339 C7.98671732,21.1061508 10.2479055,23.3673389 13.0372224,23.3673389 C14.5819391,23.3673389 15.964683,22.6738514 16.8911028,21.581228 C16.2946247,24.0387536 14.0797268,25.863174 11.4387127,25.863174 C8.33947162,25.863174 5.82704036,23.3507428 5.82704036,20.2515018 C5.82704036,17.9843771 7.17145824,16.0312581 9.1065375,15.1459012 C8.40599178,16.0125632 7.98671732,17.1157351 7.98671732,18.3168339 Z" transform="rotate(-103 11.36 20.505)"/>
          </g>
        </g>
      </g>
    </g>
  </g>
</svg>
