<svg xmlns="http://www.w3.org/2000/svg" xmlns:xlink="http://www.w3.org/1999/xlink" width="166" height="166" viewBox="0 0 166 166">
  <defs>
    <circle id="icon_transparency-a" cx="24.694" cy="24.518" r="24.209"/>
  </defs>
  <g fill="none" fill-rule="evenodd" transform="translate(2 3)">
    <g fill-rule="nonzero" transform="translate(118 57)">
      <path fill="#5265AC" d="M1.56802063,0 L13.3281754,0 C14.1941693,0 14.896196,0.702026749 14.896196,1.56802063 C14.896196,2.43401451 14.1941693,3.13604126 13.3281754,3.13604126 L1.56802063,3.13604126 C0.702026749,3.13604126 0,2.43401451 0,1.56802063 C0,0.702026749 0.702026749,0 1.56802063,0 Z"/>
      <path fill="#3B3B3B" d="M3.87105093,17.6802063 L21.1192779,17.6802063 C21.9852718,17.6802063 22.6872985,18.3822331 22.6872985,19.248227 C22.6872985,20.1142208 21.9852718,20.8162476 21.1192779,20.8162476 L3.87105093,20.8162476 C3.00505705,20.8162476 2.3030303,20.1142208 2.3030303,19.248227 C2.3030303,18.3822331 3.00505705,17.6802063 3.87105093,17.6802063 Z"/>
      <path fill="#C6CCE1" d="M13.2791747,24.1682785 L25.8233398,24.1682785 C26.6893337,24.1682785 27.3913604,24.8703053 27.3913604,25.7362992 C27.3913604,26.602293 26.6893337,27.3043198 25.8233398,27.3043198 L13.2791747,27.3043198 C12.4131808,27.3043198 11.7111541,26.602293 11.7111541,25.7362992 C11.7111541,24.8703053 12.4131808,24.1682785 13.2791747,24.1682785 Z"/>
      <path fill="#3B3B3B" d="M3.87105093,5.48807221 L15.6312057,5.48807221 C16.4971996,5.48807221 17.1992263,6.19009896 17.1992263,7.05609284 C17.1992263,7.92208673 16.4971996,8.62411348 15.6312057,8.62411348 L3.87105093,8.62411348 C3.00505705,8.62411348 2.3030303,7.92208673 2.3030303,7.05609284 C2.3030303,6.19009896 3.00505705,5.48807221 3.87105093,5.48807221 Z"/>
      <path fill="#A4A4A4" d="M17.1992263,11.9761444 L28.959381,11.9761444 C29.8253749,11.9761444 30.5274017,12.6781712 30.5274017,13.5441651 C30.5274017,14.4101589 29.8253749,15.1121857 28.959381,15.1121857 L17.1992263,15.1121857 C16.3332324,15.1121857 15.6312057,14.4101589 15.6312057,13.5441651 C15.6312057,12.6781712 16.3332324,11.9761444 17.1992263,11.9761444 Z"/>
      <path fill="#3B3B3B" d="M3.87105093,24.1682785 L7.79110251,24.1682785 C8.6570964,24.1682785 9.35912315,24.8703053 9.35912315,25.7362992 C9.35912315,26.602293 8.6570964,27.3043198 7.79110251,27.3043198 L3.87105093,27.3043198 C3.00505705,27.3043198 2.3030303,26.602293 2.3030303,25.7362992 C2.3030303,24.8703053 3.00505705,24.1682785 3.87105093,24.1682785 Z"/>
      <path fill="#5265AC" d="M3.87105093 11.9761444L11.7111541 11.9761444C12.577148 11.9761444 13.2791747 12.6781712 13.2791747 13.5441651 13.2791747 14.4101589 12.577148 15.1121857 11.7111541 15.1121857L3.87105093 15.1121857C3.00505705 15.1121857 2.3030303 14.4101589 2.3030303 13.5441651 2.3030303 12.6781712 3.00505705 11.9761444 3.87105093 11.9761444zM26.6073501 17.6802063L34.4474533 17.6802063C35.3134471 17.6802063 36.0154739 18.3822331 36.0154739 19.248227 36.0154739 20.1142208 35.3134471 20.8162476 34.4474533 20.8162476L26.6073501 20.8162476C25.7413562 20.8162476 25.0393295 20.1142208 25.0393295 19.248227 25.0393295 18.3822331 25.7413562 17.6802063 26.6073501 17.6802063z"/>
      <path fill="#C6CCE1" d="M28.5918762,0 L36.4319794,0 C37.2979733,0 38,0.702026749 38,1.56802063 C38,2.43401451 37.2979733,3.13604126 36.4319794,3.13604126 L28.5918762,3.13604126 C27.7258823,3.13604126 27.0238556,2.43401451 27.0238556,1.56802063 C27.0238556,0.702026749 27.7258823,0 28.5918762,0 Z"/>
      <path fill="#3B3B3B" d="M19.9677627,0 L23.103804,0 C23.9697979,0 24.6718246,0.702026749 24.6718246,1.56802063 C24.6718246,2.43401451 23.9697979,3.13604126 23.103804,3.13604126 L19.9677627,3.13604126 C19.1017689,3.13604126 18.3997421,2.43401451 18.3997421,1.56802063 C18.3997421,0.702026749 19.1017689,0 19.9677627,0 Z"/>
      <path fill="#24387D" d="M3.87105093 29.6563507L19.5512573 29.6563507C20.4172511 29.6563507 21.1192779 30.3583775 21.1192779 31.2243714 21.1192779 32.0903653 20.4172511 32.792392 19.5512573 32.792392L3.87105093 32.792392C3.00505705 32.792392 2.3030303 32.0903653 2.3030303 31.2243714 2.3030303 30.3583775 3.00505705 29.6563507 3.87105093 29.6563507zM21.1192779 5.48807221L30.5274017 5.48807221C31.3933956 5.48807221 32.0954223 6.19009896 32.0954223 7.05609284 32.0954223 7.92208673 31.3933956 8.62411348 30.5274017 8.62411348L21.1192779 8.62411348C20.253284 8.62411348 19.5512573 7.92208673 19.5512573 7.05609284 19.5512573 6.19009896 20.253284 5.48807221 21.1192779 5.48807221z"/>
      <path fill="#3B3B3B" d="M25.0393295,29.6563507 L31.311412,29.6563507 C32.1774059,29.6563507 32.8794326,30.3583775 32.8794326,31.2243714 C32.8794326,32.0903653 32.1774059,32.792392 31.311412,32.792392 L25.0393295,32.792392 C24.1733356,32.792392 23.4713088,32.0903653 23.4713088,31.2243714 C23.4713088,30.3583775 24.1733356,29.6563507 25.0393295,29.6563507 Z"/>
    </g>
    <g transform="rotate(135 65.882 68.167)">
      <path fill="#F2F2F2" fill-rule="nonzero" stroke="#3B3B3B" stroke-width="3" d="M102.040723,23.1371193 C105.238864,23.1751049 107.820399,25.7621286 107.851203,28.9603426 L108.230243,68.3146744 C108.260209,71.4259126 105.762344,73.9723616 102.651106,74.0025887 C102.610947,74.0025887 102.570784,74.0025887 102.530625,74.0025887 C99.3324841,73.9646031 96.7509493,71.3775794 96.7201457,68.1793654 L96.3411052,28.8250336 C96.3111394,25.7137954 98.8090042,23.1673464 101.920242,23.1371193 C101.960402,23.1371193 102.000564,23.1371193 102.040723,23.1371193 Z" transform="rotate(-90 102.286 48.57)"/>
      <circle cx="49" cy="49" r="34.597" fill="#F2F2F2" fill-rule="nonzero" stroke="#3B3B3B" stroke-width="3.194" transform="rotate(45 49 49)"/>
      <g transform="translate(22.14 22.759)">
        <circle cx="26.694" cy="26.518" r="25.709" stroke="#3B3B3B" stroke-width="3"/>
        <g transform="translate(2 2)">
          <mask id="icon_transparency-b" fill="#fff">
            <use xlink:href="#icon_transparency-a"/>
          </mask>
          <g fill-rule="nonzero" mask="url(#icon_transparency-b)">
            <g transform="rotate(-135 30.065 22.377)">
              <path fill="#5265AC" d="M3.28716917,-3.99634994e-16 L21.755384,-3.99634994e-16 C22.3148435,-3.99634994e-16 22.693473,0.0928256111 23.0193989,0.267132704 C23.3453248,0.441439796 23.6011134,0.697228371 23.7754205,1.0231543 C23.9497276,1.34908022 24.0425532,1.72770967 24.0425532,2.28716917 L24.0425532,2.56389466 C24.0425532,3.12335416 23.9497276,3.50198361 23.7754205,3.82790953 C23.6011134,4.15383546 23.3453248,4.40962403 23.0193989,4.58393113 C22.693473,4.75823822 22.3148435,4.85106383 21.755384,4.85106383 L3.28716917,4.85106383 C2.72770967,4.85106383 2.34908022,4.75823822 2.0231543,4.58393113 C1.69722837,4.40962403 1.4414398,4.15383546 1.2671327,3.82790953 C1.09282561,3.50198361 1,3.12335416 1,2.56389466 L1,2.28716917 C1,1.72770967 1.09282561,1.34908022 1.2671327,1.0231543 C1.4414398,0.697228371 1.69722837,0.441439796 2.0231543,0.267132704 C2.34908022,0.0928256111 2.72770967,-3.99634994e-16 3.28716917,-3.99634994e-16 Z"/>
              <path fill="#3B3B3B" d="M3.28716917,24.2553191 L30.2447457,24.2553191 C30.8042052,24.2553191 31.1828347,24.3481448 31.5087606,24.5224519 C31.8346865,24.6967589 32.0904751,24.9525475 32.2647822,25.2784734 C32.4390893,25.6043994 32.5319149,25.9830288 32.5319149,26.5424883 L32.5319149,26.8192138 C32.5319149,27.3786733 32.4390893,27.7573028 32.2647822,28.0832287 C32.0904751,28.4091546 31.8346865,28.6649432 31.5087606,28.8392503 C31.1828347,29.0135574 30.8042052,29.106383 30.2447457,29.106383 L3.28716917,29.106383 C2.72770967,29.106383 2.34908022,29.0135574 2.0231543,28.8392503 C1.69722837,28.6649432 1.4414398,28.4091546 1.2671327,28.0832287 C1.09282561,27.7573028 1,27.3786733 1,26.8192138 L1,26.5424883 C1,25.9830288 1.09282561,25.6043994 1.2671327,25.2784734 C1.4414398,24.9525475 1.69722837,24.6967589 2.0231543,24.5224519 C2.34908022,24.3481448 2.72770967,24.2553191 3.28716917,24.2553191 Z"/>
              <path fill="#C6CCE1" d="M14.8403607,32.7446809 L31.2660223,32.7446809 C31.8254818,32.7446809 32.2041113,32.8375065 32.5300372,33.0118136 C32.8559631,33.1861206 33.1117517,33.4419092 33.2860588,33.7678351 C33.4603659,34.0937611 33.5531915,34.4723905 33.5531915,35.03185 L33.5531915,35.3085755 C33.5531915,35.868035 33.4603659,36.2466645 33.2860588,36.5725904 C33.1117517,36.8985163 32.8559631,37.1543049 32.5300372,37.328612 C32.2041113,37.5029191 31.8254818,37.5957447 31.2660223,37.5957447 L14.8403607,37.5957447 C14.2809012,37.5957447 13.9022717,37.5029191 13.5763458,37.328612 C13.2504199,37.1543049 12.9946313,36.8985163 12.8203242,36.5725904 C12.6460171,36.2466645 12.5531915,35.868035 12.5531915,35.3085755 L12.5531915,35.03185 C12.5531915,34.4723905 12.6460171,34.0937611 12.8203242,33.7678351 C12.9946313,33.4419092 13.2504199,33.1861206 13.5763458,33.0118136 C13.9022717,32.8375065 14.2809012,32.7446809 14.8403607,32.7446809 Z"/>
              <path fill="#3B3B3B" d="M3.28716917,8.4893617 L21.755384,8.4893617 C22.3148435,8.4893617 22.693473,8.58218731 23.0193989,8.75649441 C23.3453248,8.9308015 23.6011134,9.18659007 23.7754205,9.512516 C23.9497276,9.83844192 24.0425532,10.2170714 24.0425532,10.7765309 L24.0425532,11.0532564 C24.0425532,11.6127159 23.9497276,11.9913453 23.7754205,12.3172712 C23.6011134,12.6431972 23.3453248,12.8989857 23.0193989,13.0732928 C22.693473,13.2475999 22.3148435,13.3404255 21.755384,13.3404255 L3.28716917,13.3404255 C2.72770967,13.3404255 2.34908022,13.2475999 2.0231543,13.0732928 C1.69722837,12.8989857 1.4414398,12.6431972 1.2671327,12.3172712 C1.09282561,11.9913453 1,11.6127159 1,11.0532564 L1,10.7765309 C1,10.2170714 1.09282561,9.83844192 1.2671327,9.512516 C1.4414398,9.18659007 1.69722837,8.9308015 2.0231543,8.75649441 C2.34908022,8.58218731 2.72770967,8.4893617 3.28716917,8.4893617 Z"/>
              <path fill="#A4A4A4" d="M23.9041904,16.9787234 L42.3724053,16.9787234 C42.9318648,16.9787234 43.3104942,17.071549 43.6364202,17.2458561 C43.9623461,17.4201632 44.2181347,17.6759518 44.3924418,18.0018777 C44.5667489,18.3278036 44.6595745,18.7064331 44.6595745,19.2658926 L44.6595745,19.5426181 C44.6595745,20.1020776 44.5667489,20.480707 44.3924418,20.8066329 C44.2181347,21.1325589 43.9623461,21.3883474 43.6364202,21.5626545 C43.3104942,21.7369616 42.9318648,21.8297872 42.3724053,21.8297872 L23.9041904,21.8297872 C23.3447309,21.8297872 22.9661015,21.7369616 22.6401756,21.5626545 C22.3142496,21.3883474 22.0584611,21.1325589 21.884154,20.8066329 C21.7098469,20.480707 21.6170213,20.1020776 21.6170213,19.5426181 L21.6170213,19.2658926 C21.6170213,18.7064331 21.7098469,18.3278036 21.884154,18.0018777 C22.0584611,17.6759518 22.3142496,17.4201632 22.6401756,17.2458561 C22.9661015,17.071549 23.3447309,16.9787234 23.9041904,16.9787234 Z"/>
              <path fill="#3B3B3B" d="M2.28716917,32.7446809 L8.62772445,32.7446809 C9.18718395,32.7446809 9.56581339,32.8375065 9.89173932,33.0118136 C10.2176652,33.1861206 10.4734538,33.4419092 10.6477609,33.7678351 C10.822068,34.0937611 10.9148936,34.4723905 10.9148936,35.03185 L10.9148936,35.3085755 C10.9148936,35.868035 10.822068,36.2466645 10.6477609,36.5725904 C10.4734538,36.8985163 10.2176652,37.1543049 9.89173932,37.328612 C9.56581339,37.5029191 9.18718395,37.5957447 8.62772445,37.5957447 L2.28716917,37.5957447 C1.72770967,37.5957447 1.34908022,37.5029191 1.0231543,37.328612 C0.697228371,37.1543049 0.441439796,36.8985163 0.267132704,36.5725904 C0.0928256111,36.2466645 -3.51680799e-17,35.868035 -3.51680799e-17,35.3085755 L-3.51680799e-17,35.03185 C-3.51680799e-17,34.4723905 0.0928256111,34.0937611 0.267132704,33.7678351 C0.441439796,33.4419092 0.697228371,33.1861206 1.0231543,33.0118136 C1.34908022,32.8375065 1.72770967,32.7446809 2.28716917,32.7446809 Z"/>
              <path fill="#5265AC" d="M3.28716917 16.9787234L15.6915542 16.9787234C16.2510137 16.9787234 16.6296432 17.071549 16.9555691 17.2458561 17.281495 17.4201632 17.5372836 17.6759518 17.7115907 18.0018777 17.8858978 18.3278036 17.9787234 18.7064331 17.9787234 19.2658926L17.9787234 19.5426181C17.9787234 20.1020776 17.8858978 20.480707 17.7115907 20.8066329 17.5372836 21.1325589 17.281495 21.3883474 16.9555691 21.5626545 16.6296432 21.7369616 16.2510137 21.8297872 15.6915542 21.8297872L3.28716917 21.8297872C2.72770967 21.8297872 2.34908022 21.7369616 2.0231543 21.5626545 1.69722837 21.3883474 1.4414398 21.1325589 1.2671327 20.8066329 1.09282561 20.480707 1 20.1020776 1 19.5426181L1 19.2658926C1 18.7064331 1.09282561 18.3278036 1.2671327 18.0018777 1.4414398 17.6759518 1.69722837 17.4201632 2.0231543 17.2458561 2.34908022 17.071549 2.72770967 16.9787234 3.28716917 16.9787234zM38.4573819 24.2553191L44.8830436 24.2553191C45.4425031 24.2553191 45.8211325 24.3481448 46.1470585 24.5224519 46.4729844 24.6967589 46.728773 24.9525475 46.9030801 25.2784734 47.0773872 25.6043994 47.1702128 25.9830288 47.1702128 26.5424883L47.1702128 26.8192138C47.1702128 27.3786733 47.0773872 27.7573028 46.9030801 28.0832287 46.728773 28.4091546 46.4729844 28.6649432 46.1470585 28.8392503 45.8211325 29.0135574 45.4425031 29.106383 44.8830436 29.106383L38.4573819 29.106383C37.8979224 29.106383 37.519293 29.0135574 37.1933671 28.8392503 36.8674411 28.6649432 36.6116526 28.4091546 36.4373455 28.0832287 36.2630384 27.7573028 36.1702128 27.3786733 36.1702128 26.8192138L36.1702128 26.5424883C36.1702128 25.9830288 36.2630384 25.6043994 36.4373455 25.2784734 36.6116526 24.9525475 36.8674411 24.6967589 37.1933671 24.5224519 37.519293 24.3481448 37.8979224 24.2553191 38.4573819 24.2553191z"/>
              <path fill="#C6CCE1" d="M43.3084458,-2.02305335e-16 L55.7128308,-2.02305335e-16 C56.2722903,-2.02305335e-16 56.6509198,0.0928256111 56.9768457,0.267132704 C57.3027716,0.441439796 57.5585602,0.697228371 57.7328673,1.0231543 C57.9071744,1.34908022 58,1.72770967 58,2.28716917 L58,2.56389466 C58,3.12335416 57.9071744,3.50198361 57.7328673,3.82790953 C57.5585602,4.15383546 57.3027716,4.40962403 56.9768457,4.58393113 C56.6509198,4.75823822 56.2722903,4.85106383 55.7128308,4.85106383 L43.3084458,4.85106383 C42.7489863,4.85106383 42.3703568,4.75823822 42.0444309,4.58393113 C41.718505,4.40962403 41.4627164,4.15383546 41.2884093,3.82790953 C41.1141022,3.50198361 41.0212766,3.12335416 41.0212766,2.56389466 L41.0212766,2.28716917 C41.0212766,1.72770967 41.1141022,1.34908022 41.2884093,1.0231543 C41.4627164,0.697228371 41.718505,0.441439796 42.0444309,0.267132704 C42.3703568,0.0928256111 42.7489863,-2.02305335e-16 43.3084458,-2.02305335e-16 Z"/>
              <path fill="#3B3B3B" d="M29.9680202,-5.27521198e-17 L35.0958096,-5.27521198e-17 C35.6552691,-5.27521198e-17 36.0338985,0.0928256111 36.3598244,0.267132704 C36.6857504,0.441439796 36.9415389,0.697228371 37.115846,1.0231543 C37.2901531,1.34908022 37.3829787,1.72770967 37.3829787,2.28716917 L37.3829787,2.56389466 C37.3829787,3.12335416 37.2901531,3.50198361 37.115846,3.82790953 C36.9415389,4.15383546 36.6857504,4.40962403 36.3598244,4.58393113 C36.0338985,4.75823822 35.6552691,4.85106383 35.0958096,4.85106383 L29.9680202,4.85106383 C29.4085607,4.85106383 29.0299313,4.75823822 28.7040054,4.58393113 C28.3780794,4.40962403 28.1222909,4.15383546 27.9479838,3.82790953 C27.7736767,3.50198361 27.6808511,3.12335416 27.6808511,2.56389466 L27.6808511,2.28716917 C27.6808511,1.72770967 27.7736767,1.34908022 27.9479838,1.0231543 C28.1222909,0.697228371 28.3780794,0.441439796 28.7040054,0.267132704 C29.0299313,0.0928256111 29.4085607,-5.27521198e-17 29.9680202,-5.27521198e-17 Z"/>
              <path fill="#24387D" d="M3.28716917 41.2340426L27.8192138 41.2340426C28.3786733 41.2340426 28.7573028 41.3268682 29.0832287 41.5011753 29.4091546 41.6754823 29.6649432 41.9312709 29.8392503 42.2571968 30.0135574 42.5831228 30.106383 42.9617522 30.106383 43.5212117L30.106383 43.7979372C30.106383 44.3573967 30.0135574 44.7360262 29.8392503 45.0619521 29.6649432 45.387878 29.4091546 45.6436666 29.0832287 45.8179737 28.7573028 45.9922808 28.3786733 46.0851064 27.8192138 46.0851064L3.28716917 46.0851064C2.72770967 46.0851064 2.34908022 45.9922808 2.0231543 45.8179737 1.69722837 45.6436666 1.4414398 45.387878 1.2671327 45.0619521 1.09282561 44.7360262 1 44.3573967 1 43.7979372L1 43.5212117C1 42.9617522 1.09282561 42.5831228 1.2671327 42.2571968 1.4414398 41.9312709 1.69722837 41.6754823 2.0231543 41.5011753 2.34908022 41.3268682 2.72770967 41.2340426 3.28716917 41.2340426zM29.9680202 8.4893617L44.7979372 8.4893617C45.3573967 8.4893617 45.7360262 8.58218731 46.0619521 8.75649441 46.387878 8.9308015 46.6436666 9.18659007 46.8179737 9.512516 46.9922808 9.83844192 47.0851064 10.2170714 47.0851064 10.7765309L47.0851064 11.0532564C47.0851064 11.6127159 46.9922808 11.9913453 46.8179737 12.3172712 46.6436666 12.6431972 46.387878 12.8989857 46.0619521 13.0732928 45.7360262 13.2475999 45.3573967 13.3404255 44.7979372 13.3404255L29.9680202 13.3404255C29.4085607 13.3404255 29.0299313 13.2475999 28.7040054 13.0732928 28.3780794 12.8989857 28.1222909 12.6431972 27.9479838 12.3172712 27.7736767 11.9913453 27.6808511 11.6127159 27.6808511 11.0532564L27.6808511 10.7765309C27.6808511 10.2170714 27.7736767 9.83844192 27.9479838 9.512516 28.1222909 9.18659007 28.3780794 8.9308015 28.7040054 8.75649441 29.0299313 8.58218731 29.4085607 8.4893617 29.9680202 8.4893617z"/>
              <path fill="#3B3B3B" d="M36.03185,41.2340426 L46.0107032,41.2340426 C46.5701627,41.2340426 46.9487921,41.3268682 47.274718,41.5011753 C47.600644,41.6754823 47.8564325,41.9312709 48.0307396,42.2571968 C48.2050467,42.5831228 48.2978723,42.9617522 48.2978723,43.5212117 L48.2978723,43.7979372 C48.2978723,44.3573967 48.2050467,44.7360262 48.0307396,45.0619521 C47.8564325,45.387878 47.600644,45.6436666 47.274718,45.8179737 C46.9487921,45.9922808 46.5701627,46.0851064 46.0107032,46.0851064 L36.03185,46.0851064 C35.4723905,46.0851064 35.0937611,45.9922808 34.7678351,45.8179737 C34.4419092,45.6436666 34.1861206,45.387878 34.0118136,45.0619521 C33.8375065,44.7360262 33.7446809,44.3573967 33.7446809,43.7979372 L33.7446809,43.5212117 C33.7446809,42.9617522 33.8375065,42.5831228 34.0118136,42.2571968 C34.1861206,41.9312709 34.4419092,41.6754823 34.7678351,41.5011753 C35.0937611,41.3268682 35.4723905,41.2340426 36.03185,41.2340426 Z"/>
            </g>
          </g>
        </g>
      </g>
    </g>
    <path fill="#A4A4A4" fill-rule="nonzero" d="M80.0000001,63.9999999 C80.0000001,74.4934102 88.5065899,82.9999999 99.0000001,82.9999999 C103.246885,82.9999999 107.168334,81.6066404 110.332136,79.2521304 C106.738037,85.6650256 99.8752623,89.9999999 92.0000001,89.9999999 C80.4020204,89.9999999 71.0000001,80.5979797 71.0000001,68.9999999 C71.0000001,58.6826414 78.4403531,50.1030704 88.2481572,48.3341887 C83.2664571,51.7580112 80.0000001,57.4975446 80.0000001,63.9999999 Z" opacity=".476"/>
  </g>
</svg>
