<svg xmlns="http://www.w3.org/2000/svg" xmlns:xlink="http://www.w3.org/1999/xlink" width="194" height="193" viewBox="0 0 194 193">
  <defs>
    <circle id="icon_security-a" cx="18" cy="18" r="18"/>
  </defs>
  <g fill="none" fill-rule="evenodd" transform="translate(26 37.152)">
    <path fill="#3B3B3B" fill-rule="nonzero" d="M123.88103,0 L18.1189698,0 C15.0921564,0 13.4921684,0.308971935 11.825192,1.20048063 C10.2702878,2.03205249 9.03205249,3.27028784 8.20048063,4.82519203 C7.34773318,6.41969113 7.02796833,7.95290034 7.00177469,10.7321369 L7,84.8810302 C7,87.9078436 7.30897194,89.5078316 8.20048063,91.174808 C9.03205249,92.7297122 10.2702878,93.9679475 11.825192,94.7995194 C13.4921684,95.6910281 15.0921564,96 18.1189698,96 L123.88103,96 C126.907844,96 128.507832,95.6910281 130.174808,94.7995194 C131.729712,93.9679475 132.967948,92.7297122 133.799519,91.174808 C134.691028,89.5078316 135,87.9078436 135,84.8810302 L135,11.1189698 C135,8.09215636 134.691028,6.49216836 133.799519,4.82519203 C132.967948,3.27028784 131.729712,2.03205249 130.174808,1.20048063 C128.507832,0.308971935 126.907844,0 123.88103,0 Z M123.88103,3 C124.098195,3 124.304712,3.00173934 124.501405,3.00520166 L125.062834,3.02074122 C125.151767,3.02418719 125.23845,3.02805982 125.322985,3.03235706 L125.805249,3.06321955 C126.874241,3.14704491 127.562627,3.31329354 128.15264,3.55635706 L128.400303,3.66521374 L128.640857,3.78337822 C128.680632,3.8038425 128.720315,3.82469052 128.760011,3.84592023 C129.79211,4.39789269 130.602107,5.20788984 131.15408,6.23998861 L131.276861,6.47883969 L131.390384,6.722331 C131.517388,7.01103093 131.625289,7.31928434 131.713385,7.68237015 L131.78403,8.00783774 C131.860751,8.40513626 131.917468,8.86734688 131.953479,9.42974852 L131.979259,9.93716647 C131.982705,10.0260998 131.985724,10.1172836 131.988315,10.2108207 L131.998698,10.8011052 C132,10.9044668 132,11.0103874 132,11.1189698 L132,84.8810302 L131.994798,85.5014054 C131.991336,85.6980984 131.986151,85.8849668 131.979259,86.0628335 L131.953479,86.5702515 C131.917468,87.1326531 131.860751,87.5948637 131.78403,87.9921623 L131.713385,88.3176298 C131.625289,88.6807157 131.517388,88.9889691 131.390384,89.277669 L131.276861,89.5211603 L131.15408,89.7600114 C130.602107,90.7921102 129.79211,91.6021073 128.760011,92.1540798 L128.52116,92.2768614 C128.481102,92.2965561 128.440851,92.3158651 128.400303,92.3347863 L128.15264,92.4436429 C127.562627,92.6867065 126.874241,92.8529551 125.805249,92.9367805 L125.322985,92.9676429 L124.789179,92.9883147 C124.602105,92.9934959 124.405618,92.9969623 124.198895,92.9986975 L18.1189698,93 C17.901805,93 17.6952875,92.9982607 17.4985946,92.9947983 L16.9371665,92.9792588 C16.8482331,92.9758128 16.7615502,92.9719402 16.6770148,92.9676429 L16.1947505,92.9367805 C15.1257593,92.8529551 14.4373728,92.6867065 13.8473595,92.4436429 L13.5996968,92.3347863 L13.3591427,92.2166218 C13.3193685,92.1961575 13.2796847,92.1753095 13.2399886,92.1540798 C12.2078898,91.6021073 11.3978927,90.7921102 10.8459202,89.7600114 L10.7231386,89.5211603 L10.6096158,89.277669 C10.4826116,88.9889691 10.3747109,88.6807157 10.2866149,88.3176298 L10.2159704,87.9921623 C10.1392486,87.5948637 10.0825316,87.1326531 10.0465206,86.5702515 L10.0207412,86.0628335 C10.0172953,85.9739002 10.0142759,85.8827164 10.0116853,85.7891793 L10.0013025,85.1988948 L10.0013025,10.8011052 L10.0116853,10.2108207 C10.0142759,10.1172836 10.0172953,10.0260998 10.0207412,9.93716647 L10.0465206,9.42974852 C10.0825316,8.86734688 10.1392486,8.40513626 10.2159704,8.00783774 L10.2866149,7.68237015 C10.3747109,7.31928434 10.4826116,7.01103093 10.6096158,6.722331 L10.7231386,6.47883969 L10.8459202,6.23998861 C11.3978927,5.20788984 12.2078898,4.39789269 13.2399886,3.84592023 L13.4788397,3.72313864 C13.5188978,3.70344388 13.5591492,3.6841349 13.5996968,3.66521374 L13.8473595,3.55635706 C14.4373728,3.31329354 15.1257593,3.14704491 16.1947505,3.06321955 L16.6770148,3.03235706 L17.2108207,3.01168533 C17.3978948,3.00650411 17.5943821,3.00303771 17.8011052,3.00130246 L123.88103,3 Z"/>
    <path fill="#F2F2F2" fill-rule="nonzero" d="M123.88103,3 C124.098195,3 124.304712,3.00173934 124.501405,3.00520166 L125.062834,3.02074122 C125.151767,3.02418719 125.23845,3.02805982 125.322985,3.03235706 L125.805249,3.06321955 C126.874241,3.14704491 127.562627,3.31329354 128.15264,3.55635706 L128.400303,3.66521374 L128.640857,3.78337822 C128.680632,3.8038425 128.720315,3.82469052 128.760011,3.84592023 C129.79211,4.39789269 130.602107,5.20788984 131.15408,6.23998861 L131.276861,6.47883969 L131.390384,6.722331 C131.517388,7.01103093 131.625289,7.31928434 131.713385,7.68237015 L131.78403,8.00783774 C131.860751,8.40513626 131.917468,8.86734688 131.953479,9.42974852 L131.979259,9.93716647 C131.982705,10.0260998 131.985724,10.1172836 131.988315,10.2108207 L131.998698,10.8011052 C132,10.9044668 132,11.0103874 132,11.1189698 L132,84.8810302 L131.994798,85.5014054 C131.991336,85.6980984 131.986151,85.8849668 131.979259,86.0628335 L131.953479,86.5702515 C131.917468,87.1326531 131.860751,87.5948637 131.78403,87.9921623 L131.713385,88.3176298 C131.625289,88.6807157 131.517388,88.9889691 131.390384,89.277669 L131.276861,89.5211603 L131.15408,89.7600114 C130.602107,90.7921102 129.79211,91.6021073 128.760011,92.1540798 L128.52116,92.2768614 C128.481102,92.2965561 128.440851,92.3158651 128.400303,92.3347863 L128.15264,92.4436429 C127.562627,92.6867065 126.874241,92.8529551 125.805249,92.9367805 L125.322985,92.9676429 L124.789179,92.9883147 C124.602105,92.9934959 124.405618,92.9969623 124.198895,92.9986975 L18.1189698,93 C17.901805,93 17.6952875,92.9982607 17.4985946,92.9947983 L16.9371665,92.9792588 C16.8482331,92.9758128 16.7615502,92.9719402 16.6770148,92.9676429 L16.1947505,92.9367805 C15.1257593,92.8529551 14.4373728,92.6867065 13.8473595,92.4436429 L13.5996968,92.3347863 L13.3591427,92.2166218 C13.3193685,92.1961575 13.2796847,92.1753095 13.2399886,92.1540798 C12.2078898,91.6021073 11.3978927,90.7921102 10.8459202,89.7600114 L10.7231386,89.5211603 L10.6096158,89.277669 C10.4826116,88.9889691 10.3747109,88.6807157 10.2866149,88.3176298 L10.2159704,87.9921623 C10.1392486,87.5948637 10.0825316,87.1326531 10.0465206,86.5702515 L10.0207412,86.0628335 C10.0172953,85.9739002 10.0142759,85.8827164 10.0116853,85.7891793 L10.0013025,85.1988948 L10.0013025,10.8011052 L10.0116853,10.2108207 C10.0142759,10.1172836 10.0172953,10.0260998 10.0207412,9.93716647 L10.0465206,9.42974852 C10.0825316,8.86734688 10.1392486,8.40513626 10.2159704,8.00783774 L10.2866149,7.68237015 C10.3747109,7.31928434 10.4826116,7.01103093 10.6096158,6.722331 L10.7231386,6.47883969 L10.8459202,6.23998861 C11.3978927,5.20788984 12.2078898,4.39789269 13.2399886,3.84592023 L13.4788397,3.72313864 C13.5188978,3.70344388 13.5591492,3.6841349 13.5996968,3.66521374 L13.8473595,3.55635706 C14.4373728,3.31329354 15.1257593,3.14704491 16.1947505,3.06321955 L16.6770148,3.03235706 L17.2108207,3.01168533 C17.3978948,3.00650411 17.5943821,3.00303771 17.8011052,3.00130246 L123.88103,3 Z"/>
    <path fill="#FFF" fill-rule="nonzero" d="M121.726858,7 L20.2731416,7 C18.4655532,7 17.4018304,7.20541434 16.2904604,7.79978153 C15.2244452,8.36989272 14.3698927,9.22444517 13.7997815,10.2904604 C13.2054143,11.4018304 13,12.4655532 13,14.2731416 L13,81.7268584 C13,83.5344468 13.2054143,84.5981696 13.7997815,85.7095396 C14.3698927,86.7755548 15.2244452,87.6301073 16.2904604,88.2002185 C17.4018304,88.7945857 18.4655532,89 20.2731416,89 L121.726858,89 C123.534447,89 124.59817,88.7945857 125.70954,88.2002185 C126.775555,87.6301073 127.630107,86.7755548 128.200218,85.7095396 C128.794586,84.5981696 129,83.5344468 129,81.7268584 L129,14.2731416 C129,12.4655532 128.794586,11.4018304 128.200218,10.2904604 C127.630107,9.22444517 126.775555,8.36989272 125.70954,7.79978153 C124.59817,7.20541434 123.534447,7 121.726858,7 Z"/>
    <path fill="#3B3B3B" fill-rule="nonzero" d="M121.726858 7L20.2731416 7C18.4655532 7 17.4018304 7.20541434 16.2904604 7.79978153 15.2244452 8.36989272 14.3698927 9.22444517 13.7997815 10.2904604 13.2054143 11.4018304 13 12.4655532 13 14.2731416L13 81.7268584C13 83.5344468 13.2054143 84.5981696 13.7997815 85.7095396 14.3698927 86.7755548 15.2244452 87.6301073 16.2904604 88.2002185 17.4018304 88.7945857 18.4655532 89 20.2731416 89L121.726858 89C123.534447 89 124.59817 88.7945857 125.70954 88.2002185 126.775555 87.6301073 127.630107 86.7755548 128.200218 85.7095396 128.794586 84.5981696 129 83.5344468 129 81.7268584L129 14.2731416C129 12.4655532 128.794586 11.4018304 128.200218 10.2904604 127.630107 9.22444517 126.775555 8.36989272 125.70954 7.79978153 124.59817 7.20541434 123.534447 7 121.726858 7zM121.726858 10L122.213506 10.0063931C123.339563 10.0382818 123.81544 10.1888872 124.294743 10.4452211 124.837953 10.7357329 125.264267 11.1620472 125.554779 11.705257 125.588957 11.769164 125.621255 11.8330102 125.651643 11.8983447L125.737044 12.1003628C125.90953 12.5544567 126 13.1368923 126 14.2731416L126 81.7268584C126 82.8631077 125.90953 83.4455433 125.737044 83.8996372L125.651643 84.1016553C125.621255 84.1669898 125.588957 84.230836 125.554779 84.294743 125.264267 84.8379528 124.837953 85.2642671 124.294743 85.5547789 123.81544 85.8111128 123.339563 85.9617182 122.213506 85.9936069L121.726858 86 20.2731416 86 19.7864936 85.9936069C18.6604374 85.9617182 18.1845598 85.8111128 17.705257 85.5547789 17.1620472 85.2642671 16.7357329 84.8379528 16.4452211 84.294743 16.4110433 84.230836 16.378745 84.1669898 16.3483572 84.1016553L16.2629557 83.8996372C16.1037383 83.4804736 16.0144038 82.9519538 16.0016021 81.9794324L16 14.2731416C16 13.1368923 16.0904702 12.5544567 16.2629557 12.1003628L16.3483572 11.8983447C16.378745 11.8330102 16.4110433 11.769164 16.4452211 11.705257 16.7357329 11.1620472 17.1620472 10.7357329 17.705257 10.4452211 18.1845598 10.1888872 18.6604374 10.0382818 19.7864936 10.0063931L20.2731416 10 121.726858 10zM136.436115 98.8484848L5.5638852 98.8484848C4.29817445 98.8484848 3.47279169 99.0078736 2.60835772 99.470178 1.75962637 99.9240844 1.0755996 100.608111.62169311 101.456843.159388763 102.321277 0 103.146659 0 104.41237L0 108.868935C0 110.780928.397648594 112.522127 1.20048063 114.023293 2.03205249 115.578197 3.27028784 116.816432 4.82519203 117.648004 6.32635743 118.450836 8.06755711 118.848485 9.97955016 118.848485L132.02045 118.848485C133.932443 118.848485 135.673643 118.450836 137.174808 117.648004 138.729712 116.816432 139.967948 115.578197 140.799519 114.023293 141.602351 112.522127 142 110.780928 142 108.868935L142 104.41237C142 103.146659 141.840611 102.321277 141.378307 101.456843 140.9244 100.608111 140.240374 99.9240844 139.391642 99.470178 138.527208 99.0078736 137.701826 98.8484848 136.436115 98.8484848zM5.36797723 101.850127L136.436115 101.848485C137.327634 101.848485 137.65092 101.94131 137.976846 102.115618 138.302772 102.289925 138.55856 102.545713 138.732867 102.871639 138.907174 103.197565 139 103.520851 139 104.41237L139 108.868935C139 110.324774 138.706052 111.576397 138.15408 112.608496 137.602107 113.640595 136.79211 114.450592 135.760011 115.002565 134.727913 115.554537 133.476289 115.848485 132.02045 115.848485L9.97955016 115.848485C8.52371105 115.848485 7.27208737 115.554537 6.23998861 115.002565 5.20788984 114.450592 4.39789269 113.640595 3.84592023 112.608496 3.29394777 111.576397 3 110.324774 3 108.868935L3 104.41237C3 103.520851 3.09282561 103.197565 3.2671327 102.871639 3.4414398 102.545713 3.69722837 102.289925 4.0231543 102.115618 4.324009 101.954719 4.6226145 101.863248 5.36797723 101.850127z"/>
    <path fill="#D0D0D0" fill-rule="nonzero" d="M5.36797723,101.850127 L136.436115,101.848485 C137.327634,101.848485 137.65092,101.94131 137.976846,102.115618 C138.302772,102.289925 138.55856,102.545713 138.732867,102.871639 C138.907174,103.197565 139,103.520851 139,104.41237 L139,108.868935 C139,110.324774 138.706052,111.576397 138.15408,112.608496 C137.602107,113.640595 136.79211,114.450592 135.760011,115.002565 C134.727913,115.554537 133.476289,115.848485 132.02045,115.848485 L9.97955016,115.848485 C8.52371105,115.848485 7.27208737,115.554537 6.23998861,115.002565 C5.20788984,114.450592 4.39789269,113.640595 3.84592023,112.608496 C3.29394777,111.576397 3,110.324774 3,108.868935 L3,104.41237 C3,103.520851 3.09282561,103.197565 3.2671327,102.871639 C3.4414398,102.545713 3.69722837,102.289925 4.0231543,102.115618 C4.324009,101.954719 4.6226145,101.863248 5.36797723,101.850127 Z"/>
    <path fill="#3B3B3B" fill-rule="nonzero" d="M86.5,100.984848 L55.5,100.984848 C53.6423149,100.984848 52.1363636,102.4908 52.1363636,104.348485 C52.1363636,106.20617 53.6423149,107.712121 55.5,107.712121 L86.5,107.712121 C88.3576851,107.712121 89.8636364,106.20617 89.8636364,104.348485 C89.8636364,102.4908 88.3576851,100.984848 86.5,100.984848 Z"/>
    <g transform="translate(53 18)">
      <mask id="icon_security-b" fill="#fff">
        <use xlink:href="#icon_security-a"/>
      </mask>
      <circle cx="18" cy="18" r="19.5" stroke="#3B3B3B" stroke-width="3"/>
      <g mask="url(#icon_security-b)">
        <g transform="translate(5.059 10.157)">
          <path fill="#C6CCE1" stroke="#3B3B3B" stroke-width="3" d="M12.9411765,0 C16.4064925,-6.36568236e-16 19.2156863,2.80919373 19.2156863,6.2745098 C19.2156863,9.73982588 16.4064925,12.5490196 12.9411765,12.5490196 C9.47586039,12.5490196 6.66666667,9.73982588 6.66666667,6.2745098 C6.66666667,2.80919373 9.47586039,6.36568236e-16 12.9411765,0 Z"/>
          <path fill="#5265AC" stroke="#3B3B3B" stroke-width="3" d="M12.2814876,14.1176471 L13.6008654,14.1176471 C16.3075074,14.1176471 18.454476,14.628734 20.2489858,15.5884483 C22.0434956,16.5481626 23.4518374,17.9565044 24.4115517,19.7510142 C25.371266,21.545524 25.8823529,23.6924926 25.8823529,26.3991346 L25.8823529,26.9341987 C25.8823529,29.6408408 25.371266,31.7878093 24.4115517,33.5823191 C23.4518374,35.3768289 22.0434956,36.7851707 20.2489858,37.744885 C18.454476,38.7045994 16.3075074,39.2156863 13.6008654,39.2156863 L12.2814876,39.2156863 C9.57484552,39.2156863 7.42787699,38.7045994 5.63336719,37.744885 C3.83885738,36.7851707 2.43051558,35.3768289 1.47080124,33.5823191 C0.511086894,31.7878093 -2.43731643e-16,29.6408408 2.1537164e-16,26.9341987 L5.2636405e-16,26.3991346 C-5.95675339e-16,23.6924926 0.511086894,21.545524 1.47080124,19.7510142 C2.43051558,17.9565044 3.83885738,16.5481626 5.63336719,15.5884483 C7.42787699,14.628734 9.57484552,14.1176471 12.2814876,14.1176471 Z"/>
          <path fill="#C6CCE1" d="M10.5429913,21.5373351 C10.5429913,25.2192334 13.5277597,28.2040017 17.209658,28.2040017 C19.2487705,28.2040017 21.074061,27.2885205 22.2969358,25.8461517 C21.5091312,29.0905144 18.5855862,31.4985041 15.0996252,31.4985041 C11.008627,31.4985041 7.69221775,28.1820948 7.69221775,24.0910967 C7.69221775,21.0992134 9.46599409,18.5216177 12.0193074,17.3525491 C11.096085,18.4966152 10.5429913,19.9523842 10.5429913,21.5373351 Z" transform="rotate(-103 14.995 24.426)"/>
        </g>
      </g>
    </g>
    <g transform="translate(41 64)">
      <path fill="#444" d="M7.04545455,0 L52.9545455,0 C56.8456426,-1.08716464e-14 60,3.15435744 60,7.04545455 C60,10.9365516 56.8456426,14.0909091 52.9545455,14.0909091 L7.04545455,14.0909091 C3.15435744,14.0909091 4.76521961e-16,10.9365516 0,7.04545455 C-4.76521961e-16,3.15435744 3.15435744,7.14782942e-16 7.04545455,0 Z"/>
      <g transform="translate(10.273 3.524)">
        <circle cx="3.5" cy="3.5" r="3.5" fill="#FFF"/>
        <path fill="#A4A4A4" d="M2.0350664,2.74148229 C2.0350664,4.02551744 3.09693235,5.0664336 4.40681039,5.0664336 C5.02155997,5.0664336 5.58168252,4.83716187 6.00304849,4.46108815 C5.60109469,5.36686885 4.68048796,6 3.60902934,6 C2.16810222,6 1,4.85494354 1,3.4424448 C1,2.29335993 1.7730524,1.32126889 2.83715424,0.998665093 C2.34532672,1.42437168 2.0350664,2.04740923 2.0350664,2.74148229 Z"/>
      </g>
      <g transform="translate(21.273 3.524)">
        <circle cx="3.5" cy="3.5" r="3.5" fill="#FFF"/>
        <path fill="#A4A4A4" d="M2.0350664,2.74148229 C2.0350664,4.02551744 3.09693235,5.0664336 4.40681039,5.0664336 C5.02155997,5.0664336 5.58168252,4.83716187 6.00304849,4.46108815 C5.60109469,5.36686885 4.68048796,6 3.60902934,6 C2.16810222,6 1,4.85494354 1,3.4424448 C1,2.29335993 1.7730524,1.32126889 2.83715424,0.998665093 C2.34532672,1.42437168 2.0350664,2.04740923 2.0350664,2.74148229 Z"/>
      </g>
      <g transform="translate(32.273 3.524)">
        <circle cx="3.5" cy="3.5" r="3.5" fill="#FFF"/>
        <path fill="#A4A4A4" d="M2.0350664,2.74148229 C2.0350664,4.02551744 3.09693235,5.0664336 4.40681039,5.0664336 C5.02155997,5.0664336 5.58168252,4.83716187 6.00304849,4.46108815 C5.60109469,5.36686885 4.68048796,6 3.60902934,6 C2.16810222,6 1,4.85494354 1,3.4424448 C1,2.29335993 1.7730524,1.32126889 2.83715424,0.998665093 C2.34532672,1.42437168 2.0350664,2.04740923 2.0350664,2.74148229 Z"/>
      </g>
      <g transform="translate(43.273 3.524)">
        <circle cx="3.5" cy="3.5" r="3.5" fill="#FFF"/>
        <path fill="#A4A4A4" d="M2.0350664,2.74148229 C2.0350664,4.02551744 3.09693235,5.0664336 4.40681039,5.0664336 C5.02155997,5.0664336 5.58168252,4.83716187 6.00304849,4.46108815 C5.60109469,5.36686885 4.68048796,6 3.60902934,6 C2.16810222,6 1,4.85494354 1,3.4424448 C1,2.29335993 1.7730524,1.32126889 2.83715424,0.998665093 C2.34532672,1.42437168 2.0350664,2.04740923 2.0350664,2.74148229 Z"/>
      </g>
    </g>
  </g>
</svg>
