<svg xmlns="http://www.w3.org/2000/svg" xmlns:xlink="http://www.w3.org/1999/xlink" width="194" height="193" viewBox="0 0 194 193">
  <defs>
    <path id="icon_transparency-a" d="M23.951441,0.0010165293 C37.3209447,0.143277493 48.2743942,11.096727 48.4166552,24.4662307 C48.5589162,37.8357345 37.8361173,48.5585334 24.4666135,48.4162724 C11.0971098,48.2740114 0.143660292,37.3205619 0.00139932818,23.9510582 C-0.139439026,10.7152495 10.3685678,0.0734762143 23.5511581,0 L23.951441,0.0010165293 Z"/>
  </defs>
  <g fill="none" fill-rule="evenodd" transform="translate(33.69 47.589)">
    <path fill="#5265AC" d="M89.8781454,23.4110668 L101.6383,23.4110668 C102.504294,23.4110668 103.206321,24.1130935 103.206321,24.9790874 C103.206321,25.8450813 102.504294,26.5471081 101.6383,26.5471081 L89.8781454,26.5471081 C89.0121515,26.5471081 88.3101248,25.8450813 88.3101248,24.9790874 C88.3101248,24.1130935 89.0121515,23.4110668 89.8781454,23.4110668 Z"/>
    <path fill="#3B3B3B" d="M92.1811757,41.0912731 L109.429403,41.0912731 C110.295397,41.0912731 110.997423,41.7932999 110.997423,42.6592937 C110.997423,43.5252876 110.295397,44.2273144 109.429403,44.2273144 L92.1811757,44.2273144 C91.3151818,44.2273144 90.6131551,43.5252876 90.6131551,42.6592937 C90.6131551,41.7932999 91.3151818,41.0912731 92.1811757,41.0912731 Z"/>
    <path fill="#C6CCE1" d="M101.5893,47.5793453 L114.133465,47.5793453 C114.999458,47.5793453 115.701485,48.2813721 115.701485,49.147366 C115.701485,50.0133598 114.999458,50.7153866 114.133465,50.7153866 L101.5893,50.7153866 C100.723306,50.7153866 100.021279,50.0133598 100.021279,49.147366 C100.021279,48.2813721 100.723306,47.5793453 101.5893,47.5793453 Z"/>
    <path fill="#3B3B3B" d="M92.1811757,28.899139 L103.94133,28.899139 C104.807324,28.899139 105.509351,29.6011658 105.509351,30.4671596 C105.509351,31.3331535 104.807324,32.0351803 103.94133,32.0351803 L92.1811757,32.0351803 C91.3151818,32.0351803 90.6131551,31.3331535 90.6131551,30.4671596 C90.6131551,29.6011658 91.3151818,28.899139 92.1811757,28.899139 Z"/>
    <path fill="#A4A4A4" d="M105.509351,35.3872112 L117.269506,35.3872112 C118.1355,35.3872112 118.837526,36.089238 118.837526,36.9552319 C118.837526,37.8212257 118.1355,38.5232525 117.269506,38.5232525 L105.509351,38.5232525 C104.643357,38.5232525 103.94133,37.8212257 103.94133,36.9552319 C103.94133,36.089238 104.643357,35.3872112 105.509351,35.3872112 Z"/>
    <path fill="#3B3B3B" d="M92.1811757,47.5793453 L96.1012273,47.5793453 C96.9672212,47.5793453 97.6692479,48.2813721 97.6692479,49.147366 C97.6692479,50.0133598 96.9672212,50.7153866 96.1012273,50.7153866 L92.1811757,50.7153866 C91.3151818,50.7153866 90.6131551,50.0133598 90.6131551,49.147366 C90.6131551,48.2813721 91.3151818,47.5793453 92.1811757,47.5793453 Z"/>
    <path fill="#5265AC" d="M92.1811757 35.3872112L100.021279 35.3872112C100.887273 35.3872112 101.5893 36.089238 101.5893 36.9552319 101.5893 37.8212257 100.887273 38.5232525 100.021279 38.5232525L92.1811757 38.5232525C91.3151818 38.5232525 90.6131551 37.8212257 90.6131551 36.9552319 90.6131551 36.089238 91.3151818 35.3872112 92.1811757 35.3872112zM114.917475 41.0912731L122.757578 41.0912731C123.623572 41.0912731 124.325599 41.7932999 124.325599 42.6592937 124.325599 43.5252876 123.623572 44.2273144 122.757578 44.2273144L114.917475 44.2273144C114.051481 44.2273144 113.349454 43.5252876 113.349454 42.6592937 113.349454 41.7932999 114.051481 41.0912731 114.917475 41.0912731z"/>
    <path fill="#C6CCE1" d="M116.902001,23.4110668 L124.742104,23.4110668 C125.608098,23.4110668 126.310125,24.1130935 126.310125,24.9790874 C126.310125,25.8450813 125.608098,26.5471081 124.742104,26.5471081 L116.902001,26.5471081 C116.036007,26.5471081 115.33398,25.8450813 115.33398,24.9790874 C115.33398,24.1130935 116.036007,23.4110668 116.902001,23.4110668 Z"/>
    <path fill="#3B3B3B" d="M108.277888,23.4110668 L111.413929,23.4110668 C112.279923,23.4110668 112.981949,24.1130935 112.981949,24.9790874 C112.981949,25.8450813 112.279923,26.5471081 111.413929,26.5471081 L108.277888,26.5471081 C107.411894,26.5471081 106.709867,25.8450813 106.709867,24.9790874 C106.709867,24.1130935 107.411894,23.4110668 108.277888,23.4110668 Z"/>
    <path fill="#24387D" d="M92.1811757 53.0674175L107.861382 53.0674175C108.727376 53.0674175 109.429403 53.7694443 109.429403 54.6354382 109.429403 55.5014321 108.727376 56.2034588 107.861382 56.2034588L92.1811757 56.2034588C91.3151818 56.2034588 90.6131551 55.5014321 90.6131551 54.6354382 90.6131551 53.7694443 91.3151818 53.0674175 92.1811757 53.0674175zM109.429403 28.899139L118.837526 28.899139C119.70352 28.899139 120.405547 29.6011658 120.405547 30.4671596 120.405547 31.3331535 119.70352 32.0351803 118.837526 32.0351803L109.429403 32.0351803C108.563409 32.0351803 107.861382 31.3331535 107.861382 30.4671596 107.861382 29.6011658 108.563409 28.899139 109.429403 28.899139z"/>
    <path fill="#3B3B3B" d="M113.349454,53.0674175 L119.621537,53.0674175 C120.487531,53.0674175 121.189557,53.7694443 121.189557,54.6354382 C121.189557,55.5014321 120.487531,56.2034588 119.621537,56.2034588 L113.349454,56.2034588 C112.48346,56.2034588 111.781434,55.5014321 111.781434,54.6354382 C111.781434,53.7694443 112.48346,53.0674175 113.349454,53.0674175 Z"/>
    <path fill="#3B3B3B" fill-rule="nonzero" d="M24.0811928,47.2439003 L23.9446726,47.2439003 C19.9890062,47.2819135 16.8260677,50.5063722 16.8640121,54.445999 L17.2430526,93.8003308 C17.2809253,97.7325134 20.3909028,100.928577 24.2910623,101.101748 L24.6318862,101.109079 L24.6883902,101.109079 C28.6280171,101.070832 31.7909556,97.8463737 31.7530112,93.9067468 L31.3739707,54.552415 C31.3353089,50.5383119 28.0952047,47.2913185 24.0811928,47.2439003 Z M23.9575262,50.2438299 L24.0459282,50.2438299 C26.4281991,50.271929 28.3511645,52.1989831 28.3741098,54.5813081 L28.7531503,93.9356399 C28.7744713,96.1493121 27.0517216,97.9733094 24.8657499,98.1018703 L24.6038363,98.1090669 L24.5710951,98.1090669 C22.1888242,98.0808168 20.2658588,96.1537628 20.2429135,93.7714377 L19.863873,54.4171059 C19.8418858,52.1342565 21.6746767,50.2658172 23.9575262,50.2438299 Z" transform="rotate(45 24.309 74.176)"/>
    <path fill="#3B3B3B" fill-rule="nonzero" d="M61.3658708,0.00209223052 C41.3512817,-0.210877136 25.2785847,15.8618199 25.491554,35.876409 C25.7039586,55.8379199 42.0386467,72.1726079 62.0001575,72.3850125 C82.0147466,72.5979819 98.0874437,56.5252849 97.8744743,36.5106957 L97.863278,35.9129509 C97.3350133,16.2241033 81.1277666,0.21237276 61.3658708,0.00209223052 Z" transform="rotate(-180 61.683 36.194)"/>
    <path fill="#FFF" fill-rule="nonzero" d="M61.3318911,3.19493803 C79.5562344,3.38885792 94.4871868,18.3198103 94.6811067,36.5441536 C94.8750266,54.7684969 80.2584805,69.385043 62.0341372,69.1911231 C43.8097939,68.9972032 28.8788415,54.0662508 28.6849216,35.8419076 C28.4929409,17.7998077 42.816698,3.29370985 60.7862544,3.19355238 L61.3318911,3.19493803 Z" transform="rotate(-180 61.683 36.193)"/>
    <path fill="#3B3B3B" fill-rule="nonzero" d="M61.3793747,8.67238576 C46.3281249,8.51222983 34.2374266,20.6029281 34.3975826,35.6541779 C34.5572079,50.6555663 46.8293182,62.9276766 61.8307066,63.087302 C76.8819565,63.2474579 88.9726547,51.1567597 88.8124988,36.1055098 C88.6528734,21.1041214 76.3807632,8.83201113 61.3793747,8.67238576 Z" transform="rotate(-180 61.605 35.88)"/>
    <g transform="translate(37.396 11.67)">
      <mask id="icon_transparency-b" fill="#fff">
        <use xlink:href="#icon_transparency-a"/>
      </mask>
      <use fill="#FFF" fill-rule="nonzero" transform="rotate(-180 24.209 24.209)" xlink:href="#icon_transparency-a"/>
      <path fill="#5265AC" d="M-4.85263059,7.14378588 L13.6155843,7.14378588 C14.1750438,7.14378588 14.5536732,7.23661149 14.8795991,7.41091858 C15.2055251,7.58522567 15.4613136,7.84101425 15.6356207,8.16694017 C15.8099278,8.4928661 15.9027534,8.87149554 15.9027534,9.43095504 L15.9027534,9.70768054 C15.9027534,10.26714 15.8099278,10.6457695 15.6356207,10.9716954 C15.4613136,11.2976213 15.2055251,11.5534099 14.8795991,11.727717 C14.5536732,11.9020241 14.1750438,11.9948497 13.6155843,11.9948497 L-4.85263059,11.9948497 C-5.41209009,11.9948497 -5.79071953,11.9020241 -6.11664546,11.727717 C-6.44257139,11.5534099 -6.69835996,11.2976213 -6.87266705,10.9716954 C-7.04697415,10.6457695 -7.13979976,10.26714 -7.13979976,9.70768054 L-7.13979976,9.43095504 C-7.13979976,8.87149554 -7.04697415,8.4928661 -6.87266705,8.16694017 C-6.69835996,7.84101425 -6.44257139,7.58522567 -6.11664546,7.41091858 C-5.79071953,7.23661149 -5.41209009,7.14378588 -4.85263059,7.14378588 Z" mask="url(#icon_transparency-b)"/>
      <path fill="#3B3B3B" d="M-4.85263059,31.399105 L22.104946,31.399105 C22.6644055,31.399105 23.0430349,31.4919306 23.3689608,31.6662377 C23.6948868,31.8405448 23.9506753,32.0963334 24.1249824,32.4222593 C24.2992895,32.7481852 24.3921151,33.1268147 24.3921151,33.6862742 L24.3921151,33.9629997 C24.3921151,34.5224592 24.2992895,34.9010886 24.1249824,35.2270146 C23.9506753,35.5529405 23.6948868,35.8087291 23.3689608,35.9830362 C23.0430349,36.1573432 22.6644055,36.2501689 22.104946,36.2501689 L-4.85263059,36.2501689 C-5.41209009,36.2501689 -5.79071953,36.1573432 -6.11664546,35.9830362 C-6.44257139,35.8087291 -6.69835996,35.5529405 -6.87266705,35.2270146 C-7.04697415,34.9010886 -7.13979976,34.5224592 -7.13979976,33.9629997 L-7.13979976,33.6862742 C-7.13979976,33.1268147 -7.04697415,32.7481852 -6.87266705,32.4222593 C-6.69835996,32.0963334 -6.44257139,31.8405448 -6.11664546,31.6662377 C-5.79071953,31.4919306 -5.41209009,31.399105 -4.85263059,31.399105 Z" mask="url(#icon_transparency-b)"/>
      <path fill="#C6CCE1" d="M6.7005609,39.8884667 L23.1262226,39.8884667 C23.6856821,39.8884667 24.0643115,39.9812923 24.3902374,40.1555994 C24.7161634,40.3299065 24.9719519,40.5856951 25.146259,40.911621 C25.3205661,41.237547 25.4133917,41.6161764 25.4133917,42.1756359 L25.4133917,42.4523614 C25.4133917,43.0118209 25.3205661,43.3904503 25.146259,43.7163763 C24.9719519,44.0423022 24.7161634,44.2980908 24.3902374,44.4723979 C24.0643115,44.6467049 23.6856821,44.7395306 23.1262226,44.7395306 L6.7005609,44.7395306 C6.1411014,44.7395306 5.76247195,44.6467049 5.43654603,44.4723979 C5.1106201,44.2980908 4.85483153,44.0423022 4.68052444,43.7163763 C4.50621734,43.3904503 4.41339173,43.0118209 4.41339173,42.4523614 L4.41339173,42.1756359 C4.41339173,41.6161764 4.50621734,41.237547 4.68052444,40.911621 C4.85483153,40.5856951 5.1106201,40.3299065 5.43654603,40.1555994 C5.76247195,39.9812923 6.1411014,39.8884667 6.7005609,39.8884667 Z" mask="url(#icon_transparency-b)"/>
      <path fill="#3B3B3B" d="M-4.85263059,15.6331476 L13.6155843,15.6331476 C14.1750438,15.6331476 14.5536732,15.7259732 14.8795991,15.9002803 C15.2055251,16.0745874 15.4613136,16.330376 15.6356207,16.6563019 C15.8099278,16.9822278 15.9027534,17.3608572 15.9027534,17.9203167 L15.9027534,18.1970422 C15.9027534,18.7565017 15.8099278,19.1351312 15.6356207,19.4610571 C15.4613136,19.786983 15.2055251,20.0427716 14.8795991,20.2170787 C14.5536732,20.3913858 14.1750438,20.4842114 13.6155843,20.4842114 L-4.85263059,20.4842114 C-5.41209009,20.4842114 -5.79071953,20.3913858 -6.11664546,20.2170787 C-6.44257139,20.0427716 -6.69835996,19.786983 -6.87266705,19.4610571 C-7.04697415,19.1351312 -7.13979976,18.7565017 -7.13979976,18.1970422 L-7.13979976,17.9203167 C-7.13979976,17.3608572 -7.04697415,16.9822278 -6.87266705,16.6563019 C-6.69835996,16.330376 -6.44257139,16.0745874 -6.11664546,15.9002803 C-5.79071953,15.7259732 -5.41209009,15.6331476 -4.85263059,15.6331476 Z" mask="url(#icon_transparency-b)"/>
      <path fill="#A4A4A4" d="M15.7643907,24.1225093 L34.2326055,24.1225093 C34.792065,24.1225093 35.1706945,24.2153349 35.4966204,24.389642 C35.8225463,24.5639491 36.0783349,24.8197377 36.252642,25.1456636 C36.4269491,25.4715895 36.5197747,25.8502189 36.5197747,26.4096784 L36.5197747,26.6864039 C36.5197747,27.2458634 36.4269491,27.6244929 36.252642,27.9504188 C36.0783349,28.2763447 35.8225463,28.5321333 35.4966204,28.7064404 C35.1706945,28.8807475 34.792065,28.9735731 34.2326055,28.9735731 L15.7643907,28.9735731 C15.2049312,28.9735731 14.8263017,28.8807475 14.5003758,28.7064404 C14.1744499,28.5321333 13.9186613,28.2763447 13.7443542,27.9504188 C13.5700471,27.6244929 13.4772215,27.2458634 13.4772215,26.6864039 L13.4772215,26.4096784 C13.4772215,25.8502189 13.5700471,25.4715895 13.7443542,25.1456636 C13.9186613,24.8197377 14.1744499,24.5639491 14.5003758,24.389642 C14.8263017,24.2153349 15.2049312,24.1225093 15.7643907,24.1225093 Z" mask="url(#icon_transparency-b)"/>
      <path fill="#3B3B3B" d="M-5.85263059,39.8884667 L0.487924695,39.8884667 C1.04738419,39.8884667 1.42601364,39.9812923 1.75193956,40.1555994 C2.07786549,40.3299065 2.33365406,40.5856951 2.50796116,40.911621 C2.68226825,41.237547 2.77509386,41.6161764 2.77509386,42.1756359 L2.77509386,42.4523614 C2.77509386,43.0118209 2.68226825,43.3904503 2.50796116,43.7163763 C2.33365406,44.0423022 2.07786549,44.2980908 1.75193956,44.4723979 C1.42601364,44.6467049 1.04738419,44.7395306 0.487924695,44.7395306 L-5.85263059,44.7395306 C-6.41209009,44.7395306 -6.79071953,44.6467049 -7.11664546,44.4723979 C-7.44257139,44.2980908 -7.69835996,44.0423022 -7.87266705,43.7163763 C-8.04697415,43.3904503 -8.13979976,43.0118209 -8.13979976,42.4523614 L-8.13979976,42.1756359 C-8.13979976,41.6161764 -8.04697415,41.237547 -7.87266705,40.911621 C-7.69835996,40.5856951 -7.44257139,40.3299065 -7.11664546,40.1555994 C-6.79071953,39.9812923 -6.41209009,39.8884667 -5.85263059,39.8884667 Z" mask="url(#icon_transparency-b)"/>
      <path fill="#5265AC" d="M-4.85263059 24.1225093L7.55175448 24.1225093C8.11121398 24.1225093 8.48984342 24.2153349 8.81576935 24.389642 9.14169528 24.5639491 9.39748385 24.8197377 9.57179094 25.1456636 9.74609804 25.4715895 9.83892365 25.8502189 9.83892365 26.4096784L9.83892365 26.6864039C9.83892365 27.2458634 9.74609804 27.6244929 9.57179094 27.9504188 9.39748385 28.2763447 9.14169528 28.5321333 8.81576935 28.7064404 8.48984342 28.8807475 8.11121398 28.9735731 7.55175448 28.9735731L-4.85263059 28.9735731C-5.41209009 28.9735731-5.79071953 28.8807475-6.11664546 28.7064404-6.44257139 28.5321333-6.69835996 28.2763447-6.87266705 27.9504188-7.04697415 27.6244929-7.13979976 27.2458634-7.13979976 26.6864039L-7.13979976 26.4096784C-7.13979976 25.8502189-7.04697415 25.4715895-6.87266705 25.1456636-6.69835996 24.8197377-6.44257139 24.5639491-6.11664546 24.389642-5.79071953 24.2153349-5.41209009 24.1225093-4.85263059 24.1225093zM30.3175822 31.399105L36.7432438 31.399105C37.3027033 31.399105 37.6813328 31.4919306 38.0072587 31.6662377 38.3331846 31.8405448 38.5889732 32.0963334 38.7632803 32.4222593 38.9375874 32.7481852 39.030413 33.1268147 39.030413 33.6862742L39.030413 33.9629997C39.030413 34.5224592 38.9375874 34.9010886 38.7632803 35.2270146 38.5889732 35.5529405 38.3331846 35.8087291 38.0072587 35.9830362 37.6813328 36.1573432 37.3027033 36.2501689 36.7432438 36.2501689L30.3175822 36.2501689C29.7581227 36.2501689 29.3794932 36.1573432 29.0535673 35.9830362 28.7276414 35.8087291 28.4718528 35.5529405 28.2975457 35.2270146 28.1232386 34.9010886 28.030413 34.5224592 28.030413 33.9629997L28.030413 33.6862742C28.030413 33.1268147 28.1232386 32.7481852 28.2975457 32.4222593 28.4718528 32.0963334 28.7276414 31.8405448 29.0535673 31.6662377 29.3794932 31.4919306 29.7581227 31.399105 30.3175822 31.399105z" mask="url(#icon_transparency-b)"/>
      <path fill="#C6CCE1" d="M35.168646,7.14378588 L47.5730311,7.14378588 C48.1324906,7.14378588 48.51112,7.23661149 48.8370459,7.41091858 C49.1629719,7.58522567 49.4187604,7.84101425 49.5930675,8.16694017 C49.7673746,8.4928661 49.8602002,8.87149554 49.8602002,9.43095504 L49.8602002,9.70768054 C49.8602002,10.26714 49.7673746,10.6457695 49.5930675,10.9716954 C49.4187604,11.2976213 49.1629719,11.5534099 48.8370459,11.727717 C48.51112,11.9020241 48.1324906,11.9948497 47.5730311,11.9948497 L35.168646,11.9948497 C34.6091865,11.9948497 34.2305571,11.9020241 33.9046311,11.727717 C33.5787052,11.5534099 33.3229166,11.2976213 33.1486095,10.9716954 C32.9743024,10.6457695 32.8814768,10.26714 32.8814768,9.70768054 L32.8814768,9.43095504 C32.8814768,8.87149554 32.9743024,8.4928661 33.1486095,8.16694017 C33.3229166,7.84101425 33.5787052,7.58522567 33.9046311,7.41091858 C34.2305571,7.23661149 34.6091865,7.14378588 35.168646,7.14378588 Z" mask="url(#icon_transparency-b)"/>
      <path fill="#3B3B3B" d="M21.8282205,7.14378588 L26.9560098,7.14378588 C27.5154693,7.14378588 27.8940987,7.23661149 28.2200247,7.41091858 C28.5459506,7.58522567 28.8017392,7.84101425 28.9760463,8.16694017 C29.1503534,8.4928661 29.243179,8.87149554 29.243179,9.43095504 L29.243179,9.70768054 C29.243179,10.26714 29.1503534,10.6457695 28.9760463,10.9716954 C28.8017392,11.2976213 28.5459506,11.5534099 28.2200247,11.727717 C27.8940987,11.9020241 27.5154693,11.9948497 26.9560098,11.9948497 L21.8282205,11.9948497 C21.268761,11.9948497 20.8901315,11.9020241 20.5642056,11.727717 C20.2382797,11.5534099 19.9824911,11.2976213 19.808184,10.9716954 C19.6338769,10.6457695 19.5410513,10.26714 19.5410513,9.70768054 L19.5410513,9.43095504 C19.5410513,8.87149554 19.6338769,8.4928661 19.808184,8.16694017 C19.9824911,7.84101425 20.2382797,7.58522567 20.5642056,7.41091858 C20.8901315,7.23661149 21.268761,7.14378588 21.8282205,7.14378588 Z" mask="url(#icon_transparency-b)"/>
      <path fill="#24387D" d="M-4.85263059 48.3778284L19.6794141 48.3778284C20.2388736 48.3778284 20.617503 48.470654 20.9434289 48.6449611 21.2693549 48.8192682 21.5251434 49.0750568 21.6994505 49.4009827 21.8737576 49.7269087 21.9665832 50.1055381 21.9665832 50.6649976L21.9665832 50.9417231C21.9665832 51.5011826 21.8737576 51.879812 21.6994505 52.205738 21.5251434 52.5316639 21.2693549 52.7874525 20.9434289 52.9617596 20.617503 53.1360666 20.2388736 53.2288923 19.6794141 53.2288923L-4.85263059 53.2288923C-5.41209009 53.2288923-5.79071953 53.1360666-6.11664546 52.9617596-6.44257139 52.7874525-6.69835996 52.5316639-6.87266705 52.205738-7.04697415 51.879812-7.13979976 51.5011826-7.13979976 50.9417231L-7.13979976 50.6649976C-7.13979976 50.1055381-7.04697415 49.7269087-6.87266705 49.4009827-6.69835996 49.0750568-6.44257139 48.8192682-6.11664546 48.6449611-5.79071953 48.470654-5.41209009 48.3778284-4.85263059 48.3778284zM21.8282205 15.6331476L36.6581375 15.6331476C37.217597 15.6331476 37.5962264 15.7259732 37.9221523 15.9002803 38.2480783 16.0745874 38.5038668 16.330376 38.6781739 16.6563019 38.852481 16.9822278 38.9453066 17.3608572 38.9453066 17.9203167L38.9453066 18.1970422C38.9453066 18.7565017 38.852481 19.1351312 38.6781739 19.4610571 38.5038668 19.786983 38.2480783 20.0427716 37.9221523 20.2170787 37.5962264 20.3913858 37.217597 20.4842114 36.6581375 20.4842114L21.8282205 20.4842114C21.268761 20.4842114 20.8901315 20.3913858 20.5642056 20.2170787 20.2382797 20.0427716 19.9824911 19.786983 19.808184 19.4610571 19.6338769 19.1351312 19.5410513 18.7565017 19.5410513 18.1970422L19.5410513 17.9203167C19.5410513 17.3608572 19.6338769 16.9822278 19.808184 16.6563019 19.9824911 16.330376 20.2382797 16.0745874 20.5642056 15.9002803 20.8901315 15.7259732 21.268761 15.6331476 21.8282205 15.6331476z" mask="url(#icon_transparency-b)"/>
      <path fill="#3B3B3B" d="M27.8920503,48.3778284 L37.8709034,48.3778284 C38.4303629,48.3778284 38.8089924,48.470654 39.1349183,48.6449611 C39.4608442,48.8192682 39.7166328,49.0750568 39.8909399,49.4009827 C40.065247,49.7269087 40.1580726,50.1055381 40.1580726,50.6649976 L40.1580726,50.9417231 C40.1580726,51.5011826 40.065247,51.879812 39.8909399,52.205738 C39.7166328,52.5316639 39.4608442,52.7874525 39.1349183,52.9617596 C38.8089924,53.1360666 38.4303629,53.2288923 37.8709034,53.2288923 L27.8920503,53.2288923 C27.3325908,53.2288923 26.9539613,53.1360666 26.6280354,52.9617596 C26.3021095,52.7874525 26.0463209,52.5316639 25.8720138,52.205738 C25.6977067,51.879812 25.6048811,51.5011826 25.6048811,50.9417231 L25.6048811,50.6649976 C25.6048811,50.1055381 25.6977067,49.7269087 25.8720138,49.4009827 C26.0463209,49.0750568 26.3021095,48.8192682 26.6280354,48.6449611 C26.9539613,48.470654 27.3325908,48.3778284 27.8920503,48.3778284 Z" mask="url(#icon_transparency-b)"/>
    </g>
    <path fill="#D0D0D0" d="M50.3101248,30.4110668 C50.3101248,40.904477 58.8167145,49.4110668 69.3101248,49.4110668 C73.5570098,49.4110668 77.4784582,48.0177073 80.6422611,45.6631973 C77.0474501,52.0765419 70.1849787,56.4110668 62.3101248,56.4110668 C50.712145,56.4110668 41.3101248,47.0090465 41.3101248,35.4110668 C41.3101248,25.0944077 48.749469,16.5153005 58.5562873,14.7456154 C53.5757064,18.1706162 50.3101248,23.9094828 50.3101248,30.4110668 Z" style="mix-blend-mode:normal"/>
  </g>
</svg>
