<svg xmlns="http://www.w3.org/2000/svg" width="152" height="118" viewBox="0 0 152 118">
  <g fill="none" fill-rule="evenodd" transform="translate(0 2)">
    <g stroke="#3B3B3B" stroke-linecap="round" stroke-width="3" transform="translate(16)">
      <path d="M4.06338698,78.6697767 C12.6210953,99.2303421 32.9047011,113.685484 56.5644862,113.685484 C75.0545349,113.685484 91.4826246,104.857188 101.863523,91.1858283 M109.735104,36.6999818 C101.604392,15.2489493 80.8652306,0 56.5644862,0 C37.1770804,0 20.0566319,9.70599725 9.79722013,24.523912"/>
      <polyline points="112.85 28.327 112.85 37.339 103.839 37.339" transform="rotate(23 108.345 32.833)"/>
      <polyline points="10.905 78.677 10.905 87.672 1.894 87.672" transform="rotate(-165 6.4 83.174)"/>
    </g>
    <g fill-rule="nonzero" transform="translate(0 32)">
      <path fill="#5265AC" d="M2,2.22044605e-16 L17,2.22044605e-16 C18.1045695,2.22044605e-16 19,0.8954305 19,2 C19,3.1045695 18.1045695,4 17,4 L2,4 C0.8954305,4 0,3.1045695 0,2 C0,0.8954305 0.8954305,2.22044605e-16 2,2.22044605e-16 Z"/>
      <path fill="#3B3B3B" d="M2,20 L24,20 C25.1045695,20 26,20.8954305 26,22 C26,23.1045695 25.1045695,24 24,24 L2,24 C0.8954305,24 0,23.1045695 0,22 C0,20.8954305 0.8954305,20 2,20 Z"/>
      <path fill="#C6CCE1" d="M14,27 L30,27 C31.1045695,27 32,27.8954305 32,29 C32,30.1045695 31.1045695,31 30,31 L14,31 C12.8954305,31 12,30.1045695 12,29 C12,27.8954305 12.8954305,27 14,27 Z"/>
      <path fill="#3B3B3B" d="M2,7 L17,7 C18.1045695,7 19,7.8954305 19,9 C19,10.1045695 18.1045695,11 17,11 L2,11 C0.8954305,11 0,10.1045695 0,9 C0,7.8954305 0.8954305,7 2,7 Z"/>
      <path fill="#A4A4A4" d="M19,14 L34,14 C35.1045695,14 36,14.8954305 36,16 C36,17.1045695 35.1045695,18 34,18 L19,18 C17.8954305,18 17,17.1045695 17,16 C17,14.8954305 17.8954305,14 19,14 Z"/>
      <path fill="#3B3B3B" d="M2,27 L7,27 C8.1045695,27 9,27.8954305 9,29 C9,30.1045695 8.1045695,31 7,31 L2,31 C0.8954305,31 0,30.1045695 0,29 C0,27.8954305 0.8954305,27 2,27 Z"/>
      <path fill="#5265AC" d="M2 14L12 14C13.1045695 14 14 14.8954305 14 16 14 17.1045695 13.1045695 18 12 18L2 18C.8954305 18 0 17.1045695 0 16 0 14.8954305.8954305 14 2 14zM31 20L41 20C42.1045695 20 43 20.8954305 43 22 43 23.1045695 42.1045695 24 41 24L31 24C29.8954305 24 29 23.1045695 29 22 29 20.8954305 29.8954305 20 31 20z"/>
      <path fill="#C6CCE1" d="M35,0 L45,0 C46.1045695,0 47,0.8954305 47,2 C47,3.1045695 46.1045695,4 45,4 L35,4 C33.8954305,4 33,3.1045695 33,2 C33,0.8954305 33.8954305,0 35,0 Z"/>
      <path fill="#3B3B3B" d="M24,2.22044605e-16 L28,2.22044605e-16 C29.1045695,2.22044605e-16 30,0.8954305 30,2 C30,3.1045695 29.1045695,4 28,4 L24,4 C22.8954305,4 22,3.1045695 22,2 C22,0.8954305 22.8954305,2.22044605e-16 24,2.22044605e-16 Z"/>
      <path fill="#24387D" d="M2 34L22 34C23.1045695 34 24 34.8954305 24 36 24 37.1045695 23.1045695 38 22 38L2 38C.8954305 38 0 37.1045695 0 36 0 34.8954305.8954305 34 2 34zM24 7L36 7C37.1045695 7 38 7.8954305 38 9 38 10.1045695 37.1045695 11 36 11L24 11C22.8954305 11 22 10.1045695 22 9 22 7.8954305 22.8954305 7 24 7z"/>
      <path fill="#3B3B3B" d="M29,34 L37,34 C38.1045695,34 39,34.8954305 39,36 C39,37.1045695 38.1045695,38 37,38 L29,38 C27.8954305,38 27,37.1045695 27,36 C27,34.8954305 27.8954305,34 29,34 Z"/>
    </g>
    <g fill-rule="nonzero" transform="matrix(1 0 0 -1 105 84)">
      <path fill="#5265AC" d="M2,2.22044605e-16 L17,2.22044605e-16 C18.1045695,2.22044605e-16 19,0.8954305 19,2 C19,3.1045695 18.1045695,4 17,4 L2,4 C0.8954305,4 0,3.1045695 0,2 C0,0.8954305 0.8954305,2.22044605e-16 2,2.22044605e-16 Z"/>
      <path fill="#3B3B3B" d="M2,20 L24,20 C25.1045695,20 26,20.8954305 26,22 C26,23.1045695 25.1045695,24 24,24 L2,24 C0.8954305,24 0,23.1045695 0,22 C0,20.8954305 0.8954305,20 2,20 Z"/>
      <path fill="#C6CCE1" d="M14,27 L30,27 C31.1045695,27 32,27.8954305 32,29 C32,30.1045695 31.1045695,31 30,31 L14,31 C12.8954305,31 12,30.1045695 12,29 C12,27.8954305 12.8954305,27 14,27 Z"/>
      <path fill="#3B3B3B" d="M2,7 L17,7 C18.1045695,7 19,7.8954305 19,9 C19,10.1045695 18.1045695,11 17,11 L2,11 C0.8954305,11 0,10.1045695 0,9 C0,7.8954305 0.8954305,7 2,7 Z"/>
      <path fill="#A4A4A4" d="M19,14 L34,14 C35.1045695,14 36,14.8954305 36,16 C36,17.1045695 35.1045695,18 34,18 L19,18 C17.8954305,18 17,17.1045695 17,16 C17,14.8954305 17.8954305,14 19,14 Z"/>
      <path fill="#3B3B3B" d="M2,27 L7,27 C8.1045695,27 9,27.8954305 9,29 C9,30.1045695 8.1045695,31 7,31 L2,31 C0.8954305,31 0,30.1045695 0,29 C0,27.8954305 0.8954305,27 2,27 Z"/>
      <path fill="#5265AC" d="M2 14L12 14C13.1045695 14 14 14.8954305 14 16 14 17.1045695 13.1045695 18 12 18L2 18C.8954305 18 0 17.1045695 0 16 0 14.8954305.8954305 14 2 14zM31 20L41 20C42.1045695 20 43 20.8954305 43 22 43 23.1045695 42.1045695 24 41 24L31 24C29.8954305 24 29 23.1045695 29 22 29 20.8954305 29.8954305 20 31 20z"/>
      <path fill="#C6CCE1" d="M35,0 L45,0 C46.1045695,0 47,0.8954305 47,2 C47,3.1045695 46.1045695,4 45,4 L35,4 C33.8954305,4 33,3.1045695 33,2 C33,0.8954305 33.8954305,0 35,0 Z"/>
      <path fill="#3B3B3B" d="M24,2.22044605e-16 L28,2.22044605e-16 C29.1045695,2.22044605e-16 30,0.8954305 30,2 C30,3.1045695 29.1045695,4 28,4 L24,4 C22.8954305,4 22,3.1045695 22,2 C22,0.8954305 22.8954305,2.22044605e-16 24,2.22044605e-16 Z"/>
      <path fill="#24387D" d="M2 34L22 34C23.1045695 34 24 34.8954305 24 36 24 37.1045695 23.1045695 38 22 38L2 38C.8954305 38 0 37.1045695 0 36 0 34.8954305.8954305 34 2 34zM24 7L36 7C37.1045695 7 38 7.8954305 38 9 38 10.1045695 37.1045695 11 36 11L24 11C22.8954305 11 22 10.1045695 22 9 22 7.8954305 22.8954305 7 24 7z"/>
      <path fill="#3B3B3B" d="M29,34 L37,34 C38.1045695,34 39,34.8954305 39,36 C39,37.1045695 38.1045695,38 37,38 L29,38 C27.8954305,38 27,37.1045695 27,36 C27,34.8954305 27.8954305,34 29,34 Z"/>
    </g>
  </g>
</svg>
