<svg xmlns="http://www.w3.org/2000/svg" width="160" height="129" viewBox="0 0 160 129">
  <g fill="none" fill-rule="evenodd" transform="translate(2 2)">
    <g stroke="#7B8ED4" stroke-linecap="round" stroke-linejoin="round" stroke-width="3" transform="translate(66.4 100.749)">
      <polyline points="87.444 2 87.444 8.412 81.033 8.412" transform="rotate(-45 84.239 5.206)"/>
      <line x1="88.142" x2=".1" y1="5.206" y2="5.201"/>
    </g>
    <g stroke="#3B3B3B" stroke-linecap="round" stroke-linejoin="round" stroke-width="3" transform="matrix(-1 0 0 1 116 0)">
      <g transform="rotate(136 44.615 55.175)">
        <path d="M0,40.0723815 C2.98586202,21.6951283 17.7280449,6.86112787 35.2636957,4.80868578"/>
        <polyline points="35.264 1.603 35.264 8.014 28.852 8.014" transform="rotate(-45 32.058 4.809)"/>
      </g>
      <g transform="rotate(14 5.019 57.677)">
        <path d="M0,40.0723815 C2.98586202,21.6951283 17.7280449,6.86112787 35.2636957,4.80868578"/>
        <polyline points="35.264 1.603 35.264 8.014 28.852 8.014" transform="rotate(-45 32.058 4.809)"/>
      </g>
      <g transform="rotate(-105 49.608 54.301)">
        <path d="M0,40.0723815 C2.98586202,21.6951283 17.7280449,6.86112787 35.2636957,4.80868578"/>
        <polyline points="35.264 1.603 35.264 8.014 28.852 8.014" transform="rotate(-45 32.058 4.809)"/>
      </g>
    </g>
    <g fill-rule="nonzero" transform="translate(94 37)">
      <path fill="#F8F8F8" stroke="#3B3B3B" stroke-width="3" d="M18.7624828,0 C8.41712812,0 0,8.41712812 0,18.7624828 C0,29.1078375 8.41712812,37.5249656 18.7624828,37.5249656 C29.1078375,37.5249656 37.5249656,29.1078375 37.5249656,18.7624828 C37.5249656,8.41712812 29.1078375,0 18.7624828,0 Z"/>
      <g transform="translate(5 9)">
        <path fill="#5265AC" d="M6.76413385 16.1680645C6.39330544 16.1680645 6.02247704 16.0272445 5.7395725 15.7454589L.773772655 10.7993002C.50196814 10.5285707.349342821 10.1615367.349342821 9.77879126.349342821 9.39590039.50196814 9.02886631.773626602 8.75813686L5.73942645 3.81197813C6.30538157 3.24840699 7.22288612 3.24840699 7.78884125 3.81197813 8.35465033 4.37554928 8.35465033 5.28957032 7.78884125 5.85314146L3.84760276 9.77879126 7.7886952 13.7041501C8.35465033 14.2678667 8.35465033 15.1817423 7.78884125 15.7454589 7.50579066 16.027099 7.13496225 16.1680645 6.76413385 16.1680645M19.9509919 16.2070788C19.56946 16.2070788 19.1885178 16.0602846 18.9017791 15.7681554 18.3387689 15.194695 18.3523319 14.2780337 18.9317061 13.7210621L23.0116504 9.79832995 18.9317061 5.87545188C18.3523319 5.31833432 18.3387689 4.40181903 18.9017791 3.82835858 19.4647893 3.25475221 20.3906087 3.24147361 20.9699829 3.79859117L26.1298041 8.75982663C26.4132994 9.03254866 26.5732539 9.40697602 26.5732539 9.79832995 26.5732539 10.189538 26.4132994 10.5641112 26.1298041 10.8366873L20.9699829 15.7977769C20.6857505 16.0710826 20.3180763 16.2070788 19.9509919 16.2070788"/>
        <path fill="#24387D" d="M11.2771789,18.1277311 C11.149973,18.1277311 11.0206281,18.1101767 10.8921388,18.0733271 C10.1401699,17.8574517 9.70250778,17.0621368 9.91470762,16.2971432 L14.0632999,1.34139323 C14.2754998,0.576399539 15.0572736,0.130721441 15.8092425,0.347032002 C16.561354,0.562907331 16.9988736,1.35807714 16.7866737,2.12321591 L12.6380814,17.0789658 C12.4621039,17.7133898 11.894669,18.1277311 11.2771789,18.1277311"/>
      </g>
    </g>
    <g fill-rule="nonzero" transform="translate(26 5)">
      <path fill="#F8F8F8" stroke="#3B3B3B" stroke-width="3" d="M18.7624828,0 C8.41712812,0 0,8.41712812 0,18.7624828 C0,29.1078375 8.41712812,37.5249656 18.7624828,37.5249656 C29.1078375,37.5249656 37.5249656,29.1078375 37.5249656,18.7624828 C37.5249656,8.41712812 29.1078375,0 18.7624828,0 Z"/>
      <g transform="translate(5 9)">
        <path fill="#5265AC" d="M6.76413385 16.1680645C6.39330544 16.1680645 6.02247704 16.0272445 5.7395725 15.7454589L.773772655 10.7993002C.50196814 10.5285707.349342821 10.1615367.349342821 9.77879126.349342821 9.39590039.50196814 9.02886631.773626602 8.75813686L5.73942645 3.81197813C6.30538157 3.24840699 7.22288612 3.24840699 7.78884125 3.81197813 8.35465033 4.37554928 8.35465033 5.28957032 7.78884125 5.85314146L3.84760276 9.77879126 7.7886952 13.7041501C8.35465033 14.2678667 8.35465033 15.1817423 7.78884125 15.7454589 7.50579066 16.027099 7.13496225 16.1680645 6.76413385 16.1680645M19.9509919 16.2070788C19.56946 16.2070788 19.1885178 16.0602846 18.9017791 15.7681554 18.3387689 15.194695 18.3523319 14.2780337 18.9317061 13.7210621L23.0116504 9.79832995 18.9317061 5.87545188C18.3523319 5.31833432 18.3387689 4.40181903 18.9017791 3.82835858 19.4647893 3.25475221 20.3906087 3.24147361 20.9699829 3.79859117L26.1298041 8.75982663C26.4132994 9.03254866 26.5732539 9.40697602 26.5732539 9.79832995 26.5732539 10.189538 26.4132994 10.5641112 26.1298041 10.8366873L20.9699829 15.7977769C20.6857505 16.0710826 20.3180763 16.2070788 19.9509919 16.2070788"/>
        <path fill="#24387D" d="M11.2771789,18.1277311 C11.149973,18.1277311 11.0206281,18.1101767 10.8921388,18.0733271 C10.1401699,17.8574517 9.70250778,17.0621368 9.91470762,16.2971432 L14.0632999,1.34139323 C14.2754998,0.576399539 15.0572736,0.130721441 15.8092425,0.347032002 C16.561354,0.562907331 16.9988736,1.35807714 16.7866737,2.12321591 L12.6380814,17.0789658 C12.4621039,17.7133898 11.894669,18.1277311 11.2771789,18.1277311"/>
      </g>
    </g>
    <g fill-rule="nonzero" transform="translate(28 87)">
      <path fill="#F8F8F8" stroke="#3B3B3B" stroke-width="3" d="M18.7624828,0 C8.41712812,0 0,8.41712812 0,18.7624828 C0,29.1078375 8.41712812,37.5249656 18.7624828,37.5249656 C29.1078375,37.5249656 37.5249656,29.1078375 37.5249656,18.7624828 C37.5249656,8.41712812 29.1078375,0 18.7624828,0 Z"/>
      <g transform="translate(5 9)">
        <path fill="#5265AC" d="M6.76413385 16.1680645C6.39330544 16.1680645 6.02247704 16.0272445 5.7395725 15.7454589L.773772655 10.7993002C.50196814 10.5285707.349342821 10.1615367.349342821 9.77879126.349342821 9.39590039.50196814 9.02886631.773626602 8.75813686L5.73942645 3.81197813C6.30538157 3.24840699 7.22288612 3.24840699 7.78884125 3.81197813 8.35465033 4.37554928 8.35465033 5.28957032 7.78884125 5.85314146L3.84760276 9.77879126 7.7886952 13.7041501C8.35465033 14.2678667 8.35465033 15.1817423 7.78884125 15.7454589 7.50579066 16.027099 7.13496225 16.1680645 6.76413385 16.1680645M19.9509919 16.2070788C19.56946 16.2070788 19.1885178 16.0602846 18.9017791 15.7681554 18.3387689 15.194695 18.3523319 14.2780337 18.9317061 13.7210621L23.0116504 9.79832995 18.9317061 5.87545188C18.3523319 5.31833432 18.3387689 4.40181903 18.9017791 3.82835858 19.4647893 3.25475221 20.3906087 3.24147361 20.9699829 3.79859117L26.1298041 8.75982663C26.4132994 9.03254866 26.5732539 9.40697602 26.5732539 9.79832995 26.5732539 10.189538 26.4132994 10.5641112 26.1298041 10.8366873L20.9699829 15.7977769C20.6857505 16.0710826 20.3180763 16.2070788 19.9509919 16.2070788"/>
        <path fill="#24387D" d="M11.2771789,18.1277311 C11.149973,18.1277311 11.0206281,18.1101767 10.8921388,18.0733271 C10.1401699,17.8574517 9.70250778,17.0621368 9.91470762,16.2971432 L14.0632999,1.34139323 C14.2754998,0.576399539 15.0572736,0.130721441 15.8092425,0.347032002 C16.561354,0.562907331 16.9988736,1.35807714 16.7866737,2.12321591 L12.6380814,17.0789658 C12.4621039,17.7133898 11.894669,18.1277311 11.2771789,18.1277311"/>
      </g>
    </g>
  </g>
</svg>
