<svg xmlns="http://www.w3.org/2000/svg" width="194" height="193" viewBox="0 0 194 193">
  <g fill="none" fill-rule="evenodd" transform="translate(18.965 33.91)">
    <path fill="#7B8ED4" fill-rule="nonzero" d="M152.879133,100.339347 C153.658829,100.339347 154.299582,100.934235 154.372266,101.694887 L154.379133,101.839347 L154.379133,108.250928 C154.379133,109.030624 153.784245,109.671377 153.023593,109.744061 L152.879133,109.750928 L146.467552,109.750928 C145.639125,109.750928 144.967552,109.079355 144.967552,108.250928 C144.967552,107.471232 145.56244,106.830479 146.323092,106.757795 L146.467552,106.750928 L151.379025,106.750403 L151.379133,101.839347 C151.379133,101.059651 151.974021,100.418898 152.734673,100.346214 L152.879133,100.339347 Z" transform="rotate(-45 149.673 105.045)"/>
    <path fill="#7B8ED4" fill-rule="nonzero" d="M65.5351057,103.540403 L153.577289,103.545138 C154.405716,103.545182 155.077208,104.216791 155.077208,105.045218 C155.077208,105.824914 154.482243,106.465635 153.721588,106.538279 L153.577127,106.545138 L65.5349444,106.540403 C64.7065173,106.540359 64.0350251,105.86875 64.0350251,105.040322 C64.0350251,104.260626 64.6299895,103.619906 65.3906454,103.547262 L65.5351057,103.540403 Z"/>
    <g stroke="#3B3B3B" stroke-linecap="round" stroke-linejoin="round" stroke-width="3" transform="scale(1 -1) rotate(-44 -77.919 -31.481)">
      <path d="M0,40.0723815 C2.98586202,21.6951283 17.7280449,6.86112787 35.2636957,4.80868578"/>
      <polyline points="35.264 1.603 35.264 8.014 28.852 8.014" transform="rotate(-45 32.058 4.809)"/>
    </g>
    <g stroke="#3B3B3B" stroke-linecap="round" stroke-linejoin="round" stroke-width="3" transform="scale(-1 1) rotate(14 -50.212 -408.94)">
      <path d="M-9.09494702e-13,36.8166795 C4.01243569,19.8364115 18.0930524,6.47391074 34.6700568,4.53367243"/>
      <polyline points="34.67 1.328 34.67 7.739 28.258 7.739" transform="rotate(-45 31.464 4.534)"/>
    </g>
    <g stroke="#3B3B3B" stroke-linecap="round" stroke-linejoin="round" stroke-width="3" transform="scale(1 -1) rotate(75 127.691 10.762)">
      <path d="M0,40.0723815 C2.98586202,21.6951283 17.7280449,6.86112787 35.2636957,4.80868578"/>
      <polyline points="35.264 1.603 35.264 8.014 28.852 8.014" transform="rotate(-45 32.058 4.809)"/>
    </g>
    <path fill="#3B3B3B" fill-rule="nonzero" d="M111.797508,34.5904031 C100.623726,34.5904031 91.5350251,43.6791041 91.5350251,54.8528859 C91.5350251,66.0266677 100.623726,75.1153687 111.797508,75.1153687 C122.97129,75.1153687 132.059991,66.0266677 132.059991,54.8528859 C132.059991,43.6791041 122.97129,34.5904031 111.797508,34.5904031 Z M111.797508,37.5904031 C121.314435,37.5904031 129.059991,45.3359583 129.059991,54.8528859 C129.059991,64.3698134 121.314435,72.1153687 111.797508,72.1153687 C102.28058,72.1153687 94.5350251,64.3698134 94.5350251,54.8528859 C94.5350251,45.3359583 102.28058,37.5904031 111.797508,37.5904031 Z"/>
    <g transform="translate(98.035 45.09)">
      <path fill="#5265AC" d="M6.76413385 16.1680645C6.39330544 16.1680645 6.02247704 16.0272445 5.7395725 15.7454589L.773772655 10.7993002C.50196814 10.5285707.349342821 10.1615367.349342821 9.77879126.349342821 9.39590039.50196814 9.02886631.773626602 8.75813686L5.73942645 3.81197813C6.30538157 3.24840699 7.22288612 3.24840699 7.78884125 3.81197813 8.35465033 4.37554928 8.35465033 5.28957032 7.78884125 5.85314146L3.84760276 9.77879126 7.7886952 13.7041501C8.35465033 14.2678667 8.35465033 15.1817423 7.78884125 15.7454589 7.50579066 16.027099 7.13496225 16.1680645 6.76413385 16.1680645M19.9509919 16.2070788C19.56946 16.2070788 19.1885178 16.0602846 18.9017791 15.7681554 18.3387689 15.194695 18.3523319 14.2780337 18.9317061 13.7210621L23.0116504 9.79832995 18.9317061 5.87545188C18.3523319 5.31833432 18.3387689 4.40181903 18.9017791 3.82835858 19.4647893 3.25475221 20.3906087 3.24147361 20.9699829 3.79859117L26.1298041 8.75982663C26.4132994 9.03254866 26.5732539 9.40697602 26.5732539 9.79832995 26.5732539 10.189538 26.4132994 10.5641112 26.1298041 10.8366873L20.9699829 15.7977769C20.6857505 16.0710826 20.3180763 16.2070788 19.9509919 16.2070788"/>
      <path fill="#24387D" d="M11.2771789,18.1277311 C11.149973,18.1277311 11.0206281,18.1101767 10.8921388,18.0733271 C10.1401699,17.8574517 9.70250778,17.0621368 9.91470762,16.2971432 L14.0632999,1.34139323 C14.2754998,0.576399539 15.0572736,0.130721441 15.8092425,0.347032002 C16.561354,0.562907331 16.9988736,1.35807714 16.7866737,2.12321591 L12.6380814,17.0789658 C12.4621039,17.7133898 11.894669,18.1277311 11.2771789,18.1277311"/>
    </g>
    <path fill="#3B3B3B" fill-rule="nonzero" d="M43.7975079,2.59040307 C32.6237261,2.59040307 23.5350251,11.6791041 23.5350251,22.8528859 C23.5350251,34.0266677 32.6237261,43.1153687 43.7975079,43.1153687 C54.9712897,43.1153687 64.0599907,34.0266677 64.0599907,22.8528859 C64.0599907,11.6791041 54.9712897,2.59040307 43.7975079,2.59040307 Z M43.7975079,5.59040307 C53.3144355,5.59040307 61.0599907,13.3359583 61.0599907,22.8528859 C61.0599907,32.3698134 53.3144355,40.1153687 43.7975079,40.1153687 C34.2805803,40.1153687 26.5350251,32.3698134 26.5350251,22.8528859 C26.5350251,13.3359583 34.2805803,5.59040307 43.7975079,5.59040307 Z"/>
    <g transform="translate(30.035 13.09)">
      <path fill="#5265AC" d="M6.76413385 16.1680645C6.39330544 16.1680645 6.02247704 16.0272445 5.7395725 15.7454589L.773772655 10.7993002C.50196814 10.5285707.349342821 10.1615367.349342821 9.77879126.349342821 9.39590039.50196814 9.02886631.773626602 8.75813686L5.73942645 3.81197813C6.30538157 3.24840699 7.22288612 3.24840699 7.78884125 3.81197813 8.35465033 4.37554928 8.35465033 5.28957032 7.78884125 5.85314146L3.84760276 9.77879126 7.7886952 13.7041501C8.35465033 14.2678667 8.35465033 15.1817423 7.78884125 15.7454589 7.50579066 16.027099 7.13496225 16.1680645 6.76413385 16.1680645M19.9509919 16.2070788C19.56946 16.2070788 19.1885178 16.0602846 18.9017791 15.7681554 18.3387689 15.194695 18.3523319 14.2780337 18.9317061 13.7210621L23.0116504 9.79832995 18.9317061 5.87545188C18.3523319 5.31833432 18.3387689 4.40181903 18.9017791 3.82835858 19.4647893 3.25475221 20.3906087 3.24147361 20.9699829 3.79859117L26.1298041 8.75982663C26.4132994 9.03254866 26.5732539 9.40697602 26.5732539 9.79832995 26.5732539 10.189538 26.4132994 10.5641112 26.1298041 10.8366873L20.9699829 15.7977769C20.6857505 16.0710826 20.3180763 16.2070788 19.9509919 16.2070788"/>
      <path fill="#24387D" d="M11.2771789,18.1277311 C11.149973,18.1277311 11.0206281,18.1101767 10.8921388,18.0733271 C10.1401699,17.8574517 9.70250778,17.0621368 9.91470762,16.2971432 L14.0632999,1.34139323 C14.2754998,0.576399539 15.0572736,0.130721441 15.8092425,0.347032002 C16.561354,0.562907331 16.9988736,1.35807714 16.7866737,2.12321591 L12.6380814,17.0789658 C12.4621039,17.7133898 11.894669,18.1277311 11.2771789,18.1277311"/>
    </g>
    <path fill="#3B3B3B" fill-rule="nonzero" d="M45.7975079,84.5904031 C34.6237261,84.5904031 25.5350251,93.6791041 25.5350251,104.852886 C25.5350251,116.026668 34.6237261,125.115369 45.7975079,125.115369 C56.9712897,125.115369 66.0599907,116.026668 66.0599907,104.852886 C66.0599907,93.6791041 56.9712897,84.5904031 45.7975079,84.5904031 Z M45.7975079,87.5904031 C55.3144355,87.5904031 63.0599907,95.3359583 63.0599907,104.852886 C63.0599907,114.369813 55.3144355,122.115369 45.7975079,122.115369 C36.2805803,122.115369 28.5350251,114.369813 28.5350251,104.852886 C28.5350251,95.3359583 36.2805803,87.5904031 45.7975079,87.5904031 Z"/>
    <g transform="translate(32.035 95.09)">
      <path fill="#5265AC" d="M6.76413385 16.1680645C6.39330544 16.1680645 6.02247704 16.0272445 5.7395725 15.7454589L.773772655 10.7993002C.50196814 10.5285707.349342821 10.1615367.349342821 9.77879126.349342821 9.39590039.50196814 9.02886631.773626602 8.75813686L5.73942645 3.81197813C6.30538157 3.24840699 7.22288612 3.24840699 7.78884125 3.81197813 8.35465033 4.37554928 8.35465033 5.28957032 7.78884125 5.85314146L3.84760276 9.77879126 7.7886952 13.7041501C8.35465033 14.2678667 8.35465033 15.1817423 7.78884125 15.7454589 7.50579066 16.027099 7.13496225 16.1680645 6.76413385 16.1680645M19.9509919 16.2070788C19.56946 16.2070788 19.1885178 16.0602846 18.9017791 15.7681554 18.3387689 15.194695 18.3523319 14.2780337 18.9317061 13.7210621L23.0116504 9.79832995 18.9317061 5.87545188C18.3523319 5.31833432 18.3387689 4.40181903 18.9017791 3.82835858 19.4647893 3.25475221 20.3906087 3.24147361 20.9699829 3.79859117L26.1298041 8.75982663C26.4132994 9.03254866 26.5732539 9.40697602 26.5732539 9.79832995 26.5732539 10.189538 26.4132994 10.5641112 26.1298041 10.8366873L20.9699829 15.7977769C20.6857505 16.0710826 20.3180763 16.2070788 19.9509919 16.2070788"/>
      <path fill="#24387D" d="M11.2771789,18.1277311 C11.149973,18.1277311 11.0206281,18.1101767 10.8921388,18.0733271 C10.1401699,17.8574517 9.70250778,17.0621368 9.91470762,16.2971432 L14.0632999,1.34139323 C14.2754998,0.576399539 15.0572736,0.130721441 15.8092425,0.347032002 C16.561354,0.562907331 16.9988736,1.35807714 16.7866737,2.12321591 L12.6380814,17.0789658 C12.4621039,17.7133898 11.894669,18.1277311 11.2771789,18.1277311"/>
    </g>
  </g>
</svg>
