<svg xmlns="http://www.w3.org/2000/svg" width="154" height="142" viewBox="0 0 154 142">
  <g fill="none">
    <path fill="#F2F2F2" stroke="#3B3B3B" stroke-width="3" d="M135.88103,24.6515152 C139.128969,24.6515152 140.285668,25.0427132 141.46741,25.6747156 C142.764778,26.3685556 143.78296,27.3867375 144.4768,28.6841055 C145.108802,29.8658471 145.5,31.0225464 145.5,34.270485 L145.5,34.270485 L145.5,108.032545 C145.5,111.280484 145.108802,112.437183 144.4768,113.618925 C143.78296,114.916293 142.764778,115.934475 141.46741,116.628315 C140.285668,117.260317 139.128969,117.651515 135.88103,117.651515 L135.88103,117.651515 L30.1189698,117.651515 C26.8710313,117.651515 25.714332,117.260317 24.5325903,116.628315 C23.2352224,115.934475 22.2170404,114.916293 21.5232004,113.618925 C20.8911981,112.437183 20.5,111.280484 20.5,108.032545 L20.5,108.032545 L20.5,34.270485 C20.5,31.0225464 20.8911981,29.8658471 21.5232004,28.6841055 C22.2170404,27.3867375 23.2352224,26.3685556 24.5325903,25.6747156 C25.714332,25.0427132 26.8710313,24.6515152 30.1189698,24.6515152 L30.1189698,24.6515152 L135.88103,24.6515152 Z"/>
    <path fill="#FFF" stroke="#3B3B3B" stroke-width="3" d="M133.726858,31.6515152 C135.637519,31.6515152 136.309289,31.9034748 137.002141,32.2740165 C137.81062,32.7063958 138.445119,33.3408948 138.877499,34.1493739 C139.24804,34.8422266 139.5,35.5139965 139.5,37.4246567 L139.5,37.4246567 L139.5,104.878374 C139.5,106.789034 139.24804,107.460804 138.877499,108.153656 C138.445119,108.962135 137.81062,109.596635 137.002141,110.029014 C136.309289,110.399556 135.637519,110.651515 133.726858,110.651515 L133.726858,110.651515 L32.2731416,110.651515 C30.3624813,110.651515 29.6907114,110.399556 28.9978587,110.029014 C28.1893797,109.596635 27.5548806,108.962135 27.1225013,108.153656 C26.7519596,107.460804 26.5,106.789034 26.5,104.878374 L26.5,104.878374 L26.5,37.4246567 C26.5,35.5139965 26.7519596,34.8422266 27.1225013,34.1493739 C27.5548806,33.3408948 28.1893797,32.7063958 28.9978587,32.2740165 C29.6907114,31.9034748 30.3624813,31.6515152 32.2731416,31.6515152 L32.2731416,31.6515152 L133.726858,31.6515152 Z"/>
    <path fill="#FFF" stroke="#FFF" stroke-linejoin="round" d="M60.0890119,0.5 L62.085655,9.68475777 C62.1604192,10.0280926 62.3269908,10.3367171 62.5594554,10.5830877 C62.791686,10.8292102 63.089694,11.0132077 63.4273528,11.1074043 C66.6986383,12.0193391 69.8621429,13.3310146 72.8298459,15.0057946 C73.1356249,15.1783844 73.4765722,15.2592393 73.8149218,15.2495315 C74.1535194,15.2398166 74.489512,15.1394179 74.7846425,14.9498292 L74.7846425,14.9498292 L82.695567,9.86380895 L94.1351872,21.3044479 L89.0500003,29.2156225 C88.8599857,29.5110397 88.7594992,29.8468204 88.7497064,30.1852154 C88.7399162,30.5235203 88.820774,30.8644191 88.9932208,31.1699447 C90.6688387,34.1375406 91.9796634,37.3010072 92.8925207,40.5723784 C92.9868277,40.9104327 93.1707304,41.2085879 93.4168507,41.4408953 C93.6629568,41.6731893 93.9712673,41.83963 94.3138217,41.9142244 L94.3138217,41.9142244 L103.5,43.9109603 L103.5,60.0890119 L94.3152422,62.085655 C93.9719074,62.1604192 93.6632829,62.3269908 93.4169123,62.5594554 C93.1707898,62.791686 92.9867924,63.089694 92.8925956,63.4273528 C91.9806609,66.6986383 90.6689854,69.8621429 88.9942054,72.8298459 C88.8215115,73.1358093 88.740447,73.4769634 88.750161,73.8155278 C88.7598625,74.1536579 88.8601297,74.4891843 89.0501708,74.7846425 L89.0501708,74.7846425 L94.1361315,82.6954743 L82.6964835,94.136141 L74.7843775,89.0500003 C74.4891975,88.8601382 74.1536889,88.7598627 73.8156321,88.7501609 C73.4774059,88.7404542 73.1366342,88.8213984 72.8304526,88.994352 C69.8620061,90.6690446 66.6985664,91.980681 63.4276216,92.8925207 C63.089694,92.9867924 62.791686,93.1707898 62.5594554,93.4169123 C62.3269908,93.6632829 62.1604192,93.9719074 62.0857684,94.3147211 L62.0857684,94.3147211 L60.0890119,103.5 L43.9109881,103.5 L41.914345,94.3152422 C41.8395808,93.9719074 41.6730092,93.6632829 41.4405446,93.4169123 C41.208314,93.1707898 40.910306,92.9867924 40.5726472,92.8925956 C37.3013617,91.9806609 34.1378571,90.6689854 31.1701541,88.9942054 C30.8643751,88.8216156 30.5234278,88.7407607 30.1850782,88.7504685 C29.8464806,88.7601834 29.510488,88.8605821 29.2153575,89.0501708 L29.2153575,89.0501708 L21.304433,94.1361911 L9.86481276,82.6955521 L14.9499997,74.7843775 C15.1400143,74.4889603 15.2405008,74.1531796 15.2502936,73.8147846 C15.2600838,73.4764797 15.179226,73.1355809 15.0066099,72.8297554 C13.3319458,69.8622577 12.0203054,66.6988813 11.1074793,63.4276216 C11.0131723,63.0895673 10.8292696,62.7914121 10.5831493,62.5591047 C10.3370432,62.3268107 10.0287327,62.16037 9.68617828,62.0857756 L9.68617828,62.0857756 L0.5,60.0890397 L0.5,43.9109881 L9.68475777,41.914345 C10.0280926,41.8395808 10.3367171,41.6730092 10.5830877,41.4405446 C10.8292102,41.208314 11.0132077,40.910306 11.1074043,40.5726472 C12.0193391,37.3013617 13.3310146,34.1378571 15.0057946,31.1701541 C15.1784885,30.8641907 15.259553,30.5230366 15.249839,30.1844722 C15.2401375,29.8463421 15.1398703,29.5108157 14.9498292,29.2153575 L14.9498292,29.2153575 L9.86386852,21.3045257 L21.3035165,9.86385895 L29.2156225,14.9499997 C29.5108025,15.1398618 29.8463111,15.2401373 30.1843679,15.2498391 C30.5225941,15.2595458 30.8633658,15.1786016 31.1695474,15.005648 C34.1379939,13.3309554 37.3014336,12.019319 40.5723784,11.1074793 C40.910306,11.0132077 41.208314,10.8292102 41.4405446,10.5830877 C41.6730092,10.3367171 41.8395808,10.0280926 41.9142316,9.68527889 L41.9142316,9.68527889 L43.9109881,0.5 L60.0890119,0.5 Z"/>
    <path fill="#C6CCE1" stroke="#3B3B3B" stroke-linejoin="round" d="M58.482235,1.92550776 L60.3861213,10.6835755 C60.4537485,10.9941351 60.6044173,11.273299 60.8146908,11.496151 C61.0247313,11.7187561 61.2942616,11.8851776 61.5996319,11.9703668 C64.7027267,12.835415 67.7035837,14.0796479 70.5187093,15.6683231 C70.7952744,15.8244238 71.1036479,15.8975526 71.4096715,15.8887723 C71.7159355,15.8799851 72.0198424,15.7891717 72.2867453,15.6177162 L72.2867453,15.6177162 L79.8301538,10.767976 L90.7510663,21.6898611 L85.9021134,29.2335197 C85.7302526,29.5007129 85.6393628,29.8044125 85.6305056,30.1104781 C85.621651,30.416453 85.6947829,30.7247734 85.8507385,31.0010813 C87.4402054,33.8160998 88.6836337,36.8169188 89.5495583,39.9200993 C89.6348565,40.2258605 89.8011911,40.4955345 90.0238005,40.7056506 C90.2464012,40.9157584 90.5252663,41.0662998 90.8350502,41.1337581 L90.8350502,41.1337581 L99.5944922,43.0377373 L99.5944922,58.482235 L90.8364245,60.3861213 C90.5258649,60.4537485 90.246701,60.6044173 90.023849,60.8146908 C89.8012439,61.0247313 89.6348224,61.2942616 89.5496332,61.5996319 C88.684585,64.7027267 87.4403521,67.7035837 85.8516769,70.5187093 C85.6954776,70.795449 85.6221503,71.1040174 85.6309365,71.4102453 C85.6397106,71.7160526 85.7303929,72.0195053 85.9022838,72.2867453 L85.9022838,72.2867453 L90.7519644,79.8300611 L79.831024,90.751974 L72.2864803,85.9021134 C72.0195184,85.7304014 71.7160834,85.6397107 71.4103434,85.6309364 C71.1044482,85.6221576 70.7962507,85.6953646 70.5192698,85.8518235 C67.7034469,87.4404112 64.7026548,88.684605 61.5999007,89.5495583 C61.2942616,89.6348224 61.0247313,89.8012439 60.8146908,90.023849 C60.6044173,90.246701 60.4537485,90.5258649 60.3862347,90.8359034 L60.3862347,90.8359034 L58.4822349,99.5944922 L43.037765,99.5944922 L41.1338787,90.8364245 C41.0662515,90.5258649 40.9155827,90.246701 40.7053092,90.023849 C40.4952687,89.8012439 40.2257384,89.6348224 39.9203681,89.5496332 C36.8172733,88.684585 33.8164163,87.4403521 31.0012907,85.8516769 C30.7247256,85.6955762 30.4163521,85.6224474 30.1103285,85.6312277 C29.8040645,85.6400149 29.5001576,85.7308283 29.2332547,85.9022838 L29.2332547,85.9022838 L21.6898462,90.752024 L10.7689337,79.8301389 L15.6178866,72.2864803 C15.7897474,72.0192871 15.8806372,71.7155875 15.8894944,71.4095219 C15.898349,71.103547 15.8252171,70.7952266 15.6690922,70.5186188 C14.0805329,67.7036985 12.8363352,64.7029697 11.9704417,61.5999007 C11.8851435,61.2941395 11.7188089,61.0244655 11.4961995,60.8143494 C11.2735988,60.6042416 10.9947337,60.4537002 10.6849498,60.3862419 L10.6849498,60.3862419 L1.92550776,58.4822627 L1.92550776,43.037765 L10.6835755,41.1338787 C10.9941351,41.0662515 11.273299,40.9155827 11.496151,40.7053092 C11.7187561,40.4952687 11.8851776,40.2257384 11.9703668,39.9203681 C12.835415,36.8172733 14.0796479,33.8164163 15.6683231,31.0012907 C15.8245224,30.724551 15.8978497,30.4159826 15.8890635,30.1097547 C15.8802894,29.8039474 15.7896071,29.5004947 15.6177162,29.2332547 L15.6177162,29.2332547 L10.7680356,21.6899389 L21.688976,10.768026 L29.2335197,15.6178866 C29.5004816,15.7895986 29.8039166,15.8802893 30.1096566,15.8890636 C30.4155518,15.8978424 30.7237493,15.8246354 31.0007302,15.6681765 C33.8165531,14.0795888 36.8173452,12.835395 39.9200993,11.9704417 C40.2257384,11.8851776 40.4952687,11.7187561 40.7053092,11.496151 C40.9155827,11.273299 41.0662515,10.9941351 41.1337653,10.6840966 L41.1337653,10.6840966 L43.0377651,1.92550776 L58.482235,1.92550776 Z"/>
    <path fill="#F8F8F8" stroke="#3B3B3B" d="M50.76,25.0579687 C36.5882813,25.0579687 25.0579688,36.5882812 25.0579688,50.76 C25.0579688,64.9317187 36.5882813,76.4620312 50.76,76.4620312 C64.9317188,76.4620312 76.4620313,64.9317187 76.4620313,50.76 C76.4620313,36.5882812 64.9317188,25.0579687 50.76,25.0579687 Z"/>
    <g transform="translate(32.65 38)">
      <path fill="#5265AC" d="M9.26593678 22.1480336C8.75795266 22.1480336 8.24996854 21.9551294 7.86242808 21.5691218L1.05996254 14.7935619C.687627589 14.4226996.47855181 13.9199132.47855181 13.3956045.47855181 12.8710964.687627589 12.36831 1.05976247 11.9974478L7.86222801 5.22188785C8.63750901 4.44987259 9.89436455 4.44987259 10.6696455 5.22188785 11.4447265 5.99390312 11.4447265 7.24598673 10.6696455 8.018002L5.27068871 13.3956045 10.6694455 18.7728084C11.4447265 19.5450229 11.4447265 20.7969073 10.6696455 21.5691218 10.281905 21.9549302 9.7739209 22.1480336 9.26593678 22.1480336M27.3301259 22.2014778C26.8074795 22.2014778 26.2856408 22.0003899 25.8928481 21.6002129 25.1216013 20.8146506 25.1401807 19.5589503 25.933844 18.7959755L31.5228088 13.4223698 25.933844 8.04856422C25.1401807 7.28538948 25.1216013 6.02988908 25.8928481 5.24432682 26.664095 4.45856467 27.9323407 4.4403748 28.726004 5.20354954L35.7942522 11.9997625C36.182602 12.3733543 36.4017177 12.8862685 36.4017177 13.4223698 36.4017177 13.9582712 36.182602 14.4713853 35.7942522 14.8447772L28.726004 21.6407903C28.3366445 22.0151816 27.8329813 22.2014778 27.3301259 22.2014778"/>
      <path fill="#24387D" d="M15.4481902,24.8325084 C15.2739357,24.8325084 15.0967509,24.8084613 14.9207381,24.7579823 C13.8906438,24.4622626 13.2911066,23.3727902 13.5817913,22.3248536 L19.2647944,1.83752497 C19.5554791,0.789588409 20.6264022,0.179070467 21.6564966,0.475386304 C22.6867863,0.771105932 23.2861282,1.86037964 22.9954435,2.90851494 L17.3124403,23.3958436 C17.0713752,24.2649175 16.2940671,24.8325084 15.4481902,24.8325084"/>
    </g>
    <polygon fill="#9DA8CE" stroke="#9DA8CE" stroke-linecap="round" stroke-linejoin="round" points="7.53 47.915 7.53 54.079 12.147 55.465 12.476 53.624 9.102 52.775 9.102 47.915"/>
    <polygon fill="#9DA8CE" stroke="#9DA8CE" stroke-linecap="round" stroke-linejoin="round" points="18.53 17.915 18.53 24.079 23.147 25.465 23.476 23.624 20.102 22.775 20.102 17.915" transform="rotate(44 21.003 21.69)"/>
    <polygon fill="#9DA8CE" stroke="#9DA8CE" stroke-linecap="round" stroke-linejoin="round" points="47.53 5.915 47.53 12.079 52.147 13.465 52.476 11.624 49.102 10.775 49.102 5.915" transform="rotate(90 50.003 9.69)"/>
    <polygon fill="#9DA8CE" stroke="#9DA8CE" stroke-linecap="round" stroke-linejoin="round" points="76.53 17.915 76.53 24.079 81.147 25.465 81.476 23.624 78.102 22.775 78.102 17.915" transform="rotate(134 79.003 21.69)"/>
    <polygon fill="#9DA8CE" stroke="#9DA8CE" stroke-linecap="round" stroke-linejoin="round" points="89.53 45.915 89.53 52.079 94.147 53.465 94.476 51.624 91.102 50.775 91.102 45.915" transform="rotate(-180 92.003 49.69)"/>
    <polygon fill="#9DA8CE" stroke="#9DA8CE" stroke-linecap="round" stroke-linejoin="round" points="77.53 74.915 77.53 81.079 82.147 82.465 82.476 80.624 79.102 79.775 79.102 74.915" transform="rotate(-135 80.003 78.69)"/>
    <polygon fill="#9DA8CE" stroke="#9DA8CE" stroke-linecap="round" stroke-linejoin="round" points="48.53 87.915 48.53 94.079 53.147 95.465 53.476 93.624 50.102 92.775 50.102 87.915" transform="rotate(-90 51.003 91.69)"/>
    <polygon fill="#9DA8CE" stroke="#9DA8CE" stroke-linecap="round" stroke-linejoin="round" points="19.53 76.915 19.53 83.079 24.147 84.465 24.476 82.624 21.102 81.775 21.102 76.915" transform="rotate(-46 22.003 80.69)"/>
    <path fill="#D0D0D0" stroke="#3B3B3B" stroke-width="3" d="M148.436115,123.5 C149.752429,123.5 150.208675,123.690076 150.684244,123.944413 C151.275439,124.260588 151.739412,124.724561 152.055587,125.315756 C152.309924,125.791325 152.5,126.247571 152.5,127.563885 L152.5,127.563885 L152.5,132.02045 C152.5,133.75489 152.133187,135.240073 151.4768,136.46741 C150.78296,137.764778 149.764778,138.78296 148.46741,139.4768 C147.240073,140.133187 145.75489,140.5 144.02045,140.5 L144.02045,140.5 L21.9795502,140.5 C20.2451097,140.5 18.7599272,140.133187 17.5325903,139.4768 C16.2352224,138.78296 15.2170404,137.764778 14.5232004,136.46741 C13.8668135,135.240073 13.5,133.75489 13.5,132.02045 L13.5,132.02045 L13.5,127.563885 C13.5,126.247571 13.6900759,125.791325 13.9444129,125.315756 C14.2605875,124.724561 14.7245609,124.260588 15.315756,123.944413 C15.7913248,123.690076 16.2475706,123.5 17.5638852,123.5 L17.5638852,123.5 L148.436115,123.5 Z"/>
    <path fill="#444" stroke="#3B3B3B" stroke-width="1.727" d="M67.5,125 L98.5,125 C99.8807119,125 101,126.119288 101,127.5 C101,128.880712 99.8807119,130 98.5,130 L67.5,130 C66.1192881,130 65,128.880712 65,127.5 C65,126.119288 66.1192881,125 67.5,125 Z"/>
  </g>
</svg>
