<svg xmlns="http://www.w3.org/2000/svg" width="194" height="193" viewBox="0 0 194 193">
  <g fill="none" fill-rule="evenodd" transform="translate(20 25)">
    <path fill="#3B3B3B" fill-rule="nonzero" d="M136.88103,24.1515152 L31.1189698,24.1515152 C28.0921564,24.1515152 26.4921684,24.4604871 24.825192,25.3519958 C23.2702878,26.1835676 22.0320525,27.421803 21.2004806,28.9767072 C20.3477332,30.5712063 20.0279683,32.1044155 20.0017747,34.8836521 L20,109.032545 C20,112.059359 20.3089719,113.659347 21.2004806,115.326323 C22.0320525,116.881227 23.2702878,118.119463 24.825192,118.951035 C26.4921684,119.842543 28.0921564,120.151515 31.1189698,120.151515 L136.88103,120.151515 C139.907844,120.151515 141.507832,119.842543 143.174808,118.951035 C144.729712,118.119463 145.967948,116.881227 146.799519,115.326323 C147.691028,113.659347 148,112.059359 148,109.032545 L148,35.270485 C148,32.2436715 147.691028,30.6436835 146.799519,28.9767072 C145.967948,27.421803 144.729712,26.1835676 143.174808,25.3519958 C141.507832,24.4604871 139.907844,24.1515152 136.88103,24.1515152 Z M136.88103,27.1515152 C137.098195,27.1515152 137.304712,27.1532545 137.501405,27.1567168 L138.062834,27.1722564 C138.151767,27.1757023 138.23845,27.179575 138.322985,27.1838722 L138.805249,27.2147347 C139.874241,27.2985601 140.562627,27.4648087 141.15264,27.7078722 L141.400303,27.8167289 L141.640857,27.9348934 C141.680632,27.9553577 141.720315,27.9762057 141.760011,27.9974354 C142.79211,28.5494078 143.602107,29.359405 144.15408,30.3915038 L144.276861,30.6303548 L144.390384,30.8738462 C144.517388,31.1625461 144.625289,31.4707995 144.713385,31.8338853 L144.78403,32.1593529 C144.860751,32.5566514 144.917468,33.018862 144.953479,33.5812637 L144.979259,34.0886816 C144.982705,34.177615 144.985724,34.2687988 144.988315,34.3623358 L144.998698,34.9526204 C145,35.055982 145,35.1619025 145,35.270485 L145,109.032545 L144.994798,109.652921 C144.991336,109.849614 144.986151,110.036482 144.979259,110.214349 L144.953479,110.721767 C144.917468,111.284168 144.860751,111.746379 144.78403,112.143677 L144.713385,112.469145 C144.625289,112.832231 144.517388,113.140484 144.390384,113.429184 L144.276861,113.672675 L144.15408,113.911527 C143.602107,114.943625 142.79211,115.753622 141.760011,116.305595 L141.52116,116.428377 C141.481102,116.448071 141.440851,116.46738 141.400303,116.486301 L141.15264,116.595158 C140.562627,116.838222 139.874241,117.00447 138.805249,117.088296 L138.322985,117.119158 L137.789179,117.13983 C137.602105,117.145011 137.405618,117.148477 137.198895,117.150213 L31.1189698,117.151515 C30.901805,117.151515 30.6952875,117.149776 30.4985946,117.146313 L29.9371665,117.130774 C29.8482331,117.127328 29.7615502,117.123455 29.6770148,117.119158 L29.1947505,117.088296 C28.1257593,117.00447 27.4373728,116.838222 26.8473595,116.595158 L26.5996968,116.486301 L26.3591427,116.368137 C26.3193685,116.347673 26.2796847,116.326825 26.2399886,116.305595 C25.2078898,115.753622 24.3978927,114.943625 23.8459202,113.911527 L23.7231386,113.672675 L23.6096158,113.429184 C23.4826116,113.140484 23.3747109,112.832231 23.2866149,112.469145 L23.2159704,112.143677 C23.1392486,111.746379 23.0825316,111.284168 23.0465206,110.721767 L23.0207412,110.214349 C23.0172953,110.125415 23.0142759,110.034232 23.0116853,109.940694 L23.0013025,109.35041 L23.0013025,34.9526204 L23.0116853,34.3623358 C23.0142759,34.2687988 23.0172953,34.177615 23.0207412,34.0886816 L23.0465206,33.5812637 C23.0825316,33.018862 23.1392486,32.5566514 23.2159704,32.1593529 L23.2866149,31.8338853 C23.3747109,31.4707995 23.4826116,31.1625461 23.6096158,30.8738462 L23.7231386,30.6303548 L23.8459202,30.3915038 C24.3978927,29.359405 25.2078898,28.5494078 26.2399886,27.9974354 L26.4788397,27.8746538 C26.5188978,27.854959 26.5591492,27.83565 26.5996968,27.8167289 L26.8473595,27.7078722 C27.4373728,27.4648087 28.1257593,27.2985601 29.1947505,27.2147347 L29.6770148,27.1838722 L30.2108207,27.1632005 C30.3978948,27.1580193 30.5943821,27.1545529 30.8011052,27.1528176 L136.88103,27.1515152 Z"/>
    <path fill="#F2F2F2" fill-rule="nonzero" d="M136.88103,27.1515152 C137.098195,27.1515152 137.304712,27.1532545 137.501405,27.1567168 L138.062834,27.1722564 C138.151767,27.1757023 138.23845,27.179575 138.322985,27.1838722 L138.805249,27.2147347 C139.874241,27.2985601 140.562627,27.4648087 141.15264,27.7078722 L141.400303,27.8167289 L141.640857,27.9348934 C141.680632,27.9553577 141.720315,27.9762057 141.760011,27.9974354 C142.79211,28.5494078 143.602107,29.359405 144.15408,30.3915038 L144.276861,30.6303548 L144.390384,30.8738462 C144.517388,31.1625461 144.625289,31.4707995 144.713385,31.8338853 L144.78403,32.1593529 C144.860751,32.5566514 144.917468,33.018862 144.953479,33.5812637 L144.979259,34.0886816 C144.982705,34.177615 144.985724,34.2687988 144.988315,34.3623358 L144.998698,34.9526204 C145,35.055982 145,35.1619025 145,35.270485 L145,109.032545 L144.994798,109.652921 C144.991336,109.849614 144.986151,110.036482 144.979259,110.214349 L144.953479,110.721767 C144.917468,111.284168 144.860751,111.746379 144.78403,112.143677 L144.713385,112.469145 C144.625289,112.832231 144.517388,113.140484 144.390384,113.429184 L144.276861,113.672675 L144.15408,113.911527 C143.602107,114.943625 142.79211,115.753622 141.760011,116.305595 L141.52116,116.428377 C141.481102,116.448071 141.440851,116.46738 141.400303,116.486301 L141.15264,116.595158 C140.562627,116.838222 139.874241,117.00447 138.805249,117.088296 L138.322985,117.119158 L137.789179,117.13983 C137.602105,117.145011 137.405618,117.148477 137.198895,117.150213 L31.1189698,117.151515 C30.901805,117.151515 30.6952875,117.149776 30.4985946,117.146313 L29.9371665,117.130774 C29.8482331,117.127328 29.7615502,117.123455 29.6770148,117.119158 L29.1947505,117.088296 C28.1257593,117.00447 27.4373728,116.838222 26.8473595,116.595158 L26.5996968,116.486301 L26.3591427,116.368137 C26.3193685,116.347673 26.2796847,116.326825 26.2399886,116.305595 C25.2078898,115.753622 24.3978927,114.943625 23.8459202,113.911527 L23.7231386,113.672675 L23.6096158,113.429184 C23.4826116,113.140484 23.3747109,112.832231 23.2866149,112.469145 L23.2159704,112.143677 C23.1392486,111.746379 23.0825316,111.284168 23.0465206,110.721767 L23.0207412,110.214349 C23.0172953,110.125415 23.0142759,110.034232 23.0116853,109.940694 L23.0013025,109.35041 L23.0013025,34.9526204 L23.0116853,34.3623358 C23.0142759,34.2687988 23.0172953,34.177615 23.0207412,34.0886816 L23.0465206,33.5812637 C23.0825316,33.018862 23.1392486,32.5566514 23.2159704,32.1593529 L23.2866149,31.8338853 C23.3747109,31.4707995 23.4826116,31.1625461 23.6096158,30.8738462 L23.7231386,30.6303548 L23.8459202,30.3915038 C24.3978927,29.359405 25.2078898,28.5494078 26.2399886,27.9974354 L26.4788397,27.8746538 C26.5188978,27.854959 26.5591492,27.83565 26.5996968,27.8167289 L26.8473595,27.7078722 C27.4373728,27.4648087 28.1257593,27.2985601 29.1947505,27.2147347 L29.6770148,27.1838722 L30.2108207,27.1632005 C30.3978948,27.1580193 30.5943821,27.1545529 30.8011052,27.1528176 L136.88103,27.1515152 Z"/>
    <path fill="#FFF" fill-rule="nonzero" d="M134.726858,31.1515152 L33.2731416,31.1515152 C31.4655532,31.1515152 30.4018304,31.3569295 29.2904604,31.9512967 C28.2244452,32.5214079 27.3698927,33.3759603 26.7997815,34.4419756 C26.2054143,35.5533456 26,36.6170684 26,38.4246567 L26,105.878374 C26,107.685962 26.2054143,108.749685 26.7997815,109.861055 C27.3698927,110.92707 28.2244452,111.781622 29.2904604,112.351734 C30.4018304,112.946101 31.4655532,113.151515 33.2731416,113.151515 L134.726858,113.151515 C136.534447,113.151515 137.59817,112.946101 138.70954,112.351734 C139.775555,111.781622 140.630107,110.92707 141.200218,109.861055 C141.794586,108.749685 142,107.685962 142,105.878374 L142,38.4246567 C142,36.6170684 141.794586,35.5533456 141.200218,34.4419756 C140.630107,33.3759603 139.775555,32.5214079 138.70954,31.9512967 C137.59817,31.3569295 136.534447,31.1515152 134.726858,31.1515152 Z"/>
    <path fill="#3B3B3B" fill-rule="nonzero" d="M134.726858,31.1515152 L33.2731416,31.1515152 C31.4655532,31.1515152 30.4018304,31.3569295 29.2904604,31.9512967 C28.2244452,32.5214079 27.3698927,33.3759603 26.7997815,34.4419756 C26.2054143,35.5533456 26,36.6170684 26,38.4246567 L26,105.878374 C26,107.685962 26.2054143,108.749685 26.7997815,109.861055 C27.3698927,110.92707 28.2244452,111.781622 29.2904604,112.351734 C30.4018304,112.946101 31.4655532,113.151515 33.2731416,113.151515 L134.726858,113.151515 C136.534447,113.151515 137.59817,112.946101 138.70954,112.351734 C139.775555,111.781622 140.630107,110.92707 141.200218,109.861055 C141.794586,108.749685 142,107.685962 142,105.878374 L142,38.4246567 C142,36.6170684 141.794586,35.5533456 141.200218,34.4419756 C140.630107,33.3759603 139.775555,32.5214079 138.70954,31.9512967 C137.59817,31.3569295 136.534447,31.1515152 134.726858,31.1515152 Z M134.726858,34.1515152 L135.213506,34.1579083 C136.339563,34.189797 136.81544,34.3404023 137.294743,34.5967363 C137.837953,34.8872481 138.264267,35.3135623 138.554779,35.8567721 C138.588957,35.9206792 138.621255,35.9845253 138.651643,36.0498599 L138.737044,36.2518779 C138.90953,36.7059718 139,37.2884075 139,38.4246567 L139,105.878374 C139,107.014623 138.90953,107.597058 138.737044,108.051152 L138.651643,108.25317 C138.621255,108.318505 138.588957,108.382351 138.554779,108.446258 C138.264267,108.989468 137.837953,109.415782 137.294743,109.706294 C136.81544,109.962628 136.339563,110.113233 135.213506,110.145122 L134.726858,110.151515 L33.2731416,110.151515 L32.7864936,110.145122 C31.6604374,110.113233 31.1845598,109.962628 30.705257,109.706294 C30.1620472,109.415782 29.7357329,108.989468 29.4452211,108.446258 C29.4110433,108.382351 29.378745,108.318505 29.3483572,108.25317 L29.2629557,108.051152 C29.1037383,107.631989 29.0144038,107.103469 29.0016021,106.130948 L29,38.4246567 C29,37.2884075 29.0904702,36.7059718 29.2629557,36.2518779 L29.3483572,36.0498599 C29.378745,35.9845253 29.4110433,35.9206792 29.4452211,35.8567721 C29.7357329,35.3135623 30.1620472,34.8872481 30.705257,34.5967363 C31.1845598,34.3404023 31.6604374,34.189797 32.7864936,34.1579083 L33.2731416,34.1515152 L134.726858,34.1515152 Z"/>
    <path fill="#FFF" fill-rule="nonzero" d="M59.8800582,0 L46.1199418,0 C44.708661,0 43.4882015,0.983652661 43.1884098,2.36272426 L41.4484656,10.366641 C41.4174153,10.5092304 41.3095827,10.6235167 41.1693137,10.6626476 C37.7820783,11.6069055 34.5066152,12.9649102 31.4325041,14.699215 C31.3046668,14.7714264 31.1491934,14.7669827 31.027072,14.6884333 L24.1316089,10.2558213 C22.9444355,9.49267038 21.385868,9.66017444 20.3879695,10.6581618 L10.6579729,20.3890249 C9.66009975,21.3869868 9.49271464,22.94552 10.255914,24.1326197 L14.6880924,31.026542 C14.7670746,31.1493363 14.7715301,31.3052492 14.6995082,31.432851 C12.9651612,34.5061064 11.6070225,37.7816586 10.6624976,41.1698513 C10.6235167,41.3095827 10.5092304,41.4174153 10.3655988,41.4486924 L2.36272426,43.1884098 C0.983652661,43.4882015 0,44.708661 0,46.1199418 L0,59.8800582 C0,61.2913643 0.983687104,62.5118384 2.36279012,62.8116045 L10.3675733,64.5515487 C10.5095703,64.58247 10.6233718,64.689898 10.6626476,64.8306863 C11.6082916,68.2195544 12.9665322,71.4947875 14.7002724,74.5669679 C14.7720109,74.6940675 14.767499,74.8500039 14.6884333,74.972928 L10.2566362,81.8676048 C9.49359647,83.0546881 9.66103691,84.6130839 10.6588393,85.6109751 L20.388836,95.3418382 C21.3867799,96.339871 22.9454358,96.5073395 24.1326197,95.744086 L31.026542,91.3119076 C31.1490154,91.2332322 31.3057039,91.2287266 31.432851,91.3004918 C34.5061064,93.0348388 37.7816586,94.3929775 41.1698513,95.3375024 C41.3095827,95.3764833 41.4174153,95.4907696 41.4486924,95.6344012 L43.1884098,103.637276 C43.4882015,105.016347 44.708661,106 46.1199418,106 L59.8800582,106 C61.291339,106 62.5117985,105.016347 62.8115902,103.637276 L64.5515344,95.633359 C64.5825847,95.4907696 64.6904173,95.3764833 64.8306863,95.3373524 C68.2179217,94.3930945 71.4933848,93.0350898 74.5674959,91.300785 C74.6953332,91.2285736 74.8508066,91.2330173 74.972928,91.3115667 L81.8683911,95.7441787 C83.0555645,96.5073296 84.614132,96.3398256 85.6120305,95.3418382 L95.3420271,85.6109751 C96.3399002,84.6130132 96.5072854,83.05448 95.744086,81.8673803 L91.3119076,74.973458 C91.2329254,74.8506637 91.2284699,74.6947508 91.3004918,74.567149 C93.0348388,71.4938936 94.3929775,68.2183414 95.3375024,64.8301487 C95.3764833,64.6904173 95.4907696,64.5825847 95.6344012,64.5513076 L103.637276,62.8115902 C105.016347,62.5117985 106,61.291339 106,59.8800582 L106,46.1199418 C106,44.7086357 105.016313,43.4881616 103.63721,43.1883955 L95.6324267,41.4484513 C95.4904297,41.41753 95.3766282,41.310102 95.3373524,41.1693137 C94.3910269,37.7780033 93.0330247,34.5027803 91.299389,31.4324323 C91.2279891,31.3059325 91.232501,31.1499961 91.3115667,31.027072 L95.7433638,24.1323952 C96.5064035,22.9453119 96.3389631,21.3869161 95.3411607,20.3890249 L85.611164,10.6581618 C84.6132201,9.66012898 83.0545642,9.49266049 81.8673803,10.255914 L74.973458,14.6880924 C74.8509846,14.7667678 74.6942961,14.7712734 74.567149,14.6995082 C71.4938936,12.9651612 68.2183414,11.6070225 64.8301487,10.6624976 C64.6904173,10.6235167 64.5825847,10.5092304 64.5513076,10.3655988 L62.8115902,2.36272426 C62.5117985,0.983652661 61.291339,0 59.8800582,0 Z M59.8800582,3 L61.6200024,11.0039168 C61.8877527,12.2334887 62.8131812,13.2143736 64.0245568,13.5523111 C67.1795054,14.4318146 70.2304732,15.6969137 73.0925428,17.312081 C74.188673,17.9307662 75.5369564,17.8917735 76.5958269,17.2115661 L83.4897493,12.7793877 L93.2197459,22.5102507 L88.7884339,29.4041731 C88.1073601,30.4630436 88.0683673,31.811327 88.6870526,32.9074572 C90.3030863,35.7695268 91.5673188,38.8204946 92.4476889,41.9754432 C92.7856264,43.1868188 93.7656448,44.1122473 94.9952168,44.3799976 L103,46.1199418 L103,59.8800582 L94.9960832,61.6200024 C93.7665113,61.8877527 92.7856264,62.8131812 92.4476889,64.0245568 C91.5681854,67.1795054 90.3030863,70.2304732 88.687919,73.0925428 C88.0692338,74.188673 88.1073601,75.5369564 88.7884339,76.5958269 L93.2206123,83.4897493 L83.4906157,93.2206123 L76.5958269,88.7884339 C75.5369564,88.1073601 74.188673,88.0692338 73.0934093,88.687919 C70.2304732,90.3030863 67.1795054,91.5681854 64.0245568,92.4476889 C62.8131812,92.7856264 61.8877527,93.7665113 61.6200024,94.9960832 L59.8800582,103 L46.1199418,103 L44.3799976,94.9960832 C44.1122473,93.7665113 43.1868188,92.7856264 41.9754432,92.4476889 C38.8204946,91.5681854 35.7695268,90.3030863 32.9074572,88.687919 C31.811327,88.0692338 30.4630436,88.1082265 29.4041731,88.7884339 L22.5102507,93.2206123 L12.7802541,83.4897493 L17.2115661,76.5958269 C17.8926399,75.5369564 17.9316327,74.188673 17.3129474,73.0925428 C15.6977801,70.2304732 14.4326812,67.1795054 13.5523111,64.0245568 C13.2143736,62.8131812 12.2343552,61.8877527 11.0047832,61.6200024 L3,59.8800582 L3,46.1199418 L11.0039168,44.3799976 C12.2334887,44.1122473 13.2143736,43.1868188 13.5523111,41.9754432 C14.4318146,38.8204946 15.6969137,35.7695268 17.312081,32.9074572 C17.9307662,31.811327 17.8926399,30.4630436 17.2115661,29.4041731 L12.7793877,22.5102507 L22.5093843,12.7793877 L29.4041731,17.2115661 C30.4630436,17.8926399 31.811327,17.9307662 32.9065907,17.312081 C35.7695268,15.6969137 38.8204946,14.4318146 41.9754432,13.5523111 C43.1868188,13.2143736 44.1122473,12.2334887 44.3799976,11.0039168 L46.1199418,3 L59.8800582,3 Z"/>
    <path fill="#3B3B3B" fill-rule="nonzero" d="M58.2732813,1.42550776 L45.2467188,1.42550776 C43.8354379,1.42550776 42.6149785,2.40916042 42.3151868,3.78823202 L40.6679993,11.3654587 C40.6512233,11.442497 40.5927273,11.504494 40.5170345,11.52561 C37.2979566,12.4229907 34.1851441,13.7135606 31.2636869,15.3617435 C31.1942567,15.4009623 31.1106598,15.3985729 31.0449692,15.3563202 L24.5170684,11.1599884 C23.329895,10.3968375 21.7713274,10.5643415 20.773429,11.5623288 L11.56214,20.7744381 C10.5642668,21.7724001 10.3968817,23.3309333 11.1600811,24.5180329 L15.3559794,31.0444392 C15.3986647,31.1108024 15.4010661,31.1948387 15.3620367,31.2639876 C13.7138025,34.1846515 12.4231028,37.2975546 11.5254601,40.5175721 C11.504494,40.5927273 11.442497,40.6512233 11.3644165,40.6682261 L3.78823202,42.3151868 C2.40916042,42.6149785 1.42550776,43.8354379 1.42550776,45.2467188 L1.42550776,58.2732813 C1.42550776,59.6845873 2.40919486,60.9050615 3.78829788,61.2048275 L11.3663449,62.852015 C11.442804,62.8686649 11.5043528,62.9267666 11.52561,63.0029655 C12.4243138,66.2236155 13.7151053,69.3362036 15.3627547,72.2558313 C15.4015105,72.3244953 15.3990784,72.4085544 15.3563202,72.4750308 L11.1607571,79.0021915 C10.3977174,80.1892749 10.5651578,81.7476706 11.5629602,82.7455619 L20.7742492,91.9576712 C21.7721931,92.9557039 23.3308491,93.1231724 24.5180329,92.3599189 L31.0444392,88.1640206 C31.1104543,88.1216134 31.1952653,88.1191746 31.2639876,88.1579633 C34.1846515,89.8061975 37.2975546,91.0968972 40.5175721,91.9945399 C40.5927273,92.015506 40.6512233,92.077503 40.6682261,92.1555835 L42.3151868,99.731768 C42.6149785,101.11084 43.8354379,102.094492 45.2467188,102.094492 L58.2732813,102.094492 C59.6845621,102.094492 60.9050215,101.11084 61.2048132,99.731768 L62.8520007,92.1545413 C62.8687767,92.077503 62.9272727,92.015506 63.0029655,91.99439 C66.2220434,91.0970093 69.3348559,89.8064394 72.2563131,88.1582565 C72.3257433,88.1190377 72.4093402,88.1214271 72.4750308,88.1636798 L79.0029316,92.3600116 C80.190105,93.1231625 81.7486726,92.9556585 82.746571,91.9576712 L91.95786,82.7455619 C92.9557332,81.7475999 93.1231183,80.1890667 92.3599189,79.0019671 L88.1640206,72.4755608 C88.1213353,72.4091976 88.1189339,72.3251613 88.1579633,72.2560124 C89.8061975,69.3353485 91.0968972,66.2224454 91.9945399,63.0024279 C92.015506,62.9272727 92.077503,62.8687767 92.1555835,62.8517739 L99.731768,61.2048132 C101.11084,60.9050215 102.094492,59.6845621 102.094492,58.2732813 L102.094492,45.2467188 C102.094492,43.8354127 101.110805,42.6149385 99.7317021,42.3151725 L92.1536551,40.667985 C92.077196,40.6513351 92.0156472,40.5932334 91.99439,40.5170345 C91.0950403,37.2940697 89.8044703,34.1814793 88.1569067,31.2635689 C88.1184895,31.1955047 88.1209216,31.1114456 88.1636798,31.0449692 L92.3592429,24.5178085 C93.1222826,23.3307251 92.9548422,21.7723294 91.9570398,20.7744381 L82.7457508,11.5623288 C81.7478069,10.5642961 80.1891509,10.3968276 79.0019671,11.1600811 L72.4755608,15.3559794 C72.4095457,15.3983866 72.3247347,15.4008254 72.2560124,15.3620367 C69.3353485,13.7138025 66.2224454,12.4231028 63.0024279,11.5254601 C62.9272727,11.504494 62.8687767,11.442497 62.8517739,11.3644165 L61.2048132,3.78823202 C60.9050215,2.40916042 59.6845621,1.42550776 58.2732813,1.42550776 Z M58.2732813,4.42550776 L59.9204688,12.0027345 C60.1739453,13.1667578 61.050039,14.0953515 62.196836,14.4152735 C65.1835938,15.2478905 68.071914,16.445547 70.7814063,17.9746095 C71.8191015,18.5603125 73.0955078,18.5233985 74.0979297,17.879453 L80.624336,13.6835547 L89.835625,22.895664 L85.640547,29.4220703 C84.9957813,30.4244922 84.9588672,31.7008985 85.5445703,32.7385938 C87.074453,35.448086 88.271289,38.3364063 89.1047265,41.323164 C89.4246485,42.469961 90.352422,43.3460547 91.5164453,43.5995313 L99.0944922,45.2467188 L99.0944922,58.2732813 L91.5172655,59.9204688 C90.3532422,60.1739453 89.4246485,61.050039 89.1047265,62.196836 C88.2721095,65.1835938 87.074453,68.071914 85.5453905,70.7814063 C84.9596875,71.8191015 84.9957813,73.0955078 85.640547,74.0979297 L89.8364453,80.624336 L80.6251563,89.8364453 L74.0979297,85.640547 C73.0955078,84.9957813 71.8191015,84.9596875 70.7822265,85.5453905 C68.071914,87.074453 65.1835938,88.2721095 62.196836,89.1047265 C61.050039,89.4246485 60.1739453,90.3532422 59.9204688,91.5172655 L58.2732813,99.0944922 L45.2467188,99.0944922 L43.5995313,91.5172655 C43.3460547,90.3532422 42.469961,89.4246485 41.323164,89.1047265 C38.3364063,88.2721095 35.448086,87.074453 32.7385938,85.5453905 C31.7008985,84.9596875 30.4244922,84.9966015 29.4220703,85.640547 L22.895664,89.8364453 L13.684375,80.624336 L17.879453,74.0979297 C18.5242188,73.0955078 18.5611328,71.8191015 17.9754297,70.7814063 C16.4463672,68.071914 15.248711,65.1835938 14.4152735,62.196836 C14.0953515,61.050039 13.167578,60.1739453 12.0035547,59.9204688 L4.42550776,58.2732813 L4.42550776,45.2467188 L12.0027345,43.5995313 C13.1667578,43.3460547 14.0953515,42.469961 14.4152735,41.323164 C15.2478905,38.3364063 16.445547,35.448086 17.9746095,32.7385938 C18.5603125,31.7008985 18.5242188,30.4244922 17.879453,29.4220703 L13.6835547,22.895664 L22.8948438,13.6835547 L29.4220703,17.879453 C30.4244922,18.5242188 31.7008985,18.5603125 32.7377735,17.9746095 C35.448086,16.445547 38.3364063,15.2478905 41.323164,14.4152735 C42.469961,14.0953515 43.3460547,13.1667578 43.5995313,12.0027345 L45.2467188,4.42550776 L58.2732813,4.42550776 Z"/>
    <path fill="#C6CCE1" fill-rule="nonzero" d="M58.2732813,4.42550776 L59.9204688,12.0027345 C60.1739453,13.1667578 61.050039,14.0953515 62.196836,14.4152735 C65.1835938,15.2478905 68.071914,16.445547 70.7814063,17.9746095 C71.8191015,18.5603125 73.0955078,18.5233985 74.0979297,17.879453 L80.624336,13.6835547 L89.835625,22.895664 L85.640547,29.4220703 C84.9957813,30.4244922 84.9588672,31.7008985 85.5445703,32.7385938 C87.074453,35.448086 88.271289,38.3364063 89.1047265,41.323164 C89.4246485,42.469961 90.352422,43.3460547 91.5164453,43.5995313 L99.0944922,45.2467188 L99.0944922,58.2732813 L91.5172655,59.9204688 C90.3532422,60.1739453 89.4246485,61.050039 89.1047265,62.196836 C88.2721095,65.1835938 87.074453,68.071914 85.5453905,70.7814063 C84.9596875,71.8191015 84.9957813,73.0955078 85.640547,74.0979297 L89.8364453,80.624336 L80.6251563,89.8364453 L74.0979297,85.640547 C73.0955078,84.9957813 71.8191015,84.9596875 70.7822265,85.5453905 C68.071914,87.074453 65.1835938,88.2721095 62.196836,89.1047265 C61.050039,89.4246485 60.1739453,90.3532422 59.9204688,91.5172655 L58.2732813,99.0944922 L45.2467188,99.0944922 L43.5995313,91.5172655 C43.3460547,90.3532422 42.469961,89.4246485 41.323164,89.1047265 C38.3364063,88.2721095 35.448086,87.074453 32.7385938,85.5453905 C31.7008985,84.9596875 30.4244922,84.9966015 29.4220703,85.640547 L22.895664,89.8364453 L13.684375,80.624336 L17.879453,74.0979297 C18.5242188,73.0955078 18.5611328,71.8191015 17.9754297,70.7814063 C16.4463672,68.071914 15.248711,65.1835938 14.4152735,62.196836 C14.0953515,61.050039 13.167578,60.1739453 12.0035547,59.9204688 L4.42550776,58.2732813 L4.42550776,45.2467188 L12.0027345,43.5995313 C13.1667578,43.3460547 14.0953515,42.469961 14.4152735,41.323164 C15.2478905,38.3364063 16.445547,35.448086 17.9746095,32.7385938 C18.5603125,31.7008985 18.5242188,30.4244922 17.879453,29.4220703 L13.6835547,22.895664 L22.8948438,13.6835547 L29.4220703,17.879453 C30.4244922,18.5242188 31.7008985,18.5603125 32.7377735,17.9746095 C35.448086,16.445547 38.3364063,15.2478905 41.323164,14.4152735 C42.469961,14.0953515 43.3460547,13.1667578 43.5995313,12.0027345 L45.2467188,4.42550776 L58.2732813,4.42550776 Z"/>
    <path fill="#FFF" fill-rule="nonzero" d="M51.76,27.5579687 C65.1032916,27.5579687 75.9620313,38.4167084 75.9620313,51.76 C75.9620313,65.1032916 65.1032916,75.9620312 51.76,75.9620312 C38.4167084,75.9620312 27.5579688,65.1032916 27.5579688,51.76 C27.5579688,38.4167084 38.4167084,27.5579687 51.76,27.5579687 Z"/>
    <path fill="#3B3B3B" fill-rule="nonzero" d="M51.76,24.5579688 C36.7598541,24.5579688 24.5579688,36.7598541 24.5579688,51.76 C24.5579688,66.7601459 36.7598541,78.9620313 51.76,78.9620313 C66.7601459,78.9620313 78.9620313,66.7601459 78.9620313,51.76 C78.9620313,36.7598541 66.7601459,24.5579688 51.76,24.5579688 Z M51.76,27.5579688 C65.1032916,27.5579688 75.9620313,38.4167084 75.9620313,51.76 C75.9620313,65.1032916 65.1032916,75.9620313 51.76,75.9620313 C38.4167084,75.9620313 27.5579688,65.1032916 27.5579688,51.76 C27.5579688,38.4167084 38.4167084,27.5579688 51.76,27.5579688 Z"/>
    <g transform="translate(33.65 39)">
      <path fill="#5265AC" d="M9.26593678 22.1480336C8.75795266 22.1480336 8.24996854 21.9551294 7.86242808 21.5691218L1.05996254 14.7935619C.687627589 14.4226996.47855181 13.9199132.47855181 13.3956045.47855181 12.8710964.687627589 12.36831 1.05976247 11.9974478L7.86222801 5.22188785C8.63750901 4.44987259 9.89436455 4.44987259 10.6696455 5.22188785 11.4447265 5.99390312 11.4447265 7.24598673 10.6696455 8.018002L5.27068871 13.3956045 10.6694455 18.7728084C11.4447265 19.5450229 11.4447265 20.7969073 10.6696455 21.5691218 10.281905 21.9549302 9.7739209 22.1480336 9.26593678 22.1480336M27.3301259 22.2014778C26.8074795 22.2014778 26.2856408 22.0003899 25.8928481 21.6002129 25.1216013 20.8146506 25.1401807 19.5589503 25.933844 18.7959755L31.5228088 13.4223698 25.933844 8.04856422C25.1401807 7.28538948 25.1216013 6.02988908 25.8928481 5.24432682 26.664095 4.45856467 27.9323407 4.4403748 28.726004 5.20354954L35.7942522 11.9997625C36.182602 12.3733543 36.4017177 12.8862685 36.4017177 13.4223698 36.4017177 13.9582712 36.182602 14.4713853 35.7942522 14.8447772L28.726004 21.6407903C28.3366445 22.0151816 27.8329813 22.2014778 27.3301259 22.2014778"/>
      <path fill="#24387D" d="M15.4481902,24.8325084 C15.2739357,24.8325084 15.0967509,24.8084613 14.9207381,24.7579823 C13.8906438,24.4622626 13.2911066,23.3727902 13.5817913,22.3248536 L19.2647944,1.83752497 C19.5554791,0.789588409 20.6264022,0.179070467 21.6564966,0.475386304 C22.6867863,0.771105932 23.2861282,1.86037964 22.9954435,2.90851494 L17.3124403,23.3958436 C17.0713752,24.2649175 16.2940671,24.8325084 15.4481902,24.8325084"/>
    </g>
    <path fill="#7B8ED4" fill-rule="nonzero" stroke="#7B8ED4" d="M10.1022732,48.4154123 L8.53011863,48.4154123 C8.25397626,48.4154123 8.03011863,48.6392699 8.03011863,48.9154123 L8.03011863,55.0787503 C8.03011863,55.2994927 8.17487333,55.4941152 8.38628515,55.5576155 L13.0031174,56.9443419 C13.2893519,57.0303162 13.5865822,56.8476364 13.6391545,56.5534292 L13.968162,54.7122234 L13.9760269,54.6266012 C13.9772809,54.4003976 13.8243813,54.1963751 13.5980044,54.1393948 L10.602,53.385 L10.6022732,48.9154123 C10.6022732,48.6392699 10.3784155,48.4154123 10.1022732,48.4154123 Z M9.602,49.415 L9.60227316,53.7750958 L9.60939954,53.8594231 C9.64224903,54.0519353 9.78579877,54.2110332 9.9802272,54.2599719 L12.901,54.995 L12.753,55.825 L9.03,54.706 L9.03,49.415 L9.602,49.415 Z"/>
    <path fill="#7B8ED4" fill-rule="nonzero" stroke="#7B8ED4" d="M21.1022732,18.4154123 L19.5301186,18.4154123 C19.2539763,18.4154123 19.0301186,18.6392699 19.0301186,18.9154123 L19.0301186,25.0787503 C19.0301186,25.2994927 19.1748733,25.4941152 19.3862851,25.5576155 L24.0031174,26.9443419 C24.2893519,27.0303162 24.5865822,26.8476364 24.6391545,26.5534292 L24.968162,24.7122234 L24.9760269,24.6266012 C24.9772809,24.4003976 24.8243813,24.1963751 24.5980044,24.1393948 L21.602,23.385 L21.6022732,18.9154123 C21.6022732,18.6392699 21.3784155,18.4154123 21.1022732,18.4154123 Z M20.602,19.415 L20.6022732,23.7750958 L20.6093995,23.8594231 C20.642249,24.0519353 20.7857988,24.2110332 20.9802272,24.2599719 L23.901,24.995 L23.753,25.825 L20.03,24.706 L20.03,19.415 L20.602,19.415 Z" transform="rotate(44 22.003 22.69)"/>
    <path fill="#7B8ED4" fill-rule="nonzero" stroke="#7B8ED4" d="M50.1022732,6.41541232 L48.5301186,6.41541232 C48.2539763,6.41541232 48.0301186,6.63926994 48.0301186,6.91541232 L48.0301186,13.0787503 C48.0301186,13.2994927 48.1748733,13.4941152 48.3862851,13.5576155 L53.0031174,14.9443419 C53.2893519,15.0303162 53.5865822,14.8476364 53.6391545,14.5534292 L53.968162,12.7122234 L53.9760269,12.6266012 C53.9772809,12.4003976 53.8243813,12.1963751 53.5980044,12.1393948 L50.602,11.385 L50.6022732,6.91541232 C50.6022732,6.63926994 50.3784155,6.41541232 50.1022732,6.41541232 Z M49.602,7.415 L49.6022732,11.7750958 L49.6093995,11.8594231 C49.642249,12.0519353 49.7857988,12.2110332 49.9802272,12.2599719 L52.901,12.995 L52.753,13.825 L49.03,12.706 L49.03,7.415 L49.602,7.415 Z" transform="rotate(90 51.003 10.69)"/>
    <path fill="#7B8ED4" fill-rule="nonzero" stroke="#7B8ED4" d="M79.1022732,18.4154123 L77.5301186,18.4154123 C77.2539763,18.4154123 77.0301186,18.6392699 77.0301186,18.9154123 L77.0301186,25.0787503 C77.0301186,25.2994927 77.1748733,25.4941152 77.3862851,25.5576155 L82.0031174,26.9443419 C82.2893519,27.0303162 82.5865822,26.8476364 82.6391545,26.5534292 L82.968162,24.7122234 L82.9760269,24.6266012 C82.9772809,24.4003976 82.8243813,24.1963751 82.5980044,24.1393948 L79.602,23.385 L79.6022732,18.9154123 C79.6022732,18.6392699 79.3784155,18.4154123 79.1022732,18.4154123 Z M78.602,19.415 L78.6022732,23.7750958 L78.6093995,23.8594231 C78.642249,24.0519353 78.7857988,24.2110332 78.9802272,24.2599719 L81.901,24.995 L81.753,25.825 L78.03,24.706 L78.03,19.415 L78.602,19.415 Z" transform="rotate(134 80.003 22.69)"/>
    <path fill="#7B8ED4" fill-rule="nonzero" stroke="#7B8ED4" d="M92.1022732,46.4154123 L90.5301186,46.4154123 C90.2539763,46.4154123 90.0301186,46.6392699 90.0301186,46.9154123 L90.0301186,53.0787503 C90.0301186,53.2994927 90.1748733,53.4941152 90.3862851,53.5576155 L95.0031174,54.9443419 C95.2893519,55.0303162 95.5865822,54.8476364 95.6391545,54.5534292 L95.968162,52.7122234 L95.9760269,52.6266012 C95.9772809,52.4003976 95.8243813,52.1963751 95.5980044,52.1393948 L92.602,51.385 L92.6022732,46.9154123 C92.6022732,46.6392699 92.3784155,46.4154123 92.1022732,46.4154123 Z M91.602,47.415 L91.6022732,51.7750958 L91.6093995,51.8594231 C91.642249,52.0519353 91.7857988,52.2110332 91.9802272,52.2599719 L94.901,52.995 L94.753,53.825 L91.03,52.706 L91.03,47.415 L91.602,47.415 Z" transform="rotate(-180 93.003 50.69)"/>
    <path fill="#7B8ED4" fill-rule="nonzero" stroke="#7B8ED4" d="M80.1022732,75.4154123 L78.5301186,75.4154123 C78.2539763,75.4154123 78.0301186,75.6392699 78.0301186,75.9154123 L78.0301186,82.0787503 C78.0301186,82.2994927 78.1748733,82.4941152 78.3862851,82.5576155 L83.0031174,83.9443419 C83.2893519,84.0303162 83.5865822,83.8476364 83.6391545,83.5534292 L83.968162,81.7122234 L83.9760269,81.6266012 C83.9772809,81.4003976 83.8243813,81.1963751 83.5980044,81.1393948 L80.602,80.385 L80.6022732,75.9154123 C80.6022732,75.6392699 80.3784155,75.4154123 80.1022732,75.4154123 Z M79.602,76.415 L79.6022732,80.7750958 L79.6093995,80.8594231 C79.642249,81.0519353 79.7857988,81.2110332 79.9802272,81.2599719 L82.901,81.995 L82.753,82.825 L79.03,81.706 L79.03,76.415 L79.602,76.415 Z" transform="rotate(-135 81.003 79.69)"/>
    <path fill="#7B8ED4" fill-rule="nonzero" stroke="#7B8ED4" d="M51.1022732,88.4154123 L49.5301186,88.4154123 C49.2539763,88.4154123 49.0301186,88.6392699 49.0301186,88.9154123 L49.0301186,95.0787503 C49.0301186,95.2994927 49.1748733,95.4941152 49.3862851,95.5576155 L54.0031174,96.9443419 C54.2893519,97.0303162 54.5865822,96.8476364 54.6391545,96.5534292 L54.968162,94.7122234 L54.9760269,94.6266012 C54.9772809,94.4003976 54.8243813,94.1963751 54.5980044,94.1393948 L51.602,93.385 L51.6022732,88.9154123 C51.6022732,88.6392699 51.3784155,88.4154123 51.1022732,88.4154123 Z M50.602,89.415 L50.6022732,93.7750958 L50.6093995,93.8594231 C50.642249,94.0519353 50.7857988,94.2110332 50.9802272,94.2599719 L53.901,94.995 L53.753,95.825 L50.03,94.706 L50.03,89.415 L50.602,89.415 Z" transform="rotate(-90 52.003 92.69)"/>
    <path fill="#7B8ED4" fill-rule="nonzero" stroke="#7B8ED4" d="M22.1022732,77.4154123 L20.5301186,77.4154123 C20.2539763,77.4154123 20.0301186,77.6392699 20.0301186,77.9154123 L20.0301186,84.0787503 C20.0301186,84.2994927 20.1748733,84.4941152 20.3862851,84.5576155 L25.0031174,85.9443419 C25.2893519,86.0303162 25.5865822,85.8476364 25.6391545,85.5534292 L25.968162,83.7122234 L25.9760269,83.6266012 C25.9772809,83.4003976 25.8243813,83.1963751 25.5980044,83.1393948 L22.602,82.385 L22.6022732,77.9154123 C22.6022732,77.6392699 22.3784155,77.4154123 22.1022732,77.4154123 Z M21.602,78.415 L21.6022732,82.7750958 L21.6093995,82.8594231 C21.642249,83.0519353 21.7857988,83.2110332 21.9802272,83.2599719 L24.901,83.995 L24.753,84.825 L21.03,83.706 L21.03,78.415 L21.602,78.415 Z" transform="rotate(-46 23.003 81.69)"/>
    <path fill="#3B3B3B" fill-rule="nonzero" d="M149.436115,123 L18.5638852,123 C17.2981744,123 16.4727917,123.159389 15.6083577,123.621693 C14.7596264,124.0756 14.0755996,124.759626 13.6216931,125.608358 C13.1593888,126.472792 13,127.298174 13,128.563885 L13,133.02045 C13,134.932443 13.3976486,136.673643 14.2004806,138.174808 C15.0320525,139.729712 16.2702878,140.967948 17.825192,141.799519 C19.3263574,142.602351 21.0675571,143 22.9795502,143 L145.02045,143 C146.932443,143 148.673643,142.602351 150.174808,141.799519 C151.729712,140.967948 152.967948,139.729712 153.799519,138.174808 C154.602351,136.673643 155,134.932443 155,133.02045 L155,128.563885 C155,127.298174 154.840611,126.472792 154.378307,125.608358 C153.9244,124.759626 153.240374,124.0756 152.391642,123.621693 C151.527208,123.159389 150.701826,123 149.436115,123 Z M18.3679772,126.001643 L149.436115,126 C150.327634,126 150.65092,126.092826 150.976846,126.267133 C151.302772,126.44144 151.55856,126.697228 151.732867,127.023154 C151.907174,127.34908 152,127.672366 152,128.563885 L152,133.02045 C152,134.476289 151.706052,135.727913 151.15408,136.760011 C150.602107,137.79211 149.79211,138.602107 148.760011,139.15408 C147.727913,139.706052 146.476289,140 145.02045,140 L22.9795502,140 C21.5237111,140 20.2720874,139.706052 19.2399886,139.15408 C18.2078898,138.602107 17.3978927,137.79211 16.8459202,136.760011 C16.2939478,135.727913 16,134.476289 16,133.02045 L16,128.563885 C16,127.672366 16.0928256,127.34908 16.2671327,127.023154 C16.4414398,126.697228 16.6972284,126.44144 17.0231543,126.267133 C17.324009,126.106234 17.6226145,126.014763 18.3679772,126.001643 Z"/>
    <path fill="#D0D0D0" fill-rule="nonzero" d="M18.3679772,126.001643 L149.436115,126 C150.327634,126 150.65092,126.092826 150.976846,126.267133 C151.302772,126.44144 151.55856,126.697228 151.732867,127.023154 C151.907174,127.34908 152,127.672366 152,128.563885 L152,133.02045 C152,134.476289 151.706052,135.727913 151.15408,136.760011 C150.602107,137.79211 149.79211,138.602107 148.760011,139.15408 C147.727913,139.706052 146.476289,140 145.02045,140 L22.9795502,140 C21.5237111,140 20.2720874,139.706052 19.2399886,139.15408 C18.2078898,138.602107 17.3978927,137.79211 16.8459202,136.760011 C16.2939478,135.727913 16,134.476289 16,133.02045 L16,128.563885 C16,127.672366 16.0928256,127.34908 16.2671327,127.023154 C16.4414398,126.697228 16.6972284,126.44144 17.0231543,126.267133 C17.324009,126.106234 17.6226145,126.014763 18.3679772,126.001643 Z"/>
    <path fill="#3B3B3B" fill-rule="nonzero" d="M99.5,125.136364 L68.5,125.136364 C66.6423149,125.136364 65.1363636,126.642315 65.1363636,128.5 C65.1363636,130.357685 66.6423149,131.863636 68.5,131.863636 L99.5,131.863636 C101.357685,131.863636 102.863636,130.357685 102.863636,128.5 C102.863636,126.642315 101.357685,125.136364 99.5,125.136364 Z"/>
  </g>
</svg>
