<svg xmlns="http://www.w3.org/2000/svg" width="194" height="193" viewBox="0 0 194 193">
  <g fill="none" fill-rule="evenodd" transform="translate(21 38.5)">
    <path fill="#3B3B3B" fill-rule="nonzero" d="M21.4482221,79.5933813 C29.969169,100.065624 50.0075851,113.685484 72.5644862,113.685484 C90.0970791,113.685484 106.265577,105.479595 116.668887,91.7787205 C117.169869,91.1189412 118.110852,90.9902104 118.770631,91.4911922 C119.430411,91.992174 119.559141,92.9331568 119.05816,93.5929361 C108.093509,108.033081 91.0452201,116.685484 72.5644862,116.685484 C48.7855486,116.685484 27.6611077,102.327467 18.6785518,80.7461721 C18.3602175,79.9813488 18.7221683,79.1032759 19.4869916,78.7849416 C20.2518149,78.4666072 21.1298877,78.828558 21.4482221,79.5933813 Z M72.5644862,6.39488462e-14 C97.0155808,6.39488462e-14 118.614232,15.1810336 127.137728,37.6683369 C127.431348,38.4429847 127.041397,39.3089863 126.266749,39.6026057 C125.492101,39.896225 124.6261,39.5062744 124.33248,38.7316267 C116.247325,17.4007846 95.7587642,3 72.5644862,3 C54.1721129,3 37.3060245,12.0365523 27.0304751,26.8777751 C26.5588995,27.558883 25.624465,27.7287425 24.943357,27.257167 C24.2622491,26.7855914 24.0923896,25.8511568 24.5639652,25.1700489 C35.3940733,9.52786364 53.1771597,6.39488462e-14 72.5644862,6.39488462e-14 Z"/>
    <path fill="#3B3B3B" fill-rule="nonzero" d="M128.850315,28.3272246 C129.630011,28.3272246 130.270763,28.9221126 130.343448,29.6827645 L130.350315,29.8272246 L130.350315,40.3388296 L119.83871,40.3388296 C119.010283,40.3388296 118.33871,39.6672567 118.33871,38.8388296 C118.33871,38.0591334 118.933598,37.4183809 119.69425,37.3456961 L119.83871,37.3388296 L127.35,37.338 L127.350315,29.8272246 C127.350315,29.0475284 127.945203,28.4067759 128.705855,28.3340911 L128.850315,28.3272246 Z" transform="rotate(23 124.345 34.333)"/>
    <path fill="#3B3B3B" fill-rule="nonzero" d="M26.9052645,78.6773411 C27.6849607,78.6773411 28.3257132,79.2722292 28.398398,80.0328811 L28.4052645,80.1773411 L28.4052645,90.6715504 L17.8936595,90.6715504 C17.0652324,90.6715504 16.3936595,89.9999775 16.3936595,89.1715504 C16.3936595,88.3918543 16.9885476,87.7511017 17.7491995,87.678417 L17.8936595,87.6715504 L25.405,87.671 L25.4052645,80.1773411 C25.4052645,79.397645 26.0001526,78.7568925 26.7608045,78.6842077 L26.9052645,78.6773411 Z" transform="rotate(-165 22.4 84.674)"/>
    <path fill="#5265AC" d="M2,33.5 L17,33.5 C18.1045695,33.5 19,34.3954305 19,35.5 C19,36.6045695 18.1045695,37.5 17,37.5 L2,37.5 C0.8954305,37.5 1.3527075e-16,36.6045695 0,35.5 C-1.3527075e-16,34.3954305 0.8954305,33.5 2,33.5 Z"/>
    <path fill="#3B3B3B" d="M2,53.5 L24,53.5 C25.1045695,53.5 26,54.3954305 26,55.5 C26,56.6045695 25.1045695,57.5 24,57.5 L2,57.5 C0.8954305,57.5 1.3527075e-16,56.6045695 0,55.5 C-1.3527075e-16,54.3954305 0.8954305,53.5 2,53.5 Z"/>
    <path fill="#C6CCE1" d="M14,60.5 L30,60.5 C31.1045695,60.5 32,61.3954305 32,62.5 C32,63.6045695 31.1045695,64.5 30,64.5 L14,64.5 C12.8954305,64.5 12,63.6045695 12,62.5 C12,61.3954305 12.8954305,60.5 14,60.5 Z"/>
    <path fill="#3B3B3B" d="M2,40.5 L17,40.5 C18.1045695,40.5 19,41.3954305 19,42.5 C19,43.6045695 18.1045695,44.5 17,44.5 L2,44.5 C0.8954305,44.5 1.3527075e-16,43.6045695 0,42.5 C-1.3527075e-16,41.3954305 0.8954305,40.5 2,40.5 Z"/>
    <path fill="#A4A4A4" d="M19,47.5 L34,47.5 C35.1045695,47.5 36,48.3954305 36,49.5 C36,50.6045695 35.1045695,51.5 34,51.5 L19,51.5 C17.8954305,51.5 17,50.6045695 17,49.5 C17,48.3954305 17.8954305,47.5 19,47.5 Z"/>
    <path fill="#3B3B3B" d="M2,60.5 L7,60.5 C8.1045695,60.5 9,61.3954305 9,62.5 C9,63.6045695 8.1045695,64.5 7,64.5 L2,64.5 C0.8954305,64.5 1.3527075e-16,63.6045695 0,62.5 C-1.3527075e-16,61.3954305 0.8954305,60.5 2,60.5 Z"/>
    <path fill="#5265AC" d="M2 47.5L12 47.5C13.1045695 47.5 14 48.3954305 14 49.5 14 50.6045695 13.1045695 51.5 12 51.5L2 51.5C.8954305 51.5 1.3527075e-16 50.6045695 0 49.5-1.3527075e-16 48.3954305.8954305 47.5 2 47.5zM31 53.5L41 53.5C42.1045695 53.5 43 54.3954305 43 55.5 43 56.6045695 42.1045695 57.5 41 57.5L31 57.5C29.8954305 57.5 29 56.6045695 29 55.5 29 54.3954305 29.8954305 53.5 31 53.5z"/>
    <path fill="#C6CCE1" d="M35,33.5 L45,33.5 C46.1045695,33.5 47,34.3954305 47,35.5 C47,36.6045695 46.1045695,37.5 45,37.5 L35,37.5 C33.8954305,37.5 33,36.6045695 33,35.5 C33,34.3954305 33.8954305,33.5 35,33.5 Z"/>
    <path fill="#3B3B3B" d="M24,33.5 L28,33.5 C29.1045695,33.5 30,34.3954305 30,35.5 C30,36.6045695 29.1045695,37.5 28,37.5 L24,37.5 C22.8954305,37.5 22,36.6045695 22,35.5 C22,34.3954305 22.8954305,33.5 24,33.5 Z"/>
    <path fill="#24387D" d="M2 67.5L22 67.5C23.1045695 67.5 24 68.3954305 24 69.5 24 70.6045695 23.1045695 71.5 22 71.5L2 71.5C.8954305 71.5 1.3527075e-16 70.6045695 0 69.5-1.3527075e-16 68.3954305.8954305 67.5 2 67.5zM24 40.5L36 40.5C37.1045695 40.5 38 41.3954305 38 42.5 38 43.6045695 37.1045695 44.5 36 44.5L24 44.5C22.8954305 44.5 22 43.6045695 22 42.5 22 41.3954305 22.8954305 40.5 24 40.5z"/>
    <path fill="#3B3B3B" d="M29,67.5 L37,67.5 C38.1045695,67.5 39,68.3954305 39,69.5 C39,70.6045695 38.1045695,71.5 37,71.5 L29,71.5 C27.8954305,71.5 27,70.6045695 27,69.5 C27,68.3954305 27.8954305,67.5 29,67.5 Z"/>
    <path fill="#5265AC" d="M107,81.5 L122,81.5 C123.104569,81.5 124,82.3954305 124,83.5 C124,84.6045695 123.104569,85.5 122,85.5 L107,85.5 C105.895431,85.5 105,84.6045695 105,83.5 C105,82.3954305 105.895431,81.5 107,81.5 Z" transform="matrix(1 0 0 -1 0 167)"/>
    <path fill="#3B3B3B" d="M107,61.5 L129,61.5 C130.104569,61.5 131,62.3954305 131,63.5 C131,64.6045695 130.104569,65.5 129,65.5 L107,65.5 C105.895431,65.5 105,64.6045695 105,63.5 C105,62.3954305 105.895431,61.5 107,61.5 Z" transform="matrix(1 0 0 -1 0 127)"/>
    <path fill="#C6CCE1" d="M119,54.5 L135,54.5 C136.104569,54.5 137,55.3954305 137,56.5 C137,57.6045695 136.104569,58.5 135,58.5 L119,58.5 C117.895431,58.5 117,57.6045695 117,56.5 C117,55.3954305 117.895431,54.5 119,54.5 Z" transform="matrix(1 0 0 -1 0 113)"/>
    <path fill="#3B3B3B" d="M107,74.5 L122,74.5 C123.104569,74.5 124,75.3954305 124,76.5 C124,77.6045695 123.104569,78.5 122,78.5 L107,78.5 C105.895431,78.5 105,77.6045695 105,76.5 C105,75.3954305 105.895431,74.5 107,74.5 Z" transform="matrix(1 0 0 -1 0 153)"/>
    <path fill="#A4A4A4" d="M124,67.5 L139,67.5 C140.104569,67.5 141,68.3954305 141,69.5 C141,70.6045695 140.104569,71.5 139,71.5 L124,71.5 C122.895431,71.5 122,70.6045695 122,69.5 C122,68.3954305 122.895431,67.5 124,67.5 Z" transform="matrix(1 0 0 -1 0 139)"/>
    <path fill="#3B3B3B" d="M107,54.5 L112,54.5 C113.104569,54.5 114,55.3954305 114,56.5 C114,57.6045695 113.104569,58.5 112,58.5 L107,58.5 C105.895431,58.5 105,57.6045695 105,56.5 C105,55.3954305 105.895431,54.5 107,54.5 Z" transform="matrix(1 0 0 -1 0 113)"/>
    <path fill="#5265AC" d="M107,67.5 L117,67.5 C118.104569,67.5 119,68.3954305 119,69.5 C119,70.6045695 118.104569,71.5 117,71.5 L107,71.5 C105.895431,71.5 105,70.6045695 105,69.5 C105,68.3954305 105.895431,67.5 107,67.5 Z" transform="matrix(1 0 0 -1 0 139)"/>
    <path fill="#5265AC" d="M136,61.5 L146,61.5 C147.104569,61.5 148,62.3954305 148,63.5 C148,64.6045695 147.104569,65.5 146,65.5 L136,65.5 C134.895431,65.5 134,64.6045695 134,63.5 C134,62.3954305 134.895431,61.5 136,61.5 Z" transform="matrix(1 0 0 -1 0 127)"/>
    <path fill="#C6CCE1" d="M140,81.5 L150,81.5 C151.104569,81.5 152,82.3954305 152,83.5 C152,84.6045695 151.104569,85.5 150,85.5 L140,85.5 C138.895431,85.5 138,84.6045695 138,83.5 C138,82.3954305 138.895431,81.5 140,81.5 Z" transform="matrix(1 0 0 -1 0 167)"/>
    <path fill="#3B3B3B" d="M129,81.5 L133,81.5 C134.104569,81.5 135,82.3954305 135,83.5 C135,84.6045695 134.104569,85.5 133,85.5 L129,85.5 C127.895431,85.5 127,84.6045695 127,83.5 C127,82.3954305 127.895431,81.5 129,81.5 Z" transform="matrix(1 0 0 -1 0 167)"/>
    <path fill="#24387D" d="M107,47.5 L127,47.5 C128.104569,47.5 129,48.3954305 129,49.5 C129,50.6045695 128.104569,51.5 127,51.5 L107,51.5 C105.895431,51.5 105,50.6045695 105,49.5 C105,48.3954305 105.895431,47.5 107,47.5 Z" transform="matrix(1 0 0 -1 0 99)"/>
    <path fill="#24387D" d="M129,74.5 L141,74.5 C142.104569,74.5 143,75.3954305 143,76.5 C143,77.6045695 142.104569,78.5 141,78.5 L129,78.5 C127.895431,78.5 127,77.6045695 127,76.5 C127,75.3954305 127.895431,74.5 129,74.5 Z" transform="matrix(1 0 0 -1 0 153)"/>
    <path fill="#3B3B3B" d="M134,47.5 L142,47.5 C143.104569,47.5 144,48.3954305 144,49.5 C144,50.6045695 143.104569,51.5 142,51.5 L134,51.5 C132.895431,51.5 132,50.6045695 132,49.5 C132,48.3954305 132.895431,47.5 134,47.5 Z" transform="matrix(1 0 0 -1 0 99)"/>
  </g>
</svg>
