<svg xmlns="http://www.w3.org/2000/svg" width="194" height="193" viewBox="0 0 194 193">
  <g fill="none" fill-rule="evenodd" transform="translate(22.108 32.108)">
    <path fill="#3B3B3B" fill-rule="nonzero" d="M73.9087742,22.6900645 C44.565351,22.6900645 20.7778065,46.477609 20.7778065,75.8210323 C20.7778065,105.164455 44.565351,128.952 73.9087742,128.952 C103.252197,128.952 127.039742,105.164455 127.039742,75.8210323 C127.039742,46.477609 103.252197,22.6900645 73.9087742,22.6900645 Z M73.9087742,25.6900645 C101.595343,25.6900645 124.039742,48.1344633 124.039742,75.8210323 C124.039742,103.507601 101.595343,125.952 73.9087742,125.952 C46.2222052,125.952 23.7778065,103.507601 23.7778065,75.8210323 C23.7778065,48.1344633 46.2222052,25.6900645 73.9087742,25.6900645 Z"/>
    <path fill="#FFF" fill-rule="nonzero" d="M74.9087742,-4.40536496e-13 C61.5489705,-4.40536496e-13 50.7187097,10.8302608 50.7187097,24.1900645 C50.7187097,37.5498682 61.5489705,48.380129 74.9087742,48.380129 C88.2685779,48.380129 99.0988387,37.5498682 99.0988387,24.1900645 C99.0988387,10.8302608 88.2685779,-4.40536496e-13 74.9087742,-4.40536496e-13 Z M74.9087742,8.892 C83.3576619,8.892 90.2068387,15.7411768 90.2068387,24.1900645 C90.2068387,32.6389522 83.3576619,39.488129 74.9087742,39.488129 C66.4598865,39.488129 59.6107097,32.6389522 59.6107097,24.1900645 C59.6107097,15.7411768 66.4598865,8.892 74.9087742,8.892 Z"/>
    <circle cx="74.909" cy="24.19" r="15.298" fill="#FFF"/>
    <circle cx="24.19" cy="94.944" r="15.298" fill="#FFF"/>
    <circle cx="125.54" cy="94.944" r="15.298" fill="#FFF"/>
    <path fill="#3B3B3B" fill-rule="nonzero" d="M74.9087742,7.392 C65.6314593,7.392 58.1107097,14.9127497 58.1107097,24.1900645 C58.1107097,33.4673794 65.6314593,40.988129 74.9087742,40.988129 C84.1860891,40.988129 91.7068387,33.4673794 91.7068387,24.1900645 C91.7068387,14.9127497 84.1860891,7.392 74.9087742,7.392 Z M74.9087742,10.392 C82.5292348,10.392 88.7068387,16.5696039 88.7068387,24.1900645 C88.7068387,31.8105251 82.5292348,37.988129 74.9087742,37.988129 C67.2883136,37.988129 61.1107097,31.8105251 61.1107097,24.1900645 C61.1107097,16.5696039 67.2883136,10.392 74.9087742,10.392 Z"/>
    <g transform="translate(51.892 60.892)">
      <path fill="#5265AC" d="M2,2.22044605e-16 L17,2.22044605e-16 C18.1045695,1.91384796e-17 19,0.8954305 19,2 C19,3.1045695 18.1045695,4 17,4 L2,4 C0.8954305,4 1.3527075e-16,3.1045695 0,2 C-1.3527075e-16,0.8954305 0.8954305,4.2495073e-16 2,2.22044605e-16 Z"/>
      <path fill="#3B3B3B" d="M2,20 L24,20 C25.1045695,20 26,20.8954305 26,22 C26,23.1045695 25.1045695,24 24,24 L2,24 C0.8954305,24 1.3527075e-16,23.1045695 0,22 C-1.3527075e-16,20.8954305 0.8954305,20 2,20 Z"/>
      <path fill="#C6CCE1" d="M14,27 L30,27 C31.1045695,27 32,27.8954305 32,29 C32,30.1045695 31.1045695,31 30,31 L14,31 C12.8954305,31 12,30.1045695 12,29 C12,27.8954305 12.8954305,27 14,27 Z"/>
      <path fill="#3B3B3B" d="M2,7 L17,7 C18.1045695,7 19,7.8954305 19,9 C19,10.1045695 18.1045695,11 17,11 L2,11 C0.8954305,11 1.3527075e-16,10.1045695 0,9 C-1.3527075e-16,7.8954305 0.8954305,7 2,7 Z"/>
      <path fill="#A4A4A4" d="M19,14 L34,14 C35.1045695,14 36,14.8954305 36,16 C36,17.1045695 35.1045695,18 34,18 L19,18 C17.8954305,18 17,17.1045695 17,16 C17,14.8954305 17.8954305,14 19,14 Z"/>
      <path fill="#3B3B3B" d="M2,27 L7,27 C8.1045695,27 9,27.8954305 9,29 C9,30.1045695 8.1045695,31 7,31 L2,31 C0.8954305,31 1.3527075e-16,30.1045695 0,29 C-1.3527075e-16,27.8954305 0.8954305,27 2,27 Z"/>
      <path fill="#5265AC" d="M2 14L12 14C13.1045695 14 14 14.8954305 14 16 14 17.1045695 13.1045695 18 12 18L2 18C.8954305 18 1.3527075e-16 17.1045695 0 16-1.3527075e-16 14.8954305.8954305 14 2 14zM31 20L41 20C42.1045695 20 43 20.8954305 43 22 43 23.1045695 42.1045695 24 41 24L31 24C29.8954305 24 29 23.1045695 29 22 29 20.8954305 29.8954305 20 31 20z"/>
      <path fill="#C6CCE1" d="M35,0 L45,0 C46.1045695,-2.02906125e-16 47,0.8954305 47,2 C47,3.1045695 46.1045695,4 45,4 L35,4 C33.8954305,4 33,3.1045695 33,2 C33,0.8954305 33.8954305,2.02906125e-16 35,0 Z"/>
      <path fill="#3B3B3B" d="M24,2.22044605e-16 L28,2.22044605e-16 C29.1045695,1.91384796e-17 30,0.8954305 30,2 C30,3.1045695 29.1045695,4 28,4 L24,4 C22.8954305,4 22,3.1045695 22,2 C22,0.8954305 22.8954305,4.2495073e-16 24,2.22044605e-16 Z"/>
      <path fill="#24387D" d="M2 34L22 34C23.1045695 34 24 34.8954305 24 36 24 37.1045695 23.1045695 38 22 38L2 38C.8954305 38 1.3527075e-16 37.1045695 0 36-1.3527075e-16 34.8954305.8954305 34 2 34zM24 7L36 7C37.1045695 7 38 7.8954305 38 9 38 10.1045695 37.1045695 11 36 11L24 11C22.8954305 11 22 10.1045695 22 9 22 7.8954305 22.8954305 7 24 7z"/>
      <path fill="#3B3B3B" d="M29,34 L37,34 C38.1045695,34 39,34.8954305 39,36 C39,37.1045695 38.1045695,38 37,38 L29,38 C27.8954305,38 27,37.1045695 27,36 C27,34.8954305 27.8954305,34 29,34 Z"/>
    </g>
    <path fill="#FFF" fill-rule="nonzero" d="M24.1900645,70.7535484 C10.8302608,70.7535484 -4.4408921e-13,81.5838092 -4.4408921e-13,94.9436129 C-4.4408921e-13,108.303417 10.8302608,119.133677 24.1900645,119.133677 C37.5498682,119.133677 48.380129,108.303417 48.380129,94.9436129 C48.380129,81.5838092 37.5498682,70.7535484 24.1900645,70.7535484 Z M24.1900645,79.6455484 C32.6389522,79.6455484 39.488129,86.4947252 39.488129,94.9436129 C39.488129,103.392501 32.6389522,110.241677 24.1900645,110.241677 C15.7411768,110.241677 8.892,103.392501 8.892,94.9436129 C8.892,86.4947252 15.7411768,79.6455484 24.1900645,79.6455484 Z"/>
    <path fill="#3B3B3B" fill-rule="nonzero" d="M24.1900645,78.1455484 C14.9127497,78.1455484 7.392,85.666298 7.392,94.9436129 C7.392,104.220928 14.9127497,111.741677 24.1900645,111.741677 C33.4673794,111.741677 40.988129,104.220928 40.988129,94.9436129 C40.988129,85.666298 33.4673794,78.1455484 24.1900645,78.1455484 Z M24.1900645,81.1455484 C31.8105251,81.1455484 37.988129,87.3231523 37.988129,94.9436129 C37.988129,102.564074 31.8105251,108.741677 24.1900645,108.741677 C16.5696039,108.741677 10.392,102.564074 10.392,94.9436129 C10.392,87.3231523 16.5696039,81.1455484 24.1900645,81.1455484 Z"/>
    <path fill="#FFF" fill-rule="nonzero" d="M125.539742,70.7535484 C112.179938,70.7535484 101.349677,81.5838092 101.349677,94.9436129 C101.349677,108.303417 112.179938,119.133677 125.539742,119.133677 C138.899546,119.133677 149.729806,108.303417 149.729806,94.9436129 C149.729806,81.5838092 138.899546,70.7535484 125.539742,70.7535484 Z M125.539742,79.6455484 C133.98863,79.6455484 140.837806,86.4947252 140.837806,94.9436129 C140.837806,103.392501 133.98863,110.241677 125.539742,110.241677 C117.090854,110.241677 110.241677,103.392501 110.241677,94.9436129 C110.241677,86.4947252 117.090854,79.6455484 125.539742,79.6455484 Z"/>
    <path fill="#3B3B3B" fill-rule="nonzero" d="M125.539742,78.1455484 C116.262427,78.1455484 108.741677,85.666298 108.741677,94.9436129 C108.741677,104.220928 116.262427,111.741677 125.539742,111.741677 C134.817057,111.741677 142.337806,104.220928 142.337806,94.9436129 C142.337806,85.666298 134.817057,78.1455484 125.539742,78.1455484 Z M125.539742,81.1455484 C133.160203,81.1455484 139.337806,87.3231523 139.337806,94.9436129 C139.337806,102.564074 133.160203,108.741677 125.539742,108.741677 C117.919281,108.741677 111.741677,102.564074 111.741677,94.9436129 C111.741677,87.3231523 117.919281,81.1455484 125.539742,81.1455484 Z"/>
    <path fill="#E1E1E1" d="M67.6508803 20.9066662C67.6508803 26.8117117 72.5329759 31.5986969 78.5553459 31.5986969 81.3810914 31.5986969 83.9557982 30.5448118 85.8929394 28.8160383 84.0460302 32.9804994 79.8134904 35.892 74.8874222 35.892 68.2625335 35.892 62.892 30.6260924 62.892 24.1302661 62.892 18.8462965 66.4456057 14.3761467 71.3373164 12.8921559 69.0764104 14.8514022 67.6508803 17.7158022 67.6508803 20.9066662zM16.6508803 91.9066662C16.6508803 97.8117117 21.5329759 102.598697 27.5553459 102.598697 30.3810914 102.598697 32.9557982 101.544812 34.8929394 99.8160383 33.0467064 103.980034 28.8138839 106.892 23.8874222 106.892 17.2625335 106.892 11.892 101.626092 11.892 95.1302661 11.892 89.8462965 15.4456057 85.3761467 20.3373164 83.8921559 18.0764104 85.8514022 16.6508803 88.7158022 16.6508803 91.9066662zM118.65088 91.9066662C118.65088 97.8117117 123.532976 102.598697 129.555346 102.598697 132.381091 102.598697 134.955798 101.544812 136.892939 99.8160383 135.04603 103.980499 130.81349 106.892 125.887422 106.892 119.262533 106.892 113.892 101.626092 113.892 95.1302661 113.892 89.8462965 117.445606 85.3761467 122.337316 83.8921559 120.07641 85.8514022 118.65088 88.7158022 118.65088 91.9066662z"/>
  </g>
</svg>
