<svg xmlns="http://www.w3.org/2000/svg" xmlns:xlink="http://www.w3.org/1999/xlink" width="142" height="120" viewBox="0 0 142 120">
  <defs>
    <circle id="icon_security-a" cx="18" cy="18" r="18"/>
  </defs>
  <g fill="none" fill-rule="evenodd" transform="translate(1 1)">
    <path fill="#F2F2F2" fill-rule="nonzero" stroke="#3B3B3B" stroke-width="3" d="M122.88103,0.65151515 C126.128969,0.65151515 127.285668,1.04271322 128.46741,1.67471558 C129.764778,2.36855556 130.78296,3.38673752 131.4768,4.68410547 C132.108802,5.86584713 132.5,7.02254644 132.5,10.270485 L132.5,10.270485 L132.5,84.0325454 C132.5,87.2804839 132.108802,88.4371832 131.4768,89.6189248 C130.78296,90.9162928 129.764778,91.9344747 128.46741,92.6283147 C127.285668,93.2603171 126.128969,93.6515151 122.88103,93.6515151 L122.88103,93.6515151 L17.1189698,93.6515151 C13.8710313,93.6515151 12.714332,93.2603171 11.5325903,92.6283147 C10.2352224,91.9344747 9.2170404,90.9162928 8.52320043,89.6189248 C7.89119807,88.4371832 7.5,87.2804839 7.5,84.0325454 L7.5,84.0325454 L7.5,10.270485 C7.5,7.02254644 7.89119807,5.86584713 8.52320043,4.68410547 C9.2170404,3.38673752 10.2352224,2.36855556 11.5325903,1.67471558 C12.714332,1.04271322 13.8710313,0.65151515 17.1189698,0.65151515 L17.1189698,0.65151515 L122.88103,0.65151515 Z"/>
    <path fill="#FFF" fill-rule="nonzero" stroke="#3B3B3B" stroke-width="3" d="M120.726858,7.65151515 C122.637519,7.65151515 123.309289,7.90347479 124.002141,8.27401648 C124.81062,8.70639579 125.445119,9.34089485 125.877499,10.1493739 C126.24804,10.8422266 126.5,11.5139965 126.5,13.4246567 L126.5,13.4246567 L126.5,80.8783736 C126.5,82.7890338 126.24804,83.4608037 125.877499,84.1536564 C125.445119,84.9621355 124.81062,85.5966345 124.002141,86.0290138 C123.309289,86.3995555 122.637519,86.6515151 120.726858,86.6515151 L120.726858,86.6515151 L19.2731416,86.6515151 C17.3624813,86.6515151 16.6907114,86.3995555 15.9978587,86.0290138 C15.1893797,85.5966345 14.5548806,84.9621355 14.1225013,84.1536564 C13.7519596,83.4608037 13.5,82.7890338 13.5,80.8783736 L13.5,80.8783736 L13.5,13.4246567 C13.5,11.5139965 13.7519596,10.8422266 14.1225013,10.1493739 C14.5548806,9.34089485 15.1893797,8.70639579 15.9978587,8.27401648 C16.6907114,7.90347479 17.3624813,7.65151515 19.2731416,7.65151515 L19.2731416,7.65151515 L120.726858,7.65151515 Z"/>
    <path fill="#D0D0D0" fill-rule="nonzero" stroke="#3B3B3B" stroke-width="3" d="M135.436115,99.5 C136.752429,99.5 137.208675,99.6900759 137.684244,99.9444129 C138.275439,100.260588 138.739412,100.724561 139.055587,101.315756 C139.309924,101.791325 139.5,102.247571 139.5,103.563885 L139.5,103.563885 L139.5,108.02045 C139.5,109.75489 139.133187,111.240073 138.4768,112.46741 C137.78296,113.764778 136.764778,114.78296 135.46741,115.4768 C134.240073,116.133187 132.75489,116.5 131.02045,116.5 L131.02045,116.5 L8.97955016,116.5 C7.24510972,116.5 5.75992718,116.133187 4.53259032,115.4768 C3.23522237,114.78296 2.21704041,113.764778 1.52320043,112.46741 C0.86681349,111.240073 0.5,109.75489 0.5,108.02045 L0.5,108.02045 L0.5,103.563885 C0.5,102.247571 0.69007591,101.791325 0.94441291,101.315756 C1.26058751,100.724561 1.7245609,100.260588 2.31575601,99.9444129 C2.79132484,99.6900759 3.24757063,99.5 4.5638852,99.5 L4.5638852,99.5 L135.436115,99.5 Z"/>
    <path fill="#444" fill-rule="nonzero" stroke="#3B3B3B" stroke-width="1.727" d="M54.5,101 L85.5,101 C86.8807119,101 88,102.119288 88,103.5 C88,104.880712 86.8807119,106 85.5,106 L54.5,106 C53.1192881,106 52,104.880712 52,103.5 C52,102.119288 53.1192881,101 54.5,101 Z"/>
    <g transform="translate(50 15.152)">
      <circle cx="20" cy="20" r="19.5" stroke="#3B3B3B" stroke-width="3"/>
      <g transform="translate(2 2)">
        <mask id="icon_security-b" fill="#fff">
          <use xlink:href="#icon_security-a"/>
        </mask>
        <g fill-rule="nonzero" mask="url(#icon_security-b)">
          <g transform="translate(5.059 10.157)">
            <path fill="#C6CCE1" stroke="#3B3B3B" stroke-width="3" d="M12.9411765,0 C16.4064925,0 19.2156863,2.80919373 19.2156863,6.2745098 C19.2156863,9.73982588 16.4064925,12.5490196 12.9411765,12.5490196 C9.47586039,12.5490196 6.66666667,9.73982588 6.66666667,6.2745098 C6.66666667,2.80919373 9.47586039,0 12.9411765,0 Z"/>
            <path fill="#5265AC" stroke="#3B3B3B" stroke-width="3" d="M12.2814876,14.1176471 L13.6008654,14.1176471 C16.3075074,14.1176471 18.454476,14.628734 20.2489858,15.5884483 C22.0434956,16.5481626 23.4518374,17.9565044 24.4115517,19.7510142 C25.371266,21.545524 25.8823529,23.6924926 25.8823529,26.3991346 L25.8823529,26.9341987 C25.8823529,29.6408408 25.371266,31.7878093 24.4115517,33.5823191 C23.4518374,35.3768289 22.0434956,36.7851707 20.2489858,37.744885 C18.454476,38.7045994 16.3075074,39.2156863 13.6008654,39.2156863 L12.2814876,39.2156863 C9.57484552,39.2156863 7.42787699,38.7045994 5.63336719,37.744885 C3.83885738,36.7851707 2.43051558,35.3768289 1.47080124,33.5823191 C0.511086894,31.7878093 2.1537164e-16,29.6408408 2.1537164e-16,26.9341987 L2.1537164e-16,26.3991346 C2.1537164e-16,23.6924926 0.511086894,21.545524 1.47080124,19.7510142 C2.43051558,17.9565044 3.83885738,16.5481626 5.63336719,15.5884483 C7.42787699,14.628734 9.57484552,14.1176471 12.2814876,14.1176471 Z"/>
            <path fill="#C6CCE1" d="M10.5427837,21.5376268 C10.5427837,25.2195251 13.5275521,28.2042934 17.2094504,28.2042934 C19.2485629,28.2042934 21.0738534,27.2888122 22.2967282,25.8464434 C21.5089236,29.0908061 18.5853786,31.4987958 15.0994176,31.4987958 C11.0084194,31.4987958 7.69201018,28.1823865 7.69201018,24.0913884 C7.69201018,21.0995051 9.46578652,18.5219094 12.0190998,17.3528408 C11.0958774,18.4969069 10.5427837,19.9526759 10.5427837,21.5376268 Z" transform="rotate(-103 14.994 24.426)"/>
          </g>
        </g>
      </g>
    </g>
    <g fill-rule="nonzero" transform="translate(40 63.152)">
      <path fill="#444" d="M7.04545455,0 L52.9545455,0 C56.8456426,0 60,3.15435744 60,7.04545455 C60,10.9365516 56.8456426,14.0909091 52.9545455,14.0909091 L7.04545455,14.0909091 C3.15435744,14.0909091 0,10.9365516 0,7.04545455 C0,3.15435744 3.15435744,0 7.04545455,0 Z"/>
      <g transform="translate(10.273 3.524)">
        <circle cx="3.5" cy="3.5" r="3.5" fill="#FFF"/>
        <path fill="#A4A4A4" d="M2.0350664,2.74148229 C2.0350664,4.02551744 3.09693235,5.0664336 4.40681039,5.0664336 C5.02155997,5.0664336 5.58168252,4.83716187 6.00304849,4.46108815 C5.60109469,5.36686885 4.68048796,6 3.60902934,6 C2.16810222,6 1,4.85494354 1,3.4424448 C1,2.29335993 1.7730524,1.32126889 2.83715424,0.998665093 C2.34532672,1.42437168 2.0350664,2.04740923 2.0350664,2.74148229 Z"/>
      </g>
      <g transform="translate(21.273 3.524)">
        <circle cx="3.5" cy="3.5" r="3.5" fill="#FFF"/>
        <path fill="#A4A4A4" d="M2.0350664,2.74148229 C2.0350664,4.02551744 3.09693235,5.0664336 4.40681039,5.0664336 C5.02155997,5.0664336 5.58168252,4.83716187 6.00304849,4.46108815 C5.60109469,5.36686885 4.68048796,6 3.60902934,6 C2.16810222,6 1,4.85494354 1,3.4424448 C1,2.29335993 1.7730524,1.32126889 2.83715424,0.998665093 C2.34532672,1.42437168 2.0350664,2.04740923 2.0350664,2.74148229 Z"/>
      </g>
      <g transform="translate(32.273 3.524)">
        <circle cx="3.5" cy="3.5" r="3.5" fill="#FFF"/>
        <path fill="#A4A4A4" d="M2.0350664,2.74148229 C2.0350664,4.02551744 3.09693235,5.0664336 4.40681039,5.0664336 C5.02155997,5.0664336 5.58168252,4.83716187 6.00304849,4.46108815 C5.60109469,5.36686885 4.68048796,6 3.60902934,6 C2.16810222,6 1,4.85494354 1,3.4424448 C1,2.29335993 1.7730524,1.32126889 2.83715424,0.998665093 C2.34532672,1.42437168 2.0350664,2.04740923 2.0350664,2.74148229 Z"/>
      </g>
      <g transform="translate(43.273 3.524)">
        <circle cx="3.5" cy="3.5" r="3.5" fill="#FFF"/>
        <path fill="#A4A4A4" d="M2.0350664,2.74148229 C2.0350664,4.02551744 3.09693235,5.0664336 4.40681039,5.0664336 C5.02155997,5.0664336 5.58168252,4.83716187 6.00304849,4.46108815 C5.60109469,5.36686885 4.68048796,6 3.60902934,6 C2.16810222,6 1,4.85494354 1,3.4424448 C1,2.29335993 1.7730524,1.32126889 2.83715424,0.998665093 C2.34532672,1.42437168 2.0350664,2.04740923 2.0350664,2.74148229 Z"/>
      </g>
    </g>
  </g>
</svg>
