<svg xmlns="http://www.w3.org/2000/svg" width="150" height="130" viewBox="0 0 150 130">
  <g fill="none" fill-rule="evenodd" transform="translate(4 4)">
    <circle cx="70.017" cy="71.929" r="51.631" fill="#FFF" fill-rule="nonzero" stroke="#3B3B3B" stroke-width="3"/>
    <g transform="translate(51)">
      <circle cx="16.017" cy="15.298" r="15.298" fill="#FFF" transform="translate(4 5)"/>
      <circle cx="20.017" cy="20.298" r="19.744" stroke="#FFF" stroke-width="8.892"/>
      <circle cx="16.017" cy="15.298" r="15.298" stroke="#3B3B3B" stroke-width="3" transform="translate(4 5)"/>
    </g>
    <g fill-rule="nonzero" transform="translate(48 57)">
      <path fill="#5265AC" d="M2,2.22044605e-16 L17,2.22044605e-16 C18.1045695,2.22044605e-16 19,0.8954305 19,2 C19,3.1045695 18.1045695,4 17,4 L2,4 C0.8954305,4 0,3.1045695 0,2 C0,0.8954305 0.8954305,2.22044605e-16 2,2.22044605e-16 Z"/>
      <path fill="#3B3B3B" d="M2,20 L24,20 C25.1045695,20 26,20.8954305 26,22 C26,23.1045695 25.1045695,24 24,24 L2,24 C0.8954305,24 0,23.1045695 0,22 C0,20.8954305 0.8954305,20 2,20 Z"/>
      <path fill="#C6CCE1" d="M14,27 L30,27 C31.1045695,27 32,27.8954305 32,29 C32,30.1045695 31.1045695,31 30,31 L14,31 C12.8954305,31 12,30.1045695 12,29 C12,27.8954305 12.8954305,27 14,27 Z"/>
      <path fill="#3B3B3B" d="M2,7 L17,7 C18.1045695,7 19,7.8954305 19,9 C19,10.1045695 18.1045695,11 17,11 L2,11 C0.8954305,11 0,10.1045695 0,9 C0,7.8954305 0.8954305,7 2,7 Z"/>
      <path fill="#A4A4A4" d="M19,14 L34,14 C35.1045695,14 36,14.8954305 36,16 C36,17.1045695 35.1045695,18 34,18 L19,18 C17.8954305,18 17,17.1045695 17,16 C17,14.8954305 17.8954305,14 19,14 Z"/>
      <path fill="#3B3B3B" d="M2,27 L7,27 C8.1045695,27 9,27.8954305 9,29 C9,30.1045695 8.1045695,31 7,31 L2,31 C0.8954305,31 0,30.1045695 0,29 C0,27.8954305 0.8954305,27 2,27 Z"/>
      <path fill="#5265AC" d="M2 14L12 14C13.1045695 14 14 14.8954305 14 16 14 17.1045695 13.1045695 18 12 18L2 18C.8954305 18 0 17.1045695 0 16 0 14.8954305.8954305 14 2 14zM31 20L41 20C42.1045695 20 43 20.8954305 43 22 43 23.1045695 42.1045695 24 41 24L31 24C29.8954305 24 29 23.1045695 29 22 29 20.8954305 29.8954305 20 31 20z"/>
      <path fill="#C6CCE1" d="M35,0 L45,0 C46.1045695,0 47,0.8954305 47,2 C47,3.1045695 46.1045695,4 45,4 L35,4 C33.8954305,4 33,3.1045695 33,2 C33,0.8954305 33.8954305,0 35,0 Z"/>
      <path fill="#3B3B3B" d="M24,2.22044605e-16 L28,2.22044605e-16 C29.1045695,2.22044605e-16 30,0.8954305 30,2 C30,3.1045695 29.1045695,4 28,4 L24,4 C22.8954305,4 22,3.1045695 22,2 C22,0.8954305 22.8954305,2.22044605e-16 24,2.22044605e-16 Z"/>
      <path fill="#24387D" d="M2 34L22 34C23.1045695 34 24 34.8954305 24 36 24 37.1045695 23.1045695 38 22 38L2 38C.8954305 38 0 37.1045695 0 36 0 34.8954305.8954305 34 2 34zM24 7L36 7C37.1045695 7 38 7.8954305 38 9 38 10.1045695 37.1045695 11 36 11L24 11C22.8954305 11 22 10.1045695 22 9 22 7.8954305 22.8954305 7 24 7z"/>
      <path fill="#3B3B3B" d="M29,34 L37,34 C38.1045695,34 39,34.8954305 39,36 C39,37.1045695 38.1045695,38 37,38 L29,38 C27.8954305,38 27,37.1045695 27,36 C27,34.8954305 27.8954305,34 29,34 Z"/>
    </g>
    <g transform="translate(0 71)">
      <circle cx="15.298" cy="16.052" r="15.298" fill="#FFF" transform="translate(5 4)"/>
      <circle cx="20.298" cy="20.052" r="19.744" stroke="#FFF" stroke-width="8.892"/>
      <circle cx="15.298" cy="16.052" r="15.298" stroke="#3B3B3B" stroke-width="3" transform="translate(5 4)"/>
    </g>
    <g transform="translate(101 71)">
      <circle cx="15.648" cy="16.052" r="15.298" fill="#FFF" transform="translate(5 4)"/>
      <circle cx="20.648" cy="20.052" r="19.744" stroke="#FFF" stroke-width="8.892"/>
      <circle cx="15.648" cy="16.052" r="15.298" stroke="#3B3B3B" stroke-width="3" transform="translate(5 4)"/>
    </g>
    <path fill="#E1E1E1" fill-rule="nonzero" d="M63.7588803 17.0146662C63.7588803 22.9197117 68.6409759 27.7066969 74.6633459 27.7066969 77.4890914 27.7066969 80.0637982 26.6528118 82.0009394 24.9240383 80.1540302 29.0884994 75.9214904 32 70.9954222 32 64.3705335 32 59 26.7340924 59 20.2382661 59 14.9542966 62.5536057 10.4841467 67.4453164 9.00015595 65.1844104 10.9594022 63.7588803 13.8238022 63.7588803 17.0146662zM12.7588804 88.0146662C12.7588804 93.9197117 17.6409759 98.7066969 23.6633459 98.7066969 26.4890914 98.7066969 29.0637982 97.6528118 31.0009394 95.9240383 29.1547064 100.088034 24.9218839 103 19.9954222 103 13.3705335 103 8 97.7340924 8 91.2382661 8 85.9542965 11.5536057 81.4841467 16.4453164 80.0001559 14.1844104 81.9594022 12.7588804 84.8238022 12.7588804 88.0146662zM114.75888 88.0146662C114.75888 93.9197117 119.640976 98.7066969 125.663346 98.7066969 128.489091 98.7066969 131.063798 97.6528118 133.000939 95.9240383 131.15403 100.088499 126.92149 103 121.995422 103 115.370533 103 110 97.7340924 110 91.2382661 110 85.9542965 113.553606 81.4841467 118.445316 80.0001559 116.18441 81.9594022 114.75888 84.8238022 114.75888 88.0146662z"/>
  </g>
</svg>
