<svg xmlns="http://www.w3.org/2000/svg" xmlns:xlink="http://www.w3.org/1999/xlink" width="194" height="193" viewBox="0 0 194 193">
  <defs>
    <circle id="icon_attractivity-a" cx="31.045" cy="35.706" r="13.636"/>
    <circle id="icon_attractivity-c" cx="31.045" cy="98.706" r="13.636"/>
    <circle id="icon_attractivity-e" cx="1.045" cy="66.706" r="13.636"/>
    <circle id="icon_attractivity-g" cx="67.045" cy=".706" r="13.636"/>
    <circle id="icon_attractivity-i" cx="67.045" cy="66.388" r="13.636"/>
    <circle id="icon_attractivity-k" cx="67.045" cy="131.388" r="13.636"/>
  </defs>
  <g fill="none" fill-rule="evenodd" transform="translate(62.955 29.749)">
    <path fill="#3B3B3B" fill-rule="nonzero" d="M31.0454545 34.0909091C31.8738817 34.0909091 32.5454545 34.762482 32.5454545 35.5909091 32.5454545 36.3706052 31.9505665 37.0113578 31.1899146 37.0840425L31.0454545 37.0909091 12.8636364 37.0909091C7.50843154 37.0909091 3.14999462 41.3585798 3.00378941 46.6784575L3 46.9545455 3 87.8636364C3 93.2188412 7.26767073 97.5772781 12.5875484 97.7234833L12.8636364 97.7272727 31.0454545 97.7272727C31.8738817 97.7272727 32.5454545 98.3988456 32.5454545 99.2272727 32.5454545 100.006969 31.9505665 100.647721 31.1899146 100.720406L31.0454545 100.727273 12.8636364 100.727273C5.86220835 100.727273.167217206 95.1337516.00361557782 88.1716619L0 87.8636364 0 46.9545455C0 39.9531174 5.59352117 34.2581263 12.5556109 34.0945247L12.8636364 34.0909091 31.0454545 34.0909091zM65.8939394 0C66.7223665 0 67.3939394.671572875 67.3939394 1.5 67.3939394 2.27969612 66.7990513 2.92044868 66.0383994 2.99313342L65.8939394 3 47.7121212 3C42.3569164 3 37.9984795 7.26767073 37.8522743 12.5875484L37.8484848 12.8636364 37.8484848 53.7727273C37.8484848 59.1279321 42.1161556 63.486369 47.4360333 63.6325742L47.7121212 63.6363636 65.8939394 63.6363636C66.7223665 63.6363636 67.3939394 64.3079365 67.3939394 65.1363636 67.3939394 65.9160598 66.7990513 66.5568123 66.0383994 66.6294971L65.8939394 66.6363636 47.7121212 66.6363636C40.7106932 66.6363636 35.0157021 61.0428425 34.8521004 54.0807528L34.8484848 53.7727273 34.8484848 12.8636364C34.8484848 5.86220835 40.442006.167217206 47.4040957.00361557782L47.7121212 0 65.8939394 0z"/>
    <path fill="#3B3B3B" fill-rule="nonzero" d="M65.8939394,65.9090909 C66.7223665,65.9090909 67.3939394,66.5806638 67.3939394,67.4090909 C67.3939394,68.188787 66.7990513,68.8295396 66.0383994,68.9022243 L65.8939394,68.9090909 L47.7121212,68.9090909 C42.3569164,68.9090909 37.9984795,73.1767616 37.8522743,78.4966393 L37.8484848,78.7727273 L37.8484848,119.681818 C37.8484848,125.037023 42.1161556,129.39546 47.4360333,129.541665 L47.7121212,129.545455 L65.8939394,129.545455 C66.7223665,129.545455 67.3939394,130.217027 67.3939394,131.045455 C67.3939394,131.825151 66.7990513,132.465903 66.0383994,132.538588 L65.8939394,132.545455 L47.7121212,132.545455 C40.7106932,132.545455 35.0157021,126.951933 34.8521004,119.989844 L34.8484848,119.681818 L34.8484848,78.7727273 C34.8484848,71.7712993 40.442006,66.0763081 47.4040957,65.9127065 L47.7121212,65.9090909 L65.8939394,65.9090909 Z"/>
    <mask id="icon_attractivity-b" fill="#fff">
      <use xlink:href="#icon_attractivity-a"/>
    </mask>
    <circle cx="31.045" cy="35.706" r="15.136" stroke="#3B3B3B" stroke-width="3"/>
    <g mask="url(#icon_attractivity-b)">
      <g transform="translate(21.242 27.764)">
        <path fill="#C6CCE1" stroke="#3B3B3B" stroke-width="3" d="M9.80392157,0 C12.429161,-4.82248664e-16 14.5573381,2.12817707 14.5573381,4.75341652 C14.5573381,7.37865597 12.429161,9.50683304 9.80392157,9.50683304 C7.17868212,9.50683304 5.05050505,7.37865597 5.05050505,4.75341652 C5.05050505,2.12817707 7.17868212,4.82248664e-16 9.80392157,0 Z"/>
        <path fill="#5265AC" stroke="#3B3B3B" stroke-width="3" d="M9.30415726,10.6951872 L10.3036859,10.6951872 C12.3541723,10.6951872 13.9806636,11.0823742 15.3401407,11.8094305 C16.6996178,12.5364869 17.7665435,13.6034125 18.4935998,14.9628896 C19.2206561,16.3223667 19.6078431,17.948858 19.6078431,19.9993444 L19.6078431,20.404696 C19.6078431,22.4551824 19.2206561,24.0816737 18.4935998,25.4411508 C17.7665435,26.8006279 16.6996178,27.8675536 15.3401407,28.5946099 C13.9806636,29.3216662 12.3541723,29.7088532 10.3036859,29.7088532 L9.30415726,29.7088532 C7.25367085,29.7088532 5.62717954,29.3216662 4.26770241,28.5946099 C2.90822529,27.8675536 1.84129969,26.8006279 1.11424336,25.4411508 C0.387187041,24.0816737 -5.31573932e-14,22.4551824 -5.34085053e-14,20.404696 L-5.3172905e-14,19.9993444 C-5.34240172e-14,17.948858 0.387187041,16.3223667 1.11424336,14.9628896 C1.84129969,13.6034125 2.90822529,12.5364869 4.26770241,11.8094305 C5.62717954,11.0823742 7.25367085,10.6951872 9.30415726,10.6951872 Z"/>
        <path fill="#C6CCE1" d="M7.98694196,18.316552 C7.98694196,21.1058689 10.2481301,23.367057 13.037447,23.367057 C14.5821637,23.367057 15.9649076,22.6735695 16.8913274,21.5809461 C16.2948493,24.0384717 14.0799514,25.8628921 11.4389373,25.8628921 C8.33969626,25.8628921 5.827265,23.3504609 5.827265,20.2512199 C5.827265,17.9840952 7.17168288,16.0309762 9.10676214,15.1456193 C8.40621642,16.0122813 7.98694196,17.1154532 7.98694196,18.316552 Z" transform="rotate(-103 11.36 20.504)"/>
      </g>
    </g>
    <mask id="icon_attractivity-d" fill="#fff">
      <use xlink:href="#icon_attractivity-c"/>
    </mask>
    <circle cx="31.045" cy="98.706" r="15.136" stroke="#3B3B3B" stroke-width="3"/>
    <g mask="url(#icon_attractivity-d)">
      <g transform="translate(21.242 90.764)">
        <path fill="#C6CCE1" stroke="#3B3B3B" stroke-width="3" d="M9.80392157,0 C12.429161,-4.82248664e-16 14.5573381,2.12817707 14.5573381,4.75341652 C14.5573381,7.37865597 12.429161,9.50683304 9.80392157,9.50683304 C7.17868212,9.50683304 5.05050505,7.37865597 5.05050505,4.75341652 C5.05050505,2.12817707 7.17868212,4.82248664e-16 9.80392157,0 Z"/>
        <path fill="#5265AC" stroke="#3B3B3B" stroke-width="3" d="M9.30415726,10.6951872 L10.3036859,10.6951872 C12.3541723,10.6951872 13.9806636,11.0823742 15.3401407,11.8094305 C16.6996178,12.5364869 17.7665435,13.6034125 18.4935998,14.9628896 C19.2206561,16.3223667 19.6078431,17.948858 19.6078431,19.9993444 L19.6078431,20.404696 C19.6078431,22.4551824 19.2206561,24.0816737 18.4935998,25.4411508 C17.7665435,26.8006279 16.6996178,27.8675536 15.3401407,28.5946099 C13.9806636,29.3216662 12.3541723,29.7088532 10.3036859,29.7088532 L9.30415726,29.7088532 C7.25367085,29.7088532 5.62717954,29.3216662 4.26770241,28.5946099 C2.90822529,27.8675536 1.84129969,26.8006279 1.11424336,25.4411508 C0.387187041,24.0816737 -5.31573932e-14,22.4551824 -5.34085053e-14,20.404696 L-5.3172905e-14,19.9993444 C-5.34240172e-14,17.948858 0.387187041,16.3223667 1.11424336,14.9628896 C1.84129969,13.6034125 2.90822529,12.5364869 4.26770241,11.8094305 C5.62717954,11.0823742 7.25367085,10.6951872 9.30415726,10.6951872 Z"/>
        <path fill="#C6CCE1" d="M7.98694196,18.316552 C7.98694196,21.1058689 10.2481301,23.367057 13.037447,23.367057 C14.5821637,23.367057 15.9649076,22.6735695 16.8913274,21.5809461 C16.2948493,24.0384717 14.0799514,25.8628921 11.4389373,25.8628921 C8.33969626,25.8628921 5.827265,23.3504609 5.827265,20.2512199 C5.827265,17.9840952 7.17168288,16.0309762 9.10676214,15.1456193 C8.40621642,16.0122813 7.98694196,17.1154532 7.98694196,18.316552 Z" transform="rotate(-103 11.36 20.504)"/>
      </g>
    </g>
    <mask id="icon_attractivity-f" fill="#fff">
      <use xlink:href="#icon_attractivity-e"/>
    </mask>
    <circle cx="1.045" cy="66.706" r="15.136" stroke="#3B3B3B" stroke-width="3"/>
    <g mask="url(#icon_attractivity-f)">
      <g transform="translate(-8.758 58.764)">
        <path fill="#C6CCE1" stroke="#3B3B3B" stroke-width="3" d="M9.80392157,0 C12.429161,-4.82248664e-16 14.5573381,2.12817707 14.5573381,4.75341652 C14.5573381,7.37865597 12.429161,9.50683304 9.80392157,9.50683304 C7.17868212,9.50683304 5.05050505,7.37865597 5.05050505,4.75341652 C5.05050505,2.12817707 7.17868212,4.82248664e-16 9.80392157,0 Z"/>
        <path fill="#5265AC" stroke="#3B3B3B" stroke-width="3" d="M9.30415726,10.6951872 L10.3036859,10.6951872 C12.3541723,10.6951872 13.9806636,11.0823742 15.3401407,11.8094305 C16.6996178,12.5364869 17.7665435,13.6034125 18.4935998,14.9628896 C19.2206561,16.3223667 19.6078431,17.948858 19.6078431,19.9993444 L19.6078431,20.404696 C19.6078431,22.4551824 19.2206561,24.0816737 18.4935998,25.4411508 C17.7665435,26.8006279 16.6996178,27.8675536 15.3401407,28.5946099 C13.9806636,29.3216662 12.3541723,29.7088532 10.3036859,29.7088532 L9.30415726,29.7088532 C7.25367085,29.7088532 5.62717954,29.3216662 4.26770241,28.5946099 C2.90822529,27.8675536 1.84129969,26.8006279 1.11424336,25.4411508 C0.387187041,24.0816737 -5.31573932e-14,22.4551824 -5.34085053e-14,20.404696 L-5.3172905e-14,19.9993444 C-5.34240172e-14,17.948858 0.387187041,16.3223667 1.11424336,14.9628896 C1.84129969,13.6034125 2.90822529,12.5364869 4.26770241,11.8094305 C5.62717954,11.0823742 7.25367085,10.6951872 9.30415726,10.6951872 Z"/>
        <path fill="#C6CCE1" d="M7.98694196,18.316552 C7.98694196,21.1058689 10.2481301,23.367057 13.037447,23.367057 C14.5821637,23.367057 15.9649076,22.6735695 16.8913274,21.5809461 C16.2948493,24.0384717 14.0799514,25.8628921 11.4389373,25.8628921 C8.33969626,25.8628921 5.827265,23.3504609 5.827265,20.2512199 C5.827265,17.9840952 7.17168288,16.0309762 9.10676214,15.1456193 C8.40621642,16.0122813 7.98694196,17.1154532 7.98694196,18.316552 Z" transform="rotate(-103 11.36 20.504)"/>
      </g>
    </g>
    <mask id="icon_attractivity-h" fill="#fff">
      <use xlink:href="#icon_attractivity-g"/>
    </mask>
    <circle cx="67.045" cy=".706" r="15.136" stroke="#3B3B3B" stroke-width="3"/>
    <g mask="url(#icon_attractivity-h)">
      <g transform="translate(57.242 -7.236)">
        <path fill="#C6CCE1" stroke="#3B3B3B" stroke-width="3" d="M9.80392157,0 C12.429161,-4.82248664e-16 14.5573381,2.12817707 14.5573381,4.75341652 C14.5573381,7.37865597 12.429161,9.50683304 9.80392157,9.50683304 C7.17868212,9.50683304 5.05050505,7.37865597 5.05050505,4.75341652 C5.05050505,2.12817707 7.17868212,4.82248664e-16 9.80392157,0 Z"/>
        <path fill="#5265AC" stroke="#3B3B3B" stroke-width="3" d="M9.30415726,10.6951872 L10.3036859,10.6951872 C12.3541723,10.6951872 13.9806636,11.0823742 15.3401407,11.8094305 C16.6996178,12.5364869 17.7665435,13.6034125 18.4935998,14.9628896 C19.2206561,16.3223667 19.6078431,17.948858 19.6078431,19.9993444 L19.6078431,20.404696 C19.6078431,22.4551824 19.2206561,24.0816737 18.4935998,25.4411508 C17.7665435,26.8006279 16.6996178,27.8675536 15.3401407,28.5946099 C13.9806636,29.3216662 12.3541723,29.7088532 10.3036859,29.7088532 L9.30415726,29.7088532 C7.25367085,29.7088532 5.62717954,29.3216662 4.26770241,28.5946099 C2.90822529,27.8675536 1.84129969,26.8006279 1.11424336,25.4411508 C0.387187041,24.0816737 -5.31573932e-14,22.4551824 -5.34085053e-14,20.404696 L-5.3172905e-14,19.9993444 C-5.34240172e-14,17.948858 0.387187041,16.3223667 1.11424336,14.9628896 C1.84129969,13.6034125 2.90822529,12.5364869 4.26770241,11.8094305 C5.62717954,11.0823742 7.25367085,10.6951872 9.30415726,10.6951872 Z"/>
        <path fill="#C6CCE1" d="M7.98694196,18.316552 C7.98694196,21.1058689 10.2481301,23.367057 13.037447,23.367057 C14.5821637,23.367057 15.9649076,22.6735695 16.8913274,21.5809461 C16.2948493,24.0384717 14.0799514,25.8628921 11.4389373,25.8628921 C8.33969626,25.8628921 5.827265,23.3504609 5.827265,20.2512199 C5.827265,17.9840952 7.17168288,16.0309762 9.10676214,15.1456193 C8.40621642,16.0122813 7.98694196,17.1154532 7.98694196,18.316552 Z" transform="rotate(-103 11.36 20.504)"/>
      </g>
    </g>
    <mask id="icon_attractivity-j" fill="#fff">
      <use xlink:href="#icon_attractivity-i"/>
    </mask>
    <circle cx="67.045" cy="66.388" r="15.136" stroke="#3B3B3B" stroke-width="3"/>
    <g mask="url(#icon_attractivity-j)">
      <g transform="translate(57.242 58.446)">
        <path fill="#C6CCE1" stroke="#3B3B3B" stroke-width="3" d="M9.80392157,0 C12.429161,-4.82248664e-16 14.5573381,2.12817707 14.5573381,4.75341652 C14.5573381,7.37865597 12.429161,9.50683304 9.80392157,9.50683304 C7.17868212,9.50683304 5.05050505,7.37865597 5.05050505,4.75341652 C5.05050505,2.12817707 7.17868212,4.82248664e-16 9.80392157,0 Z"/>
        <path fill="#5265AC" stroke="#3B3B3B" stroke-width="3" d="M9.30415726,10.6951872 L10.3036859,10.6951872 C12.3541723,10.6951872 13.9806636,11.0823742 15.3401407,11.8094305 C16.6996178,12.5364869 17.7665435,13.6034125 18.4935998,14.9628896 C19.2206561,16.3223667 19.6078431,17.948858 19.6078431,19.9993444 L19.6078431,20.404696 C19.6078431,22.4551824 19.2206561,24.0816737 18.4935998,25.4411508 C17.7665435,26.8006279 16.6996178,27.8675536 15.3401407,28.5946099 C13.9806636,29.3216662 12.3541723,29.7088532 10.3036859,29.7088532 L9.30415726,29.7088532 C7.25367085,29.7088532 5.62717954,29.3216662 4.26770241,28.5946099 C2.90822529,27.8675536 1.84129969,26.8006279 1.11424336,25.4411508 C0.387187041,24.0816737 -5.31573932e-14,22.4551824 -5.34085053e-14,20.404696 L-5.3172905e-14,19.9993444 C-5.34240172e-14,17.948858 0.387187041,16.3223667 1.11424336,14.9628896 C1.84129969,13.6034125 2.90822529,12.5364869 4.26770241,11.8094305 C5.62717954,11.0823742 7.25367085,10.6951872 9.30415726,10.6951872 Z"/>
        <path fill="#C6CCE1" d="M7.98694196,18.316552 C7.98694196,21.1058689 10.2481301,23.367057 13.037447,23.367057 C14.5821637,23.367057 15.9649076,22.6735695 16.8913274,21.5809461 C16.2948493,24.0384717 14.0799514,25.8628921 11.4389373,25.8628921 C8.33969626,25.8628921 5.827265,23.3504609 5.827265,20.2512199 C5.827265,17.9840952 7.17168288,16.0309762 9.10676214,15.1456193 C8.40621642,16.0122813 7.98694196,17.1154532 7.98694196,18.316552 Z" transform="rotate(-103 11.36 20.504)"/>
      </g>
    </g>
    <mask id="icon_attractivity-l" fill="#fff">
      <use xlink:href="#icon_attractivity-k"/>
    </mask>
    <circle cx="67.045" cy="131.388" r="15.136" stroke="#3B3B3B" stroke-width="3"/>
    <g mask="url(#icon_attractivity-l)">
      <g transform="translate(57.242 123.446)">
        <path fill="#C6CCE1" stroke="#3B3B3B" stroke-width="3" d="M9.80392157,0 C12.429161,-4.82248664e-16 14.5573381,2.12817707 14.5573381,4.75341652 C14.5573381,7.37865597 12.429161,9.50683304 9.80392157,9.50683304 C7.17868212,9.50683304 5.05050505,7.37865597 5.05050505,4.75341652 C5.05050505,2.12817707 7.17868212,4.82248664e-16 9.80392157,0 Z"/>
        <path fill="#5265AC" stroke="#3B3B3B" stroke-width="3" d="M9.30415726,10.6951872 L10.3036859,10.6951872 C12.3541723,10.6951872 13.9806636,11.0823742 15.3401407,11.8094305 C16.6996178,12.5364869 17.7665435,13.6034125 18.4935998,14.9628896 C19.2206561,16.3223667 19.6078431,17.948858 19.6078431,19.9993444 L19.6078431,20.404696 C19.6078431,22.4551824 19.2206561,24.0816737 18.4935998,25.4411508 C17.7665435,26.8006279 16.6996178,27.8675536 15.3401407,28.5946099 C13.9806636,29.3216662 12.3541723,29.7088532 10.3036859,29.7088532 L9.30415726,29.7088532 C7.25367085,29.7088532 5.62717954,29.3216662 4.26770241,28.5946099 C2.90822529,27.8675536 1.84129969,26.8006279 1.11424336,25.4411508 C0.387187041,24.0816737 -5.31573932e-14,22.4551824 -5.34085053e-14,20.404696 L-5.3172905e-14,19.9993444 C-5.34240172e-14,17.948858 0.387187041,16.3223667 1.11424336,14.9628896 C1.84129969,13.6034125 2.90822529,12.5364869 4.26770241,11.8094305 C5.62717954,11.0823742 7.25367085,10.6951872 9.30415726,10.6951872 Z"/>
        <path fill="#C6CCE1" d="M7.98694196,18.316552 C7.98694196,21.1058689 10.2481301,23.367057 13.037447,23.367057 C14.5821637,23.367057 15.9649076,22.6735695 16.8913274,21.5809461 C16.2948493,24.0384717 14.0799514,25.8628921 11.4389373,25.8628921 C8.33969626,25.8628921 5.827265,23.3504609 5.827265,20.2512199 C5.827265,17.9840952 7.17168288,16.0309762 9.10676214,15.1456193 C8.40621642,16.0122813 7.98694196,17.1154532 7.98694196,18.316552 Z" transform="rotate(-103 11.36 20.504)"/>
      </g>
    </g>
  </g>
</svg>
