<svg xmlns="http://www.w3.org/2000/svg" width="512" height="512" viewBox="0 0 512 512">
  <g fill="none" transform="translate(-.87 -.17)">
    <circle cx="256.37" cy="255.67" r="255.5" fill="#24397D"/>
    <path fill="#C7CDE2" d="M161.807991 352.17C156.015775 352.223575 150.439026 349.975782 146.3041 345.919953L71.2725504 270.749012C62.7358165 262.189009 62.7358165 248.336646 71.2725504 239.776643L146.3041 164.757379C151.816897 159.122451 159.932919 156.884002 167.555506 158.896111 175.178093 160.908219 181.131332 166.860483 183.14377 174.481822 185.156209 182.103162 182.917393 190.217854 177.281542 195.729748L117.723542 255.277995 177.281542 314.795907C183.532957 321.059291 185.40083 330.468407 182.015833 338.644159 178.630835 346.819911 170.658011 352.156028 161.807991 352.17L161.807991 352.17zM348.661859 352.17C339.770553 352.121249 331.790294 346.716849 328.462869 338.490818 325.135444 330.264787 327.120639 320.848243 333.487636 314.656419L394.518361 255.464289 333.426939 196.241881C325.184091 187.754574 325.194743 174.268268 333.450988 165.793932 341.707233 157.319596 355.219467 156.925804 363.957476 164.90487L441.22462 239.780645C445.472562 243.891945 447.87 249.544635 447.87 255.44915 447.87 261.353665 445.472562 267.006355 441.22462 271.117655L363.927127 345.932875C359.852779 349.924606 354.372302 352.163834 348.661859 352.17z"/>
    <path fill="#FFF" d="M221.910713,391.17 C219.861889,391.17 217.822203,390.897102 215.847333,390.351928 C204.208293,387.072804 197.425321,374.992914 200.688884,363.356035 L264.839443,136.117873 C266.973186,128.583963 272.966591,122.759988 280.561999,120.839783 C288.157408,118.919577 296.200897,121.194867 301.662562,126.808572 C307.124226,132.422277 309.174311,140.521541 307.040567,148.055451 L242.890008,375.293613 C240.215972,384.665037 231.661623,391.13866 221.910713,391.17 L221.910713,391.17 Z"/>
  </g>
</svg>
